M48
; DRILL file {KiCad (6.0.7-1)-1} date Saturday, September 17, 2022 at 12:17:12 AM
; FORMAT={-:-/ absolute / inch / decimal}
; #@! TF.CreationDate,2022-09-17T00:17:12-04:00
; #@! TF.GenerationSoftware,Kicad,Pcbnew,(6.0.7-1)-1
; #@! TF.FileFunction,Plated,1,2,PTH
FMAT,2
INCH
; #@! TA.AperFunction,Plated,PTH,ViaDrill
T1C0.0157
; #@! TA.AperFunction,Plated,PTH,ComponentDrill
T2C0.0300
; #@! TA.AperFunction,Plated,PTH,ComponentDrill
T3C0.0315
; #@! TA.AperFunction,Plated,PTH,ComponentDrill
T4C0.0394
; #@! TA.AperFunction,Plated,PTH,ComponentDrill
T5C0.0433
%
G90
G05
T1
X4.675Y-3.05
X5.7Y-1.825
T2
X5.15Y-1.925
X5.15Y-2.675
X5.25Y-1.925
X5.25Y-2.675
X5.35Y-1.925
X5.35Y-2.675
X5.45Y-1.925
X5.45Y-2.675
X5.55Y-1.925
X5.55Y-2.675
X5.65Y-1.925
X5.65Y-2.675
X5.75Y-1.925
X5.75Y-2.675
X5.85Y-1.925
X5.85Y-2.675
T3
X3.3Y-1.95
X3.3Y-2.85
X3.4Y-1.95
X3.4Y-2.85
X3.5Y-1.95
X3.5Y-2.85
X3.6Y-1.95
X3.6Y-2.85
X3.7Y-1.95
X3.7Y-2.85
X3.8Y-1.95
X3.8Y-2.2
X3.8Y-2.6
X3.8Y-2.85
X3.9Y-1.95
X3.9Y-2.85
X4.0Y-1.95
X4.0Y-2.2
X4.0Y-2.6
X4.0Y-2.85
X4.1Y-1.95
X4.1Y-2.85
X4.2Y-1.95
X4.2Y-2.2
X4.2Y-2.6
X4.2Y-2.85
X4.3Y-1.95
X4.3Y-2.85
X4.4Y-1.95
X4.4Y-2.85
X4.5Y-1.95
X4.5Y-2.85
X4.6Y-1.95
X4.6Y-2.85
X4.7Y-1.95
X4.7Y-2.85
X4.9Y-1.95
X4.9Y-2.35
X5.075Y-2.825
X5.475Y-2.825
T4
X3.35Y-3.1
X3.35Y-3.2
X3.35Y-3.3
X3.35Y-3.4
T5
X3.05Y-3.05
X3.05Y-3.15
X3.35Y-1.55
X3.35Y-1.7272
X3.6059Y-1.55
X3.6059Y-1.7272
X3.9Y-1.55
X3.9Y-1.7272
X4.1559Y-1.55
X4.1559Y-1.7272
X4.4488Y-1.55
X4.4488Y-1.7272
X4.7047Y-1.55
X4.7047Y-1.7272
X5.05Y-3.4
X5.15Y-3.4
X5.25Y-1.6
X5.35Y-1.6
X5.35Y-3.4
X5.45Y-1.6
X5.45Y-3.4
X5.65Y-1.6
X5.75Y-1.6
X5.8Y-2.875
X5.8Y-2.975
X5.8Y-3.075
X5.8Y-3.25
X5.8Y-3.35
X5.8Y-3.45
X5.85Y-1.6
T0
M30
