%TF.GenerationSoftware,KiCad,Pcbnew,(6.0.7-1)-1*%
%TF.CreationDate,2022-09-17T00:17:16-04:00*%
%TF.ProjectId,MQTT Relay,4d515454-2052-4656-9c61-792e6b696361,rev?*%
%TF.SameCoordinates,Original*%
%TF.FileFunction,Legend,Top*%
%TF.FilePolarity,Positive*%
%FSLAX46Y46*%
G04 Gerber Fmt 4.6, Leading zero omitted, Abs format (unit mm)*
G04 Created by KiCad (PCBNEW (6.0.7-1)-1) date 2022-09-17 00:17:16*
%MOMM*%
%LPD*%
G01*
G04 APERTURE LIST*
%ADD10C,0.150000*%
%ADD11C,0.175000*%
%ADD12C,0.120000*%
G04 APERTURE END LIST*
D10*
X141692380Y-86970952D02*
X141692380Y-86399523D01*
X142692380Y-86685238D02*
X141692380Y-86685238D01*
X142692380Y-86066190D02*
X142025714Y-86066190D01*
X142120952Y-86066190D02*
X142073333Y-86018571D01*
X142025714Y-85923333D01*
X142025714Y-85780476D01*
X142073333Y-85685238D01*
X142168571Y-85637619D01*
X142692380Y-85637619D01*
X142168571Y-85637619D02*
X142073333Y-85590000D01*
X142025714Y-85494761D01*
X142025714Y-85351904D01*
X142073333Y-85256666D01*
X142168571Y-85209047D01*
X142692380Y-85209047D01*
X142025714Y-84732857D02*
X143025714Y-84732857D01*
X142073333Y-84732857D02*
X142025714Y-84637619D01*
X142025714Y-84447142D01*
X142073333Y-84351904D01*
X142120952Y-84304285D01*
X142216190Y-84256666D01*
X142501904Y-84256666D01*
X142597142Y-84304285D01*
X142644761Y-84351904D01*
X142692380Y-84447142D01*
X142692380Y-84637619D01*
X142644761Y-84732857D01*
X141692380Y-83637619D02*
X141692380Y-83542380D01*
X141740000Y-83447142D01*
X141787619Y-83399523D01*
X141882857Y-83351904D01*
X142073333Y-83304285D01*
X142311428Y-83304285D01*
X142501904Y-83351904D01*
X142597142Y-83399523D01*
X142644761Y-83447142D01*
X142692380Y-83542380D01*
X142692380Y-83637619D01*
X142644761Y-83732857D01*
X142597142Y-83780476D01*
X142501904Y-83828095D01*
X142311428Y-83875714D01*
X142073333Y-83875714D01*
X141882857Y-83828095D01*
X141787619Y-83780476D01*
X141740000Y-83732857D01*
X141692380Y-83637619D01*
X142406666Y-77398333D02*
X142406666Y-76922142D01*
X142692380Y-77493571D02*
X141692380Y-77160238D01*
X142692380Y-76826904D01*
X142025714Y-76065000D02*
X142692380Y-76065000D01*
X142025714Y-76493571D02*
X142549523Y-76493571D01*
X142644761Y-76445952D01*
X142692380Y-76350714D01*
X142692380Y-76207857D01*
X142644761Y-76112619D01*
X142597142Y-76065000D01*
X142692380Y-75160238D02*
X141692380Y-75160238D01*
X142644761Y-75160238D02*
X142692380Y-75255476D01*
X142692380Y-75445952D01*
X142644761Y-75541190D01*
X142597142Y-75588809D01*
X142501904Y-75636428D01*
X142216190Y-75636428D01*
X142120952Y-75588809D01*
X142073333Y-75541190D01*
X142025714Y-75445952D01*
X142025714Y-75255476D01*
X142073333Y-75160238D01*
X142692380Y-74684047D02*
X142025714Y-74684047D01*
X141692380Y-74684047D02*
X141740000Y-74731666D01*
X141787619Y-74684047D01*
X141740000Y-74636428D01*
X141692380Y-74684047D01*
X141787619Y-74684047D01*
X142692380Y-74065000D02*
X142644761Y-74160238D01*
X142597142Y-74207857D01*
X142501904Y-74255476D01*
X142216190Y-74255476D01*
X142120952Y-74207857D01*
X142073333Y-74160238D01*
X142025714Y-74065000D01*
X142025714Y-73922142D01*
X142073333Y-73826904D01*
X142120952Y-73779285D01*
X142216190Y-73731666D01*
X142501904Y-73731666D01*
X142597142Y-73779285D01*
X142644761Y-73826904D01*
X142692380Y-73922142D01*
X142692380Y-74065000D01*
X82550000Y-88900000D02*
X82550000Y-76200000D01*
X120650000Y-88900000D02*
X82550000Y-88900000D01*
X120650000Y-76200000D02*
X120650000Y-88900000D01*
X82550000Y-76200000D02*
X120650000Y-76200000D01*
X75382380Y-74120238D02*
X74382380Y-74120238D01*
X74382380Y-73739285D01*
X74430000Y-73644047D01*
X74477619Y-73596428D01*
X74572857Y-73548809D01*
X74715714Y-73548809D01*
X74810952Y-73596428D01*
X74858571Y-73644047D01*
X74906190Y-73739285D01*
X74906190Y-74120238D01*
X74715714Y-73215476D02*
X75382380Y-73025000D01*
X74906190Y-72834523D01*
X75382380Y-72644047D01*
X74715714Y-72453571D01*
X75382380Y-72072619D02*
X74715714Y-72072619D01*
X74906190Y-72072619D02*
X74810952Y-72025000D01*
X74763333Y-71977380D01*
X74715714Y-71882142D01*
X74715714Y-71786904D01*
X128611428Y-81732380D02*
X128611428Y-80732380D01*
X129087619Y-81065714D02*
X129087619Y-81732380D01*
X129087619Y-81160952D02*
X129135238Y-81113333D01*
X129230476Y-81065714D01*
X129373333Y-81065714D01*
X129468571Y-81113333D01*
X129516190Y-81208571D01*
X129516190Y-81732380D01*
X130516190Y-81732380D02*
X129944761Y-81732380D01*
X130230476Y-81732380D02*
X130230476Y-80732380D01*
X130135238Y-80875238D01*
X130040000Y-80970476D01*
X129944761Y-81018095D01*
X134199523Y-46172380D02*
X133866190Y-45696190D01*
X133628095Y-46172380D02*
X133628095Y-45172380D01*
X134009047Y-45172380D01*
X134104285Y-45220000D01*
X134151904Y-45267619D01*
X134199523Y-45362857D01*
X134199523Y-45505714D01*
X134151904Y-45600952D01*
X134104285Y-45648571D01*
X134009047Y-45696190D01*
X133628095Y-45696190D01*
X135009047Y-46124761D02*
X134913809Y-46172380D01*
X134723333Y-46172380D01*
X134628095Y-46124761D01*
X134580476Y-46029523D01*
X134580476Y-45648571D01*
X134628095Y-45553333D01*
X134723333Y-45505714D01*
X134913809Y-45505714D01*
X135009047Y-45553333D01*
X135056666Y-45648571D01*
X135056666Y-45743809D01*
X134580476Y-45839047D01*
X135628095Y-46172380D02*
X135532857Y-46124761D01*
X135485238Y-46029523D01*
X135485238Y-45172380D01*
X136437619Y-46172380D02*
X136437619Y-45648571D01*
X136390000Y-45553333D01*
X136294761Y-45505714D01*
X136104285Y-45505714D01*
X136009047Y-45553333D01*
X136437619Y-46124761D02*
X136342380Y-46172380D01*
X136104285Y-46172380D01*
X136009047Y-46124761D01*
X135961428Y-46029523D01*
X135961428Y-45934285D01*
X136009047Y-45839047D01*
X136104285Y-45791428D01*
X136342380Y-45791428D01*
X136437619Y-45743809D01*
X136818571Y-45505714D02*
X137056666Y-46172380D01*
X137294761Y-45505714D02*
X137056666Y-46172380D01*
X136961428Y-46410476D01*
X136913809Y-46458095D01*
X136818571Y-46505714D01*
X137866190Y-45172380D02*
X137961428Y-45172380D01*
X138056666Y-45220000D01*
X138104285Y-45267619D01*
X138151904Y-45362857D01*
X138199523Y-45553333D01*
X138199523Y-45791428D01*
X138151904Y-45981904D01*
X138104285Y-46077142D01*
X138056666Y-46124761D01*
X137961428Y-46172380D01*
X137866190Y-46172380D01*
X137770952Y-46124761D01*
X137723333Y-46077142D01*
X137675714Y-45981904D01*
X137628095Y-45791428D01*
X137628095Y-45553333D01*
X137675714Y-45362857D01*
X137723333Y-45267619D01*
X137770952Y-45220000D01*
X137866190Y-45172380D01*
D11*
X89476666Y-78356666D02*
X89476666Y-78856666D01*
X89443333Y-78956666D01*
X89376666Y-79023333D01*
X89276666Y-79056666D01*
X89210000Y-79056666D01*
X90143333Y-79056666D02*
X89810000Y-79056666D01*
X89810000Y-78356666D01*
X90610000Y-78690000D02*
X90710000Y-78723333D01*
X90743333Y-78756666D01*
X90776666Y-78823333D01*
X90776666Y-78923333D01*
X90743333Y-78990000D01*
X90710000Y-79023333D01*
X90643333Y-79056666D01*
X90376666Y-79056666D01*
X90376666Y-78356666D01*
X90610000Y-78356666D01*
X90676666Y-78390000D01*
X90710000Y-78423333D01*
X90743333Y-78490000D01*
X90743333Y-78556666D01*
X90710000Y-78623333D01*
X90676666Y-78656666D01*
X90610000Y-78690000D01*
X90376666Y-78690000D01*
X91276666Y-78356666D02*
X91276666Y-78856666D01*
X91243333Y-78956666D01*
X91176666Y-79023333D01*
X91076666Y-79056666D01*
X91010000Y-79056666D01*
X91943333Y-79056666D02*
X91610000Y-79056666D01*
X91610000Y-78356666D01*
X92410000Y-78690000D02*
X92510000Y-78723333D01*
X92543333Y-78756666D01*
X92576666Y-78823333D01*
X92576666Y-78923333D01*
X92543333Y-78990000D01*
X92510000Y-79023333D01*
X92443333Y-79056666D01*
X92176666Y-79056666D01*
X92176666Y-78356666D01*
X92410000Y-78356666D01*
X92476666Y-78390000D01*
X92510000Y-78423333D01*
X92543333Y-78490000D01*
X92543333Y-78556666D01*
X92510000Y-78623333D01*
X92476666Y-78656666D01*
X92410000Y-78690000D01*
X92176666Y-78690000D01*
X93076666Y-78356666D02*
X93076666Y-78856666D01*
X93043333Y-78956666D01*
X92976666Y-79023333D01*
X92876666Y-79056666D01*
X92810000Y-79056666D01*
X93743333Y-79056666D02*
X93410000Y-79056666D01*
X93410000Y-78356666D01*
X94210000Y-78690000D02*
X94310000Y-78723333D01*
X94343333Y-78756666D01*
X94376666Y-78823333D01*
X94376666Y-78923333D01*
X94343333Y-78990000D01*
X94310000Y-79023333D01*
X94243333Y-79056666D01*
X93976666Y-79056666D01*
X93976666Y-78356666D01*
X94210000Y-78356666D01*
X94276666Y-78390000D01*
X94310000Y-78423333D01*
X94343333Y-78490000D01*
X94343333Y-78556666D01*
X94310000Y-78623333D01*
X94276666Y-78656666D01*
X94210000Y-78690000D01*
X93976666Y-78690000D01*
X94876666Y-78356666D02*
X94876666Y-78856666D01*
X94843333Y-78956666D01*
X94776666Y-79023333D01*
X94676666Y-79056666D01*
X94610000Y-79056666D01*
X95543333Y-79056666D02*
X95210000Y-79056666D01*
X95210000Y-78356666D01*
X96010000Y-78690000D02*
X96110000Y-78723333D01*
X96143333Y-78756666D01*
X96176666Y-78823333D01*
X96176666Y-78923333D01*
X96143333Y-78990000D01*
X96110000Y-79023333D01*
X96043333Y-79056666D01*
X95776666Y-79056666D01*
X95776666Y-78356666D01*
X96010000Y-78356666D01*
X96076666Y-78390000D01*
X96110000Y-78423333D01*
X96143333Y-78490000D01*
X96143333Y-78556666D01*
X96110000Y-78623333D01*
X96076666Y-78656666D01*
X96010000Y-78690000D01*
X95776666Y-78690000D01*
D10*
X144359523Y-46172380D02*
X144026190Y-45696190D01*
X143788095Y-46172380D02*
X143788095Y-45172380D01*
X144169047Y-45172380D01*
X144264285Y-45220000D01*
X144311904Y-45267619D01*
X144359523Y-45362857D01*
X144359523Y-45505714D01*
X144311904Y-45600952D01*
X144264285Y-45648571D01*
X144169047Y-45696190D01*
X143788095Y-45696190D01*
X145169047Y-46124761D02*
X145073809Y-46172380D01*
X144883333Y-46172380D01*
X144788095Y-46124761D01*
X144740476Y-46029523D01*
X144740476Y-45648571D01*
X144788095Y-45553333D01*
X144883333Y-45505714D01*
X145073809Y-45505714D01*
X145169047Y-45553333D01*
X145216666Y-45648571D01*
X145216666Y-45743809D01*
X144740476Y-45839047D01*
X145788095Y-46172380D02*
X145692857Y-46124761D01*
X145645238Y-46029523D01*
X145645238Y-45172380D01*
X146597619Y-46172380D02*
X146597619Y-45648571D01*
X146550000Y-45553333D01*
X146454761Y-45505714D01*
X146264285Y-45505714D01*
X146169047Y-45553333D01*
X146597619Y-46124761D02*
X146502380Y-46172380D01*
X146264285Y-46172380D01*
X146169047Y-46124761D01*
X146121428Y-46029523D01*
X146121428Y-45934285D01*
X146169047Y-45839047D01*
X146264285Y-45791428D01*
X146502380Y-45791428D01*
X146597619Y-45743809D01*
X146978571Y-45505714D02*
X147216666Y-46172380D01*
X147454761Y-45505714D02*
X147216666Y-46172380D01*
X147121428Y-46410476D01*
X147073809Y-46458095D01*
X146978571Y-46505714D01*
X148359523Y-46172380D02*
X147788095Y-46172380D01*
X148073809Y-46172380D02*
X148073809Y-45172380D01*
X147978571Y-45315238D01*
X147883333Y-45410476D01*
X147788095Y-45458095D01*
X136231428Y-81732380D02*
X136231428Y-80732380D01*
X136707619Y-81065714D02*
X136707619Y-81732380D01*
X136707619Y-81160952D02*
X136755238Y-81113333D01*
X136850476Y-81065714D01*
X136993333Y-81065714D01*
X137088571Y-81113333D01*
X137136190Y-81208571D01*
X137136190Y-81732380D01*
X137802857Y-80732380D02*
X137898095Y-80732380D01*
X137993333Y-80780000D01*
X138040952Y-80827619D01*
X138088571Y-80922857D01*
X138136190Y-81113333D01*
X138136190Y-81351428D01*
X138088571Y-81541904D01*
X138040952Y-81637142D01*
X137993333Y-81684761D01*
X137898095Y-81732380D01*
X137802857Y-81732380D01*
X137707619Y-81684761D01*
X137660000Y-81637142D01*
X137612380Y-81541904D01*
X137564761Y-81351428D01*
X137564761Y-81113333D01*
X137612380Y-80922857D01*
X137660000Y-80827619D01*
X137707619Y-80780000D01*
X137802857Y-80732380D01*
X98187380Y-83932380D02*
X98187380Y-82932380D01*
X98520714Y-83646666D01*
X98854047Y-82932380D01*
X98854047Y-83932380D01*
X99996904Y-84027619D02*
X99901666Y-83980000D01*
X99806428Y-83884761D01*
X99663571Y-83741904D01*
X99568333Y-83694285D01*
X99473095Y-83694285D01*
X99520714Y-83932380D02*
X99425476Y-83884761D01*
X99330238Y-83789523D01*
X99282619Y-83599047D01*
X99282619Y-83265714D01*
X99330238Y-83075238D01*
X99425476Y-82980000D01*
X99520714Y-82932380D01*
X99711190Y-82932380D01*
X99806428Y-82980000D01*
X99901666Y-83075238D01*
X99949285Y-83265714D01*
X99949285Y-83599047D01*
X99901666Y-83789523D01*
X99806428Y-83884761D01*
X99711190Y-83932380D01*
X99520714Y-83932380D01*
X100235000Y-82932380D02*
X100806428Y-82932380D01*
X100520714Y-83932380D02*
X100520714Y-82932380D01*
X100996904Y-82932380D02*
X101568333Y-82932380D01*
X101282619Y-83932380D02*
X101282619Y-82932380D01*
X102615952Y-83646666D02*
X103092142Y-83646666D01*
X102520714Y-83932380D02*
X102854047Y-82932380D01*
X103187380Y-83932380D01*
X103949285Y-83265714D02*
X103949285Y-84075238D01*
X103901666Y-84170476D01*
X103854047Y-84218095D01*
X103758809Y-84265714D01*
X103615952Y-84265714D01*
X103520714Y-84218095D01*
X103949285Y-83884761D02*
X103854047Y-83932380D01*
X103663571Y-83932380D01*
X103568333Y-83884761D01*
X103520714Y-83837142D01*
X103473095Y-83741904D01*
X103473095Y-83456190D01*
X103520714Y-83360952D01*
X103568333Y-83313333D01*
X103663571Y-83265714D01*
X103854047Y-83265714D01*
X103949285Y-83313333D01*
X104806428Y-83884761D02*
X104711190Y-83932380D01*
X104520714Y-83932380D01*
X104425476Y-83884761D01*
X104377857Y-83789523D01*
X104377857Y-83408571D01*
X104425476Y-83313333D01*
X104520714Y-83265714D01*
X104711190Y-83265714D01*
X104806428Y-83313333D01*
X104854047Y-83408571D01*
X104854047Y-83503809D01*
X104377857Y-83599047D01*
X105282619Y-83265714D02*
X105282619Y-83932380D01*
X105282619Y-83360952D02*
X105330238Y-83313333D01*
X105425476Y-83265714D01*
X105568333Y-83265714D01*
X105663571Y-83313333D01*
X105711190Y-83408571D01*
X105711190Y-83932380D01*
X106044523Y-83265714D02*
X106425476Y-83265714D01*
X106187380Y-82932380D02*
X106187380Y-83789523D01*
X106235000Y-83884761D01*
X106330238Y-83932380D01*
X106425476Y-83932380D01*
X92425476Y-84637619D02*
X92473095Y-84590000D01*
X92568333Y-84542380D01*
X92806428Y-84542380D01*
X92901666Y-84590000D01*
X92949285Y-84637619D01*
X92996904Y-84732857D01*
X92996904Y-84828095D01*
X92949285Y-84970952D01*
X92377857Y-85542380D01*
X92996904Y-85542380D01*
X94187380Y-85542380D02*
X94187380Y-84542380D01*
X94663571Y-84875714D02*
X94663571Y-85542380D01*
X94663571Y-84970952D02*
X94711190Y-84923333D01*
X94806428Y-84875714D01*
X94949285Y-84875714D01*
X95044523Y-84923333D01*
X95092142Y-85018571D01*
X95092142Y-85542380D01*
X95568333Y-84875714D02*
X95568333Y-85875714D01*
X95568333Y-84923333D02*
X95663571Y-84875714D01*
X95854047Y-84875714D01*
X95949285Y-84923333D01*
X95996904Y-84970952D01*
X96044523Y-85066190D01*
X96044523Y-85351904D01*
X95996904Y-85447142D01*
X95949285Y-85494761D01*
X95854047Y-85542380D01*
X95663571Y-85542380D01*
X95568333Y-85494761D01*
X96901666Y-84875714D02*
X96901666Y-85542380D01*
X96473095Y-84875714D02*
X96473095Y-85399523D01*
X96520714Y-85494761D01*
X96615952Y-85542380D01*
X96758809Y-85542380D01*
X96854047Y-85494761D01*
X96901666Y-85447142D01*
X97235000Y-84875714D02*
X97615952Y-84875714D01*
X97377857Y-84542380D02*
X97377857Y-85399523D01*
X97425476Y-85494761D01*
X97520714Y-85542380D01*
X97615952Y-85542380D01*
X97996904Y-85494761D02*
X97996904Y-85542380D01*
X97949285Y-85637619D01*
X97901666Y-85685238D01*
X99139761Y-84637619D02*
X99187380Y-84590000D01*
X99282619Y-84542380D01*
X99520714Y-84542380D01*
X99615952Y-84590000D01*
X99663571Y-84637619D01*
X99711190Y-84732857D01*
X99711190Y-84828095D01*
X99663571Y-84970952D01*
X99092142Y-85542380D01*
X99711190Y-85542380D01*
X101044523Y-85542380D02*
X100949285Y-85494761D01*
X100901666Y-85447142D01*
X100854047Y-85351904D01*
X100854047Y-85066190D01*
X100901666Y-84970952D01*
X100949285Y-84923333D01*
X101044523Y-84875714D01*
X101187380Y-84875714D01*
X101282619Y-84923333D01*
X101330238Y-84970952D01*
X101377857Y-85066190D01*
X101377857Y-85351904D01*
X101330238Y-85447142D01*
X101282619Y-85494761D01*
X101187380Y-85542380D01*
X101044523Y-85542380D01*
X102235000Y-84875714D02*
X102235000Y-85542380D01*
X101806428Y-84875714D02*
X101806428Y-85399523D01*
X101854047Y-85494761D01*
X101949285Y-85542380D01*
X102092142Y-85542380D01*
X102187380Y-85494761D01*
X102235000Y-85447142D01*
X102568333Y-84875714D02*
X102949285Y-84875714D01*
X102711190Y-84542380D02*
X102711190Y-85399523D01*
X102758809Y-85494761D01*
X102854047Y-85542380D01*
X102949285Y-85542380D01*
X103282619Y-84875714D02*
X103282619Y-85875714D01*
X103282619Y-84923333D02*
X103377857Y-84875714D01*
X103568333Y-84875714D01*
X103663571Y-84923333D01*
X103711190Y-84970952D01*
X103758809Y-85066190D01*
X103758809Y-85351904D01*
X103711190Y-85447142D01*
X103663571Y-85494761D01*
X103568333Y-85542380D01*
X103377857Y-85542380D01*
X103282619Y-85494761D01*
X104615952Y-84875714D02*
X104615952Y-85542380D01*
X104187380Y-84875714D02*
X104187380Y-85399523D01*
X104235000Y-85494761D01*
X104330238Y-85542380D01*
X104473095Y-85542380D01*
X104568333Y-85494761D01*
X104615952Y-85447142D01*
X104949285Y-84875714D02*
X105330238Y-84875714D01*
X105092142Y-84542380D02*
X105092142Y-85399523D01*
X105139761Y-85494761D01*
X105235000Y-85542380D01*
X105330238Y-85542380D01*
X106425476Y-85161428D02*
X107187380Y-85161428D01*
X106806428Y-85542380D02*
X106806428Y-84780476D01*
X108377857Y-85256666D02*
X108854047Y-85256666D01*
X108282619Y-85542380D02*
X108615952Y-84542380D01*
X108949285Y-85542380D01*
X109711190Y-84875714D02*
X109711190Y-85542380D01*
X109282619Y-84875714D02*
X109282619Y-85399523D01*
X109330238Y-85494761D01*
X109425476Y-85542380D01*
X109568333Y-85542380D01*
X109663571Y-85494761D01*
X109711190Y-85447142D01*
X110615952Y-85542380D02*
X110615952Y-84542380D01*
X110615952Y-85494761D02*
X110520714Y-85542380D01*
X110330238Y-85542380D01*
X110235000Y-85494761D01*
X110187380Y-85447142D01*
X110139761Y-85351904D01*
X110139761Y-85066190D01*
X110187380Y-84970952D01*
X110235000Y-84923333D01*
X110330238Y-84875714D01*
X110520714Y-84875714D01*
X110615952Y-84923333D01*
X111092142Y-85542380D02*
X111092142Y-84875714D01*
X111092142Y-84542380D02*
X111044523Y-84590000D01*
X111092142Y-84637619D01*
X111139761Y-84590000D01*
X111092142Y-84542380D01*
X111092142Y-84637619D01*
X111711190Y-85542380D02*
X111615952Y-85494761D01*
X111568333Y-85447142D01*
X111520714Y-85351904D01*
X111520714Y-85066190D01*
X111568333Y-84970952D01*
X111615952Y-84923333D01*
X111711190Y-84875714D01*
X111854047Y-84875714D01*
X111949285Y-84923333D01*
X111996904Y-84970952D01*
X112044523Y-85066190D01*
X112044523Y-85351904D01*
X111996904Y-85447142D01*
X111949285Y-85494761D01*
X111854047Y-85542380D01*
X111711190Y-85542380D01*
X92758809Y-87533333D02*
X92711190Y-87485714D01*
X92615952Y-87342857D01*
X92568333Y-87247619D01*
X92520714Y-87104761D01*
X92473095Y-86866666D01*
X92473095Y-86676190D01*
X92520714Y-86438095D01*
X92568333Y-86295238D01*
X92615952Y-86200000D01*
X92711190Y-86057142D01*
X92758809Y-86009523D01*
X93568333Y-87104761D02*
X93473095Y-87152380D01*
X93282619Y-87152380D01*
X93187380Y-87104761D01*
X93139761Y-87057142D01*
X93092142Y-86961904D01*
X93092142Y-86676190D01*
X93139761Y-86580952D01*
X93187380Y-86533333D01*
X93282619Y-86485714D01*
X93473095Y-86485714D01*
X93568333Y-86533333D01*
X93901666Y-87533333D02*
X93949285Y-87485714D01*
X94044523Y-87342857D01*
X94092142Y-87247619D01*
X94139761Y-87104761D01*
X94187380Y-86866666D01*
X94187380Y-86676190D01*
X94139761Y-86438095D01*
X94092142Y-86295238D01*
X94044523Y-86200000D01*
X93949285Y-86057142D01*
X93901666Y-86009523D01*
X95377857Y-86247619D02*
X95425476Y-86200000D01*
X95520714Y-86152380D01*
X95758809Y-86152380D01*
X95854047Y-86200000D01*
X95901666Y-86247619D01*
X95949285Y-86342857D01*
X95949285Y-86438095D01*
X95901666Y-86580952D01*
X95330238Y-87152380D01*
X95949285Y-87152380D01*
X96568333Y-86152380D02*
X96663571Y-86152380D01*
X96758809Y-86200000D01*
X96806428Y-86247619D01*
X96854047Y-86342857D01*
X96901666Y-86533333D01*
X96901666Y-86771428D01*
X96854047Y-86961904D01*
X96806428Y-87057142D01*
X96758809Y-87104761D01*
X96663571Y-87152380D01*
X96568333Y-87152380D01*
X96473095Y-87104761D01*
X96425476Y-87057142D01*
X96377857Y-86961904D01*
X96330238Y-86771428D01*
X96330238Y-86533333D01*
X96377857Y-86342857D01*
X96425476Y-86247619D01*
X96473095Y-86200000D01*
X96568333Y-86152380D01*
X97282619Y-86247619D02*
X97330238Y-86200000D01*
X97425476Y-86152380D01*
X97663571Y-86152380D01*
X97758809Y-86200000D01*
X97806428Y-86247619D01*
X97854047Y-86342857D01*
X97854047Y-86438095D01*
X97806428Y-86580952D01*
X97235000Y-87152380D01*
X97854047Y-87152380D01*
X98235000Y-86247619D02*
X98282619Y-86200000D01*
X98377857Y-86152380D01*
X98615952Y-86152380D01*
X98711190Y-86200000D01*
X98758809Y-86247619D01*
X98806428Y-86342857D01*
X98806428Y-86438095D01*
X98758809Y-86580952D01*
X98187380Y-87152380D01*
X98806428Y-87152380D01*
X99996904Y-87152380D02*
X99996904Y-86152380D01*
X100330238Y-86866666D01*
X100663571Y-86152380D01*
X100663571Y-87152380D01*
X101568333Y-87152380D02*
X101568333Y-86628571D01*
X101520714Y-86533333D01*
X101425476Y-86485714D01*
X101235000Y-86485714D01*
X101139761Y-86533333D01*
X101568333Y-87104761D02*
X101473095Y-87152380D01*
X101235000Y-87152380D01*
X101139761Y-87104761D01*
X101092142Y-87009523D01*
X101092142Y-86914285D01*
X101139761Y-86819047D01*
X101235000Y-86771428D01*
X101473095Y-86771428D01*
X101568333Y-86723809D01*
X102044523Y-87152380D02*
X102044523Y-86485714D01*
X102044523Y-86676190D02*
X102092142Y-86580952D01*
X102139761Y-86533333D01*
X102235000Y-86485714D01*
X102330238Y-86485714D01*
X103092142Y-87104761D02*
X102996904Y-87152380D01*
X102806428Y-87152380D01*
X102711190Y-87104761D01*
X102663571Y-87057142D01*
X102615952Y-86961904D01*
X102615952Y-86676190D01*
X102663571Y-86580952D01*
X102711190Y-86533333D01*
X102806428Y-86485714D01*
X102996904Y-86485714D01*
X103092142Y-86533333D01*
X104282619Y-87152380D02*
X104282619Y-86152380D01*
X104520714Y-86152380D01*
X104663571Y-86200000D01*
X104758809Y-86295238D01*
X104806428Y-86390476D01*
X104854047Y-86580952D01*
X104854047Y-86723809D01*
X104806428Y-86914285D01*
X104758809Y-87009523D01*
X104663571Y-87104761D01*
X104520714Y-87152380D01*
X104282619Y-87152380D01*
X105282619Y-87057142D02*
X105330238Y-87104761D01*
X105282619Y-87152380D01*
X105235000Y-87104761D01*
X105282619Y-87057142D01*
X105282619Y-87152380D01*
X106473095Y-87104761D02*
X106615952Y-87152380D01*
X106854047Y-87152380D01*
X106949285Y-87104761D01*
X106996904Y-87057142D01*
X107044523Y-86961904D01*
X107044523Y-86866666D01*
X106996904Y-86771428D01*
X106949285Y-86723809D01*
X106854047Y-86676190D01*
X106663571Y-86628571D01*
X106568333Y-86580952D01*
X106520714Y-86533333D01*
X106473095Y-86438095D01*
X106473095Y-86342857D01*
X106520714Y-86247619D01*
X106568333Y-86200000D01*
X106663571Y-86152380D01*
X106901666Y-86152380D01*
X107044523Y-86200000D01*
X107473095Y-86485714D02*
X107473095Y-87485714D01*
X107473095Y-86533333D02*
X107568333Y-86485714D01*
X107758809Y-86485714D01*
X107854047Y-86533333D01*
X107901666Y-86580952D01*
X107949285Y-86676190D01*
X107949285Y-86961904D01*
X107901666Y-87057142D01*
X107854047Y-87104761D01*
X107758809Y-87152380D01*
X107568333Y-87152380D01*
X107473095Y-87104761D01*
X108758809Y-87104761D02*
X108663571Y-87152380D01*
X108473095Y-87152380D01*
X108377857Y-87104761D01*
X108330238Y-87009523D01*
X108330238Y-86628571D01*
X108377857Y-86533333D01*
X108473095Y-86485714D01*
X108663571Y-86485714D01*
X108758809Y-86533333D01*
X108806428Y-86628571D01*
X108806428Y-86723809D01*
X108330238Y-86819047D01*
X109235000Y-86485714D02*
X109235000Y-87152380D01*
X109235000Y-86580952D02*
X109282619Y-86533333D01*
X109377857Y-86485714D01*
X109520714Y-86485714D01*
X109615952Y-86533333D01*
X109663571Y-86628571D01*
X109663571Y-87152380D01*
X110568333Y-87104761D02*
X110473095Y-87152380D01*
X110282619Y-87152380D01*
X110187380Y-87104761D01*
X110139761Y-87057142D01*
X110092142Y-86961904D01*
X110092142Y-86676190D01*
X110139761Y-86580952D01*
X110187380Y-86533333D01*
X110282619Y-86485714D01*
X110473095Y-86485714D01*
X110568333Y-86533333D01*
X111377857Y-87104761D02*
X111282619Y-87152380D01*
X111092142Y-87152380D01*
X110996904Y-87104761D01*
X110949285Y-87009523D01*
X110949285Y-86628571D01*
X110996904Y-86533333D01*
X111092142Y-86485714D01*
X111282619Y-86485714D01*
X111377857Y-86533333D01*
X111425476Y-86628571D01*
X111425476Y-86723809D01*
X110949285Y-86819047D01*
X111854047Y-87152380D02*
X111854047Y-86485714D01*
X111854047Y-86676190D02*
X111901666Y-86580952D01*
X111949285Y-86533333D01*
X112044523Y-86485714D01*
X112139761Y-86485714D01*
%TO.C,J4*%
X125817380Y-81613333D02*
X126531666Y-81613333D01*
X126674523Y-81660952D01*
X126769761Y-81756190D01*
X126817380Y-81899047D01*
X126817380Y-81994285D01*
X126150714Y-80708571D02*
X126817380Y-80708571D01*
X125769761Y-80946666D02*
X126484047Y-81184761D01*
X126484047Y-80565714D01*
%TO.C,J6*%
X149947380Y-46053333D02*
X150661666Y-46053333D01*
X150804523Y-46100952D01*
X150899761Y-46196190D01*
X150947380Y-46339047D01*
X150947380Y-46434285D01*
X149947380Y-45148571D02*
X149947380Y-45339047D01*
X149995000Y-45434285D01*
X150042619Y-45481904D01*
X150185476Y-45577142D01*
X150375952Y-45624761D01*
X150756904Y-45624761D01*
X150852142Y-45577142D01*
X150899761Y-45529523D01*
X150947380Y-45434285D01*
X150947380Y-45243809D01*
X150899761Y-45148571D01*
X150852142Y-45100952D01*
X150756904Y-45053333D01*
X150518809Y-45053333D01*
X150423571Y-45100952D01*
X150375952Y-45148571D01*
X150328333Y-45243809D01*
X150328333Y-45434285D01*
X150375952Y-45529523D01*
X150423571Y-45577142D01*
X150518809Y-45624761D01*
%TO.C,U2*%
X138938095Y-59277380D02*
X138938095Y-60086904D01*
X138985714Y-60182142D01*
X139033333Y-60229761D01*
X139128571Y-60277380D01*
X139319047Y-60277380D01*
X139414285Y-60229761D01*
X139461904Y-60182142D01*
X139509523Y-60086904D01*
X139509523Y-59277380D01*
X139938095Y-59372619D02*
X139985714Y-59325000D01*
X140080952Y-59277380D01*
X140319047Y-59277380D01*
X140414285Y-59325000D01*
X140461904Y-59372619D01*
X140509523Y-59467857D01*
X140509523Y-59563095D01*
X140461904Y-59705952D01*
X139890476Y-60277380D01*
X140509523Y-60277380D01*
%TO.C,J7*%
X141906666Y-71207380D02*
X141906666Y-71921666D01*
X141859047Y-72064523D01*
X141763809Y-72159761D01*
X141620952Y-72207380D01*
X141525714Y-72207380D01*
X142287619Y-71207380D02*
X142954285Y-71207380D01*
X142525714Y-72207380D01*
%TO.C,J3*%
X133437380Y-81613333D02*
X134151666Y-81613333D01*
X134294523Y-81660952D01*
X134389761Y-81756190D01*
X134437380Y-81899047D01*
X134437380Y-81994285D01*
X133437380Y-81232380D02*
X133437380Y-80613333D01*
X133818333Y-80946666D01*
X133818333Y-80803809D01*
X133865952Y-80708571D01*
X133913571Y-80660952D01*
X134008809Y-80613333D01*
X134246904Y-80613333D01*
X134342142Y-80660952D01*
X134389761Y-80708571D01*
X134437380Y-80803809D01*
X134437380Y-81089523D01*
X134389761Y-81184761D01*
X134342142Y-81232380D01*
%TO.C,J1*%
X82216666Y-75017380D02*
X82216666Y-75731666D01*
X82169047Y-75874523D01*
X82073809Y-75969761D01*
X81930952Y-76017380D01*
X81835714Y-76017380D01*
X83216666Y-76017380D02*
X82645238Y-76017380D01*
X82930952Y-76017380D02*
X82930952Y-75017380D01*
X82835714Y-75160238D01*
X82740476Y-75255476D01*
X82645238Y-75303095D01*
%TO.C,J5*%
X139787380Y-46053333D02*
X140501666Y-46053333D01*
X140644523Y-46100952D01*
X140739761Y-46196190D01*
X140787380Y-46339047D01*
X140787380Y-46434285D01*
X139787380Y-45100952D02*
X139787380Y-45577142D01*
X140263571Y-45624761D01*
X140215952Y-45577142D01*
X140168333Y-45481904D01*
X140168333Y-45243809D01*
X140215952Y-45148571D01*
X140263571Y-45100952D01*
X140358809Y-45053333D01*
X140596904Y-45053333D01*
X140692142Y-45100952D01*
X140739761Y-45148571D01*
X140787380Y-45243809D01*
X140787380Y-45481904D01*
X140739761Y-45577142D01*
X140692142Y-45624761D01*
%TO.C,SW2*%
X114916666Y-46759761D02*
X115059523Y-46807380D01*
X115297619Y-46807380D01*
X115392857Y-46759761D01*
X115440476Y-46712142D01*
X115488095Y-46616904D01*
X115488095Y-46521666D01*
X115440476Y-46426428D01*
X115392857Y-46378809D01*
X115297619Y-46331190D01*
X115107142Y-46283571D01*
X115011904Y-46235952D01*
X114964285Y-46188333D01*
X114916666Y-46093095D01*
X114916666Y-45997857D01*
X114964285Y-45902619D01*
X115011904Y-45855000D01*
X115107142Y-45807380D01*
X115345238Y-45807380D01*
X115488095Y-45855000D01*
X115821428Y-45807380D02*
X116059523Y-46807380D01*
X116250000Y-46093095D01*
X116440476Y-46807380D01*
X116678571Y-45807380D01*
X117011904Y-45902619D02*
X117059523Y-45855000D01*
X117154761Y-45807380D01*
X117392857Y-45807380D01*
X117488095Y-45855000D01*
X117535714Y-45902619D01*
X117583333Y-45997857D01*
X117583333Y-46093095D01*
X117535714Y-46235952D01*
X116964285Y-46807380D01*
X117583333Y-46807380D01*
%TO.C,R5*%
X134453333Y-72207380D02*
X134120000Y-71731190D01*
X133881904Y-72207380D02*
X133881904Y-71207380D01*
X134262857Y-71207380D01*
X134358095Y-71255000D01*
X134405714Y-71302619D01*
X134453333Y-71397857D01*
X134453333Y-71540714D01*
X134405714Y-71635952D01*
X134358095Y-71683571D01*
X134262857Y-71731190D01*
X133881904Y-71731190D01*
X135358095Y-71207380D02*
X134881904Y-71207380D01*
X134834285Y-71683571D01*
X134881904Y-71635952D01*
X134977142Y-71588333D01*
X135215238Y-71588333D01*
X135310476Y-71635952D01*
X135358095Y-71683571D01*
X135405714Y-71778809D01*
X135405714Y-72016904D01*
X135358095Y-72112142D01*
X135310476Y-72159761D01*
X135215238Y-72207380D01*
X134977142Y-72207380D01*
X134881904Y-72159761D01*
X134834285Y-72112142D01*
%TO.C,J2*%
X141906666Y-80732380D02*
X141906666Y-81446666D01*
X141859047Y-81589523D01*
X141763809Y-81684761D01*
X141620952Y-81732380D01*
X141525714Y-81732380D01*
X142335238Y-80827619D02*
X142382857Y-80780000D01*
X142478095Y-80732380D01*
X142716190Y-80732380D01*
X142811428Y-80780000D01*
X142859047Y-80827619D01*
X142906666Y-80922857D01*
X142906666Y-81018095D01*
X142859047Y-81160952D01*
X142287619Y-81732380D01*
X142906666Y-81732380D01*
%TO.C,R1*%
X122542380Y-54776666D02*
X122066190Y-55110000D01*
X122542380Y-55348095D02*
X121542380Y-55348095D01*
X121542380Y-54967142D01*
X121590000Y-54871904D01*
X121637619Y-54824285D01*
X121732857Y-54776666D01*
X121875714Y-54776666D01*
X121970952Y-54824285D01*
X122018571Y-54871904D01*
X122066190Y-54967142D01*
X122066190Y-55348095D01*
X122542380Y-53824285D02*
X122542380Y-54395714D01*
X122542380Y-54110000D02*
X121542380Y-54110000D01*
X121685238Y-54205238D01*
X121780476Y-54300476D01*
X121828095Y-54395714D01*
%TO.C,R3*%
X99512380Y-61126666D02*
X99036190Y-61460000D01*
X99512380Y-61698095D02*
X98512380Y-61698095D01*
X98512380Y-61317142D01*
X98560000Y-61221904D01*
X98607619Y-61174285D01*
X98702857Y-61126666D01*
X98845714Y-61126666D01*
X98940952Y-61174285D01*
X98988571Y-61221904D01*
X99036190Y-61317142D01*
X99036190Y-61698095D01*
X98512380Y-60793333D02*
X98512380Y-60174285D01*
X98893333Y-60507619D01*
X98893333Y-60364761D01*
X98940952Y-60269523D01*
X98988571Y-60221904D01*
X99083809Y-60174285D01*
X99321904Y-60174285D01*
X99417142Y-60221904D01*
X99464761Y-60269523D01*
X99512380Y-60364761D01*
X99512380Y-60650476D01*
X99464761Y-60745714D01*
X99417142Y-60793333D01*
%TO.C,R4*%
X94432380Y-61126666D02*
X93956190Y-61460000D01*
X94432380Y-61698095D02*
X93432380Y-61698095D01*
X93432380Y-61317142D01*
X93480000Y-61221904D01*
X93527619Y-61174285D01*
X93622857Y-61126666D01*
X93765714Y-61126666D01*
X93860952Y-61174285D01*
X93908571Y-61221904D01*
X93956190Y-61317142D01*
X93956190Y-61698095D01*
X93765714Y-60269523D02*
X94432380Y-60269523D01*
X93384761Y-60507619D02*
X94099047Y-60745714D01*
X94099047Y-60126666D01*
%TO.C,SW1*%
X100976666Y-46759761D02*
X101119523Y-46807380D01*
X101357619Y-46807380D01*
X101452857Y-46759761D01*
X101500476Y-46712142D01*
X101548095Y-46616904D01*
X101548095Y-46521666D01*
X101500476Y-46426428D01*
X101452857Y-46378809D01*
X101357619Y-46331190D01*
X101167142Y-46283571D01*
X101071904Y-46235952D01*
X101024285Y-46188333D01*
X100976666Y-46093095D01*
X100976666Y-45997857D01*
X101024285Y-45902619D01*
X101071904Y-45855000D01*
X101167142Y-45807380D01*
X101405238Y-45807380D01*
X101548095Y-45855000D01*
X101881428Y-45807380D02*
X102119523Y-46807380D01*
X102310000Y-46093095D01*
X102500476Y-46807380D01*
X102738571Y-45807380D01*
X103643333Y-46807380D02*
X103071904Y-46807380D01*
X103357619Y-46807380D02*
X103357619Y-45807380D01*
X103262380Y-45950238D01*
X103167142Y-46045476D01*
X103071904Y-46093095D01*
%TO.C,R2*%
X104592380Y-61126666D02*
X104116190Y-61460000D01*
X104592380Y-61698095D02*
X103592380Y-61698095D01*
X103592380Y-61317142D01*
X103640000Y-61221904D01*
X103687619Y-61174285D01*
X103782857Y-61126666D01*
X103925714Y-61126666D01*
X104020952Y-61174285D01*
X104068571Y-61221904D01*
X104116190Y-61317142D01*
X104116190Y-61698095D01*
X103687619Y-60745714D02*
X103640000Y-60698095D01*
X103592380Y-60602857D01*
X103592380Y-60364761D01*
X103640000Y-60269523D01*
X103687619Y-60221904D01*
X103782857Y-60174285D01*
X103878095Y-60174285D01*
X104020952Y-60221904D01*
X104592380Y-60793333D01*
X104592380Y-60174285D01*
%TO.C,A1*%
X80176666Y-61674285D02*
X80176666Y-61198095D01*
X80462380Y-61769523D02*
X79462380Y-61436190D01*
X80462380Y-61102857D01*
X80462380Y-60245714D02*
X80462380Y-60817142D01*
X80462380Y-60531428D02*
X79462380Y-60531428D01*
X79605238Y-60626666D01*
X79700476Y-60721904D01*
X79748095Y-60817142D01*
%TO.C,SW3*%
X87006666Y-46759761D02*
X87149523Y-46807380D01*
X87387619Y-46807380D01*
X87482857Y-46759761D01*
X87530476Y-46712142D01*
X87578095Y-46616904D01*
X87578095Y-46521666D01*
X87530476Y-46426428D01*
X87482857Y-46378809D01*
X87387619Y-46331190D01*
X87197142Y-46283571D01*
X87101904Y-46235952D01*
X87054285Y-46188333D01*
X87006666Y-46093095D01*
X87006666Y-45997857D01*
X87054285Y-45902619D01*
X87101904Y-45855000D01*
X87197142Y-45807380D01*
X87435238Y-45807380D01*
X87578095Y-45855000D01*
X87911428Y-45807380D02*
X88149523Y-46807380D01*
X88340000Y-46093095D01*
X88530476Y-46807380D01*
X88768571Y-45807380D01*
X89054285Y-45807380D02*
X89673333Y-45807380D01*
X89340000Y-46188333D01*
X89482857Y-46188333D01*
X89578095Y-46235952D01*
X89625714Y-46283571D01*
X89673333Y-46378809D01*
X89673333Y-46616904D01*
X89625714Y-46712142D01*
X89578095Y-46759761D01*
X89482857Y-46807380D01*
X89197142Y-46807380D01*
X89101904Y-46759761D01*
X89054285Y-46712142D01*
%TO.C,U1*%
X79248095Y-82002380D02*
X79248095Y-82811904D01*
X79295714Y-82907142D01*
X79343333Y-82954761D01*
X79438571Y-83002380D01*
X79629047Y-83002380D01*
X79724285Y-82954761D01*
X79771904Y-82907142D01*
X79819523Y-82811904D01*
X79819523Y-82002380D01*
X80819523Y-83002380D02*
X80248095Y-83002380D01*
X80533809Y-83002380D02*
X80533809Y-82002380D01*
X80438571Y-82145238D01*
X80343333Y-82240476D01*
X80248095Y-82288095D01*
D12*
%TO.C,J4*%
X126710000Y-83200000D02*
X126710000Y-89520000D01*
X131600000Y-88960000D02*
X132370000Y-88960000D01*
X126470000Y-89760000D02*
X126970000Y-89760000D01*
X132370000Y-83200000D02*
X132370000Y-89520000D01*
X126710000Y-83200000D02*
X132370000Y-83200000D01*
X129060000Y-89520000D02*
X130020000Y-89520000D01*
X126710000Y-83660000D02*
X132370000Y-83660000D01*
X126710000Y-89520000D02*
X127480000Y-89520000D01*
X126710000Y-88960000D02*
X127480000Y-88960000D01*
X129060000Y-88960000D02*
X130020000Y-88960000D01*
X131600000Y-89520000D02*
X132370000Y-89520000D01*
X126470000Y-89020000D02*
X126470000Y-89760000D01*
%TO.C,J6*%
X150150000Y-38040000D02*
X149380000Y-38040000D01*
X141950000Y-43800000D02*
X141950000Y-37480000D01*
X145260000Y-37480000D02*
X144300000Y-37480000D01*
X150390000Y-37240000D02*
X149890000Y-37240000D01*
X142720000Y-37480000D02*
X141950000Y-37480000D01*
X150150000Y-37480000D02*
X149380000Y-37480000D01*
X150150000Y-43340000D02*
X141950000Y-43340000D01*
X147800000Y-38040000D02*
X146840000Y-38040000D01*
X147800000Y-37480000D02*
X146840000Y-37480000D01*
X142720000Y-38040000D02*
X141950000Y-38040000D01*
X150150000Y-43800000D02*
X141950000Y-43800000D01*
X150150000Y-43800000D02*
X150150000Y-37480000D01*
X150390000Y-37980000D02*
X150390000Y-37240000D01*
X145260000Y-38040000D02*
X144300000Y-38040000D01*
%TO.C,U2*%
X129540000Y-47625000D02*
X149860000Y-47625000D01*
X149860000Y-47625000D02*
X149860000Y-69215000D01*
X149860000Y-69215000D02*
X129540000Y-69215000D01*
X129540000Y-69215000D02*
X129540000Y-47625000D01*
%TO.C,J7*%
X150480000Y-72235000D02*
X150480000Y-71465000D01*
X150480000Y-79665000D02*
X150480000Y-78895000D01*
X144160000Y-79665000D02*
X144160000Y-71465000D01*
X149920000Y-77315000D02*
X149920000Y-76355000D01*
X144160000Y-71465000D02*
X150480000Y-71465000D01*
X149920000Y-74775000D02*
X149920000Y-73815000D01*
X149980000Y-79905000D02*
X150720000Y-79905000D01*
X149920000Y-79665000D02*
X149920000Y-78895000D01*
X150720000Y-79905000D02*
X150720000Y-79405000D01*
X144160000Y-79665000D02*
X150480000Y-79665000D01*
X150480000Y-74775000D02*
X150480000Y-73815000D01*
X150480000Y-77315000D02*
X150480000Y-76355000D01*
X149920000Y-72235000D02*
X149920000Y-71465000D01*
X144620000Y-79665000D02*
X144620000Y-71465000D01*
%TO.C,J3*%
X134330000Y-89520000D02*
X135100000Y-89520000D01*
X136680000Y-89520000D02*
X137640000Y-89520000D01*
X139220000Y-89520000D02*
X139990000Y-89520000D01*
X134090000Y-89020000D02*
X134090000Y-89760000D01*
X136680000Y-88960000D02*
X137640000Y-88960000D01*
X134330000Y-83660000D02*
X139990000Y-83660000D01*
X134330000Y-83200000D02*
X139990000Y-83200000D01*
X134330000Y-83200000D02*
X134330000Y-89520000D01*
X134330000Y-88960000D02*
X135100000Y-88960000D01*
X139990000Y-83200000D02*
X139990000Y-89520000D01*
X134090000Y-89760000D02*
X134590000Y-89760000D01*
X139220000Y-88960000D02*
X139990000Y-88960000D01*
%TO.C,J1*%
X80630000Y-75910000D02*
X80630000Y-81570000D01*
X74870000Y-80800000D02*
X74870000Y-81570000D01*
X74310000Y-80800000D02*
X74310000Y-81570000D01*
X74870000Y-78260000D02*
X74870000Y-79220000D01*
X74870000Y-75910000D02*
X74870000Y-76680000D01*
X80630000Y-75910000D02*
X74310000Y-75910000D01*
X74070000Y-75670000D02*
X74070000Y-76170000D01*
X80170000Y-75910000D02*
X80170000Y-81570000D01*
X74810000Y-75670000D02*
X74070000Y-75670000D01*
X74310000Y-75910000D02*
X74310000Y-76680000D01*
X74310000Y-78260000D02*
X74310000Y-79220000D01*
X80630000Y-81570000D02*
X74310000Y-81570000D01*
%TO.C,J5*%
X132560000Y-37480000D02*
X131790000Y-37480000D01*
X140230000Y-37980000D02*
X140230000Y-37240000D01*
X139990000Y-43800000D02*
X131790000Y-43800000D01*
X140230000Y-37240000D02*
X139730000Y-37240000D01*
X139990000Y-43800000D02*
X139990000Y-37480000D01*
X137640000Y-38040000D02*
X136680000Y-38040000D01*
X139990000Y-43340000D02*
X131790000Y-43340000D01*
X139990000Y-37480000D02*
X139220000Y-37480000D01*
X131790000Y-43800000D02*
X131790000Y-37480000D01*
X137640000Y-37480000D02*
X136680000Y-37480000D01*
X139990000Y-38040000D02*
X139220000Y-38040000D01*
X132560000Y-38040000D02*
X131790000Y-38040000D01*
X135100000Y-37480000D02*
X134140000Y-37480000D01*
X135100000Y-38040000D02*
X134140000Y-38040000D01*
%TO.C,SW2*%
X118500000Y-38370000D02*
X114000000Y-38370000D01*
X114000000Y-44870000D02*
X118500000Y-44870000D01*
X119750000Y-42370000D02*
X119750000Y-40870000D01*
X112750000Y-40870000D02*
X112750000Y-42370000D01*
%TO.C,R5*%
X138025000Y-71755000D02*
X137255000Y-71755000D01*
X129945000Y-71755000D02*
X130715000Y-71755000D01*
X130715000Y-70385000D02*
X130715000Y-73125000D01*
X137255000Y-73125000D02*
X137255000Y-70385000D01*
X130715000Y-73125000D02*
X137255000Y-73125000D01*
X137255000Y-70385000D02*
X130715000Y-70385000D01*
%TO.C,J2*%
X150480000Y-89190000D02*
X150480000Y-88420000D01*
X150480000Y-84300000D02*
X150480000Y-83340000D01*
X150720000Y-89430000D02*
X150720000Y-88930000D01*
X144160000Y-89190000D02*
X144160000Y-80990000D01*
X150480000Y-81760000D02*
X150480000Y-80990000D01*
X149920000Y-84300000D02*
X149920000Y-83340000D01*
X144620000Y-89190000D02*
X144620000Y-80990000D01*
X144160000Y-80990000D02*
X150480000Y-80990000D01*
X149920000Y-81760000D02*
X149920000Y-80990000D01*
X144160000Y-89190000D02*
X150480000Y-89190000D01*
X149980000Y-89430000D02*
X150720000Y-89430000D01*
X149920000Y-89190000D02*
X149920000Y-88420000D01*
X150480000Y-86840000D02*
X150480000Y-85880000D01*
X149920000Y-86840000D02*
X149920000Y-85880000D01*
%TO.C,R1*%
X125830000Y-51340000D02*
X123090000Y-51340000D01*
X124460000Y-50570000D02*
X124460000Y-51340000D01*
X123090000Y-57880000D02*
X125830000Y-57880000D01*
X125830000Y-57880000D02*
X125830000Y-51340000D01*
X123090000Y-51340000D02*
X123090000Y-57880000D01*
X124460000Y-58650000D02*
X124460000Y-57880000D01*
%TO.C,R3*%
X95150000Y-64230000D02*
X97890000Y-64230000D01*
X96520000Y-65000000D02*
X96520000Y-64230000D01*
X95150000Y-57690000D02*
X95150000Y-64230000D01*
X97890000Y-57690000D02*
X95150000Y-57690000D01*
X97890000Y-64230000D02*
X97890000Y-57690000D01*
X96520000Y-56920000D02*
X96520000Y-57690000D01*
%TO.C,R4*%
X102970000Y-57690000D02*
X100230000Y-57690000D01*
X101600000Y-65000000D02*
X101600000Y-64230000D01*
X100230000Y-64230000D02*
X102970000Y-64230000D01*
X101600000Y-56920000D02*
X101600000Y-57690000D01*
X102970000Y-64230000D02*
X102970000Y-57690000D01*
X100230000Y-57690000D02*
X100230000Y-64230000D01*
%TO.C,SW1*%
X98810000Y-40870000D02*
X98810000Y-42370000D01*
X104560000Y-38370000D02*
X100060000Y-38370000D01*
X105810000Y-42370000D02*
X105810000Y-40870000D01*
X100060000Y-44870000D02*
X104560000Y-44870000D01*
%TO.C,R2*%
X106680000Y-56920000D02*
X106680000Y-57690000D01*
X105310000Y-57690000D02*
X105310000Y-64230000D01*
X108050000Y-64230000D02*
X108050000Y-57690000D01*
X106680000Y-65000000D02*
X106680000Y-64230000D01*
X108050000Y-57690000D02*
X105310000Y-57690000D01*
X105310000Y-64230000D02*
X108050000Y-64230000D01*
%TO.C,A1*%
X126980000Y-74390000D02*
X126980000Y-47530001D01*
X76220000Y-65436666D02*
X76220000Y-74389999D01*
X76220000Y-56483334D02*
X76580000Y-56483334D01*
X76220000Y-74389999D02*
X126980000Y-74390000D01*
X76580000Y-65436666D02*
X76220000Y-65436666D01*
X76580000Y-56483334D02*
X76580000Y-65436666D01*
X76220000Y-47530000D02*
X76220000Y-56483334D01*
X126980000Y-47530001D02*
X76220000Y-47530000D01*
%TO.C,SW3*%
X91840000Y-42370000D02*
X91840000Y-40870000D01*
X86090000Y-44870000D02*
X90590000Y-44870000D01*
X84840000Y-40870000D02*
X84840000Y-42370000D01*
X90590000Y-38370000D02*
X86090000Y-38370000D01*
%TO.C,U1*%
X86420000Y-87690000D02*
X85090000Y-87690000D01*
X86420000Y-86360000D02*
X86420000Y-87690000D01*
X83760000Y-85090000D02*
X83760000Y-77410000D01*
X86420000Y-85090000D02*
X86420000Y-77410000D01*
X86420000Y-85090000D02*
X83760000Y-85090000D01*
X86420000Y-77410000D02*
X83760000Y-77410000D01*
%TD*%
M02*
