%TF.GenerationSoftware,KiCad,Pcbnew,9.0.7*%
%TF.CreationDate,2026-02-02T21:40:27-05:00*%
%TF.ProjectId,ESP32c6 Agent PCB CPU,45535033-3263-4362-9041-67656e742050,5.0*%
%TF.SameCoordinates,Original*%
%TF.FileFunction,Legend,Bot*%
%TF.FilePolarity,Positive*%
%FSLAX46Y46*%
G04 Gerber Fmt 4.6, Leading zero omitted, Abs format (unit mm)*
G04 Created by KiCad (PCBNEW 9.0.7) date 2026-02-02 21:40:27*
%MOMM*%
%LPD*%
G01*
G04 APERTURE LIST*
%ADD10C,0.300000*%
G04 APERTURE END LIST*
D10*
X139045489Y-56385912D02*
X139045489Y-54885912D01*
X139045489Y-54885912D02*
X138545489Y-55957341D01*
X138545489Y-55957341D02*
X138045489Y-54885912D01*
X138045489Y-54885912D02*
X138045489Y-56385912D01*
X136331203Y-56528769D02*
X136474060Y-56457341D01*
X136474060Y-56457341D02*
X136616917Y-56314484D01*
X136616917Y-56314484D02*
X136831203Y-56100198D01*
X136831203Y-56100198D02*
X136974060Y-56028769D01*
X136974060Y-56028769D02*
X137116917Y-56028769D01*
X137045488Y-56385912D02*
X137188346Y-56314484D01*
X137188346Y-56314484D02*
X137331203Y-56171626D01*
X137331203Y-56171626D02*
X137402631Y-55885912D01*
X137402631Y-55885912D02*
X137402631Y-55385912D01*
X137402631Y-55385912D02*
X137331203Y-55100198D01*
X137331203Y-55100198D02*
X137188346Y-54957341D01*
X137188346Y-54957341D02*
X137045488Y-54885912D01*
X137045488Y-54885912D02*
X136759774Y-54885912D01*
X136759774Y-54885912D02*
X136616917Y-54957341D01*
X136616917Y-54957341D02*
X136474060Y-55100198D01*
X136474060Y-55100198D02*
X136402631Y-55385912D01*
X136402631Y-55385912D02*
X136402631Y-55885912D01*
X136402631Y-55885912D02*
X136474060Y-56171626D01*
X136474060Y-56171626D02*
X136616917Y-56314484D01*
X136616917Y-56314484D02*
X136759774Y-56385912D01*
X136759774Y-56385912D02*
X137045488Y-56385912D01*
X135974059Y-54885912D02*
X135116917Y-54885912D01*
X135545488Y-56385912D02*
X135545488Y-54885912D01*
X134831202Y-54885912D02*
X133974060Y-54885912D01*
X134402631Y-56385912D02*
X134402631Y-54885912D01*
X132402631Y-55957341D02*
X131688346Y-55957341D01*
X132545488Y-56385912D02*
X132045488Y-54885912D01*
X132045488Y-54885912D02*
X131545488Y-56385912D01*
X130402632Y-55385912D02*
X130402632Y-56600198D01*
X130402632Y-56600198D02*
X130474060Y-56743055D01*
X130474060Y-56743055D02*
X130545489Y-56814484D01*
X130545489Y-56814484D02*
X130688346Y-56885912D01*
X130688346Y-56885912D02*
X130902632Y-56885912D01*
X130902632Y-56885912D02*
X131045489Y-56814484D01*
X130402632Y-56314484D02*
X130545489Y-56385912D01*
X130545489Y-56385912D02*
X130831203Y-56385912D01*
X130831203Y-56385912D02*
X130974060Y-56314484D01*
X130974060Y-56314484D02*
X131045489Y-56243055D01*
X131045489Y-56243055D02*
X131116917Y-56100198D01*
X131116917Y-56100198D02*
X131116917Y-55671626D01*
X131116917Y-55671626D02*
X131045489Y-55528769D01*
X131045489Y-55528769D02*
X130974060Y-55457341D01*
X130974060Y-55457341D02*
X130831203Y-55385912D01*
X130831203Y-55385912D02*
X130545489Y-55385912D01*
X130545489Y-55385912D02*
X130402632Y-55457341D01*
X129116917Y-56314484D02*
X129259774Y-56385912D01*
X129259774Y-56385912D02*
X129545489Y-56385912D01*
X129545489Y-56385912D02*
X129688346Y-56314484D01*
X129688346Y-56314484D02*
X129759774Y-56171626D01*
X129759774Y-56171626D02*
X129759774Y-55600198D01*
X129759774Y-55600198D02*
X129688346Y-55457341D01*
X129688346Y-55457341D02*
X129545489Y-55385912D01*
X129545489Y-55385912D02*
X129259774Y-55385912D01*
X129259774Y-55385912D02*
X129116917Y-55457341D01*
X129116917Y-55457341D02*
X129045489Y-55600198D01*
X129045489Y-55600198D02*
X129045489Y-55743055D01*
X129045489Y-55743055D02*
X129759774Y-55885912D01*
X128402632Y-55385912D02*
X128402632Y-56385912D01*
X128402632Y-55528769D02*
X128331203Y-55457341D01*
X128331203Y-55457341D02*
X128188346Y-55385912D01*
X128188346Y-55385912D02*
X127974060Y-55385912D01*
X127974060Y-55385912D02*
X127831203Y-55457341D01*
X127831203Y-55457341D02*
X127759775Y-55600198D01*
X127759775Y-55600198D02*
X127759775Y-56385912D01*
X127259774Y-55385912D02*
X126688346Y-55385912D01*
X127045489Y-54885912D02*
X127045489Y-56171626D01*
X127045489Y-56171626D02*
X126974060Y-56314484D01*
X126974060Y-56314484D02*
X126831203Y-56385912D01*
X126831203Y-56385912D02*
X126688346Y-56385912D01*
X124331203Y-54885912D02*
X125045489Y-54885912D01*
X125045489Y-54885912D02*
X125116917Y-55600198D01*
X125116917Y-55600198D02*
X125045489Y-55528769D01*
X125045489Y-55528769D02*
X124902632Y-55457341D01*
X124902632Y-55457341D02*
X124545489Y-55457341D01*
X124545489Y-55457341D02*
X124402632Y-55528769D01*
X124402632Y-55528769D02*
X124331203Y-55600198D01*
X124331203Y-55600198D02*
X124259774Y-55743055D01*
X124259774Y-55743055D02*
X124259774Y-56100198D01*
X124259774Y-56100198D02*
X124331203Y-56243055D01*
X124331203Y-56243055D02*
X124402632Y-56314484D01*
X124402632Y-56314484D02*
X124545489Y-56385912D01*
X124545489Y-56385912D02*
X124902632Y-56385912D01*
X124902632Y-56385912D02*
X125045489Y-56314484D01*
X125045489Y-56314484D02*
X125116917Y-56243055D01*
X123616918Y-56243055D02*
X123545489Y-56314484D01*
X123545489Y-56314484D02*
X123616918Y-56385912D01*
X123616918Y-56385912D02*
X123688346Y-56314484D01*
X123688346Y-56314484D02*
X123616918Y-56243055D01*
X123616918Y-56243055D02*
X123616918Y-56385912D01*
X122616917Y-54885912D02*
X122474060Y-54885912D01*
X122474060Y-54885912D02*
X122331203Y-54957341D01*
X122331203Y-54957341D02*
X122259775Y-55028769D01*
X122259775Y-55028769D02*
X122188346Y-55171626D01*
X122188346Y-55171626D02*
X122116917Y-55457341D01*
X122116917Y-55457341D02*
X122116917Y-55814484D01*
X122116917Y-55814484D02*
X122188346Y-56100198D01*
X122188346Y-56100198D02*
X122259775Y-56243055D01*
X122259775Y-56243055D02*
X122331203Y-56314484D01*
X122331203Y-56314484D02*
X122474060Y-56385912D01*
X122474060Y-56385912D02*
X122616917Y-56385912D01*
X122616917Y-56385912D02*
X122759775Y-56314484D01*
X122759775Y-56314484D02*
X122831203Y-56243055D01*
X122831203Y-56243055D02*
X122902632Y-56100198D01*
X122902632Y-56100198D02*
X122974060Y-55814484D01*
X122974060Y-55814484D02*
X122974060Y-55457341D01*
X122974060Y-55457341D02*
X122902632Y-55171626D01*
X122902632Y-55171626D02*
X122831203Y-55028769D01*
X122831203Y-55028769D02*
X122759775Y-54957341D01*
X122759775Y-54957341D02*
X122616917Y-54885912D01*
X138616917Y-59372257D02*
X138688346Y-59300828D01*
X138688346Y-59300828D02*
X138831203Y-59086542D01*
X138831203Y-59086542D02*
X138902632Y-58943685D01*
X138902632Y-58943685D02*
X138974060Y-58729400D01*
X138974060Y-58729400D02*
X139045489Y-58372257D01*
X139045489Y-58372257D02*
X139045489Y-58086542D01*
X139045489Y-58086542D02*
X138974060Y-57729400D01*
X138974060Y-57729400D02*
X138902632Y-57515114D01*
X138902632Y-57515114D02*
X138831203Y-57372257D01*
X138831203Y-57372257D02*
X138688346Y-57157971D01*
X138688346Y-57157971D02*
X138616917Y-57086542D01*
X137402632Y-58729400D02*
X137545489Y-58800828D01*
X137545489Y-58800828D02*
X137831203Y-58800828D01*
X137831203Y-58800828D02*
X137974060Y-58729400D01*
X137974060Y-58729400D02*
X138045489Y-58657971D01*
X138045489Y-58657971D02*
X138116917Y-58515114D01*
X138116917Y-58515114D02*
X138116917Y-58086542D01*
X138116917Y-58086542D02*
X138045489Y-57943685D01*
X138045489Y-57943685D02*
X137974060Y-57872257D01*
X137974060Y-57872257D02*
X137831203Y-57800828D01*
X137831203Y-57800828D02*
X137545489Y-57800828D01*
X137545489Y-57800828D02*
X137402632Y-57872257D01*
X136902632Y-59372257D02*
X136831203Y-59300828D01*
X136831203Y-59300828D02*
X136688346Y-59086542D01*
X136688346Y-59086542D02*
X136616918Y-58943685D01*
X136616918Y-58943685D02*
X136545489Y-58729400D01*
X136545489Y-58729400D02*
X136474060Y-58372257D01*
X136474060Y-58372257D02*
X136474060Y-58086542D01*
X136474060Y-58086542D02*
X136545489Y-57729400D01*
X136545489Y-57729400D02*
X136616918Y-57515114D01*
X136616918Y-57515114D02*
X136688346Y-57372257D01*
X136688346Y-57372257D02*
X136831203Y-57157971D01*
X136831203Y-57157971D02*
X136902632Y-57086542D01*
X134688346Y-57443685D02*
X134616918Y-57372257D01*
X134616918Y-57372257D02*
X134474061Y-57300828D01*
X134474061Y-57300828D02*
X134116918Y-57300828D01*
X134116918Y-57300828D02*
X133974061Y-57372257D01*
X133974061Y-57372257D02*
X133902632Y-57443685D01*
X133902632Y-57443685D02*
X133831203Y-57586542D01*
X133831203Y-57586542D02*
X133831203Y-57729400D01*
X133831203Y-57729400D02*
X133902632Y-57943685D01*
X133902632Y-57943685D02*
X134759775Y-58800828D01*
X134759775Y-58800828D02*
X133831203Y-58800828D01*
X132902632Y-57300828D02*
X132759775Y-57300828D01*
X132759775Y-57300828D02*
X132616918Y-57372257D01*
X132616918Y-57372257D02*
X132545490Y-57443685D01*
X132545490Y-57443685D02*
X132474061Y-57586542D01*
X132474061Y-57586542D02*
X132402632Y-57872257D01*
X132402632Y-57872257D02*
X132402632Y-58229400D01*
X132402632Y-58229400D02*
X132474061Y-58515114D01*
X132474061Y-58515114D02*
X132545490Y-58657971D01*
X132545490Y-58657971D02*
X132616918Y-58729400D01*
X132616918Y-58729400D02*
X132759775Y-58800828D01*
X132759775Y-58800828D02*
X132902632Y-58800828D01*
X132902632Y-58800828D02*
X133045490Y-58729400D01*
X133045490Y-58729400D02*
X133116918Y-58657971D01*
X133116918Y-58657971D02*
X133188347Y-58515114D01*
X133188347Y-58515114D02*
X133259775Y-58229400D01*
X133259775Y-58229400D02*
X133259775Y-57872257D01*
X133259775Y-57872257D02*
X133188347Y-57586542D01*
X133188347Y-57586542D02*
X133116918Y-57443685D01*
X133116918Y-57443685D02*
X133045490Y-57372257D01*
X133045490Y-57372257D02*
X132902632Y-57300828D01*
X131831204Y-57443685D02*
X131759776Y-57372257D01*
X131759776Y-57372257D02*
X131616919Y-57300828D01*
X131616919Y-57300828D02*
X131259776Y-57300828D01*
X131259776Y-57300828D02*
X131116919Y-57372257D01*
X131116919Y-57372257D02*
X131045490Y-57443685D01*
X131045490Y-57443685D02*
X130974061Y-57586542D01*
X130974061Y-57586542D02*
X130974061Y-57729400D01*
X130974061Y-57729400D02*
X131045490Y-57943685D01*
X131045490Y-57943685D02*
X131902633Y-58800828D01*
X131902633Y-58800828D02*
X130974061Y-58800828D01*
X129688348Y-57300828D02*
X129974062Y-57300828D01*
X129974062Y-57300828D02*
X130116919Y-57372257D01*
X130116919Y-57372257D02*
X130188348Y-57443685D01*
X130188348Y-57443685D02*
X130331205Y-57657971D01*
X130331205Y-57657971D02*
X130402633Y-57943685D01*
X130402633Y-57943685D02*
X130402633Y-58515114D01*
X130402633Y-58515114D02*
X130331205Y-58657971D01*
X130331205Y-58657971D02*
X130259776Y-58729400D01*
X130259776Y-58729400D02*
X130116919Y-58800828D01*
X130116919Y-58800828D02*
X129831205Y-58800828D01*
X129831205Y-58800828D02*
X129688348Y-58729400D01*
X129688348Y-58729400D02*
X129616919Y-58657971D01*
X129616919Y-58657971D02*
X129545490Y-58515114D01*
X129545490Y-58515114D02*
X129545490Y-58157971D01*
X129545490Y-58157971D02*
X129616919Y-58015114D01*
X129616919Y-58015114D02*
X129688348Y-57943685D01*
X129688348Y-57943685D02*
X129831205Y-57872257D01*
X129831205Y-57872257D02*
X130116919Y-57872257D01*
X130116919Y-57872257D02*
X130259776Y-57943685D01*
X130259776Y-57943685D02*
X130331205Y-58015114D01*
X130331205Y-58015114D02*
X130402633Y-58157971D01*
X127759777Y-58800828D02*
X127759777Y-57300828D01*
X127759777Y-57300828D02*
X127259777Y-58372257D01*
X127259777Y-58372257D02*
X126759777Y-57300828D01*
X126759777Y-57300828D02*
X126759777Y-58800828D01*
X125402634Y-58800828D02*
X125402634Y-58015114D01*
X125402634Y-58015114D02*
X125474062Y-57872257D01*
X125474062Y-57872257D02*
X125616919Y-57800828D01*
X125616919Y-57800828D02*
X125902634Y-57800828D01*
X125902634Y-57800828D02*
X126045491Y-57872257D01*
X125402634Y-58729400D02*
X125545491Y-58800828D01*
X125545491Y-58800828D02*
X125902634Y-58800828D01*
X125902634Y-58800828D02*
X126045491Y-58729400D01*
X126045491Y-58729400D02*
X126116919Y-58586542D01*
X126116919Y-58586542D02*
X126116919Y-58443685D01*
X126116919Y-58443685D02*
X126045491Y-58300828D01*
X126045491Y-58300828D02*
X125902634Y-58229400D01*
X125902634Y-58229400D02*
X125545491Y-58229400D01*
X125545491Y-58229400D02*
X125402634Y-58157971D01*
X124688348Y-58800828D02*
X124688348Y-57800828D01*
X124688348Y-58086542D02*
X124616919Y-57943685D01*
X124616919Y-57943685D02*
X124545491Y-57872257D01*
X124545491Y-57872257D02*
X124402633Y-57800828D01*
X124402633Y-57800828D02*
X124259776Y-57800828D01*
X123116920Y-58729400D02*
X123259777Y-58800828D01*
X123259777Y-58800828D02*
X123545491Y-58800828D01*
X123545491Y-58800828D02*
X123688348Y-58729400D01*
X123688348Y-58729400D02*
X123759777Y-58657971D01*
X123759777Y-58657971D02*
X123831205Y-58515114D01*
X123831205Y-58515114D02*
X123831205Y-58086542D01*
X123831205Y-58086542D02*
X123759777Y-57943685D01*
X123759777Y-57943685D02*
X123688348Y-57872257D01*
X123688348Y-57872257D02*
X123545491Y-57800828D01*
X123545491Y-57800828D02*
X123259777Y-57800828D01*
X123259777Y-57800828D02*
X123116920Y-57872257D01*
X121331206Y-58800828D02*
X121331206Y-57300828D01*
X121331206Y-57300828D02*
X120974063Y-57300828D01*
X120974063Y-57300828D02*
X120759777Y-57372257D01*
X120759777Y-57372257D02*
X120616920Y-57515114D01*
X120616920Y-57515114D02*
X120545491Y-57657971D01*
X120545491Y-57657971D02*
X120474063Y-57943685D01*
X120474063Y-57943685D02*
X120474063Y-58157971D01*
X120474063Y-58157971D02*
X120545491Y-58443685D01*
X120545491Y-58443685D02*
X120616920Y-58586542D01*
X120616920Y-58586542D02*
X120759777Y-58729400D01*
X120759777Y-58729400D02*
X120974063Y-58800828D01*
X120974063Y-58800828D02*
X121331206Y-58800828D01*
X119831206Y-58657971D02*
X119759777Y-58729400D01*
X119759777Y-58729400D02*
X119831206Y-58800828D01*
X119831206Y-58800828D02*
X119902634Y-58729400D01*
X119902634Y-58729400D02*
X119831206Y-58657971D01*
X119831206Y-58657971D02*
X119831206Y-58800828D01*
X118045491Y-58729400D02*
X117831206Y-58800828D01*
X117831206Y-58800828D02*
X117474063Y-58800828D01*
X117474063Y-58800828D02*
X117331206Y-58729400D01*
X117331206Y-58729400D02*
X117259777Y-58657971D01*
X117259777Y-58657971D02*
X117188348Y-58515114D01*
X117188348Y-58515114D02*
X117188348Y-58372257D01*
X117188348Y-58372257D02*
X117259777Y-58229400D01*
X117259777Y-58229400D02*
X117331206Y-58157971D01*
X117331206Y-58157971D02*
X117474063Y-58086542D01*
X117474063Y-58086542D02*
X117759777Y-58015114D01*
X117759777Y-58015114D02*
X117902634Y-57943685D01*
X117902634Y-57943685D02*
X117974063Y-57872257D01*
X117974063Y-57872257D02*
X118045491Y-57729400D01*
X118045491Y-57729400D02*
X118045491Y-57586542D01*
X118045491Y-57586542D02*
X117974063Y-57443685D01*
X117974063Y-57443685D02*
X117902634Y-57372257D01*
X117902634Y-57372257D02*
X117759777Y-57300828D01*
X117759777Y-57300828D02*
X117402634Y-57300828D01*
X117402634Y-57300828D02*
X117188348Y-57372257D01*
X116545492Y-57800828D02*
X116545492Y-59300828D01*
X116545492Y-57872257D02*
X116402635Y-57800828D01*
X116402635Y-57800828D02*
X116116920Y-57800828D01*
X116116920Y-57800828D02*
X115974063Y-57872257D01*
X115974063Y-57872257D02*
X115902635Y-57943685D01*
X115902635Y-57943685D02*
X115831206Y-58086542D01*
X115831206Y-58086542D02*
X115831206Y-58515114D01*
X115831206Y-58515114D02*
X115902635Y-58657971D01*
X115902635Y-58657971D02*
X115974063Y-58729400D01*
X115974063Y-58729400D02*
X116116920Y-58800828D01*
X116116920Y-58800828D02*
X116402635Y-58800828D01*
X116402635Y-58800828D02*
X116545492Y-58729400D01*
X114616920Y-58729400D02*
X114759777Y-58800828D01*
X114759777Y-58800828D02*
X115045492Y-58800828D01*
X115045492Y-58800828D02*
X115188349Y-58729400D01*
X115188349Y-58729400D02*
X115259777Y-58586542D01*
X115259777Y-58586542D02*
X115259777Y-58015114D01*
X115259777Y-58015114D02*
X115188349Y-57872257D01*
X115188349Y-57872257D02*
X115045492Y-57800828D01*
X115045492Y-57800828D02*
X114759777Y-57800828D01*
X114759777Y-57800828D02*
X114616920Y-57872257D01*
X114616920Y-57872257D02*
X114545492Y-58015114D01*
X114545492Y-58015114D02*
X114545492Y-58157971D01*
X114545492Y-58157971D02*
X115259777Y-58300828D01*
X113902635Y-57800828D02*
X113902635Y-58800828D01*
X113902635Y-57943685D02*
X113831206Y-57872257D01*
X113831206Y-57872257D02*
X113688349Y-57800828D01*
X113688349Y-57800828D02*
X113474063Y-57800828D01*
X113474063Y-57800828D02*
X113331206Y-57872257D01*
X113331206Y-57872257D02*
X113259778Y-58015114D01*
X113259778Y-58015114D02*
X113259778Y-58800828D01*
X111902635Y-58729400D02*
X112045492Y-58800828D01*
X112045492Y-58800828D02*
X112331206Y-58800828D01*
X112331206Y-58800828D02*
X112474063Y-58729400D01*
X112474063Y-58729400D02*
X112545492Y-58657971D01*
X112545492Y-58657971D02*
X112616920Y-58515114D01*
X112616920Y-58515114D02*
X112616920Y-58086542D01*
X112616920Y-58086542D02*
X112545492Y-57943685D01*
X112545492Y-57943685D02*
X112474063Y-57872257D01*
X112474063Y-57872257D02*
X112331206Y-57800828D01*
X112331206Y-57800828D02*
X112045492Y-57800828D01*
X112045492Y-57800828D02*
X111902635Y-57872257D01*
X110688349Y-58729400D02*
X110831206Y-58800828D01*
X110831206Y-58800828D02*
X111116921Y-58800828D01*
X111116921Y-58800828D02*
X111259778Y-58729400D01*
X111259778Y-58729400D02*
X111331206Y-58586542D01*
X111331206Y-58586542D02*
X111331206Y-58015114D01*
X111331206Y-58015114D02*
X111259778Y-57872257D01*
X111259778Y-57872257D02*
X111116921Y-57800828D01*
X111116921Y-57800828D02*
X110831206Y-57800828D01*
X110831206Y-57800828D02*
X110688349Y-57872257D01*
X110688349Y-57872257D02*
X110616921Y-58015114D01*
X110616921Y-58015114D02*
X110616921Y-58157971D01*
X110616921Y-58157971D02*
X111331206Y-58300828D01*
X109974064Y-58800828D02*
X109974064Y-57800828D01*
X109974064Y-58086542D02*
X109902635Y-57943685D01*
X109902635Y-57943685D02*
X109831207Y-57872257D01*
X109831207Y-57872257D02*
X109688349Y-57800828D01*
X109688349Y-57800828D02*
X109545492Y-57800828D01*
M02*
