%TF.GenerationSoftware,KiCad,Pcbnew,9.0.7*%
%TF.CreationDate,2026-02-02T21:40:26-05:00*%
%TF.ProjectId,ESP32c6 Agent PCB CPU,45535033-3263-4362-9041-67656e742050,5.0*%
%TF.SameCoordinates,Original*%
%TF.FileFunction,Legend,Top*%
%TF.FilePolarity,Positive*%
%FSLAX46Y46*%
G04 Gerber Fmt 4.6, Leading zero omitted, Abs format (unit mm)*
G04 Created by KiCad (PCBNEW 9.0.7) date 2026-02-02 21:40:26*
%MOMM*%
%LPD*%
G01*
G04 APERTURE LIST*
%ADD10C,0.101600*%
%ADD11C,0.150000*%
%ADD12C,0.120000*%
%ADD13C,0.127000*%
%ADD14C,0.100000*%
%ADD15C,0.504000*%
G04 APERTURE END LIST*
D10*
X146218032Y-54346574D02*
X146701842Y-54346574D01*
X146459937Y-54588479D02*
X146459937Y-54104669D01*
X146943746Y-53953479D02*
X147336841Y-53953479D01*
X147336841Y-53953479D02*
X147125174Y-54195383D01*
X147125174Y-54195383D02*
X147215889Y-54195383D01*
X147215889Y-54195383D02*
X147276365Y-54225621D01*
X147276365Y-54225621D02*
X147306603Y-54255860D01*
X147306603Y-54255860D02*
X147336841Y-54316336D01*
X147336841Y-54316336D02*
X147336841Y-54467526D01*
X147336841Y-54467526D02*
X147306603Y-54528002D01*
X147306603Y-54528002D02*
X147276365Y-54558241D01*
X147276365Y-54558241D02*
X147215889Y-54588479D01*
X147215889Y-54588479D02*
X147034460Y-54588479D01*
X147034460Y-54588479D02*
X146973984Y-54558241D01*
X146973984Y-54558241D02*
X146943746Y-54528002D01*
X147608984Y-54528002D02*
X147639222Y-54558241D01*
X147639222Y-54558241D02*
X147608984Y-54588479D01*
X147608984Y-54588479D02*
X147578746Y-54558241D01*
X147578746Y-54558241D02*
X147608984Y-54528002D01*
X147608984Y-54528002D02*
X147608984Y-54588479D01*
X147850889Y-53953479D02*
X148243984Y-53953479D01*
X148243984Y-53953479D02*
X148032317Y-54195383D01*
X148032317Y-54195383D02*
X148123032Y-54195383D01*
X148123032Y-54195383D02*
X148183508Y-54225621D01*
X148183508Y-54225621D02*
X148213746Y-54255860D01*
X148213746Y-54255860D02*
X148243984Y-54316336D01*
X148243984Y-54316336D02*
X148243984Y-54467526D01*
X148243984Y-54467526D02*
X148213746Y-54528002D01*
X148213746Y-54528002D02*
X148183508Y-54558241D01*
X148183508Y-54558241D02*
X148123032Y-54588479D01*
X148123032Y-54588479D02*
X147941603Y-54588479D01*
X147941603Y-54588479D02*
X147881127Y-54558241D01*
X147881127Y-54558241D02*
X147850889Y-54528002D01*
X146650651Y-84483717D02*
X146590175Y-84453479D01*
X146590175Y-84453479D02*
X146499461Y-84453479D01*
X146499461Y-84453479D02*
X146408746Y-84483717D01*
X146408746Y-84483717D02*
X146348270Y-84544193D01*
X146348270Y-84544193D02*
X146318032Y-84604669D01*
X146318032Y-84604669D02*
X146287794Y-84725621D01*
X146287794Y-84725621D02*
X146287794Y-84816336D01*
X146287794Y-84816336D02*
X146318032Y-84937288D01*
X146318032Y-84937288D02*
X146348270Y-84997764D01*
X146348270Y-84997764D02*
X146408746Y-85058241D01*
X146408746Y-85058241D02*
X146499461Y-85088479D01*
X146499461Y-85088479D02*
X146559937Y-85088479D01*
X146559937Y-85088479D02*
X146650651Y-85058241D01*
X146650651Y-85058241D02*
X146680889Y-85028002D01*
X146680889Y-85028002D02*
X146680889Y-84816336D01*
X146680889Y-84816336D02*
X146559937Y-84816336D01*
X146953032Y-85088479D02*
X146953032Y-84453479D01*
X146953032Y-84453479D02*
X147315889Y-85088479D01*
X147315889Y-85088479D02*
X147315889Y-84453479D01*
X147618270Y-85088479D02*
X147618270Y-84453479D01*
X147618270Y-84453479D02*
X147769460Y-84453479D01*
X147769460Y-84453479D02*
X147860175Y-84483717D01*
X147860175Y-84483717D02*
X147920651Y-84544193D01*
X147920651Y-84544193D02*
X147950889Y-84604669D01*
X147950889Y-84604669D02*
X147981127Y-84725621D01*
X147981127Y-84725621D02*
X147981127Y-84816336D01*
X147981127Y-84816336D02*
X147950889Y-84937288D01*
X147950889Y-84937288D02*
X147920651Y-84997764D01*
X147920651Y-84997764D02*
X147860175Y-85058241D01*
X147860175Y-85058241D02*
X147769460Y-85088479D01*
X147769460Y-85088479D02*
X147618270Y-85088479D01*
X146338984Y-71753479D02*
X146459937Y-71753479D01*
X146459937Y-71753479D02*
X146520413Y-71783717D01*
X146520413Y-71783717D02*
X146580889Y-71844193D01*
X146580889Y-71844193D02*
X146611127Y-71965145D01*
X146611127Y-71965145D02*
X146611127Y-72176812D01*
X146611127Y-72176812D02*
X146580889Y-72297764D01*
X146580889Y-72297764D02*
X146520413Y-72358241D01*
X146520413Y-72358241D02*
X146459937Y-72388479D01*
X146459937Y-72388479D02*
X146338984Y-72388479D01*
X146338984Y-72388479D02*
X146278508Y-72358241D01*
X146278508Y-72358241D02*
X146218032Y-72297764D01*
X146218032Y-72297764D02*
X146187794Y-72176812D01*
X146187794Y-72176812D02*
X146187794Y-71965145D01*
X146187794Y-71965145D02*
X146218032Y-71844193D01*
X146218032Y-71844193D02*
X146278508Y-71783717D01*
X146278508Y-71783717D02*
X146338984Y-71753479D01*
X147185651Y-71753479D02*
X146883270Y-71753479D01*
X146883270Y-71753479D02*
X146853032Y-72055860D01*
X146853032Y-72055860D02*
X146883270Y-72025621D01*
X146883270Y-72025621D02*
X146943746Y-71995383D01*
X146943746Y-71995383D02*
X147094937Y-71995383D01*
X147094937Y-71995383D02*
X147155413Y-72025621D01*
X147155413Y-72025621D02*
X147185651Y-72055860D01*
X147185651Y-72055860D02*
X147215889Y-72116336D01*
X147215889Y-72116336D02*
X147215889Y-72267526D01*
X147215889Y-72267526D02*
X147185651Y-72328002D01*
X147185651Y-72328002D02*
X147155413Y-72358241D01*
X147155413Y-72358241D02*
X147094937Y-72388479D01*
X147094937Y-72388479D02*
X146943746Y-72388479D01*
X146943746Y-72388479D02*
X146883270Y-72358241D01*
X146883270Y-72358241D02*
X146853032Y-72328002D01*
X147488032Y-72328002D02*
X147518270Y-72358241D01*
X147518270Y-72358241D02*
X147488032Y-72388479D01*
X147488032Y-72388479D02*
X147457794Y-72358241D01*
X147457794Y-72358241D02*
X147488032Y-72328002D01*
X147488032Y-72328002D02*
X147488032Y-72388479D01*
X147911365Y-71753479D02*
X147971842Y-71753479D01*
X147971842Y-71753479D02*
X148032318Y-71783717D01*
X148032318Y-71783717D02*
X148062556Y-71813955D01*
X148062556Y-71813955D02*
X148092794Y-71874431D01*
X148092794Y-71874431D02*
X148123032Y-71995383D01*
X148123032Y-71995383D02*
X148123032Y-72146574D01*
X148123032Y-72146574D02*
X148092794Y-72267526D01*
X148092794Y-72267526D02*
X148062556Y-72328002D01*
X148062556Y-72328002D02*
X148032318Y-72358241D01*
X148032318Y-72358241D02*
X147971842Y-72388479D01*
X147971842Y-72388479D02*
X147911365Y-72388479D01*
X147911365Y-72388479D02*
X147850889Y-72358241D01*
X147850889Y-72358241D02*
X147820651Y-72328002D01*
X147820651Y-72328002D02*
X147790413Y-72267526D01*
X147790413Y-72267526D02*
X147760175Y-72146574D01*
X147760175Y-72146574D02*
X147760175Y-71995383D01*
X147760175Y-71995383D02*
X147790413Y-71874431D01*
X147790413Y-71874431D02*
X147820651Y-71813955D01*
X147820651Y-71813955D02*
X147850889Y-71783717D01*
X147850889Y-71783717D02*
X147911365Y-71753479D01*
X146218032Y-64788479D02*
X146218032Y-64153479D01*
X146218032Y-64153479D02*
X146369222Y-64153479D01*
X146369222Y-64153479D02*
X146459937Y-64183717D01*
X146459937Y-64183717D02*
X146520413Y-64244193D01*
X146520413Y-64244193D02*
X146550651Y-64304669D01*
X146550651Y-64304669D02*
X146580889Y-64425621D01*
X146580889Y-64425621D02*
X146580889Y-64516336D01*
X146580889Y-64516336D02*
X146550651Y-64637288D01*
X146550651Y-64637288D02*
X146520413Y-64697764D01*
X146520413Y-64697764D02*
X146459937Y-64758241D01*
X146459937Y-64758241D02*
X146369222Y-64788479D01*
X146369222Y-64788479D02*
X146218032Y-64788479D01*
X146822794Y-64607050D02*
X147125175Y-64607050D01*
X146762318Y-64788479D02*
X146973984Y-64153479D01*
X146973984Y-64153479D02*
X147185651Y-64788479D01*
X147397318Y-64728002D02*
X147427556Y-64758241D01*
X147427556Y-64758241D02*
X147397318Y-64788479D01*
X147397318Y-64788479D02*
X147367080Y-64758241D01*
X147367080Y-64758241D02*
X147397318Y-64728002D01*
X147397318Y-64728002D02*
X147397318Y-64788479D01*
X148062556Y-64788479D02*
X147850889Y-64486098D01*
X147699699Y-64788479D02*
X147699699Y-64153479D01*
X147699699Y-64153479D02*
X147941604Y-64153479D01*
X147941604Y-64153479D02*
X148002080Y-64183717D01*
X148002080Y-64183717D02*
X148032318Y-64213955D01*
X148032318Y-64213955D02*
X148062556Y-64274431D01*
X148062556Y-64274431D02*
X148062556Y-64365145D01*
X148062556Y-64365145D02*
X148032318Y-64425621D01*
X148032318Y-64425621D02*
X148002080Y-64455860D01*
X148002080Y-64455860D02*
X147941604Y-64486098D01*
X147941604Y-64486098D02*
X147699699Y-64486098D01*
X146650651Y-86983717D02*
X146590175Y-86953479D01*
X146590175Y-86953479D02*
X146499461Y-86953479D01*
X146499461Y-86953479D02*
X146408746Y-86983717D01*
X146408746Y-86983717D02*
X146348270Y-87044193D01*
X146348270Y-87044193D02*
X146318032Y-87104669D01*
X146318032Y-87104669D02*
X146287794Y-87225621D01*
X146287794Y-87225621D02*
X146287794Y-87316336D01*
X146287794Y-87316336D02*
X146318032Y-87437288D01*
X146318032Y-87437288D02*
X146348270Y-87497764D01*
X146348270Y-87497764D02*
X146408746Y-87558241D01*
X146408746Y-87558241D02*
X146499461Y-87588479D01*
X146499461Y-87588479D02*
X146559937Y-87588479D01*
X146559937Y-87588479D02*
X146650651Y-87558241D01*
X146650651Y-87558241D02*
X146680889Y-87528002D01*
X146680889Y-87528002D02*
X146680889Y-87316336D01*
X146680889Y-87316336D02*
X146559937Y-87316336D01*
X146953032Y-87588479D02*
X146953032Y-86953479D01*
X146953032Y-86953479D02*
X147315889Y-87588479D01*
X147315889Y-87588479D02*
X147315889Y-86953479D01*
X147618270Y-87588479D02*
X147618270Y-86953479D01*
X147618270Y-86953479D02*
X147769460Y-86953479D01*
X147769460Y-86953479D02*
X147860175Y-86983717D01*
X147860175Y-86983717D02*
X147920651Y-87044193D01*
X147920651Y-87044193D02*
X147950889Y-87104669D01*
X147950889Y-87104669D02*
X147981127Y-87225621D01*
X147981127Y-87225621D02*
X147981127Y-87316336D01*
X147981127Y-87316336D02*
X147950889Y-87437288D01*
X147950889Y-87437288D02*
X147920651Y-87497764D01*
X147920651Y-87497764D02*
X147860175Y-87558241D01*
X147860175Y-87558241D02*
X147769460Y-87588479D01*
X147769460Y-87588479D02*
X147618270Y-87588479D01*
X146338984Y-69153479D02*
X146459937Y-69153479D01*
X146459937Y-69153479D02*
X146520413Y-69183717D01*
X146520413Y-69183717D02*
X146580889Y-69244193D01*
X146580889Y-69244193D02*
X146611127Y-69365145D01*
X146611127Y-69365145D02*
X146611127Y-69576812D01*
X146611127Y-69576812D02*
X146580889Y-69697764D01*
X146580889Y-69697764D02*
X146520413Y-69758241D01*
X146520413Y-69758241D02*
X146459937Y-69788479D01*
X146459937Y-69788479D02*
X146338984Y-69788479D01*
X146338984Y-69788479D02*
X146278508Y-69758241D01*
X146278508Y-69758241D02*
X146218032Y-69697764D01*
X146218032Y-69697764D02*
X146187794Y-69576812D01*
X146187794Y-69576812D02*
X146187794Y-69365145D01*
X146187794Y-69365145D02*
X146218032Y-69244193D01*
X146218032Y-69244193D02*
X146278508Y-69183717D01*
X146278508Y-69183717D02*
X146338984Y-69153479D01*
X147185651Y-69153479D02*
X146883270Y-69153479D01*
X146883270Y-69153479D02*
X146853032Y-69455860D01*
X146853032Y-69455860D02*
X146883270Y-69425621D01*
X146883270Y-69425621D02*
X146943746Y-69395383D01*
X146943746Y-69395383D02*
X147094937Y-69395383D01*
X147094937Y-69395383D02*
X147155413Y-69425621D01*
X147155413Y-69425621D02*
X147185651Y-69455860D01*
X147185651Y-69455860D02*
X147215889Y-69516336D01*
X147215889Y-69516336D02*
X147215889Y-69667526D01*
X147215889Y-69667526D02*
X147185651Y-69728002D01*
X147185651Y-69728002D02*
X147155413Y-69758241D01*
X147155413Y-69758241D02*
X147094937Y-69788479D01*
X147094937Y-69788479D02*
X146943746Y-69788479D01*
X146943746Y-69788479D02*
X146883270Y-69758241D01*
X146883270Y-69758241D02*
X146853032Y-69728002D01*
X147488032Y-69728002D02*
X147518270Y-69758241D01*
X147518270Y-69758241D02*
X147488032Y-69788479D01*
X147488032Y-69788479D02*
X147457794Y-69758241D01*
X147457794Y-69758241D02*
X147488032Y-69728002D01*
X147488032Y-69728002D02*
X147488032Y-69788479D01*
X148123032Y-69788479D02*
X147760175Y-69788479D01*
X147941603Y-69788479D02*
X147941603Y-69153479D01*
X147941603Y-69153479D02*
X147881127Y-69244193D01*
X147881127Y-69244193D02*
X147820651Y-69304669D01*
X147820651Y-69304669D02*
X147760175Y-69334907D01*
X146968032Y-56846574D02*
X147451842Y-56846574D01*
X147209937Y-57088479D02*
X147209937Y-56604669D01*
X148056603Y-56453479D02*
X147754222Y-56453479D01*
X147754222Y-56453479D02*
X147723984Y-56755860D01*
X147723984Y-56755860D02*
X147754222Y-56725621D01*
X147754222Y-56725621D02*
X147814698Y-56695383D01*
X147814698Y-56695383D02*
X147965889Y-56695383D01*
X147965889Y-56695383D02*
X148026365Y-56725621D01*
X148026365Y-56725621D02*
X148056603Y-56755860D01*
X148056603Y-56755860D02*
X148086841Y-56816336D01*
X148086841Y-56816336D02*
X148086841Y-56967526D01*
X148086841Y-56967526D02*
X148056603Y-57028002D01*
X148056603Y-57028002D02*
X148026365Y-57058241D01*
X148026365Y-57058241D02*
X147965889Y-57088479D01*
X147965889Y-57088479D02*
X147814698Y-57088479D01*
X147814698Y-57088479D02*
X147754222Y-57058241D01*
X147754222Y-57058241D02*
X147723984Y-57028002D01*
X146218032Y-67288479D02*
X146218032Y-66653479D01*
X146218032Y-66653479D02*
X146369222Y-66653479D01*
X146369222Y-66653479D02*
X146459937Y-66683717D01*
X146459937Y-66683717D02*
X146520413Y-66744193D01*
X146520413Y-66744193D02*
X146550651Y-66804669D01*
X146550651Y-66804669D02*
X146580889Y-66925621D01*
X146580889Y-66925621D02*
X146580889Y-67016336D01*
X146580889Y-67016336D02*
X146550651Y-67137288D01*
X146550651Y-67137288D02*
X146520413Y-67197764D01*
X146520413Y-67197764D02*
X146459937Y-67258241D01*
X146459937Y-67258241D02*
X146369222Y-67288479D01*
X146369222Y-67288479D02*
X146218032Y-67288479D01*
X146822794Y-67107050D02*
X147125175Y-67107050D01*
X146762318Y-67288479D02*
X146973984Y-66653479D01*
X146973984Y-66653479D02*
X147185651Y-67288479D01*
X147397318Y-67228002D02*
X147427556Y-67258241D01*
X147427556Y-67258241D02*
X147397318Y-67288479D01*
X147397318Y-67288479D02*
X147367080Y-67258241D01*
X147367080Y-67258241D02*
X147397318Y-67228002D01*
X147397318Y-67228002D02*
X147397318Y-67288479D01*
X148002080Y-67288479D02*
X147699699Y-67288479D01*
X147699699Y-67288479D02*
X147699699Y-66653479D01*
X146127318Y-61553479D02*
X146490175Y-61553479D01*
X146308746Y-62188479D02*
X146308746Y-61553479D01*
X146701842Y-62128002D02*
X146732080Y-62158241D01*
X146732080Y-62158241D02*
X146701842Y-62188479D01*
X146701842Y-62188479D02*
X146671604Y-62158241D01*
X146671604Y-62158241D02*
X146701842Y-62128002D01*
X146701842Y-62128002D02*
X146701842Y-62188479D01*
X147125175Y-61553479D02*
X147185652Y-61553479D01*
X147185652Y-61553479D02*
X147246128Y-61583717D01*
X147246128Y-61583717D02*
X147276366Y-61613955D01*
X147276366Y-61613955D02*
X147306604Y-61674431D01*
X147306604Y-61674431D02*
X147336842Y-61795383D01*
X147336842Y-61795383D02*
X147336842Y-61946574D01*
X147336842Y-61946574D02*
X147306604Y-62067526D01*
X147306604Y-62067526D02*
X147276366Y-62128002D01*
X147276366Y-62128002D02*
X147246128Y-62158241D01*
X147246128Y-62158241D02*
X147185652Y-62188479D01*
X147185652Y-62188479D02*
X147125175Y-62188479D01*
X147125175Y-62188479D02*
X147064699Y-62158241D01*
X147064699Y-62158241D02*
X147034461Y-62128002D01*
X147034461Y-62128002D02*
X147004223Y-62067526D01*
X147004223Y-62067526D02*
X146973985Y-61946574D01*
X146973985Y-61946574D02*
X146973985Y-61795383D01*
X146973985Y-61795383D02*
X147004223Y-61674431D01*
X147004223Y-61674431D02*
X147034461Y-61613955D01*
X147034461Y-61613955D02*
X147064699Y-61583717D01*
X147064699Y-61583717D02*
X147125175Y-61553479D01*
X146318032Y-82488479D02*
X146318032Y-81853479D01*
X146620413Y-82428002D02*
X146650651Y-82458241D01*
X146650651Y-82458241D02*
X146620413Y-82488479D01*
X146620413Y-82488479D02*
X146590175Y-82458241D01*
X146590175Y-82458241D02*
X146620413Y-82428002D01*
X146620413Y-82428002D02*
X146620413Y-82488479D01*
X147043746Y-81853479D02*
X147104223Y-81853479D01*
X147104223Y-81853479D02*
X147164699Y-81883717D01*
X147164699Y-81883717D02*
X147194937Y-81913955D01*
X147194937Y-81913955D02*
X147225175Y-81974431D01*
X147225175Y-81974431D02*
X147255413Y-82095383D01*
X147255413Y-82095383D02*
X147255413Y-82246574D01*
X147255413Y-82246574D02*
X147225175Y-82367526D01*
X147225175Y-82367526D02*
X147194937Y-82428002D01*
X147194937Y-82428002D02*
X147164699Y-82458241D01*
X147164699Y-82458241D02*
X147104223Y-82488479D01*
X147104223Y-82488479D02*
X147043746Y-82488479D01*
X147043746Y-82488479D02*
X146983270Y-82458241D01*
X146983270Y-82458241D02*
X146953032Y-82428002D01*
X146953032Y-82428002D02*
X146922794Y-82367526D01*
X146922794Y-82367526D02*
X146892556Y-82246574D01*
X146892556Y-82246574D02*
X146892556Y-82095383D01*
X146892556Y-82095383D02*
X146922794Y-81974431D01*
X146922794Y-81974431D02*
X146953032Y-81913955D01*
X146953032Y-81913955D02*
X146983270Y-81883717D01*
X146983270Y-81883717D02*
X147043746Y-81853479D01*
X146438984Y-74253479D02*
X146559937Y-74253479D01*
X146559937Y-74253479D02*
X146620413Y-74283717D01*
X146620413Y-74283717D02*
X146680889Y-74344193D01*
X146680889Y-74344193D02*
X146711127Y-74465145D01*
X146711127Y-74465145D02*
X146711127Y-74676812D01*
X146711127Y-74676812D02*
X146680889Y-74797764D01*
X146680889Y-74797764D02*
X146620413Y-74858241D01*
X146620413Y-74858241D02*
X146559937Y-74888479D01*
X146559937Y-74888479D02*
X146438984Y-74888479D01*
X146438984Y-74888479D02*
X146378508Y-74858241D01*
X146378508Y-74858241D02*
X146318032Y-74797764D01*
X146318032Y-74797764D02*
X146287794Y-74676812D01*
X146287794Y-74676812D02*
X146287794Y-74465145D01*
X146287794Y-74465145D02*
X146318032Y-74344193D01*
X146318032Y-74344193D02*
X146378508Y-74283717D01*
X146378508Y-74283717D02*
X146438984Y-74253479D01*
X146983270Y-74828002D02*
X147013508Y-74858241D01*
X147013508Y-74858241D02*
X146983270Y-74888479D01*
X146983270Y-74888479D02*
X146953032Y-74858241D01*
X146953032Y-74858241D02*
X146983270Y-74828002D01*
X146983270Y-74828002D02*
X146983270Y-74888479D01*
X147618270Y-74888479D02*
X147255413Y-74888479D01*
X147436841Y-74888479D02*
X147436841Y-74253479D01*
X147436841Y-74253479D02*
X147376365Y-74344193D01*
X147376365Y-74344193D02*
X147315889Y-74404669D01*
X147315889Y-74404669D02*
X147255413Y-74434907D01*
X146550651Y-59083717D02*
X146490175Y-59053479D01*
X146490175Y-59053479D02*
X146399461Y-59053479D01*
X146399461Y-59053479D02*
X146308746Y-59083717D01*
X146308746Y-59083717D02*
X146248270Y-59144193D01*
X146248270Y-59144193D02*
X146218032Y-59204669D01*
X146218032Y-59204669D02*
X146187794Y-59325621D01*
X146187794Y-59325621D02*
X146187794Y-59416336D01*
X146187794Y-59416336D02*
X146218032Y-59537288D01*
X146218032Y-59537288D02*
X146248270Y-59597764D01*
X146248270Y-59597764D02*
X146308746Y-59658241D01*
X146308746Y-59658241D02*
X146399461Y-59688479D01*
X146399461Y-59688479D02*
X146459937Y-59688479D01*
X146459937Y-59688479D02*
X146550651Y-59658241D01*
X146550651Y-59658241D02*
X146580889Y-59628002D01*
X146580889Y-59628002D02*
X146580889Y-59416336D01*
X146580889Y-59416336D02*
X146459937Y-59416336D01*
X146853032Y-59688479D02*
X146853032Y-59053479D01*
X146853032Y-59053479D02*
X147215889Y-59688479D01*
X147215889Y-59688479D02*
X147215889Y-59053479D01*
X147518270Y-59688479D02*
X147518270Y-59053479D01*
X147518270Y-59053479D02*
X147669460Y-59053479D01*
X147669460Y-59053479D02*
X147760175Y-59083717D01*
X147760175Y-59083717D02*
X147820651Y-59144193D01*
X147820651Y-59144193D02*
X147850889Y-59204669D01*
X147850889Y-59204669D02*
X147881127Y-59325621D01*
X147881127Y-59325621D02*
X147881127Y-59416336D01*
X147881127Y-59416336D02*
X147850889Y-59537288D01*
X147850889Y-59537288D02*
X147820651Y-59597764D01*
X147820651Y-59597764D02*
X147760175Y-59658241D01*
X147760175Y-59658241D02*
X147669460Y-59688479D01*
X147669460Y-59688479D02*
X147518270Y-59688479D01*
X146318032Y-79988479D02*
X146318032Y-79353479D01*
X146620413Y-79928002D02*
X146650651Y-79958241D01*
X146650651Y-79958241D02*
X146620413Y-79988479D01*
X146620413Y-79988479D02*
X146590175Y-79958241D01*
X146590175Y-79958241D02*
X146620413Y-79928002D01*
X146620413Y-79928002D02*
X146620413Y-79988479D01*
X147255413Y-79988479D02*
X146892556Y-79988479D01*
X147073984Y-79988479D02*
X147073984Y-79353479D01*
X147073984Y-79353479D02*
X147013508Y-79444193D01*
X147013508Y-79444193D02*
X146953032Y-79504669D01*
X146953032Y-79504669D02*
X146892556Y-79534907D01*
X146438984Y-76853479D02*
X146559937Y-76853479D01*
X146559937Y-76853479D02*
X146620413Y-76883717D01*
X146620413Y-76883717D02*
X146680889Y-76944193D01*
X146680889Y-76944193D02*
X146711127Y-77065145D01*
X146711127Y-77065145D02*
X146711127Y-77276812D01*
X146711127Y-77276812D02*
X146680889Y-77397764D01*
X146680889Y-77397764D02*
X146620413Y-77458241D01*
X146620413Y-77458241D02*
X146559937Y-77488479D01*
X146559937Y-77488479D02*
X146438984Y-77488479D01*
X146438984Y-77488479D02*
X146378508Y-77458241D01*
X146378508Y-77458241D02*
X146318032Y-77397764D01*
X146318032Y-77397764D02*
X146287794Y-77276812D01*
X146287794Y-77276812D02*
X146287794Y-77065145D01*
X146287794Y-77065145D02*
X146318032Y-76944193D01*
X146318032Y-76944193D02*
X146378508Y-76883717D01*
X146378508Y-76883717D02*
X146438984Y-76853479D01*
X146983270Y-77428002D02*
X147013508Y-77458241D01*
X147013508Y-77458241D02*
X146983270Y-77488479D01*
X146983270Y-77488479D02*
X146953032Y-77458241D01*
X146953032Y-77458241D02*
X146983270Y-77428002D01*
X146983270Y-77428002D02*
X146983270Y-77488479D01*
X147406603Y-76853479D02*
X147467080Y-76853479D01*
X147467080Y-76853479D02*
X147527556Y-76883717D01*
X147527556Y-76883717D02*
X147557794Y-76913955D01*
X147557794Y-76913955D02*
X147588032Y-76974431D01*
X147588032Y-76974431D02*
X147618270Y-77095383D01*
X147618270Y-77095383D02*
X147618270Y-77246574D01*
X147618270Y-77246574D02*
X147588032Y-77367526D01*
X147588032Y-77367526D02*
X147557794Y-77428002D01*
X147557794Y-77428002D02*
X147527556Y-77458241D01*
X147527556Y-77458241D02*
X147467080Y-77488479D01*
X147467080Y-77488479D02*
X147406603Y-77488479D01*
X147406603Y-77488479D02*
X147346127Y-77458241D01*
X147346127Y-77458241D02*
X147315889Y-77428002D01*
X147315889Y-77428002D02*
X147285651Y-77367526D01*
X147285651Y-77367526D02*
X147255413Y-77246574D01*
X147255413Y-77246574D02*
X147255413Y-77095383D01*
X147255413Y-77095383D02*
X147285651Y-76974431D01*
X147285651Y-76974431D02*
X147315889Y-76913955D01*
X147315889Y-76913955D02*
X147346127Y-76883717D01*
X147346127Y-76883717D02*
X147406603Y-76853479D01*
D11*
X149866666Y-89054819D02*
X149866666Y-89769104D01*
X149866666Y-89769104D02*
X149819047Y-89911961D01*
X149819047Y-89911961D02*
X149723809Y-90007200D01*
X149723809Y-90007200D02*
X149580952Y-90054819D01*
X149580952Y-90054819D02*
X149485714Y-90054819D01*
X150866666Y-90054819D02*
X150295238Y-90054819D01*
X150580952Y-90054819D02*
X150580952Y-89054819D01*
X150580952Y-89054819D02*
X150485714Y-89197676D01*
X150485714Y-89197676D02*
X150390476Y-89292914D01*
X150390476Y-89292914D02*
X150295238Y-89340533D01*
D10*
X111644166Y-86648479D02*
X111432499Y-86346098D01*
X111281309Y-86648479D02*
X111281309Y-86013479D01*
X111281309Y-86013479D02*
X111523214Y-86013479D01*
X111523214Y-86013479D02*
X111583690Y-86043717D01*
X111583690Y-86043717D02*
X111613928Y-86073955D01*
X111613928Y-86073955D02*
X111644166Y-86134431D01*
X111644166Y-86134431D02*
X111644166Y-86225145D01*
X111644166Y-86225145D02*
X111613928Y-86285621D01*
X111613928Y-86285621D02*
X111583690Y-86315860D01*
X111583690Y-86315860D02*
X111523214Y-86346098D01*
X111523214Y-86346098D02*
X111281309Y-86346098D01*
X111886071Y-86073955D02*
X111916309Y-86043717D01*
X111916309Y-86043717D02*
X111976785Y-86013479D01*
X111976785Y-86013479D02*
X112127976Y-86013479D01*
X112127976Y-86013479D02*
X112188452Y-86043717D01*
X112188452Y-86043717D02*
X112218690Y-86073955D01*
X112218690Y-86073955D02*
X112248928Y-86134431D01*
X112248928Y-86134431D02*
X112248928Y-86194907D01*
X112248928Y-86194907D02*
X112218690Y-86285621D01*
X112218690Y-86285621D02*
X111855833Y-86648479D01*
X111855833Y-86648479D02*
X112248928Y-86648479D01*
D11*
X111156667Y-90157200D02*
X111299524Y-90204819D01*
X111299524Y-90204819D02*
X111537619Y-90204819D01*
X111537619Y-90204819D02*
X111632857Y-90157200D01*
X111632857Y-90157200D02*
X111680476Y-90109580D01*
X111680476Y-90109580D02*
X111728095Y-90014342D01*
X111728095Y-90014342D02*
X111728095Y-89919104D01*
X111728095Y-89919104D02*
X111680476Y-89823866D01*
X111680476Y-89823866D02*
X111632857Y-89776247D01*
X111632857Y-89776247D02*
X111537619Y-89728628D01*
X111537619Y-89728628D02*
X111347143Y-89681009D01*
X111347143Y-89681009D02*
X111251905Y-89633390D01*
X111251905Y-89633390D02*
X111204286Y-89585771D01*
X111204286Y-89585771D02*
X111156667Y-89490533D01*
X111156667Y-89490533D02*
X111156667Y-89395295D01*
X111156667Y-89395295D02*
X111204286Y-89300057D01*
X111204286Y-89300057D02*
X111251905Y-89252438D01*
X111251905Y-89252438D02*
X111347143Y-89204819D01*
X111347143Y-89204819D02*
X111585238Y-89204819D01*
X111585238Y-89204819D02*
X111728095Y-89252438D01*
X112061429Y-89204819D02*
X112299524Y-90204819D01*
X112299524Y-90204819D02*
X112490000Y-89490533D01*
X112490000Y-89490533D02*
X112680476Y-90204819D01*
X112680476Y-90204819D02*
X112918572Y-89204819D01*
X113823333Y-90204819D02*
X113251905Y-90204819D01*
X113537619Y-90204819D02*
X113537619Y-89204819D01*
X113537619Y-89204819D02*
X113442381Y-89347676D01*
X113442381Y-89347676D02*
X113347143Y-89442914D01*
X113347143Y-89442914D02*
X113251905Y-89490533D01*
D10*
X133716190Y-64235479D02*
X133716190Y-64749526D01*
X133716190Y-64749526D02*
X133746428Y-64810002D01*
X133746428Y-64810002D02*
X133776666Y-64840241D01*
X133776666Y-64840241D02*
X133837142Y-64870479D01*
X133837142Y-64870479D02*
X133958095Y-64870479D01*
X133958095Y-64870479D02*
X134018571Y-64840241D01*
X134018571Y-64840241D02*
X134048809Y-64810002D01*
X134048809Y-64810002D02*
X134079047Y-64749526D01*
X134079047Y-64749526D02*
X134079047Y-64235479D01*
X134351190Y-64295955D02*
X134381428Y-64265717D01*
X134381428Y-64265717D02*
X134441904Y-64235479D01*
X134441904Y-64235479D02*
X134593095Y-64235479D01*
X134593095Y-64235479D02*
X134653571Y-64265717D01*
X134653571Y-64265717D02*
X134683809Y-64295955D01*
X134683809Y-64295955D02*
X134714047Y-64356431D01*
X134714047Y-64356431D02*
X134714047Y-64416907D01*
X134714047Y-64416907D02*
X134683809Y-64507621D01*
X134683809Y-64507621D02*
X134320952Y-64870479D01*
X134320952Y-64870479D02*
X134714047Y-64870479D01*
X114694166Y-61038479D02*
X114482499Y-60736098D01*
X114331309Y-61038479D02*
X114331309Y-60403479D01*
X114331309Y-60403479D02*
X114573214Y-60403479D01*
X114573214Y-60403479D02*
X114633690Y-60433717D01*
X114633690Y-60433717D02*
X114663928Y-60463955D01*
X114663928Y-60463955D02*
X114694166Y-60524431D01*
X114694166Y-60524431D02*
X114694166Y-60615145D01*
X114694166Y-60615145D02*
X114663928Y-60675621D01*
X114663928Y-60675621D02*
X114633690Y-60705860D01*
X114633690Y-60705860D02*
X114573214Y-60736098D01*
X114573214Y-60736098D02*
X114331309Y-60736098D01*
X115298928Y-61038479D02*
X114936071Y-61038479D01*
X115117499Y-61038479D02*
X115117499Y-60403479D01*
X115117499Y-60403479D02*
X115057023Y-60494193D01*
X115057023Y-60494193D02*
X114996547Y-60554669D01*
X114996547Y-60554669D02*
X114936071Y-60584907D01*
X142931666Y-62178002D02*
X142901428Y-62208241D01*
X142901428Y-62208241D02*
X142810714Y-62238479D01*
X142810714Y-62238479D02*
X142750238Y-62238479D01*
X142750238Y-62238479D02*
X142659523Y-62208241D01*
X142659523Y-62208241D02*
X142599047Y-62147764D01*
X142599047Y-62147764D02*
X142568809Y-62087288D01*
X142568809Y-62087288D02*
X142538571Y-61966336D01*
X142538571Y-61966336D02*
X142538571Y-61875621D01*
X142538571Y-61875621D02*
X142568809Y-61754669D01*
X142568809Y-61754669D02*
X142599047Y-61694193D01*
X142599047Y-61694193D02*
X142659523Y-61633717D01*
X142659523Y-61633717D02*
X142750238Y-61603479D01*
X142750238Y-61603479D02*
X142810714Y-61603479D01*
X142810714Y-61603479D02*
X142901428Y-61633717D01*
X142901428Y-61633717D02*
X142931666Y-61663955D01*
X143143333Y-61603479D02*
X143536428Y-61603479D01*
X143536428Y-61603479D02*
X143324761Y-61845383D01*
X143324761Y-61845383D02*
X143415476Y-61845383D01*
X143415476Y-61845383D02*
X143475952Y-61875621D01*
X143475952Y-61875621D02*
X143506190Y-61905860D01*
X143506190Y-61905860D02*
X143536428Y-61966336D01*
X143536428Y-61966336D02*
X143536428Y-62117526D01*
X143536428Y-62117526D02*
X143506190Y-62178002D01*
X143506190Y-62178002D02*
X143475952Y-62208241D01*
X143475952Y-62208241D02*
X143415476Y-62238479D01*
X143415476Y-62238479D02*
X143234047Y-62238479D01*
X143234047Y-62238479D02*
X143173571Y-62208241D01*
X143173571Y-62208241D02*
X143143333Y-62178002D01*
X136444166Y-59628002D02*
X136413928Y-59658241D01*
X136413928Y-59658241D02*
X136323214Y-59688479D01*
X136323214Y-59688479D02*
X136262738Y-59688479D01*
X136262738Y-59688479D02*
X136172023Y-59658241D01*
X136172023Y-59658241D02*
X136111547Y-59597764D01*
X136111547Y-59597764D02*
X136081309Y-59537288D01*
X136081309Y-59537288D02*
X136051071Y-59416336D01*
X136051071Y-59416336D02*
X136051071Y-59325621D01*
X136051071Y-59325621D02*
X136081309Y-59204669D01*
X136081309Y-59204669D02*
X136111547Y-59144193D01*
X136111547Y-59144193D02*
X136172023Y-59083717D01*
X136172023Y-59083717D02*
X136262738Y-59053479D01*
X136262738Y-59053479D02*
X136323214Y-59053479D01*
X136323214Y-59053479D02*
X136413928Y-59083717D01*
X136413928Y-59083717D02*
X136444166Y-59113955D01*
X137048928Y-59688479D02*
X136686071Y-59688479D01*
X136867499Y-59688479D02*
X136867499Y-59053479D01*
X136867499Y-59053479D02*
X136807023Y-59144193D01*
X136807023Y-59144193D02*
X136746547Y-59204669D01*
X136746547Y-59204669D02*
X136686071Y-59234907D01*
X136394166Y-54265502D02*
X136363928Y-54295741D01*
X136363928Y-54295741D02*
X136273214Y-54325979D01*
X136273214Y-54325979D02*
X136212738Y-54325979D01*
X136212738Y-54325979D02*
X136122023Y-54295741D01*
X136122023Y-54295741D02*
X136061547Y-54235264D01*
X136061547Y-54235264D02*
X136031309Y-54174788D01*
X136031309Y-54174788D02*
X136001071Y-54053836D01*
X136001071Y-54053836D02*
X136001071Y-53963121D01*
X136001071Y-53963121D02*
X136031309Y-53842169D01*
X136031309Y-53842169D02*
X136061547Y-53781693D01*
X136061547Y-53781693D02*
X136122023Y-53721217D01*
X136122023Y-53721217D02*
X136212738Y-53690979D01*
X136212738Y-53690979D02*
X136273214Y-53690979D01*
X136273214Y-53690979D02*
X136363928Y-53721217D01*
X136363928Y-53721217D02*
X136394166Y-53751455D01*
X136636071Y-53751455D02*
X136666309Y-53721217D01*
X136666309Y-53721217D02*
X136726785Y-53690979D01*
X136726785Y-53690979D02*
X136877976Y-53690979D01*
X136877976Y-53690979D02*
X136938452Y-53721217D01*
X136938452Y-53721217D02*
X136968690Y-53751455D01*
X136968690Y-53751455D02*
X136998928Y-53811931D01*
X136998928Y-53811931D02*
X136998928Y-53872407D01*
X136998928Y-53872407D02*
X136968690Y-53963121D01*
X136968690Y-53963121D02*
X136605833Y-54325979D01*
X136605833Y-54325979D02*
X136998928Y-54325979D01*
X112516190Y-72403479D02*
X112516190Y-72917526D01*
X112516190Y-72917526D02*
X112546428Y-72978002D01*
X112546428Y-72978002D02*
X112576666Y-73008241D01*
X112576666Y-73008241D02*
X112637142Y-73038479D01*
X112637142Y-73038479D02*
X112758095Y-73038479D01*
X112758095Y-73038479D02*
X112818571Y-73008241D01*
X112818571Y-73008241D02*
X112848809Y-72978002D01*
X112848809Y-72978002D02*
X112879047Y-72917526D01*
X112879047Y-72917526D02*
X112879047Y-72403479D01*
X113483809Y-72403479D02*
X113181428Y-72403479D01*
X113181428Y-72403479D02*
X113151190Y-72705860D01*
X113151190Y-72705860D02*
X113181428Y-72675621D01*
X113181428Y-72675621D02*
X113241904Y-72645383D01*
X113241904Y-72645383D02*
X113393095Y-72645383D01*
X113393095Y-72645383D02*
X113453571Y-72675621D01*
X113453571Y-72675621D02*
X113483809Y-72705860D01*
X113483809Y-72705860D02*
X113514047Y-72766336D01*
X113514047Y-72766336D02*
X113514047Y-72917526D01*
X113514047Y-72917526D02*
X113483809Y-72978002D01*
X113483809Y-72978002D02*
X113453571Y-73008241D01*
X113453571Y-73008241D02*
X113393095Y-73038479D01*
X113393095Y-73038479D02*
X113241904Y-73038479D01*
X113241904Y-73038479D02*
X113181428Y-73008241D01*
X113181428Y-73008241D02*
X113151190Y-72978002D01*
X136591785Y-79488479D02*
X136380118Y-79186098D01*
X136228928Y-79488479D02*
X136228928Y-78853479D01*
X136228928Y-78853479D02*
X136470833Y-78853479D01*
X136470833Y-78853479D02*
X136531309Y-78883717D01*
X136531309Y-78883717D02*
X136561547Y-78913955D01*
X136561547Y-78913955D02*
X136591785Y-78974431D01*
X136591785Y-78974431D02*
X136591785Y-79065145D01*
X136591785Y-79065145D02*
X136561547Y-79125621D01*
X136561547Y-79125621D02*
X136531309Y-79155860D01*
X136531309Y-79155860D02*
X136470833Y-79186098D01*
X136470833Y-79186098D02*
X136228928Y-79186098D01*
X137196547Y-79488479D02*
X136833690Y-79488479D01*
X137015118Y-79488479D02*
X137015118Y-78853479D01*
X137015118Y-78853479D02*
X136954642Y-78944193D01*
X136954642Y-78944193D02*
X136894166Y-79004669D01*
X136894166Y-79004669D02*
X136833690Y-79034907D01*
X137438452Y-78913955D02*
X137468690Y-78883717D01*
X137468690Y-78883717D02*
X137529166Y-78853479D01*
X137529166Y-78853479D02*
X137680357Y-78853479D01*
X137680357Y-78853479D02*
X137740833Y-78883717D01*
X137740833Y-78883717D02*
X137771071Y-78913955D01*
X137771071Y-78913955D02*
X137801309Y-78974431D01*
X137801309Y-78974431D02*
X137801309Y-79034907D01*
X137801309Y-79034907D02*
X137771071Y-79125621D01*
X137771071Y-79125621D02*
X137408214Y-79488479D01*
X137408214Y-79488479D02*
X137801309Y-79488479D01*
D11*
X126756667Y-90157200D02*
X126899524Y-90204819D01*
X126899524Y-90204819D02*
X127137619Y-90204819D01*
X127137619Y-90204819D02*
X127232857Y-90157200D01*
X127232857Y-90157200D02*
X127280476Y-90109580D01*
X127280476Y-90109580D02*
X127328095Y-90014342D01*
X127328095Y-90014342D02*
X127328095Y-89919104D01*
X127328095Y-89919104D02*
X127280476Y-89823866D01*
X127280476Y-89823866D02*
X127232857Y-89776247D01*
X127232857Y-89776247D02*
X127137619Y-89728628D01*
X127137619Y-89728628D02*
X126947143Y-89681009D01*
X126947143Y-89681009D02*
X126851905Y-89633390D01*
X126851905Y-89633390D02*
X126804286Y-89585771D01*
X126804286Y-89585771D02*
X126756667Y-89490533D01*
X126756667Y-89490533D02*
X126756667Y-89395295D01*
X126756667Y-89395295D02*
X126804286Y-89300057D01*
X126804286Y-89300057D02*
X126851905Y-89252438D01*
X126851905Y-89252438D02*
X126947143Y-89204819D01*
X126947143Y-89204819D02*
X127185238Y-89204819D01*
X127185238Y-89204819D02*
X127328095Y-89252438D01*
X127661429Y-89204819D02*
X127899524Y-90204819D01*
X127899524Y-90204819D02*
X128090000Y-89490533D01*
X128090000Y-89490533D02*
X128280476Y-90204819D01*
X128280476Y-90204819D02*
X128518572Y-89204819D01*
X128851905Y-89300057D02*
X128899524Y-89252438D01*
X128899524Y-89252438D02*
X128994762Y-89204819D01*
X128994762Y-89204819D02*
X129232857Y-89204819D01*
X129232857Y-89204819D02*
X129328095Y-89252438D01*
X129328095Y-89252438D02*
X129375714Y-89300057D01*
X129375714Y-89300057D02*
X129423333Y-89395295D01*
X129423333Y-89395295D02*
X129423333Y-89490533D01*
X129423333Y-89490533D02*
X129375714Y-89633390D01*
X129375714Y-89633390D02*
X128804286Y-90204819D01*
X128804286Y-90204819D02*
X129423333Y-90204819D01*
D10*
X109894166Y-54828002D02*
X109863928Y-54858241D01*
X109863928Y-54858241D02*
X109773214Y-54888479D01*
X109773214Y-54888479D02*
X109712738Y-54888479D01*
X109712738Y-54888479D02*
X109622023Y-54858241D01*
X109622023Y-54858241D02*
X109561547Y-54797764D01*
X109561547Y-54797764D02*
X109531309Y-54737288D01*
X109531309Y-54737288D02*
X109501071Y-54616336D01*
X109501071Y-54616336D02*
X109501071Y-54525621D01*
X109501071Y-54525621D02*
X109531309Y-54404669D01*
X109531309Y-54404669D02*
X109561547Y-54344193D01*
X109561547Y-54344193D02*
X109622023Y-54283717D01*
X109622023Y-54283717D02*
X109712738Y-54253479D01*
X109712738Y-54253479D02*
X109773214Y-54253479D01*
X109773214Y-54253479D02*
X109863928Y-54283717D01*
X109863928Y-54283717D02*
X109894166Y-54313955D01*
X110438452Y-54465145D02*
X110438452Y-54888479D01*
X110287261Y-54223241D02*
X110136071Y-54676812D01*
X110136071Y-54676812D02*
X110529166Y-54676812D01*
X144388333Y-57853479D02*
X144388333Y-58307050D01*
X144388333Y-58307050D02*
X144358094Y-58397764D01*
X144358094Y-58397764D02*
X144297618Y-58458241D01*
X144297618Y-58458241D02*
X144206904Y-58488479D01*
X144206904Y-58488479D02*
X144146428Y-58488479D01*
X144660476Y-57913955D02*
X144690714Y-57883717D01*
X144690714Y-57883717D02*
X144751190Y-57853479D01*
X144751190Y-57853479D02*
X144902381Y-57853479D01*
X144902381Y-57853479D02*
X144962857Y-57883717D01*
X144962857Y-57883717D02*
X144993095Y-57913955D01*
X144993095Y-57913955D02*
X145023333Y-57974431D01*
X145023333Y-57974431D02*
X145023333Y-58034907D01*
X145023333Y-58034907D02*
X144993095Y-58125621D01*
X144993095Y-58125621D02*
X144630238Y-58488479D01*
X144630238Y-58488479D02*
X145023333Y-58488479D01*
D11*
X142416667Y-90157200D02*
X142559524Y-90204819D01*
X142559524Y-90204819D02*
X142797619Y-90204819D01*
X142797619Y-90204819D02*
X142892857Y-90157200D01*
X142892857Y-90157200D02*
X142940476Y-90109580D01*
X142940476Y-90109580D02*
X142988095Y-90014342D01*
X142988095Y-90014342D02*
X142988095Y-89919104D01*
X142988095Y-89919104D02*
X142940476Y-89823866D01*
X142940476Y-89823866D02*
X142892857Y-89776247D01*
X142892857Y-89776247D02*
X142797619Y-89728628D01*
X142797619Y-89728628D02*
X142607143Y-89681009D01*
X142607143Y-89681009D02*
X142511905Y-89633390D01*
X142511905Y-89633390D02*
X142464286Y-89585771D01*
X142464286Y-89585771D02*
X142416667Y-89490533D01*
X142416667Y-89490533D02*
X142416667Y-89395295D01*
X142416667Y-89395295D02*
X142464286Y-89300057D01*
X142464286Y-89300057D02*
X142511905Y-89252438D01*
X142511905Y-89252438D02*
X142607143Y-89204819D01*
X142607143Y-89204819D02*
X142845238Y-89204819D01*
X142845238Y-89204819D02*
X142988095Y-89252438D01*
X143321429Y-89204819D02*
X143559524Y-90204819D01*
X143559524Y-90204819D02*
X143750000Y-89490533D01*
X143750000Y-89490533D02*
X143940476Y-90204819D01*
X143940476Y-90204819D02*
X144178572Y-89204819D01*
X144464286Y-89204819D02*
X145083333Y-89204819D01*
X145083333Y-89204819D02*
X144750000Y-89585771D01*
X144750000Y-89585771D02*
X144892857Y-89585771D01*
X144892857Y-89585771D02*
X144988095Y-89633390D01*
X144988095Y-89633390D02*
X145035714Y-89681009D01*
X145035714Y-89681009D02*
X145083333Y-89776247D01*
X145083333Y-89776247D02*
X145083333Y-90014342D01*
X145083333Y-90014342D02*
X145035714Y-90109580D01*
X145035714Y-90109580D02*
X144988095Y-90157200D01*
X144988095Y-90157200D02*
X144892857Y-90204819D01*
X144892857Y-90204819D02*
X144607143Y-90204819D01*
X144607143Y-90204819D02*
X144511905Y-90157200D01*
X144511905Y-90157200D02*
X144464286Y-90109580D01*
D10*
X127144166Y-86648479D02*
X126932499Y-86346098D01*
X126781309Y-86648479D02*
X126781309Y-86013479D01*
X126781309Y-86013479D02*
X127023214Y-86013479D01*
X127023214Y-86013479D02*
X127083690Y-86043717D01*
X127083690Y-86043717D02*
X127113928Y-86073955D01*
X127113928Y-86073955D02*
X127144166Y-86134431D01*
X127144166Y-86134431D02*
X127144166Y-86225145D01*
X127144166Y-86225145D02*
X127113928Y-86285621D01*
X127113928Y-86285621D02*
X127083690Y-86315860D01*
X127083690Y-86315860D02*
X127023214Y-86346098D01*
X127023214Y-86346098D02*
X126781309Y-86346098D01*
X127355833Y-86013479D02*
X127748928Y-86013479D01*
X127748928Y-86013479D02*
X127537261Y-86255383D01*
X127537261Y-86255383D02*
X127627976Y-86255383D01*
X127627976Y-86255383D02*
X127688452Y-86285621D01*
X127688452Y-86285621D02*
X127718690Y-86315860D01*
X127718690Y-86315860D02*
X127748928Y-86376336D01*
X127748928Y-86376336D02*
X127748928Y-86527526D01*
X127748928Y-86527526D02*
X127718690Y-86588002D01*
X127718690Y-86588002D02*
X127688452Y-86618241D01*
X127688452Y-86618241D02*
X127627976Y-86648479D01*
X127627976Y-86648479D02*
X127446547Y-86648479D01*
X127446547Y-86648479D02*
X127386071Y-86618241D01*
X127386071Y-86618241D02*
X127355833Y-86588002D01*
X131894166Y-59788479D02*
X131682499Y-59486098D01*
X131531309Y-59788479D02*
X131531309Y-59153479D01*
X131531309Y-59153479D02*
X131773214Y-59153479D01*
X131773214Y-59153479D02*
X131833690Y-59183717D01*
X131833690Y-59183717D02*
X131863928Y-59213955D01*
X131863928Y-59213955D02*
X131894166Y-59274431D01*
X131894166Y-59274431D02*
X131894166Y-59365145D01*
X131894166Y-59365145D02*
X131863928Y-59425621D01*
X131863928Y-59425621D02*
X131833690Y-59455860D01*
X131833690Y-59455860D02*
X131773214Y-59486098D01*
X131773214Y-59486098D02*
X131531309Y-59486098D01*
X132468690Y-59153479D02*
X132166309Y-59153479D01*
X132166309Y-59153479D02*
X132136071Y-59455860D01*
X132136071Y-59455860D02*
X132166309Y-59425621D01*
X132166309Y-59425621D02*
X132226785Y-59395383D01*
X132226785Y-59395383D02*
X132377976Y-59395383D01*
X132377976Y-59395383D02*
X132438452Y-59425621D01*
X132438452Y-59425621D02*
X132468690Y-59455860D01*
X132468690Y-59455860D02*
X132498928Y-59516336D01*
X132498928Y-59516336D02*
X132498928Y-59667526D01*
X132498928Y-59667526D02*
X132468690Y-59728002D01*
X132468690Y-59728002D02*
X132438452Y-59758241D01*
X132438452Y-59758241D02*
X132377976Y-59788479D01*
X132377976Y-59788479D02*
X132226785Y-59788479D01*
X132226785Y-59788479D02*
X132166309Y-59758241D01*
X132166309Y-59758241D02*
X132136071Y-59728002D01*
X126516190Y-69653479D02*
X126516190Y-70167526D01*
X126516190Y-70167526D02*
X126546428Y-70228002D01*
X126546428Y-70228002D02*
X126576666Y-70258241D01*
X126576666Y-70258241D02*
X126637142Y-70288479D01*
X126637142Y-70288479D02*
X126758095Y-70288479D01*
X126758095Y-70288479D02*
X126818571Y-70258241D01*
X126818571Y-70258241D02*
X126848809Y-70228002D01*
X126848809Y-70228002D02*
X126879047Y-70167526D01*
X126879047Y-70167526D02*
X126879047Y-69653479D01*
X127453571Y-69653479D02*
X127332618Y-69653479D01*
X127332618Y-69653479D02*
X127272142Y-69683717D01*
X127272142Y-69683717D02*
X127241904Y-69713955D01*
X127241904Y-69713955D02*
X127181428Y-69804669D01*
X127181428Y-69804669D02*
X127151190Y-69925621D01*
X127151190Y-69925621D02*
X127151190Y-70167526D01*
X127151190Y-70167526D02*
X127181428Y-70228002D01*
X127181428Y-70228002D02*
X127211666Y-70258241D01*
X127211666Y-70258241D02*
X127272142Y-70288479D01*
X127272142Y-70288479D02*
X127393095Y-70288479D01*
X127393095Y-70288479D02*
X127453571Y-70258241D01*
X127453571Y-70258241D02*
X127483809Y-70228002D01*
X127483809Y-70228002D02*
X127514047Y-70167526D01*
X127514047Y-70167526D02*
X127514047Y-70016336D01*
X127514047Y-70016336D02*
X127483809Y-69955860D01*
X127483809Y-69955860D02*
X127453571Y-69925621D01*
X127453571Y-69925621D02*
X127393095Y-69895383D01*
X127393095Y-69895383D02*
X127272142Y-69895383D01*
X127272142Y-69895383D02*
X127211666Y-69925621D01*
X127211666Y-69925621D02*
X127181428Y-69955860D01*
X127181428Y-69955860D02*
X127151190Y-70016336D01*
X142894166Y-86751479D02*
X142682499Y-86449098D01*
X142531309Y-86751479D02*
X142531309Y-86116479D01*
X142531309Y-86116479D02*
X142773214Y-86116479D01*
X142773214Y-86116479D02*
X142833690Y-86146717D01*
X142833690Y-86146717D02*
X142863928Y-86176955D01*
X142863928Y-86176955D02*
X142894166Y-86237431D01*
X142894166Y-86237431D02*
X142894166Y-86328145D01*
X142894166Y-86328145D02*
X142863928Y-86388621D01*
X142863928Y-86388621D02*
X142833690Y-86418860D01*
X142833690Y-86418860D02*
X142773214Y-86449098D01*
X142773214Y-86449098D02*
X142531309Y-86449098D01*
X143438452Y-86328145D02*
X143438452Y-86751479D01*
X143287261Y-86086241D02*
X143136071Y-86539812D01*
X143136071Y-86539812D02*
X143529166Y-86539812D01*
D12*
%TO.C,J1*%
X148624000Y-53190000D02*
X152410000Y-53190000D01*
X148624000Y-86040000D02*
X152410000Y-86040000D01*
X148624000Y-88410000D02*
X148624000Y-53190000D01*
X152410000Y-53190000D02*
X152410000Y-88410000D01*
X152410000Y-88410000D02*
X148624000Y-88410000D01*
%TO.C,R2*%
X112490000Y-87087064D02*
X112490000Y-85632936D01*
X114310000Y-87087064D02*
X114310000Y-85632936D01*
%TO.C,SW1*%
X103382000Y-86245000D02*
X103382000Y-87745000D01*
X104632000Y-90245000D02*
X109132000Y-90245000D01*
X109132000Y-83745000D02*
X104632000Y-83745000D01*
X110382000Y-87745000D02*
X110382000Y-86245000D01*
%TO.C,U2*%
X123700000Y-62720000D02*
X123700000Y-82700000D01*
X123700000Y-82700000D02*
X144700000Y-82700000D01*
X127850000Y-68646000D02*
X127850000Y-69662000D01*
X130700001Y-62720000D02*
X123700000Y-62720000D01*
X130700001Y-63080000D02*
X130700001Y-62720000D01*
X137700000Y-62720000D02*
X137700000Y-63080000D01*
X137700000Y-63080000D02*
X130700001Y-63080000D01*
X140550000Y-68646000D02*
X140550000Y-69662000D01*
X140804000Y-68900000D02*
X127596000Y-68900000D01*
X144700000Y-62720000D02*
X137700000Y-62720000D01*
X144700000Y-82700000D02*
X144700000Y-62720000D01*
X140550000Y-82616000D02*
X127850000Y-82616000D01*
X127850000Y-84140000D01*
X140550000Y-84140000D01*
X140550000Y-82616000D01*
%TO.C,R1*%
X114072936Y-58090000D02*
X115527064Y-58090000D01*
X114072936Y-59910000D02*
X115527064Y-59910000D01*
%TO.C,C3*%
X142288748Y-59290000D02*
X143711252Y-59290000D01*
X142288748Y-61110000D02*
X143711252Y-61110000D01*
%TO.C,C1*%
X137515000Y-59661252D02*
X137515000Y-59138748D01*
X138985000Y-59661252D02*
X138985000Y-59138748D01*
%TO.C,C2*%
X137515000Y-53776248D02*
X137515000Y-54298752D01*
X138985000Y-53776248D02*
X138985000Y-54298752D01*
D13*
%TO.C,U5*%
X100725000Y-76680272D02*
X100725000Y-68685000D01*
X101225000Y-68185000D02*
X102235000Y-68185000D01*
D14*
X102235000Y-65704000D02*
X102235000Y-79674000D01*
D13*
X102235000Y-65704000D02*
X102235000Y-79674000D01*
X102235000Y-77184000D02*
X101224728Y-77180272D01*
X121285000Y-63799000D02*
X104140000Y-63799000D01*
X121285000Y-81579000D02*
X104140000Y-81579000D01*
X123190000Y-79674000D02*
X123190000Y-65704000D01*
X100725000Y-68685000D02*
G75*
G02*
X101225000Y-68185000I500000J0D01*
G01*
X101224728Y-77180272D02*
G75*
G02*
X100725001Y-76680272I291J500018D01*
G01*
X102235000Y-65704000D02*
G75*
G02*
X104140000Y-63799000I1905000J0D01*
G01*
X104140000Y-81579000D02*
G75*
G02*
X102235000Y-79674000I1J1905001D01*
G01*
X121285000Y-63799000D02*
G75*
G02*
X123190000Y-65704000I0J-1905000D01*
G01*
X123190000Y-79674000D02*
G75*
G02*
X121285000Y-81579000I-1905001J1D01*
G01*
D15*
X102728000Y-81639000D02*
G75*
G02*
X102224000Y-81639000I-252000J0D01*
G01*
X102224000Y-81639000D02*
G75*
G02*
X102728000Y-81639000I252000J0D01*
G01*
X103608000Y-80496000D02*
G75*
G02*
X103104000Y-80496000I-252000J0D01*
G01*
X103104000Y-80496000D02*
G75*
G02*
X103608000Y-80496000I252000J0D01*
G01*
D12*
%TO.C,R12*%
X138290000Y-79927064D02*
X138290000Y-78472936D01*
X140110000Y-79927064D02*
X140110000Y-78472936D01*
%TO.C,SW2*%
X118900000Y-86245000D02*
X118900000Y-87745000D01*
X120150000Y-90245000D02*
X124650000Y-90245000D01*
X124650000Y-83745000D02*
X120150000Y-83745000D01*
X125900000Y-87745000D02*
X125900000Y-86245000D01*
%TO.C,C4*%
X110711252Y-52090000D02*
X109288748Y-52090000D01*
X110711252Y-53910000D02*
X109288748Y-53910000D01*
%TO.C,U1*%
X102200000Y-51322000D02*
X140300000Y-51322000D01*
X102200000Y-62142000D02*
X102200000Y-51322000D01*
X140300000Y-51322000D02*
X140300000Y-62142000D01*
X140300000Y-62142000D02*
X102200000Y-62142000D01*
%TO.C,J2*%
X141540000Y-52400000D02*
X141540000Y-56400000D01*
X142410000Y-51370000D02*
X142410000Y-51970000D01*
X142410000Y-51970000D02*
X144010000Y-51970000D01*
X143210000Y-56390000D02*
X143460000Y-55860000D01*
X143210000Y-56390000D02*
X145750000Y-56390000D01*
X143210000Y-57390000D02*
X143210000Y-56390000D01*
X143460000Y-55860000D02*
X145500000Y-55860000D01*
X143460000Y-57390000D02*
X143460000Y-56390000D01*
X144010000Y-51970000D02*
X144010000Y-51370000D01*
X144950000Y-51370000D02*
X144950000Y-51970000D01*
X144950000Y-51970000D02*
X146550000Y-51970000D01*
X145500000Y-55860000D02*
X145750000Y-56390000D01*
X145500000Y-57390000D02*
X145500000Y-56390000D01*
X145750000Y-56390000D02*
X145750000Y-57390000D01*
X146550000Y-51970000D02*
X146550000Y-51370000D01*
X141830000Y-51370000D02*
X147130000Y-51370000D01*
X147130000Y-57390000D01*
X141830000Y-57390000D01*
X141830000Y-51370000D01*
%TO.C,SW3*%
X134500000Y-86245000D02*
X134500000Y-87745000D01*
X135750000Y-90245000D02*
X140250000Y-90245000D01*
X140250000Y-83745000D02*
X135750000Y-83745000D01*
X141500000Y-87745000D02*
X141500000Y-86245000D01*
%TO.C,R3*%
X128090000Y-87087064D02*
X128090000Y-85632936D01*
X129910000Y-87087064D02*
X129910000Y-85632936D01*
%TO.C,R5*%
X132727064Y-60290000D02*
X131272936Y-60290000D01*
X132727064Y-62110000D02*
X131272936Y-62110000D01*
D11*
%TO.C,U6*%
X128075000Y-67175000D02*
X128075000Y-72725000D01*
X128075000Y-67175000D02*
X128975000Y-67175000D01*
X128075000Y-72725000D02*
X128975000Y-72725000D01*
X134625000Y-67175000D02*
X133825000Y-67175000D01*
X134625000Y-67175000D02*
X134625000Y-72725000D01*
X134625000Y-72725000D02*
X133725000Y-72725000D01*
D12*
X134155000Y-66777500D02*
X133825000Y-66537500D01*
X134155000Y-66297500D01*
X134155000Y-66777500D01*
G36*
X134155000Y-66777500D02*
G01*
X133825000Y-66537500D01*
X134155000Y-66297500D01*
X134155000Y-66777500D01*
G37*
%TO.C,R4*%
X143690000Y-87127064D02*
X143690000Y-85672936D01*
X145510000Y-87127064D02*
X145510000Y-85672936D01*
%TD*%
M02*
