%TF.GenerationSoftware,KiCad,Pcbnew,9.0.7*%
%TF.CreationDate,2026-02-02T21:40:27-05:00*%
%TF.ProjectId,ESP32c6 Agent PCB CPU,45535033-3263-4362-9041-67656e742050,5.0*%
%TF.SameCoordinates,Original*%
%TF.FileFunction,Soldermask,Top*%
%TF.FilePolarity,Negative*%
%FSLAX46Y46*%
G04 Gerber Fmt 4.6, Leading zero omitted, Abs format (unit mm)*
G04 Created by KiCad (PCBNEW 9.0.7) date 2026-02-02 21:40:27*
%MOMM*%
%LPD*%
G01*
G04 APERTURE LIST*
G04 Aperture macros list*
%AMRoundRect*
0 Rectangle with rounded corners*
0 $1 Rounding radius*
0 $2 $3 $4 $5 $6 $7 $8 $9 X,Y pos of 4 corners*
0 Add a 4 corners polygon primitive as box body*
4,1,4,$2,$3,$4,$5,$6,$7,$8,$9,$2,$3,0*
0 Add four circle primitives for the rounded corners*
1,1,$1+$1,$2,$3*
1,1,$1+$1,$4,$5*
1,1,$1+$1,$6,$7*
1,1,$1+$1,$8,$9*
0 Add four rect primitives between the rounded corners*
20,1,$1+$1,$2,$3,$4,$5,0*
20,1,$1+$1,$4,$5,$6,$7,0*
20,1,$1+$1,$6,$7,$8,$9,0*
20,1,$1+$1,$8,$9,$2,$3,0*%
%AMFreePoly0*
4,1,5,0.635000,-1.750000,-0.635000,-1.750000,-0.635000,1.750000,0.635000,1.750000,0.635000,-1.750000,0.635000,-1.750000,$1*%
G04 Aperture macros list end*
%ADD10FreePoly0,90.000000*%
%ADD11R,3.500000X1.270000*%
%ADD12RoundRect,0.250000X0.625000X-0.400000X0.625000X0.400000X-0.625000X0.400000X-0.625000X-0.400000X0*%
%ADD13C,2.000000*%
%ADD14R,2.000000X2.000000*%
%ADD15O,2.000000X1.200000*%
%ADD16RoundRect,0.250000X-0.400000X-0.625000X0.400000X-0.625000X0.400000X0.625000X-0.400000X0.625000X0*%
%ADD17RoundRect,0.250000X-0.412500X-0.650000X0.412500X-0.650000X0.412500X0.650000X-0.412500X0.650000X0*%
%ADD18RoundRect,0.250000X0.475000X-0.337500X0.475000X0.337500X-0.475000X0.337500X-0.475000X-0.337500X0*%
%ADD19RoundRect,0.250000X-0.475000X0.337500X-0.475000X-0.337500X0.475000X-0.337500X0.475000X0.337500X0*%
%ADD20RoundRect,0.152400X-0.609600X1.063600X-0.609600X-1.063600X0.609600X-1.063600X0.609600X1.063600X0*%
%ADD21C,1.524000*%
%ADD22RoundRect,0.152400X0.609600X-1.063600X0.609600X1.063600X-0.609600X1.063600X-0.609600X-1.063600X0*%
%ADD23RoundRect,0.250000X0.412500X0.650000X-0.412500X0.650000X-0.412500X-0.650000X0.412500X-0.650000X0*%
%ADD24RoundRect,0.250000X-0.620000X-0.845000X0.620000X-0.845000X0.620000X0.845000X-0.620000X0.845000X0*%
%ADD25O,1.740000X2.190000*%
%ADD26RoundRect,0.250000X0.400000X0.625000X-0.400000X0.625000X-0.400000X-0.625000X0.400000X-0.625000X0*%
%ADD27R,0.400000X1.200000*%
G04 APERTURE END LIST*
D10*
%TO.C,J1*%
X150886000Y-87310000D03*
X150886000Y-84770000D03*
X150886000Y-82230000D03*
X150886000Y-79690000D03*
X150886000Y-77150000D03*
X150886000Y-74610000D03*
X150886000Y-72070000D03*
X150886000Y-69530000D03*
X150886000Y-66990000D03*
X150886000Y-64450000D03*
X150886000Y-61910000D03*
X150886000Y-59370000D03*
D11*
X150886000Y-56830000D03*
X150886000Y-54290000D03*
%TD*%
D12*
%TO.C,R2*%
X113400000Y-87910000D03*
X113400000Y-84810000D03*
%TD*%
D13*
%TO.C,SW1*%
X103632000Y-84745000D03*
X110132000Y-84745000D03*
X103632000Y-89245000D03*
X110132000Y-89245000D03*
%TD*%
D14*
%TO.C,U2*%
X125200000Y-63820000D03*
D15*
X125200000Y-66360000D03*
X125200000Y-68900000D03*
X125200000Y-71440000D03*
X125200000Y-73980000D03*
X125200000Y-76520000D03*
X125200000Y-79060000D03*
X125200000Y-81600000D03*
X143200000Y-81600000D03*
X143200000Y-79060000D03*
X143200000Y-76520000D03*
X143200000Y-73980000D03*
X143200000Y-71440000D03*
X143200000Y-68900000D03*
X143200000Y-66360000D03*
X143200000Y-63820000D03*
%TD*%
D16*
%TO.C,R1*%
X113250000Y-59000000D03*
X116350000Y-59000000D03*
%TD*%
D17*
%TO.C,C3*%
X141437500Y-60200000D03*
X144562500Y-60200000D03*
%TD*%
D18*
%TO.C,C1*%
X138250000Y-60437500D03*
X138250000Y-58362500D03*
%TD*%
D19*
%TO.C,C2*%
X138250000Y-53000000D03*
X138250000Y-55075000D03*
%TD*%
D20*
%TO.C,U5*%
X105156000Y-81144000D03*
D21*
X105156000Y-80309000D03*
D20*
X107696000Y-81144000D03*
D21*
X107696000Y-80309000D03*
D20*
X110236000Y-81144000D03*
D21*
X110236000Y-80309000D03*
D20*
X112776000Y-81144000D03*
D21*
X112776000Y-80309000D03*
D20*
X115316000Y-81144000D03*
D21*
X115316000Y-80309000D03*
D20*
X117856000Y-81144000D03*
D21*
X117856000Y-80309000D03*
D20*
X120396000Y-81144000D03*
D21*
X120396000Y-80309000D03*
X120396000Y-65069000D03*
D22*
X120396000Y-64234000D03*
D21*
X117856000Y-65069000D03*
D22*
X117856000Y-64234000D03*
D21*
X115316000Y-65069000D03*
D22*
X115316000Y-64234000D03*
D21*
X112776000Y-65069000D03*
D22*
X112776000Y-64234000D03*
D21*
X110236000Y-65069000D03*
D22*
X110236000Y-64234000D03*
D21*
X107696000Y-65069000D03*
D22*
X107696000Y-64234000D03*
D21*
X105156000Y-65069000D03*
D22*
X105156000Y-64234000D03*
%TD*%
D12*
%TO.C,R12*%
X139200000Y-80750000D03*
X139200000Y-77650000D03*
%TD*%
D13*
%TO.C,SW2*%
X119150000Y-84745000D03*
X125650000Y-84745000D03*
X119150000Y-89245000D03*
X125650000Y-89245000D03*
%TD*%
D23*
%TO.C,C4*%
X111562500Y-53000000D03*
X108437500Y-53000000D03*
%TD*%
D15*
%TO.C,U1*%
X104232000Y-52922000D03*
X104232000Y-55462000D03*
X104232000Y-58002000D03*
X104232000Y-60542000D03*
%TD*%
D24*
%TO.C,J2*%
X143210000Y-54400000D03*
D25*
X145750000Y-54400000D03*
%TD*%
D13*
%TO.C,SW3*%
X134750000Y-84745000D03*
X141250000Y-84745000D03*
X134750000Y-89245000D03*
X141250000Y-89245000D03*
%TD*%
D12*
%TO.C,R3*%
X129000000Y-87910000D03*
X129000000Y-84810000D03*
%TD*%
D26*
%TO.C,R5*%
X133550000Y-61200000D03*
X130450000Y-61200000D03*
%TD*%
D27*
%TO.C,U6*%
X133300000Y-66500000D03*
X132650000Y-66500000D03*
X132000000Y-66500000D03*
X131350000Y-66500000D03*
X130700000Y-66500000D03*
X130050000Y-66500000D03*
X129400000Y-66500000D03*
X129400000Y-73400000D03*
X130050000Y-73400000D03*
X130700000Y-73400000D03*
X131350000Y-73400000D03*
X132000000Y-73400000D03*
X132650000Y-73400000D03*
X133300000Y-73400000D03*
%TD*%
D12*
%TO.C,R4*%
X144600000Y-87950000D03*
X144600000Y-84850000D03*
%TD*%
M02*
