%TF.GenerationSoftware,KiCad,Pcbnew,(5.1.6-0-10_14)*%
%TF.CreationDate,2020-09-21T00:36:23-04:00*%
%TF.ProjectId,MQTT Relay,4d515454-2052-4656-9c61-792e6b696361,rev?*%
%TF.SameCoordinates,Original*%
%TF.FileFunction,Legend,Bot*%
%TF.FilePolarity,Positive*%
%FSLAX46Y46*%
G04 Gerber Fmt 4.6, Leading zero omitted, Abs format (unit mm)*
G04 Created by KiCad (PCBNEW (5.1.6-0-10_14)) date 2020-09-21 00:36:23*
%MOMM*%
%LPD*%
G01*
G04 APERTURE LIST*
%ADD10C,0.150000*%
G04 APERTURE END LIST*
D10*
X106282619Y-83892380D02*
X106282619Y-82892380D01*
X105949285Y-83606666D01*
X105615952Y-82892380D01*
X105615952Y-83892380D01*
X104473095Y-83987619D02*
X104568333Y-83940000D01*
X104663571Y-83844761D01*
X104806428Y-83701904D01*
X104901666Y-83654285D01*
X104996904Y-83654285D01*
X104949285Y-83892380D02*
X105044523Y-83844761D01*
X105139761Y-83749523D01*
X105187380Y-83559047D01*
X105187380Y-83225714D01*
X105139761Y-83035238D01*
X105044523Y-82940000D01*
X104949285Y-82892380D01*
X104758809Y-82892380D01*
X104663571Y-82940000D01*
X104568333Y-83035238D01*
X104520714Y-83225714D01*
X104520714Y-83559047D01*
X104568333Y-83749523D01*
X104663571Y-83844761D01*
X104758809Y-83892380D01*
X104949285Y-83892380D01*
X104235000Y-82892380D02*
X103663571Y-82892380D01*
X103949285Y-83892380D02*
X103949285Y-82892380D01*
X103473095Y-82892380D02*
X102901666Y-82892380D01*
X103187380Y-83892380D02*
X103187380Y-82892380D01*
X101854047Y-83606666D02*
X101377857Y-83606666D01*
X101949285Y-83892380D02*
X101615952Y-82892380D01*
X101282619Y-83892380D01*
X100520714Y-83225714D02*
X100520714Y-84035238D01*
X100568333Y-84130476D01*
X100615952Y-84178095D01*
X100711190Y-84225714D01*
X100854047Y-84225714D01*
X100949285Y-84178095D01*
X100520714Y-83844761D02*
X100615952Y-83892380D01*
X100806428Y-83892380D01*
X100901666Y-83844761D01*
X100949285Y-83797142D01*
X100996904Y-83701904D01*
X100996904Y-83416190D01*
X100949285Y-83320952D01*
X100901666Y-83273333D01*
X100806428Y-83225714D01*
X100615952Y-83225714D01*
X100520714Y-83273333D01*
X99663571Y-83844761D02*
X99758809Y-83892380D01*
X99949285Y-83892380D01*
X100044523Y-83844761D01*
X100092142Y-83749523D01*
X100092142Y-83368571D01*
X100044523Y-83273333D01*
X99949285Y-83225714D01*
X99758809Y-83225714D01*
X99663571Y-83273333D01*
X99615952Y-83368571D01*
X99615952Y-83463809D01*
X100092142Y-83559047D01*
X99187380Y-83225714D02*
X99187380Y-83892380D01*
X99187380Y-83320952D02*
X99139761Y-83273333D01*
X99044523Y-83225714D01*
X98901666Y-83225714D01*
X98806428Y-83273333D01*
X98758809Y-83368571D01*
X98758809Y-83892380D01*
X98425476Y-83225714D02*
X98044523Y-83225714D01*
X98282619Y-82892380D02*
X98282619Y-83749523D01*
X98235000Y-83844761D01*
X98139761Y-83892380D01*
X98044523Y-83892380D01*
X108639761Y-84637619D02*
X108592142Y-84590000D01*
X108496904Y-84542380D01*
X108258809Y-84542380D01*
X108163571Y-84590000D01*
X108115952Y-84637619D01*
X108068333Y-84732857D01*
X108068333Y-84828095D01*
X108115952Y-84970952D01*
X108687380Y-85542380D01*
X108068333Y-85542380D01*
X106877857Y-85542380D02*
X106877857Y-84542380D01*
X106401666Y-84875714D02*
X106401666Y-85542380D01*
X106401666Y-84970952D02*
X106354047Y-84923333D01*
X106258809Y-84875714D01*
X106115952Y-84875714D01*
X106020714Y-84923333D01*
X105973095Y-85018571D01*
X105973095Y-85542380D01*
X105496904Y-84875714D02*
X105496904Y-85875714D01*
X105496904Y-84923333D02*
X105401666Y-84875714D01*
X105211190Y-84875714D01*
X105115952Y-84923333D01*
X105068333Y-84970952D01*
X105020714Y-85066190D01*
X105020714Y-85351904D01*
X105068333Y-85447142D01*
X105115952Y-85494761D01*
X105211190Y-85542380D01*
X105401666Y-85542380D01*
X105496904Y-85494761D01*
X104163571Y-84875714D02*
X104163571Y-85542380D01*
X104592142Y-84875714D02*
X104592142Y-85399523D01*
X104544523Y-85494761D01*
X104449285Y-85542380D01*
X104306428Y-85542380D01*
X104211190Y-85494761D01*
X104163571Y-85447142D01*
X103830238Y-84875714D02*
X103449285Y-84875714D01*
X103687380Y-84542380D02*
X103687380Y-85399523D01*
X103639761Y-85494761D01*
X103544523Y-85542380D01*
X103449285Y-85542380D01*
X103068333Y-85494761D02*
X103068333Y-85542380D01*
X103115952Y-85637619D01*
X103163571Y-85685238D01*
X101925476Y-84637619D02*
X101877857Y-84590000D01*
X101782619Y-84542380D01*
X101544523Y-84542380D01*
X101449285Y-84590000D01*
X101401666Y-84637619D01*
X101354047Y-84732857D01*
X101354047Y-84828095D01*
X101401666Y-84970952D01*
X101973095Y-85542380D01*
X101354047Y-85542380D01*
X100020714Y-85542380D02*
X100115952Y-85494761D01*
X100163571Y-85447142D01*
X100211190Y-85351904D01*
X100211190Y-85066190D01*
X100163571Y-84970952D01*
X100115952Y-84923333D01*
X100020714Y-84875714D01*
X99877857Y-84875714D01*
X99782619Y-84923333D01*
X99735000Y-84970952D01*
X99687380Y-85066190D01*
X99687380Y-85351904D01*
X99735000Y-85447142D01*
X99782619Y-85494761D01*
X99877857Y-85542380D01*
X100020714Y-85542380D01*
X98830238Y-84875714D02*
X98830238Y-85542380D01*
X99258809Y-84875714D02*
X99258809Y-85399523D01*
X99211190Y-85494761D01*
X99115952Y-85542380D01*
X98973095Y-85542380D01*
X98877857Y-85494761D01*
X98830238Y-85447142D01*
X98496904Y-84875714D02*
X98115952Y-84875714D01*
X98354047Y-84542380D02*
X98354047Y-85399523D01*
X98306428Y-85494761D01*
X98211190Y-85542380D01*
X98115952Y-85542380D01*
X97782619Y-84875714D02*
X97782619Y-85875714D01*
X97782619Y-84923333D02*
X97687380Y-84875714D01*
X97496904Y-84875714D01*
X97401666Y-84923333D01*
X97354047Y-84970952D01*
X97306428Y-85066190D01*
X97306428Y-85351904D01*
X97354047Y-85447142D01*
X97401666Y-85494761D01*
X97496904Y-85542380D01*
X97687380Y-85542380D01*
X97782619Y-85494761D01*
X96449285Y-84875714D02*
X96449285Y-85542380D01*
X96877857Y-84875714D02*
X96877857Y-85399523D01*
X96830238Y-85494761D01*
X96735000Y-85542380D01*
X96592142Y-85542380D01*
X96496904Y-85494761D01*
X96449285Y-85447142D01*
X96115952Y-84875714D02*
X95735000Y-84875714D01*
X95973095Y-84542380D02*
X95973095Y-85399523D01*
X95925476Y-85494761D01*
X95830238Y-85542380D01*
X95735000Y-85542380D01*
X111711190Y-87573333D02*
X111758809Y-87525714D01*
X111854047Y-87382857D01*
X111901666Y-87287619D01*
X111949285Y-87144761D01*
X111996904Y-86906666D01*
X111996904Y-86716190D01*
X111949285Y-86478095D01*
X111901666Y-86335238D01*
X111854047Y-86240000D01*
X111758809Y-86097142D01*
X111711190Y-86049523D01*
X110901666Y-87144761D02*
X110996904Y-87192380D01*
X111187380Y-87192380D01*
X111282619Y-87144761D01*
X111330238Y-87097142D01*
X111377857Y-87001904D01*
X111377857Y-86716190D01*
X111330238Y-86620952D01*
X111282619Y-86573333D01*
X111187380Y-86525714D01*
X110996904Y-86525714D01*
X110901666Y-86573333D01*
X110568333Y-87573333D02*
X110520714Y-87525714D01*
X110425476Y-87382857D01*
X110377857Y-87287619D01*
X110330238Y-87144761D01*
X110282619Y-86906666D01*
X110282619Y-86716190D01*
X110330238Y-86478095D01*
X110377857Y-86335238D01*
X110425476Y-86240000D01*
X110520714Y-86097142D01*
X110568333Y-86049523D01*
X109092142Y-86287619D02*
X109044523Y-86240000D01*
X108949285Y-86192380D01*
X108711190Y-86192380D01*
X108615952Y-86240000D01*
X108568333Y-86287619D01*
X108520714Y-86382857D01*
X108520714Y-86478095D01*
X108568333Y-86620952D01*
X109139761Y-87192380D01*
X108520714Y-87192380D01*
X107901666Y-86192380D02*
X107806428Y-86192380D01*
X107711190Y-86240000D01*
X107663571Y-86287619D01*
X107615952Y-86382857D01*
X107568333Y-86573333D01*
X107568333Y-86811428D01*
X107615952Y-87001904D01*
X107663571Y-87097142D01*
X107711190Y-87144761D01*
X107806428Y-87192380D01*
X107901666Y-87192380D01*
X107996904Y-87144761D01*
X108044523Y-87097142D01*
X108092142Y-87001904D01*
X108139761Y-86811428D01*
X108139761Y-86573333D01*
X108092142Y-86382857D01*
X108044523Y-86287619D01*
X107996904Y-86240000D01*
X107901666Y-86192380D01*
X107187380Y-86287619D02*
X107139761Y-86240000D01*
X107044523Y-86192380D01*
X106806428Y-86192380D01*
X106711190Y-86240000D01*
X106663571Y-86287619D01*
X106615952Y-86382857D01*
X106615952Y-86478095D01*
X106663571Y-86620952D01*
X107235000Y-87192380D01*
X106615952Y-87192380D01*
X105996904Y-86192380D02*
X105901666Y-86192380D01*
X105806428Y-86240000D01*
X105758809Y-86287619D01*
X105711190Y-86382857D01*
X105663571Y-86573333D01*
X105663571Y-86811428D01*
X105711190Y-87001904D01*
X105758809Y-87097142D01*
X105806428Y-87144761D01*
X105901666Y-87192380D01*
X105996904Y-87192380D01*
X106092142Y-87144761D01*
X106139761Y-87097142D01*
X106187380Y-87001904D01*
X106235000Y-86811428D01*
X106235000Y-86573333D01*
X106187380Y-86382857D01*
X106139761Y-86287619D01*
X106092142Y-86240000D01*
X105996904Y-86192380D01*
X104473095Y-87192380D02*
X104473095Y-86192380D01*
X104139761Y-86906666D01*
X103806428Y-86192380D01*
X103806428Y-87192380D01*
X102901666Y-87192380D02*
X102901666Y-86668571D01*
X102949285Y-86573333D01*
X103044523Y-86525714D01*
X103235000Y-86525714D01*
X103330238Y-86573333D01*
X102901666Y-87144761D02*
X102996904Y-87192380D01*
X103235000Y-87192380D01*
X103330238Y-87144761D01*
X103377857Y-87049523D01*
X103377857Y-86954285D01*
X103330238Y-86859047D01*
X103235000Y-86811428D01*
X102996904Y-86811428D01*
X102901666Y-86763809D01*
X102425476Y-87192380D02*
X102425476Y-86525714D01*
X102425476Y-86716190D02*
X102377857Y-86620952D01*
X102330238Y-86573333D01*
X102235000Y-86525714D01*
X102139761Y-86525714D01*
X101377857Y-87144761D02*
X101473095Y-87192380D01*
X101663571Y-87192380D01*
X101758809Y-87144761D01*
X101806428Y-87097142D01*
X101854047Y-87001904D01*
X101854047Y-86716190D01*
X101806428Y-86620952D01*
X101758809Y-86573333D01*
X101663571Y-86525714D01*
X101473095Y-86525714D01*
X101377857Y-86573333D01*
X100187380Y-87192380D02*
X100187380Y-86192380D01*
X99949285Y-86192380D01*
X99806428Y-86240000D01*
X99711190Y-86335238D01*
X99663571Y-86430476D01*
X99615952Y-86620952D01*
X99615952Y-86763809D01*
X99663571Y-86954285D01*
X99711190Y-87049523D01*
X99806428Y-87144761D01*
X99949285Y-87192380D01*
X100187380Y-87192380D01*
X99187380Y-87097142D02*
X99139761Y-87144761D01*
X99187380Y-87192380D01*
X99235000Y-87144761D01*
X99187380Y-87097142D01*
X99187380Y-87192380D01*
X97996904Y-87144761D02*
X97854047Y-87192380D01*
X97615952Y-87192380D01*
X97520714Y-87144761D01*
X97473095Y-87097142D01*
X97425476Y-87001904D01*
X97425476Y-86906666D01*
X97473095Y-86811428D01*
X97520714Y-86763809D01*
X97615952Y-86716190D01*
X97806428Y-86668571D01*
X97901666Y-86620952D01*
X97949285Y-86573333D01*
X97996904Y-86478095D01*
X97996904Y-86382857D01*
X97949285Y-86287619D01*
X97901666Y-86240000D01*
X97806428Y-86192380D01*
X97568333Y-86192380D01*
X97425476Y-86240000D01*
X96996904Y-86525714D02*
X96996904Y-87525714D01*
X96996904Y-86573333D02*
X96901666Y-86525714D01*
X96711190Y-86525714D01*
X96615952Y-86573333D01*
X96568333Y-86620952D01*
X96520714Y-86716190D01*
X96520714Y-87001904D01*
X96568333Y-87097142D01*
X96615952Y-87144761D01*
X96711190Y-87192380D01*
X96901666Y-87192380D01*
X96996904Y-87144761D01*
X95711190Y-87144761D02*
X95806428Y-87192380D01*
X95996904Y-87192380D01*
X96092142Y-87144761D01*
X96139761Y-87049523D01*
X96139761Y-86668571D01*
X96092142Y-86573333D01*
X95996904Y-86525714D01*
X95806428Y-86525714D01*
X95711190Y-86573333D01*
X95663571Y-86668571D01*
X95663571Y-86763809D01*
X96139761Y-86859047D01*
X95235000Y-86525714D02*
X95235000Y-87192380D01*
X95235000Y-86620952D02*
X95187380Y-86573333D01*
X95092142Y-86525714D01*
X94949285Y-86525714D01*
X94854047Y-86573333D01*
X94806428Y-86668571D01*
X94806428Y-87192380D01*
X93901666Y-87144761D02*
X93996904Y-87192380D01*
X94187380Y-87192380D01*
X94282619Y-87144761D01*
X94330238Y-87097142D01*
X94377857Y-87001904D01*
X94377857Y-86716190D01*
X94330238Y-86620952D01*
X94282619Y-86573333D01*
X94187380Y-86525714D01*
X93996904Y-86525714D01*
X93901666Y-86573333D01*
X93092142Y-87144761D02*
X93187380Y-87192380D01*
X93377857Y-87192380D01*
X93473095Y-87144761D01*
X93520714Y-87049523D01*
X93520714Y-86668571D01*
X93473095Y-86573333D01*
X93377857Y-86525714D01*
X93187380Y-86525714D01*
X93092142Y-86573333D01*
X93044523Y-86668571D01*
X93044523Y-86763809D01*
X93520714Y-86859047D01*
X92615952Y-87192380D02*
X92615952Y-86525714D01*
X92615952Y-86716190D02*
X92568333Y-86620952D01*
X92520714Y-86573333D01*
X92425476Y-86525714D01*
X92330238Y-86525714D01*
M02*
