%TF.GenerationSoftware,KiCad,Pcbnew,(5.1.6-0-10_14)*%
%TF.CreationDate,2020-09-21T00:36:23-04:00*%
%TF.ProjectId,MQTT Relay,4d515454-2052-4656-9c61-792e6b696361,rev?*%
%TF.SameCoordinates,Original*%
%TF.FileFunction,Soldermask,Top*%
%TF.FilePolarity,Negative*%
%FSLAX46Y46*%
G04 Gerber Fmt 4.6, Leading zero omitted, Abs format (unit mm)*
G04 Created by KiCad (PCBNEW (5.1.6-0-10_14)) date 2020-09-21 00:36:23*
%MOMM*%
%LPD*%
G01*
G04 APERTURE LIST*
%ADD10O,1.300000X2.100000*%
%ADD11C,2.100000*%
%ADD12C,1.200000*%
%ADD13C,2.300000*%
%ADD14R,2.300000X2.300000*%
%ADD15C,3.300000*%
%ADD16O,1.800000X1.800000*%
%ADD17R,1.800000X1.800000*%
%ADD18O,1.700000X1.700000*%
%ADD19C,1.700000*%
G04 APERTURE END LIST*
D10*
%TO.C,A1*%
X119380000Y-72390000D03*
X119380000Y-49530000D03*
X116840000Y-72390000D03*
X116840000Y-49530000D03*
X114300000Y-72390000D03*
X114300000Y-49530000D03*
X111760000Y-72390000D03*
X111760000Y-49530000D03*
X109220000Y-72390000D03*
X109220000Y-49530000D03*
X106680000Y-72390000D03*
X106680000Y-49530000D03*
X104140000Y-72390000D03*
X104140000Y-49530000D03*
X101600000Y-72390000D03*
X101600000Y-49530000D03*
X99060000Y-72390000D03*
X99060000Y-49530000D03*
X96520000Y-72390000D03*
X96520000Y-49530000D03*
X93980000Y-72390000D03*
X93980000Y-49530000D03*
X91440000Y-72390000D03*
X91440000Y-49530000D03*
X88900000Y-72390000D03*
X88900000Y-49530000D03*
X86360000Y-72390000D03*
X86360000Y-49530000D03*
X83820000Y-72390000D03*
X83820000Y-49530000D03*
%TD*%
D11*
%TO.C,SW2*%
X118260000Y-39370000D03*
X118260000Y-43870000D03*
X111760000Y-39370000D03*
X111760000Y-43870000D03*
%TD*%
D12*
%TO.C,J6*%
X135890000Y-59690000D03*
D13*
X133350000Y-59690000D03*
D12*
X135890000Y-62230000D03*
D13*
X133350000Y-62230000D03*
D12*
X135890000Y-64770000D03*
D14*
X133350000Y-64770000D03*
%TD*%
D12*
%TO.C,J5*%
X135890000Y-49530000D03*
D13*
X133350000Y-49530000D03*
D12*
X135890000Y-52070000D03*
D13*
X133350000Y-52070000D03*
D12*
X135890000Y-54610000D03*
D14*
X133350000Y-54610000D03*
%TD*%
D12*
%TO.C,J4*%
X135890000Y-77470000D03*
D13*
X133350000Y-77470000D03*
D12*
X135890000Y-80010000D03*
D14*
X133350000Y-80010000D03*
%TD*%
D15*
%TO.C,REF\u002A\u002A*%
X77470000Y-40640000D03*
%TD*%
%TO.C,REF\u002A\u002A*%
X125730000Y-40640000D03*
%TD*%
%TO.C,e*%
X125730000Y-86360000D03*
%TD*%
%TO.C,REF\u002A\u002A*%
X77470000Y-86360000D03*
%TD*%
D16*
%TO.C,U1*%
X85090000Y-78740000D03*
X85090000Y-81280000D03*
X85090000Y-83820000D03*
D17*
X85090000Y-86360000D03*
%TD*%
D11*
%TO.C,SW3*%
X91590000Y-39370000D03*
X91590000Y-43870000D03*
X85090000Y-39370000D03*
X85090000Y-43870000D03*
%TD*%
%TO.C,SW1*%
X105560000Y-39370000D03*
X105560000Y-43870000D03*
X99060000Y-39370000D03*
X99060000Y-43870000D03*
%TD*%
D18*
%TO.C,R4*%
X101600000Y-66040000D03*
D19*
X101600000Y-55880000D03*
%TD*%
D18*
%TO.C,R3*%
X96520000Y-66040000D03*
D19*
X96520000Y-55880000D03*
%TD*%
D18*
%TO.C,R2*%
X106680000Y-66040000D03*
D19*
X106680000Y-55880000D03*
%TD*%
D18*
%TO.C,R1*%
X124460000Y-49530000D03*
D19*
X124460000Y-59690000D03*
%TD*%
D12*
%TO.C,J3*%
X135890000Y-69850000D03*
D13*
X133350000Y-69850000D03*
D12*
X135890000Y-72390000D03*
D14*
X133350000Y-72390000D03*
%TD*%
D12*
%TO.C,J2*%
X135890000Y-39370000D03*
D13*
X133350000Y-39370000D03*
D12*
X135890000Y-41910000D03*
D13*
X133350000Y-41910000D03*
D12*
X135890000Y-44450000D03*
D14*
X133350000Y-44450000D03*
%TD*%
D12*
%TO.C,J1*%
X135890000Y-85090000D03*
D13*
X133350000Y-85090000D03*
D12*
X135890000Y-87630000D03*
D14*
X133350000Y-87630000D03*
%TD*%
M02*
