%TF.GenerationSoftware,KiCad,Pcbnew,(5.1.6-0-10_14)*%
%TF.CreationDate,2020-09-21T00:36:23-04:00*%
%TF.ProjectId,MQTT Relay,4d515454-2052-4656-9c61-792e6b696361,rev?*%
%TF.SameCoordinates,Original*%
%TF.FileFunction,Legend,Top*%
%TF.FilePolarity,Positive*%
%FSLAX46Y46*%
G04 Gerber Fmt 4.6, Leading zero omitted, Abs format (unit mm)*
G04 Created by KiCad (PCBNEW (5.1.6-0-10_14)) date 2020-09-21 00:36:23*
%MOMM*%
%LPD*%
G01*
G04 APERTURE LIST*
%ADD10C,0.150000*%
%ADD11C,0.175000*%
%ADD12C,0.120000*%
G04 APERTURE END LIST*
D10*
X98187380Y-83892380D02*
X98187380Y-82892380D01*
X98520714Y-83606666D01*
X98854047Y-82892380D01*
X98854047Y-83892380D01*
X99996904Y-83987619D02*
X99901666Y-83940000D01*
X99806428Y-83844761D01*
X99663571Y-83701904D01*
X99568333Y-83654285D01*
X99473095Y-83654285D01*
X99520714Y-83892380D02*
X99425476Y-83844761D01*
X99330238Y-83749523D01*
X99282619Y-83559047D01*
X99282619Y-83225714D01*
X99330238Y-83035238D01*
X99425476Y-82940000D01*
X99520714Y-82892380D01*
X99711190Y-82892380D01*
X99806428Y-82940000D01*
X99901666Y-83035238D01*
X99949285Y-83225714D01*
X99949285Y-83559047D01*
X99901666Y-83749523D01*
X99806428Y-83844761D01*
X99711190Y-83892380D01*
X99520714Y-83892380D01*
X100235000Y-82892380D02*
X100806428Y-82892380D01*
X100520714Y-83892380D02*
X100520714Y-82892380D01*
X100996904Y-82892380D02*
X101568333Y-82892380D01*
X101282619Y-83892380D02*
X101282619Y-82892380D01*
X102615952Y-83606666D02*
X103092142Y-83606666D01*
X102520714Y-83892380D02*
X102854047Y-82892380D01*
X103187380Y-83892380D01*
X103949285Y-83225714D02*
X103949285Y-84035238D01*
X103901666Y-84130476D01*
X103854047Y-84178095D01*
X103758809Y-84225714D01*
X103615952Y-84225714D01*
X103520714Y-84178095D01*
X103949285Y-83844761D02*
X103854047Y-83892380D01*
X103663571Y-83892380D01*
X103568333Y-83844761D01*
X103520714Y-83797142D01*
X103473095Y-83701904D01*
X103473095Y-83416190D01*
X103520714Y-83320952D01*
X103568333Y-83273333D01*
X103663571Y-83225714D01*
X103854047Y-83225714D01*
X103949285Y-83273333D01*
X104806428Y-83844761D02*
X104711190Y-83892380D01*
X104520714Y-83892380D01*
X104425476Y-83844761D01*
X104377857Y-83749523D01*
X104377857Y-83368571D01*
X104425476Y-83273333D01*
X104520714Y-83225714D01*
X104711190Y-83225714D01*
X104806428Y-83273333D01*
X104854047Y-83368571D01*
X104854047Y-83463809D01*
X104377857Y-83559047D01*
X105282619Y-83225714D02*
X105282619Y-83892380D01*
X105282619Y-83320952D02*
X105330238Y-83273333D01*
X105425476Y-83225714D01*
X105568333Y-83225714D01*
X105663571Y-83273333D01*
X105711190Y-83368571D01*
X105711190Y-83892380D01*
X106044523Y-83225714D02*
X106425476Y-83225714D01*
X106187380Y-82892380D02*
X106187380Y-83749523D01*
X106235000Y-83844761D01*
X106330238Y-83892380D01*
X106425476Y-83892380D01*
X95830238Y-84637619D02*
X95877857Y-84590000D01*
X95973095Y-84542380D01*
X96211190Y-84542380D01*
X96306428Y-84590000D01*
X96354047Y-84637619D01*
X96401666Y-84732857D01*
X96401666Y-84828095D01*
X96354047Y-84970952D01*
X95782619Y-85542380D01*
X96401666Y-85542380D01*
X97592142Y-85542380D02*
X97592142Y-84542380D01*
X98068333Y-84875714D02*
X98068333Y-85542380D01*
X98068333Y-84970952D02*
X98115952Y-84923333D01*
X98211190Y-84875714D01*
X98354047Y-84875714D01*
X98449285Y-84923333D01*
X98496904Y-85018571D01*
X98496904Y-85542380D01*
X98973095Y-84875714D02*
X98973095Y-85875714D01*
X98973095Y-84923333D02*
X99068333Y-84875714D01*
X99258809Y-84875714D01*
X99354047Y-84923333D01*
X99401666Y-84970952D01*
X99449285Y-85066190D01*
X99449285Y-85351904D01*
X99401666Y-85447142D01*
X99354047Y-85494761D01*
X99258809Y-85542380D01*
X99068333Y-85542380D01*
X98973095Y-85494761D01*
X100306428Y-84875714D02*
X100306428Y-85542380D01*
X99877857Y-84875714D02*
X99877857Y-85399523D01*
X99925476Y-85494761D01*
X100020714Y-85542380D01*
X100163571Y-85542380D01*
X100258809Y-85494761D01*
X100306428Y-85447142D01*
X100639761Y-84875714D02*
X101020714Y-84875714D01*
X100782619Y-84542380D02*
X100782619Y-85399523D01*
X100830238Y-85494761D01*
X100925476Y-85542380D01*
X101020714Y-85542380D01*
X101401666Y-85494761D02*
X101401666Y-85542380D01*
X101354047Y-85637619D01*
X101306428Y-85685238D01*
X102544523Y-84637619D02*
X102592142Y-84590000D01*
X102687380Y-84542380D01*
X102925476Y-84542380D01*
X103020714Y-84590000D01*
X103068333Y-84637619D01*
X103115952Y-84732857D01*
X103115952Y-84828095D01*
X103068333Y-84970952D01*
X102496904Y-85542380D01*
X103115952Y-85542380D01*
X104449285Y-85542380D02*
X104354047Y-85494761D01*
X104306428Y-85447142D01*
X104258809Y-85351904D01*
X104258809Y-85066190D01*
X104306428Y-84970952D01*
X104354047Y-84923333D01*
X104449285Y-84875714D01*
X104592142Y-84875714D01*
X104687380Y-84923333D01*
X104735000Y-84970952D01*
X104782619Y-85066190D01*
X104782619Y-85351904D01*
X104735000Y-85447142D01*
X104687380Y-85494761D01*
X104592142Y-85542380D01*
X104449285Y-85542380D01*
X105639761Y-84875714D02*
X105639761Y-85542380D01*
X105211190Y-84875714D02*
X105211190Y-85399523D01*
X105258809Y-85494761D01*
X105354047Y-85542380D01*
X105496904Y-85542380D01*
X105592142Y-85494761D01*
X105639761Y-85447142D01*
X105973095Y-84875714D02*
X106354047Y-84875714D01*
X106115952Y-84542380D02*
X106115952Y-85399523D01*
X106163571Y-85494761D01*
X106258809Y-85542380D01*
X106354047Y-85542380D01*
X106687380Y-84875714D02*
X106687380Y-85875714D01*
X106687380Y-84923333D02*
X106782619Y-84875714D01*
X106973095Y-84875714D01*
X107068333Y-84923333D01*
X107115952Y-84970952D01*
X107163571Y-85066190D01*
X107163571Y-85351904D01*
X107115952Y-85447142D01*
X107068333Y-85494761D01*
X106973095Y-85542380D01*
X106782619Y-85542380D01*
X106687380Y-85494761D01*
X108020714Y-84875714D02*
X108020714Y-85542380D01*
X107592142Y-84875714D02*
X107592142Y-85399523D01*
X107639761Y-85494761D01*
X107735000Y-85542380D01*
X107877857Y-85542380D01*
X107973095Y-85494761D01*
X108020714Y-85447142D01*
X108354047Y-84875714D02*
X108735000Y-84875714D01*
X108496904Y-84542380D02*
X108496904Y-85399523D01*
X108544523Y-85494761D01*
X108639761Y-85542380D01*
X108735000Y-85542380D01*
X92758809Y-87573333D02*
X92711190Y-87525714D01*
X92615952Y-87382857D01*
X92568333Y-87287619D01*
X92520714Y-87144761D01*
X92473095Y-86906666D01*
X92473095Y-86716190D01*
X92520714Y-86478095D01*
X92568333Y-86335238D01*
X92615952Y-86240000D01*
X92711190Y-86097142D01*
X92758809Y-86049523D01*
X93568333Y-87144761D02*
X93473095Y-87192380D01*
X93282619Y-87192380D01*
X93187380Y-87144761D01*
X93139761Y-87097142D01*
X93092142Y-87001904D01*
X93092142Y-86716190D01*
X93139761Y-86620952D01*
X93187380Y-86573333D01*
X93282619Y-86525714D01*
X93473095Y-86525714D01*
X93568333Y-86573333D01*
X93901666Y-87573333D02*
X93949285Y-87525714D01*
X94044523Y-87382857D01*
X94092142Y-87287619D01*
X94139761Y-87144761D01*
X94187380Y-86906666D01*
X94187380Y-86716190D01*
X94139761Y-86478095D01*
X94092142Y-86335238D01*
X94044523Y-86240000D01*
X93949285Y-86097142D01*
X93901666Y-86049523D01*
X95377857Y-86287619D02*
X95425476Y-86240000D01*
X95520714Y-86192380D01*
X95758809Y-86192380D01*
X95854047Y-86240000D01*
X95901666Y-86287619D01*
X95949285Y-86382857D01*
X95949285Y-86478095D01*
X95901666Y-86620952D01*
X95330238Y-87192380D01*
X95949285Y-87192380D01*
X96568333Y-86192380D02*
X96663571Y-86192380D01*
X96758809Y-86240000D01*
X96806428Y-86287619D01*
X96854047Y-86382857D01*
X96901666Y-86573333D01*
X96901666Y-86811428D01*
X96854047Y-87001904D01*
X96806428Y-87097142D01*
X96758809Y-87144761D01*
X96663571Y-87192380D01*
X96568333Y-87192380D01*
X96473095Y-87144761D01*
X96425476Y-87097142D01*
X96377857Y-87001904D01*
X96330238Y-86811428D01*
X96330238Y-86573333D01*
X96377857Y-86382857D01*
X96425476Y-86287619D01*
X96473095Y-86240000D01*
X96568333Y-86192380D01*
X97282619Y-86287619D02*
X97330238Y-86240000D01*
X97425476Y-86192380D01*
X97663571Y-86192380D01*
X97758809Y-86240000D01*
X97806428Y-86287619D01*
X97854047Y-86382857D01*
X97854047Y-86478095D01*
X97806428Y-86620952D01*
X97235000Y-87192380D01*
X97854047Y-87192380D01*
X98473095Y-86192380D02*
X98568333Y-86192380D01*
X98663571Y-86240000D01*
X98711190Y-86287619D01*
X98758809Y-86382857D01*
X98806428Y-86573333D01*
X98806428Y-86811428D01*
X98758809Y-87001904D01*
X98711190Y-87097142D01*
X98663571Y-87144761D01*
X98568333Y-87192380D01*
X98473095Y-87192380D01*
X98377857Y-87144761D01*
X98330238Y-87097142D01*
X98282619Y-87001904D01*
X98235000Y-86811428D01*
X98235000Y-86573333D01*
X98282619Y-86382857D01*
X98330238Y-86287619D01*
X98377857Y-86240000D01*
X98473095Y-86192380D01*
X99996904Y-87192380D02*
X99996904Y-86192380D01*
X100330238Y-86906666D01*
X100663571Y-86192380D01*
X100663571Y-87192380D01*
X101568333Y-87192380D02*
X101568333Y-86668571D01*
X101520714Y-86573333D01*
X101425476Y-86525714D01*
X101235000Y-86525714D01*
X101139761Y-86573333D01*
X101568333Y-87144761D02*
X101473095Y-87192380D01*
X101235000Y-87192380D01*
X101139761Y-87144761D01*
X101092142Y-87049523D01*
X101092142Y-86954285D01*
X101139761Y-86859047D01*
X101235000Y-86811428D01*
X101473095Y-86811428D01*
X101568333Y-86763809D01*
X102044523Y-87192380D02*
X102044523Y-86525714D01*
X102044523Y-86716190D02*
X102092142Y-86620952D01*
X102139761Y-86573333D01*
X102235000Y-86525714D01*
X102330238Y-86525714D01*
X103092142Y-87144761D02*
X102996904Y-87192380D01*
X102806428Y-87192380D01*
X102711190Y-87144761D01*
X102663571Y-87097142D01*
X102615952Y-87001904D01*
X102615952Y-86716190D01*
X102663571Y-86620952D01*
X102711190Y-86573333D01*
X102806428Y-86525714D01*
X102996904Y-86525714D01*
X103092142Y-86573333D01*
X104282619Y-87192380D02*
X104282619Y-86192380D01*
X104520714Y-86192380D01*
X104663571Y-86240000D01*
X104758809Y-86335238D01*
X104806428Y-86430476D01*
X104854047Y-86620952D01*
X104854047Y-86763809D01*
X104806428Y-86954285D01*
X104758809Y-87049523D01*
X104663571Y-87144761D01*
X104520714Y-87192380D01*
X104282619Y-87192380D01*
X105282619Y-87097142D02*
X105330238Y-87144761D01*
X105282619Y-87192380D01*
X105235000Y-87144761D01*
X105282619Y-87097142D01*
X105282619Y-87192380D01*
X106473095Y-87144761D02*
X106615952Y-87192380D01*
X106854047Y-87192380D01*
X106949285Y-87144761D01*
X106996904Y-87097142D01*
X107044523Y-87001904D01*
X107044523Y-86906666D01*
X106996904Y-86811428D01*
X106949285Y-86763809D01*
X106854047Y-86716190D01*
X106663571Y-86668571D01*
X106568333Y-86620952D01*
X106520714Y-86573333D01*
X106473095Y-86478095D01*
X106473095Y-86382857D01*
X106520714Y-86287619D01*
X106568333Y-86240000D01*
X106663571Y-86192380D01*
X106901666Y-86192380D01*
X107044523Y-86240000D01*
X107473095Y-86525714D02*
X107473095Y-87525714D01*
X107473095Y-86573333D02*
X107568333Y-86525714D01*
X107758809Y-86525714D01*
X107854047Y-86573333D01*
X107901666Y-86620952D01*
X107949285Y-86716190D01*
X107949285Y-87001904D01*
X107901666Y-87097142D01*
X107854047Y-87144761D01*
X107758809Y-87192380D01*
X107568333Y-87192380D01*
X107473095Y-87144761D01*
X108758809Y-87144761D02*
X108663571Y-87192380D01*
X108473095Y-87192380D01*
X108377857Y-87144761D01*
X108330238Y-87049523D01*
X108330238Y-86668571D01*
X108377857Y-86573333D01*
X108473095Y-86525714D01*
X108663571Y-86525714D01*
X108758809Y-86573333D01*
X108806428Y-86668571D01*
X108806428Y-86763809D01*
X108330238Y-86859047D01*
X109235000Y-86525714D02*
X109235000Y-87192380D01*
X109235000Y-86620952D02*
X109282619Y-86573333D01*
X109377857Y-86525714D01*
X109520714Y-86525714D01*
X109615952Y-86573333D01*
X109663571Y-86668571D01*
X109663571Y-87192380D01*
X110568333Y-87144761D02*
X110473095Y-87192380D01*
X110282619Y-87192380D01*
X110187380Y-87144761D01*
X110139761Y-87097142D01*
X110092142Y-87001904D01*
X110092142Y-86716190D01*
X110139761Y-86620952D01*
X110187380Y-86573333D01*
X110282619Y-86525714D01*
X110473095Y-86525714D01*
X110568333Y-86573333D01*
X111377857Y-87144761D02*
X111282619Y-87192380D01*
X111092142Y-87192380D01*
X110996904Y-87144761D01*
X110949285Y-87049523D01*
X110949285Y-86668571D01*
X110996904Y-86573333D01*
X111092142Y-86525714D01*
X111282619Y-86525714D01*
X111377857Y-86573333D01*
X111425476Y-86668571D01*
X111425476Y-86763809D01*
X110949285Y-86859047D01*
X111854047Y-87192380D02*
X111854047Y-86525714D01*
X111854047Y-86716190D02*
X111901666Y-86620952D01*
X111949285Y-86573333D01*
X112044523Y-86525714D01*
X112139761Y-86525714D01*
X128722380Y-87455238D02*
X127722380Y-87455238D01*
X127722380Y-87074285D01*
X127770000Y-86979047D01*
X127817619Y-86931428D01*
X127912857Y-86883809D01*
X128055714Y-86883809D01*
X128150952Y-86931428D01*
X128198571Y-86979047D01*
X128246190Y-87074285D01*
X128246190Y-87455238D01*
X128055714Y-86550476D02*
X128722380Y-86360000D01*
X128246190Y-86169523D01*
X128722380Y-85979047D01*
X128055714Y-85788571D01*
X128722380Y-85407619D02*
X128055714Y-85407619D01*
X128246190Y-85407619D02*
X128150952Y-85360000D01*
X128103333Y-85312380D01*
X128055714Y-85217142D01*
X128055714Y-85121904D01*
X128722380Y-79668571D02*
X127722380Y-79668571D01*
X128055714Y-79192380D02*
X128722380Y-79192380D01*
X128150952Y-79192380D02*
X128103333Y-79144761D01*
X128055714Y-79049523D01*
X128055714Y-78906666D01*
X128103333Y-78811428D01*
X128198571Y-78763809D01*
X128722380Y-78763809D01*
X128722380Y-77763809D02*
X128722380Y-78335238D01*
X128722380Y-78049523D02*
X127722380Y-78049523D01*
X127865238Y-78144761D01*
X127960476Y-78240000D01*
X128008095Y-78335238D01*
X128722380Y-72048571D02*
X127722380Y-72048571D01*
X128055714Y-71572380D02*
X128722380Y-71572380D01*
X128150952Y-71572380D02*
X128103333Y-71524761D01*
X128055714Y-71429523D01*
X128055714Y-71286666D01*
X128103333Y-71191428D01*
X128198571Y-71143809D01*
X128722380Y-71143809D01*
X127722380Y-70477142D02*
X127722380Y-70381904D01*
X127770000Y-70286666D01*
X127817619Y-70239047D01*
X127912857Y-70191428D01*
X128103333Y-70143809D01*
X128341428Y-70143809D01*
X128531904Y-70191428D01*
X128627142Y-70239047D01*
X128674761Y-70286666D01*
X128722380Y-70381904D01*
X128722380Y-70477142D01*
X128674761Y-70572380D01*
X128627142Y-70620000D01*
X128531904Y-70667619D01*
X128341428Y-70715238D01*
X128103333Y-70715238D01*
X127912857Y-70667619D01*
X127817619Y-70620000D01*
X127770000Y-70572380D01*
X127722380Y-70477142D01*
X128722380Y-63920476D02*
X128246190Y-64253809D01*
X128722380Y-64491904D02*
X127722380Y-64491904D01*
X127722380Y-64110952D01*
X127770000Y-64015714D01*
X127817619Y-63968095D01*
X127912857Y-63920476D01*
X128055714Y-63920476D01*
X128150952Y-63968095D01*
X128198571Y-64015714D01*
X128246190Y-64110952D01*
X128246190Y-64491904D01*
X128674761Y-63110952D02*
X128722380Y-63206190D01*
X128722380Y-63396666D01*
X128674761Y-63491904D01*
X128579523Y-63539523D01*
X128198571Y-63539523D01*
X128103333Y-63491904D01*
X128055714Y-63396666D01*
X128055714Y-63206190D01*
X128103333Y-63110952D01*
X128198571Y-63063333D01*
X128293809Y-63063333D01*
X128389047Y-63539523D01*
X128722380Y-62491904D02*
X128674761Y-62587142D01*
X128579523Y-62634761D01*
X127722380Y-62634761D01*
X128722380Y-61682380D02*
X128198571Y-61682380D01*
X128103333Y-61730000D01*
X128055714Y-61825238D01*
X128055714Y-62015714D01*
X128103333Y-62110952D01*
X128674761Y-61682380D02*
X128722380Y-61777619D01*
X128722380Y-62015714D01*
X128674761Y-62110952D01*
X128579523Y-62158571D01*
X128484285Y-62158571D01*
X128389047Y-62110952D01*
X128341428Y-62015714D01*
X128341428Y-61777619D01*
X128293809Y-61682380D01*
X128055714Y-61301428D02*
X128722380Y-61063333D01*
X128055714Y-60825238D02*
X128722380Y-61063333D01*
X128960476Y-61158571D01*
X129008095Y-61206190D01*
X129055714Y-61301428D01*
X128722380Y-59920476D02*
X128722380Y-60491904D01*
X128722380Y-60206190D02*
X127722380Y-60206190D01*
X127865238Y-60301428D01*
X127960476Y-60396666D01*
X128008095Y-60491904D01*
X128722380Y-53760476D02*
X128246190Y-54093809D01*
X128722380Y-54331904D02*
X127722380Y-54331904D01*
X127722380Y-53950952D01*
X127770000Y-53855714D01*
X127817619Y-53808095D01*
X127912857Y-53760476D01*
X128055714Y-53760476D01*
X128150952Y-53808095D01*
X128198571Y-53855714D01*
X128246190Y-53950952D01*
X128246190Y-54331904D01*
X128674761Y-52950952D02*
X128722380Y-53046190D01*
X128722380Y-53236666D01*
X128674761Y-53331904D01*
X128579523Y-53379523D01*
X128198571Y-53379523D01*
X128103333Y-53331904D01*
X128055714Y-53236666D01*
X128055714Y-53046190D01*
X128103333Y-52950952D01*
X128198571Y-52903333D01*
X128293809Y-52903333D01*
X128389047Y-53379523D01*
X128722380Y-52331904D02*
X128674761Y-52427142D01*
X128579523Y-52474761D01*
X127722380Y-52474761D01*
X128722380Y-51522380D02*
X128198571Y-51522380D01*
X128103333Y-51570000D01*
X128055714Y-51665238D01*
X128055714Y-51855714D01*
X128103333Y-51950952D01*
X128674761Y-51522380D02*
X128722380Y-51617619D01*
X128722380Y-51855714D01*
X128674761Y-51950952D01*
X128579523Y-51998571D01*
X128484285Y-51998571D01*
X128389047Y-51950952D01*
X128341428Y-51855714D01*
X128341428Y-51617619D01*
X128293809Y-51522380D01*
X128055714Y-51141428D02*
X128722380Y-50903333D01*
X128055714Y-50665238D02*
X128722380Y-50903333D01*
X128960476Y-50998571D01*
X129008095Y-51046190D01*
X129055714Y-51141428D01*
X127722380Y-50093809D02*
X127722380Y-49998571D01*
X127770000Y-49903333D01*
X127817619Y-49855714D01*
X127912857Y-49808095D01*
X128103333Y-49760476D01*
X128341428Y-49760476D01*
X128531904Y-49808095D01*
X128627142Y-49855714D01*
X128674761Y-49903333D01*
X128722380Y-49998571D01*
X128722380Y-50093809D01*
X128674761Y-50189047D01*
X128627142Y-50236666D01*
X128531904Y-50284285D01*
X128341428Y-50331904D01*
X128103333Y-50331904D01*
X127912857Y-50284285D01*
X127817619Y-50236666D01*
X127770000Y-50189047D01*
X127722380Y-50093809D01*
X127722380Y-43790952D02*
X127722380Y-43219523D01*
X128722380Y-43505238D02*
X127722380Y-43505238D01*
X128722380Y-42886190D02*
X128055714Y-42886190D01*
X128150952Y-42886190D02*
X128103333Y-42838571D01*
X128055714Y-42743333D01*
X128055714Y-42600476D01*
X128103333Y-42505238D01*
X128198571Y-42457619D01*
X128722380Y-42457619D01*
X128198571Y-42457619D02*
X128103333Y-42410000D01*
X128055714Y-42314761D01*
X128055714Y-42171904D01*
X128103333Y-42076666D01*
X128198571Y-42029047D01*
X128722380Y-42029047D01*
X128055714Y-41552857D02*
X129055714Y-41552857D01*
X128103333Y-41552857D02*
X128055714Y-41457619D01*
X128055714Y-41267142D01*
X128103333Y-41171904D01*
X128150952Y-41124285D01*
X128246190Y-41076666D01*
X128531904Y-41076666D01*
X128627142Y-41124285D01*
X128674761Y-41171904D01*
X128722380Y-41267142D01*
X128722380Y-41457619D01*
X128674761Y-41552857D01*
X127722380Y-40457619D02*
X127722380Y-40362380D01*
X127770000Y-40267142D01*
X127817619Y-40219523D01*
X127912857Y-40171904D01*
X128103333Y-40124285D01*
X128341428Y-40124285D01*
X128531904Y-40171904D01*
X128627142Y-40219523D01*
X128674761Y-40267142D01*
X128722380Y-40362380D01*
X128722380Y-40457619D01*
X128674761Y-40552857D01*
X128627142Y-40600476D01*
X128531904Y-40648095D01*
X128341428Y-40695714D01*
X128103333Y-40695714D01*
X127912857Y-40648095D01*
X127817619Y-40600476D01*
X127770000Y-40552857D01*
X127722380Y-40457619D01*
D11*
X89476666Y-78356666D02*
X89476666Y-78856666D01*
X89443333Y-78956666D01*
X89376666Y-79023333D01*
X89276666Y-79056666D01*
X89210000Y-79056666D01*
X90143333Y-79056666D02*
X89810000Y-79056666D01*
X89810000Y-78356666D01*
X90610000Y-78690000D02*
X90710000Y-78723333D01*
X90743333Y-78756666D01*
X90776666Y-78823333D01*
X90776666Y-78923333D01*
X90743333Y-78990000D01*
X90710000Y-79023333D01*
X90643333Y-79056666D01*
X90376666Y-79056666D01*
X90376666Y-78356666D01*
X90610000Y-78356666D01*
X90676666Y-78390000D01*
X90710000Y-78423333D01*
X90743333Y-78490000D01*
X90743333Y-78556666D01*
X90710000Y-78623333D01*
X90676666Y-78656666D01*
X90610000Y-78690000D01*
X90376666Y-78690000D01*
X91276666Y-78356666D02*
X91276666Y-78856666D01*
X91243333Y-78956666D01*
X91176666Y-79023333D01*
X91076666Y-79056666D01*
X91010000Y-79056666D01*
X91943333Y-79056666D02*
X91610000Y-79056666D01*
X91610000Y-78356666D01*
X92410000Y-78690000D02*
X92510000Y-78723333D01*
X92543333Y-78756666D01*
X92576666Y-78823333D01*
X92576666Y-78923333D01*
X92543333Y-78990000D01*
X92510000Y-79023333D01*
X92443333Y-79056666D01*
X92176666Y-79056666D01*
X92176666Y-78356666D01*
X92410000Y-78356666D01*
X92476666Y-78390000D01*
X92510000Y-78423333D01*
X92543333Y-78490000D01*
X92543333Y-78556666D01*
X92510000Y-78623333D01*
X92476666Y-78656666D01*
X92410000Y-78690000D01*
X92176666Y-78690000D01*
X93076666Y-78356666D02*
X93076666Y-78856666D01*
X93043333Y-78956666D01*
X92976666Y-79023333D01*
X92876666Y-79056666D01*
X92810000Y-79056666D01*
X93743333Y-79056666D02*
X93410000Y-79056666D01*
X93410000Y-78356666D01*
X94210000Y-78690000D02*
X94310000Y-78723333D01*
X94343333Y-78756666D01*
X94376666Y-78823333D01*
X94376666Y-78923333D01*
X94343333Y-78990000D01*
X94310000Y-79023333D01*
X94243333Y-79056666D01*
X93976666Y-79056666D01*
X93976666Y-78356666D01*
X94210000Y-78356666D01*
X94276666Y-78390000D01*
X94310000Y-78423333D01*
X94343333Y-78490000D01*
X94343333Y-78556666D01*
X94310000Y-78623333D01*
X94276666Y-78656666D01*
X94210000Y-78690000D01*
X93976666Y-78690000D01*
X94876666Y-78356666D02*
X94876666Y-78856666D01*
X94843333Y-78956666D01*
X94776666Y-79023333D01*
X94676666Y-79056666D01*
X94610000Y-79056666D01*
X95543333Y-79056666D02*
X95210000Y-79056666D01*
X95210000Y-78356666D01*
X96010000Y-78690000D02*
X96110000Y-78723333D01*
X96143333Y-78756666D01*
X96176666Y-78823333D01*
X96176666Y-78923333D01*
X96143333Y-78990000D01*
X96110000Y-79023333D01*
X96043333Y-79056666D01*
X95776666Y-79056666D01*
X95776666Y-78356666D01*
X96010000Y-78356666D01*
X96076666Y-78390000D01*
X96110000Y-78423333D01*
X96143333Y-78490000D01*
X96143333Y-78556666D01*
X96110000Y-78623333D01*
X96076666Y-78656666D01*
X96010000Y-78690000D01*
X95776666Y-78690000D01*
D10*
X82550000Y-88900000D02*
X82550000Y-76200000D01*
X120650000Y-88900000D02*
X82550000Y-88900000D01*
X120650000Y-76200000D02*
X120650000Y-88900000D01*
X82550000Y-76200000D02*
X120650000Y-76200000D01*
D12*
%TO.C,A1*%
X76220000Y-65436666D02*
X76220000Y-74389999D01*
X76580000Y-65436666D02*
X76220000Y-65436666D01*
X76580000Y-56483334D02*
X76580000Y-65436666D01*
X76220000Y-56483334D02*
X76580000Y-56483334D01*
X76220000Y-47530000D02*
X76220000Y-56483334D01*
X126980000Y-47530001D02*
X76220000Y-47530000D01*
X126980000Y-74390000D02*
X126980000Y-47530001D01*
X76220000Y-74389999D02*
X126980000Y-74390000D01*
%TO.C,SW2*%
X118510000Y-42370000D02*
X118510000Y-40870000D01*
X117260000Y-38370000D02*
X112760000Y-38370000D01*
X111510000Y-40870000D02*
X111510000Y-42370000D01*
X112760000Y-44870000D02*
X117260000Y-44870000D01*
%TO.C,J6*%
X136750000Y-66570000D02*
X136750000Y-66070000D01*
X136010000Y-66570000D02*
X136750000Y-66570000D01*
X130190000Y-58130000D02*
X136510000Y-58130000D01*
X130190000Y-66330000D02*
X136510000Y-66330000D01*
X136510000Y-58900000D02*
X136510000Y-58130000D01*
X136510000Y-61440000D02*
X136510000Y-60480000D01*
X136510000Y-63980000D02*
X136510000Y-63020000D01*
X136510000Y-66330000D02*
X136510000Y-65560000D01*
X130190000Y-66330000D02*
X130190000Y-58130000D01*
X130650000Y-66330000D02*
X130650000Y-58130000D01*
X135950000Y-58900000D02*
X135950000Y-58130000D01*
X135950000Y-61440000D02*
X135950000Y-60480000D01*
X135950000Y-63980000D02*
X135950000Y-63020000D01*
X135950000Y-66330000D02*
X135950000Y-65560000D01*
%TO.C,J5*%
X136750000Y-56410000D02*
X136750000Y-55910000D01*
X136010000Y-56410000D02*
X136750000Y-56410000D01*
X130190000Y-47970000D02*
X136510000Y-47970000D01*
X130190000Y-56170000D02*
X136510000Y-56170000D01*
X136510000Y-48740000D02*
X136510000Y-47970000D01*
X136510000Y-51280000D02*
X136510000Y-50320000D01*
X136510000Y-53820000D02*
X136510000Y-52860000D01*
X136510000Y-56170000D02*
X136510000Y-55400000D01*
X130190000Y-56170000D02*
X130190000Y-47970000D01*
X130650000Y-56170000D02*
X130650000Y-47970000D01*
X135950000Y-48740000D02*
X135950000Y-47970000D01*
X135950000Y-51280000D02*
X135950000Y-50320000D01*
X135950000Y-53820000D02*
X135950000Y-52860000D01*
X135950000Y-56170000D02*
X135950000Y-55400000D01*
%TO.C,J4*%
X136750000Y-81810000D02*
X136750000Y-81310000D01*
X136010000Y-81810000D02*
X136750000Y-81810000D01*
X130190000Y-75910000D02*
X136510000Y-75910000D01*
X130190000Y-81570000D02*
X136510000Y-81570000D01*
X136510000Y-76680000D02*
X136510000Y-75910000D01*
X136510000Y-79220000D02*
X136510000Y-78260000D01*
X136510000Y-81570000D02*
X136510000Y-80800000D01*
X130190000Y-81570000D02*
X130190000Y-75910000D01*
X130650000Y-81570000D02*
X130650000Y-75910000D01*
X135950000Y-76680000D02*
X135950000Y-75910000D01*
X135950000Y-79220000D02*
X135950000Y-78260000D01*
X135950000Y-81570000D02*
X135950000Y-80800000D01*
%TO.C,U1*%
X86420000Y-87690000D02*
X85090000Y-87690000D01*
X86420000Y-86360000D02*
X86420000Y-87690000D01*
X86420000Y-85090000D02*
X83760000Y-85090000D01*
X83760000Y-85090000D02*
X83760000Y-77410000D01*
X86420000Y-85090000D02*
X86420000Y-77410000D01*
X86420000Y-77410000D02*
X83760000Y-77410000D01*
%TO.C,SW3*%
X91840000Y-42370000D02*
X91840000Y-40870000D01*
X90590000Y-38370000D02*
X86090000Y-38370000D01*
X84840000Y-40870000D02*
X84840000Y-42370000D01*
X86090000Y-44870000D02*
X90590000Y-44870000D01*
%TO.C,SW1*%
X105810000Y-42370000D02*
X105810000Y-40870000D01*
X104560000Y-38370000D02*
X100060000Y-38370000D01*
X98810000Y-40870000D02*
X98810000Y-42370000D01*
X100060000Y-44870000D02*
X104560000Y-44870000D01*
%TO.C,R4*%
X101600000Y-65000000D02*
X101600000Y-64230000D01*
X101600000Y-56920000D02*
X101600000Y-57690000D01*
X102970000Y-64230000D02*
X102970000Y-57690000D01*
X100230000Y-64230000D02*
X102970000Y-64230000D01*
X100230000Y-57690000D02*
X100230000Y-64230000D01*
X102970000Y-57690000D02*
X100230000Y-57690000D01*
%TO.C,R3*%
X96520000Y-65000000D02*
X96520000Y-64230000D01*
X96520000Y-56920000D02*
X96520000Y-57690000D01*
X97890000Y-64230000D02*
X97890000Y-57690000D01*
X95150000Y-64230000D02*
X97890000Y-64230000D01*
X95150000Y-57690000D02*
X95150000Y-64230000D01*
X97890000Y-57690000D02*
X95150000Y-57690000D01*
%TO.C,R2*%
X106680000Y-65000000D02*
X106680000Y-64230000D01*
X106680000Y-56920000D02*
X106680000Y-57690000D01*
X108050000Y-64230000D02*
X108050000Y-57690000D01*
X105310000Y-64230000D02*
X108050000Y-64230000D01*
X105310000Y-57690000D02*
X105310000Y-64230000D01*
X108050000Y-57690000D02*
X105310000Y-57690000D01*
%TO.C,R1*%
X124460000Y-50570000D02*
X124460000Y-51340000D01*
X124460000Y-58650000D02*
X124460000Y-57880000D01*
X123090000Y-51340000D02*
X123090000Y-57880000D01*
X125830000Y-51340000D02*
X123090000Y-51340000D01*
X125830000Y-57880000D02*
X125830000Y-51340000D01*
X123090000Y-57880000D02*
X125830000Y-57880000D01*
%TO.C,J3*%
X136750000Y-74190000D02*
X136750000Y-73690000D01*
X136010000Y-74190000D02*
X136750000Y-74190000D01*
X130190000Y-68290000D02*
X136510000Y-68290000D01*
X130190000Y-73950000D02*
X136510000Y-73950000D01*
X136510000Y-69060000D02*
X136510000Y-68290000D01*
X136510000Y-71600000D02*
X136510000Y-70640000D01*
X136510000Y-73950000D02*
X136510000Y-73180000D01*
X130190000Y-73950000D02*
X130190000Y-68290000D01*
X130650000Y-73950000D02*
X130650000Y-68290000D01*
X135950000Y-69060000D02*
X135950000Y-68290000D01*
X135950000Y-71600000D02*
X135950000Y-70640000D01*
X135950000Y-73950000D02*
X135950000Y-73180000D01*
%TO.C,J2*%
X136750000Y-46250000D02*
X136750000Y-45750000D01*
X136010000Y-46250000D02*
X136750000Y-46250000D01*
X130190000Y-37810000D02*
X136510000Y-37810000D01*
X130190000Y-46010000D02*
X136510000Y-46010000D01*
X136510000Y-38580000D02*
X136510000Y-37810000D01*
X136510000Y-41120000D02*
X136510000Y-40160000D01*
X136510000Y-43660000D02*
X136510000Y-42700000D01*
X136510000Y-46010000D02*
X136510000Y-45240000D01*
X130190000Y-46010000D02*
X130190000Y-37810000D01*
X130650000Y-46010000D02*
X130650000Y-37810000D01*
X135950000Y-38580000D02*
X135950000Y-37810000D01*
X135950000Y-41120000D02*
X135950000Y-40160000D01*
X135950000Y-43660000D02*
X135950000Y-42700000D01*
X135950000Y-46010000D02*
X135950000Y-45240000D01*
%TO.C,J1*%
X136750000Y-89430000D02*
X136750000Y-88930000D01*
X136010000Y-89430000D02*
X136750000Y-89430000D01*
X130190000Y-83530000D02*
X136510000Y-83530000D01*
X130190000Y-89190000D02*
X136510000Y-89190000D01*
X136510000Y-84300000D02*
X136510000Y-83530000D01*
X136510000Y-86840000D02*
X136510000Y-85880000D01*
X136510000Y-89190000D02*
X136510000Y-88420000D01*
X130190000Y-89190000D02*
X130190000Y-83530000D01*
X130650000Y-89190000D02*
X130650000Y-83530000D01*
X135950000Y-84300000D02*
X135950000Y-83530000D01*
X135950000Y-86840000D02*
X135950000Y-85880000D01*
X135950000Y-89190000D02*
X135950000Y-88420000D01*
%TO.C,A1*%
D10*
X80176666Y-61674285D02*
X80176666Y-61198095D01*
X80462380Y-61769523D02*
X79462380Y-61436190D01*
X80462380Y-61102857D01*
X80462380Y-60245714D02*
X80462380Y-60817142D01*
X80462380Y-60531428D02*
X79462380Y-60531428D01*
X79605238Y-60626666D01*
X79700476Y-60721904D01*
X79748095Y-60817142D01*
%TO.C,SW2*%
X113676666Y-46759761D02*
X113819523Y-46807380D01*
X114057619Y-46807380D01*
X114152857Y-46759761D01*
X114200476Y-46712142D01*
X114248095Y-46616904D01*
X114248095Y-46521666D01*
X114200476Y-46426428D01*
X114152857Y-46378809D01*
X114057619Y-46331190D01*
X113867142Y-46283571D01*
X113771904Y-46235952D01*
X113724285Y-46188333D01*
X113676666Y-46093095D01*
X113676666Y-45997857D01*
X113724285Y-45902619D01*
X113771904Y-45855000D01*
X113867142Y-45807380D01*
X114105238Y-45807380D01*
X114248095Y-45855000D01*
X114581428Y-45807380D02*
X114819523Y-46807380D01*
X115010000Y-46093095D01*
X115200476Y-46807380D01*
X115438571Y-45807380D01*
X115771904Y-45902619D02*
X115819523Y-45855000D01*
X115914761Y-45807380D01*
X116152857Y-45807380D01*
X116248095Y-45855000D01*
X116295714Y-45902619D01*
X116343333Y-45997857D01*
X116343333Y-46093095D01*
X116295714Y-46235952D01*
X115724285Y-46807380D01*
X116343333Y-46807380D01*
%TO.C,J6*%
X127936666Y-66127380D02*
X127936666Y-66841666D01*
X127889047Y-66984523D01*
X127793809Y-67079761D01*
X127650952Y-67127380D01*
X127555714Y-67127380D01*
X128841428Y-66127380D02*
X128650952Y-66127380D01*
X128555714Y-66175000D01*
X128508095Y-66222619D01*
X128412857Y-66365476D01*
X128365238Y-66555952D01*
X128365238Y-66936904D01*
X128412857Y-67032142D01*
X128460476Y-67079761D01*
X128555714Y-67127380D01*
X128746190Y-67127380D01*
X128841428Y-67079761D01*
X128889047Y-67032142D01*
X128936666Y-66936904D01*
X128936666Y-66698809D01*
X128889047Y-66603571D01*
X128841428Y-66555952D01*
X128746190Y-66508333D01*
X128555714Y-66508333D01*
X128460476Y-66555952D01*
X128412857Y-66603571D01*
X128365238Y-66698809D01*
%TO.C,J5*%
X127936666Y-55967380D02*
X127936666Y-56681666D01*
X127889047Y-56824523D01*
X127793809Y-56919761D01*
X127650952Y-56967380D01*
X127555714Y-56967380D01*
X128889047Y-55967380D02*
X128412857Y-55967380D01*
X128365238Y-56443571D01*
X128412857Y-56395952D01*
X128508095Y-56348333D01*
X128746190Y-56348333D01*
X128841428Y-56395952D01*
X128889047Y-56443571D01*
X128936666Y-56538809D01*
X128936666Y-56776904D01*
X128889047Y-56872142D01*
X128841428Y-56919761D01*
X128746190Y-56967380D01*
X128508095Y-56967380D01*
X128412857Y-56919761D01*
X128365238Y-56872142D01*
%TO.C,J4*%
X127936666Y-81367380D02*
X127936666Y-82081666D01*
X127889047Y-82224523D01*
X127793809Y-82319761D01*
X127650952Y-82367380D01*
X127555714Y-82367380D01*
X128841428Y-81700714D02*
X128841428Y-82367380D01*
X128603333Y-81319761D02*
X128365238Y-82034047D01*
X128984285Y-82034047D01*
%TO.C,U1*%
X79248095Y-82002380D02*
X79248095Y-82811904D01*
X79295714Y-82907142D01*
X79343333Y-82954761D01*
X79438571Y-83002380D01*
X79629047Y-83002380D01*
X79724285Y-82954761D01*
X79771904Y-82907142D01*
X79819523Y-82811904D01*
X79819523Y-82002380D01*
X80819523Y-83002380D02*
X80248095Y-83002380D01*
X80533809Y-83002380D02*
X80533809Y-82002380D01*
X80438571Y-82145238D01*
X80343333Y-82240476D01*
X80248095Y-82288095D01*
%TO.C,SW3*%
X87006666Y-46759761D02*
X87149523Y-46807380D01*
X87387619Y-46807380D01*
X87482857Y-46759761D01*
X87530476Y-46712142D01*
X87578095Y-46616904D01*
X87578095Y-46521666D01*
X87530476Y-46426428D01*
X87482857Y-46378809D01*
X87387619Y-46331190D01*
X87197142Y-46283571D01*
X87101904Y-46235952D01*
X87054285Y-46188333D01*
X87006666Y-46093095D01*
X87006666Y-45997857D01*
X87054285Y-45902619D01*
X87101904Y-45855000D01*
X87197142Y-45807380D01*
X87435238Y-45807380D01*
X87578095Y-45855000D01*
X87911428Y-45807380D02*
X88149523Y-46807380D01*
X88340000Y-46093095D01*
X88530476Y-46807380D01*
X88768571Y-45807380D01*
X89054285Y-45807380D02*
X89673333Y-45807380D01*
X89340000Y-46188333D01*
X89482857Y-46188333D01*
X89578095Y-46235952D01*
X89625714Y-46283571D01*
X89673333Y-46378809D01*
X89673333Y-46616904D01*
X89625714Y-46712142D01*
X89578095Y-46759761D01*
X89482857Y-46807380D01*
X89197142Y-46807380D01*
X89101904Y-46759761D01*
X89054285Y-46712142D01*
%TO.C,SW1*%
X100976666Y-46759761D02*
X101119523Y-46807380D01*
X101357619Y-46807380D01*
X101452857Y-46759761D01*
X101500476Y-46712142D01*
X101548095Y-46616904D01*
X101548095Y-46521666D01*
X101500476Y-46426428D01*
X101452857Y-46378809D01*
X101357619Y-46331190D01*
X101167142Y-46283571D01*
X101071904Y-46235952D01*
X101024285Y-46188333D01*
X100976666Y-46093095D01*
X100976666Y-45997857D01*
X101024285Y-45902619D01*
X101071904Y-45855000D01*
X101167142Y-45807380D01*
X101405238Y-45807380D01*
X101548095Y-45855000D01*
X101881428Y-45807380D02*
X102119523Y-46807380D01*
X102310000Y-46093095D01*
X102500476Y-46807380D01*
X102738571Y-45807380D01*
X103643333Y-46807380D02*
X103071904Y-46807380D01*
X103357619Y-46807380D02*
X103357619Y-45807380D01*
X103262380Y-45950238D01*
X103167142Y-46045476D01*
X103071904Y-46093095D01*
%TO.C,R4*%
X94432380Y-61126666D02*
X93956190Y-61460000D01*
X94432380Y-61698095D02*
X93432380Y-61698095D01*
X93432380Y-61317142D01*
X93480000Y-61221904D01*
X93527619Y-61174285D01*
X93622857Y-61126666D01*
X93765714Y-61126666D01*
X93860952Y-61174285D01*
X93908571Y-61221904D01*
X93956190Y-61317142D01*
X93956190Y-61698095D01*
X93765714Y-60269523D02*
X94432380Y-60269523D01*
X93384761Y-60507619D02*
X94099047Y-60745714D01*
X94099047Y-60126666D01*
%TO.C,R3*%
X99512380Y-61126666D02*
X99036190Y-61460000D01*
X99512380Y-61698095D02*
X98512380Y-61698095D01*
X98512380Y-61317142D01*
X98560000Y-61221904D01*
X98607619Y-61174285D01*
X98702857Y-61126666D01*
X98845714Y-61126666D01*
X98940952Y-61174285D01*
X98988571Y-61221904D01*
X99036190Y-61317142D01*
X99036190Y-61698095D01*
X98512380Y-60793333D02*
X98512380Y-60174285D01*
X98893333Y-60507619D01*
X98893333Y-60364761D01*
X98940952Y-60269523D01*
X98988571Y-60221904D01*
X99083809Y-60174285D01*
X99321904Y-60174285D01*
X99417142Y-60221904D01*
X99464761Y-60269523D01*
X99512380Y-60364761D01*
X99512380Y-60650476D01*
X99464761Y-60745714D01*
X99417142Y-60793333D01*
%TO.C,R2*%
X104592380Y-61126666D02*
X104116190Y-61460000D01*
X104592380Y-61698095D02*
X103592380Y-61698095D01*
X103592380Y-61317142D01*
X103640000Y-61221904D01*
X103687619Y-61174285D01*
X103782857Y-61126666D01*
X103925714Y-61126666D01*
X104020952Y-61174285D01*
X104068571Y-61221904D01*
X104116190Y-61317142D01*
X104116190Y-61698095D01*
X103687619Y-60745714D02*
X103640000Y-60698095D01*
X103592380Y-60602857D01*
X103592380Y-60364761D01*
X103640000Y-60269523D01*
X103687619Y-60221904D01*
X103782857Y-60174285D01*
X103878095Y-60174285D01*
X104020952Y-60221904D01*
X104592380Y-60793333D01*
X104592380Y-60174285D01*
%TO.C,R1*%
X122542380Y-54776666D02*
X122066190Y-55110000D01*
X122542380Y-55348095D02*
X121542380Y-55348095D01*
X121542380Y-54967142D01*
X121590000Y-54871904D01*
X121637619Y-54824285D01*
X121732857Y-54776666D01*
X121875714Y-54776666D01*
X121970952Y-54824285D01*
X122018571Y-54871904D01*
X122066190Y-54967142D01*
X122066190Y-55348095D01*
X122542380Y-53824285D02*
X122542380Y-54395714D01*
X122542380Y-54110000D02*
X121542380Y-54110000D01*
X121685238Y-54205238D01*
X121780476Y-54300476D01*
X121828095Y-54395714D01*
%TO.C,J3*%
X127936666Y-73747380D02*
X127936666Y-74461666D01*
X127889047Y-74604523D01*
X127793809Y-74699761D01*
X127650952Y-74747380D01*
X127555714Y-74747380D01*
X128317619Y-73747380D02*
X128936666Y-73747380D01*
X128603333Y-74128333D01*
X128746190Y-74128333D01*
X128841428Y-74175952D01*
X128889047Y-74223571D01*
X128936666Y-74318809D01*
X128936666Y-74556904D01*
X128889047Y-74652142D01*
X128841428Y-74699761D01*
X128746190Y-74747380D01*
X128460476Y-74747380D01*
X128365238Y-74699761D01*
X128317619Y-74652142D01*
%TO.C,J2*%
X127936666Y-45807380D02*
X127936666Y-46521666D01*
X127889047Y-46664523D01*
X127793809Y-46759761D01*
X127650952Y-46807380D01*
X127555714Y-46807380D01*
X128365238Y-45902619D02*
X128412857Y-45855000D01*
X128508095Y-45807380D01*
X128746190Y-45807380D01*
X128841428Y-45855000D01*
X128889047Y-45902619D01*
X128936666Y-45997857D01*
X128936666Y-46093095D01*
X128889047Y-46235952D01*
X128317619Y-46807380D01*
X128936666Y-46807380D01*
%TO.C,J1*%
X127936666Y-88987380D02*
X127936666Y-89701666D01*
X127889047Y-89844523D01*
X127793809Y-89939761D01*
X127650952Y-89987380D01*
X127555714Y-89987380D01*
X128936666Y-89987380D02*
X128365238Y-89987380D01*
X128650952Y-89987380D02*
X128650952Y-88987380D01*
X128555714Y-89130238D01*
X128460476Y-89225476D01*
X128365238Y-89273095D01*
%TD*%
M02*
