M48
; DRILL file {KiCad (5.1.6-0-10_14)} date Monday, September 21, 2020 at 12:36:27 AM
; FORMAT={-:-/ absolute / inch / decimal}
; #@! TF.CreationDate,2020-09-21T00:36:27-04:00
; #@! TF.GenerationSoftware,Kicad,Pcbnew,(5.1.6-0-10_14)
; #@! TF.FileFunction,Plated,1,2,PTH
FMAT,2
INCH
T1C0.0315
T2C0.0394
T3C0.0433
%
G90
G05
T1
X4.9Y-1.95
X4.9Y-2.35
X4.2Y-2.2
X4.2Y-2.6
X3.8Y-2.2
X3.8Y-2.6
X3.3Y-1.95
X3.3Y-2.85
X3.4Y-1.95
X3.4Y-2.85
X3.5Y-1.95
X3.5Y-2.85
X3.6Y-1.95
X3.6Y-2.85
X3.7Y-1.95
X3.7Y-2.85
X3.8Y-1.95
X3.8Y-2.85
X3.9Y-1.95
X3.9Y-2.85
X4.0Y-1.95
X4.0Y-2.85
X4.1Y-1.95
X4.1Y-2.85
X4.2Y-1.95
X4.2Y-2.85
X4.3Y-1.95
X4.3Y-2.85
X4.4Y-1.95
X4.4Y-2.85
X4.5Y-1.95
X4.5Y-2.85
X4.6Y-1.95
X4.6Y-2.85
X4.7Y-1.95
X4.7Y-2.85
X4.0Y-2.2
X4.0Y-2.6
T2
X3.35Y-3.1
X3.35Y-3.2
X3.35Y-3.3
X3.35Y-3.4
T3
X5.25Y-1.55
X5.25Y-1.65
X5.25Y-1.75
X5.25Y-1.95
X5.25Y-2.05
X5.25Y-2.15
X3.9Y-1.55
X3.9Y-1.7272
X4.1559Y-1.55
X4.1559Y-1.7272
X5.25Y-2.35
X5.25Y-2.45
X5.25Y-2.55
X5.25Y-3.35
X5.25Y-3.45
X4.4Y-1.55
X4.4Y-1.7272
X4.6559Y-1.55
X4.6559Y-1.7272
X5.25Y-2.75
X5.25Y-2.85
X3.35Y-1.55
X3.35Y-1.7272
X3.6059Y-1.55
X3.6059Y-1.7272
X5.25Y-3.05
X5.25Y-3.15
T0
M30
