%TF.GenerationSoftware,KiCad,Pcbnew,(5.1.6-0-10_14)*%
%TF.CreationDate,2020-09-21T00:36:23-04:00*%
%TF.ProjectId,MQTT Relay,4d515454-2052-4656-9c61-792e6b696361,rev?*%
%TF.SameCoordinates,Original*%
%TF.FileFunction,Copper,L1,Top*%
%TF.FilePolarity,Positive*%
%FSLAX46Y46*%
G04 Gerber Fmt 4.6, Leading zero omitted, Abs format (unit mm)*
G04 Created by KiCad (PCBNEW (5.1.6-0-10_14)) date 2020-09-21 00:36:23*
%MOMM*%
%LPD*%
G01*
G04 APERTURE LIST*
%TA.AperFunction,ComponentPad*%
%ADD10O,1.200000X2.000000*%
%TD*%
%TA.AperFunction,ComponentPad*%
%ADD11C,2.000000*%
%TD*%
%TA.AperFunction,ComponentPad*%
%ADD12C,2.200000*%
%TD*%
%TA.AperFunction,ComponentPad*%
%ADD13R,2.200000X2.200000*%
%TD*%
%TA.AperFunction,ComponentPad*%
%ADD14O,1.700000X1.700000*%
%TD*%
%TA.AperFunction,ComponentPad*%
%ADD15R,1.700000X1.700000*%
%TD*%
%TA.AperFunction,ComponentPad*%
%ADD16O,1.600000X1.600000*%
%TD*%
%TA.AperFunction,ComponentPad*%
%ADD17C,1.600000*%
%TD*%
%TA.AperFunction,Conductor*%
%ADD18C,0.250000*%
%TD*%
G04 APERTURE END LIST*
D10*
%TO.P,A1,15*%
%TO.N,Net-(A1-Pad15)*%
X119380000Y-72390000D03*
%TO.P,A1,16*%
%TO.N,Net-(A1-Pad16)*%
X119380000Y-49530000D03*
%TO.P,A1,14*%
%TO.N,Net-(A1-Pad14)*%
X116840000Y-72390000D03*
%TO.P,A1,17*%
%TO.N,N/C*%
X116840000Y-49530000D03*
%TO.P,A1,13*%
%TO.N,Net-(A1-Pad13)*%
X114300000Y-72390000D03*
%TO.P,A1,18*%
%TO.N,N/C*%
X114300000Y-49530000D03*
%TO.P,A1,12*%
%TO.N,Net-(A1-Pad12)*%
X111760000Y-72390000D03*
%TO.P,A1,19*%
%TO.N,Net-(A1-Pad19)*%
X111760000Y-49530000D03*
%TO.P,A1,11*%
%TO.N,Net-(A1-Pad11)*%
X109220000Y-72390000D03*
%TO.P,A1,20*%
%TO.N,Net-(A1-Pad20)*%
X109220000Y-49530000D03*
%TO.P,A1,10*%
%TO.N,+3V3*%
X106680000Y-72390000D03*
%TO.P,A1,21*%
%TO.N,Net-(A1-Pad21)*%
X106680000Y-49530000D03*
%TO.P,A1,9*%
%TO.N,GND*%
X104140000Y-72390000D03*
%TO.P,A1,22*%
%TO.N,Net-(A1-Pad22)*%
X104140000Y-49530000D03*
%TO.P,A1,8*%
%TO.N,Net-(A1-Pad8)*%
X101600000Y-72390000D03*
%TO.P,A1,23*%
%TO.N,Net-(A1-Pad23)*%
X101600000Y-49530000D03*
%TO.P,A1,7*%
%TO.N,/~CFG*%
X99060000Y-72390000D03*
%TO.P,A1,24*%
%TO.N,Net-(A1-Pad24)*%
X99060000Y-49530000D03*
%TO.P,A1,6*%
%TO.N,Net-(A1-Pad6)*%
X96520000Y-72390000D03*
%TO.P,A1,25*%
%TO.N,GND*%
X96520000Y-49530000D03*
%TO.P,A1,5*%
%TO.N,Net-(A1-Pad5)*%
X93980000Y-72390000D03*
%TO.P,A1,26*%
%TO.N,+3V3*%
X93980000Y-49530000D03*
%TO.P,A1,4*%
%TO.N,Net-(A1-Pad4)*%
X91440000Y-72390000D03*
%TO.P,A1,27*%
%TO.N,Net-(A1-Pad27)*%
X91440000Y-49530000D03*
%TO.P,A1,3*%
%TO.N,Net-(A1-Pad3)*%
X88900000Y-72390000D03*
%TO.P,A1,28*%
%TO.N,Net-(A1-Pad28)*%
X88900000Y-49530000D03*
%TO.P,A1,2*%
%TO.N,GND*%
X86360000Y-72390000D03*
%TO.P,A1,29*%
X86360000Y-49530000D03*
%TO.P,A1,1*%
%TO.N,+3V3*%
X83820000Y-72390000D03*
%TO.P,A1,30*%
%TO.N,Net-(A1-Pad30)*%
X83820000Y-49530000D03*
%TD*%
D11*
%TO.P,SW2,1*%
%TO.N,Net-(A1-Pad6)*%
X118260000Y-39370000D03*
%TO.P,SW2,2*%
%TO.N,GND*%
X118260000Y-43870000D03*
%TO.P,SW2,1*%
%TO.N,Net-(A1-Pad6)*%
X111760000Y-39370000D03*
%TO.P,SW2,2*%
%TO.N,GND*%
X111760000Y-43870000D03*
%TD*%
D12*
%TO.P,J6,3*%
%TO.N,+3V3*%
X133350000Y-59690000D03*
%TO.P,J6,2*%
%TO.N,Net-(A1-Pad11)*%
X133350000Y-62230000D03*
D13*
%TO.P,J6,1*%
%TO.N,GND*%
X133350000Y-64770000D03*
%TD*%
D12*
%TO.P,J5,3*%
%TO.N,+3V3*%
X133350000Y-49530000D03*
%TO.P,J5,2*%
%TO.N,Net-(A1-Pad12)*%
X133350000Y-52070000D03*
D13*
%TO.P,J5,1*%
%TO.N,GND*%
X133350000Y-54610000D03*
%TD*%
D12*
%TO.P,J4,2*%
%TO.N,Net-(A1-Pad6)*%
X133350000Y-77470000D03*
D13*
%TO.P,J4,1*%
%TO.N,GND*%
X133350000Y-80010000D03*
%TD*%
D14*
%TO.P,U1,4*%
%TO.N,Net-(A1-Pad13)*%
X85090000Y-78740000D03*
%TO.P,U1,3*%
%TO.N,Net-(A1-Pad14)*%
X85090000Y-81280000D03*
%TO.P,U1,2*%
%TO.N,+3V3*%
X85090000Y-83820000D03*
D15*
%TO.P,U1,1*%
%TO.N,GND*%
X85090000Y-86360000D03*
%TD*%
D11*
%TO.P,SW3,1*%
%TO.N,/~CFG*%
X91590000Y-39370000D03*
%TO.P,SW3,2*%
%TO.N,GND*%
X91590000Y-43870000D03*
%TO.P,SW3,1*%
%TO.N,/~CFG*%
X85090000Y-39370000D03*
%TO.P,SW3,2*%
%TO.N,GND*%
X85090000Y-43870000D03*
%TD*%
%TO.P,SW1,1*%
%TO.N,Net-(A1-Pad19)*%
X105560000Y-39370000D03*
%TO.P,SW1,2*%
%TO.N,GND*%
X105560000Y-43870000D03*
%TO.P,SW1,1*%
%TO.N,Net-(A1-Pad19)*%
X99060000Y-39370000D03*
%TO.P,SW1,2*%
%TO.N,GND*%
X99060000Y-43870000D03*
%TD*%
D16*
%TO.P,R4,2*%
%TO.N,/~CFG*%
X101600000Y-66040000D03*
D17*
%TO.P,R4,1*%
%TO.N,+3V3*%
X101600000Y-55880000D03*
%TD*%
D16*
%TO.P,R3,2*%
%TO.N,Net-(A1-Pad6)*%
X96520000Y-66040000D03*
D17*
%TO.P,R3,1*%
%TO.N,+3V3*%
X96520000Y-55880000D03*
%TD*%
D16*
%TO.P,R2,2*%
%TO.N,Net-(A1-Pad19)*%
X106680000Y-66040000D03*
D17*
%TO.P,R2,1*%
%TO.N,+3V3*%
X106680000Y-55880000D03*
%TD*%
D16*
%TO.P,R1,2*%
%TO.N,Net-(A1-Pad8)*%
X124460000Y-49530000D03*
D17*
%TO.P,R1,1*%
%TO.N,+3V3*%
X124460000Y-59690000D03*
%TD*%
D12*
%TO.P,J3,2*%
%TO.N,Net-(A1-Pad19)*%
X133350000Y-69850000D03*
D13*
%TO.P,J3,1*%
%TO.N,GND*%
X133350000Y-72390000D03*
%TD*%
D12*
%TO.P,J2,3*%
%TO.N,+3V3*%
X133350000Y-39370000D03*
%TO.P,J2,2*%
%TO.N,Net-(A1-Pad8)*%
X133350000Y-41910000D03*
D13*
%TO.P,J2,1*%
%TO.N,GND*%
X133350000Y-44450000D03*
%TD*%
D12*
%TO.P,J1,2*%
%TO.N,Net-(A1-Pad30)*%
X133350000Y-85090000D03*
D13*
%TO.P,J1,1*%
%TO.N,GND*%
X133350000Y-87630000D03*
%TD*%
D18*
%TO.N,GND*%
X132474999Y-45325001D02*
X133350000Y-44450000D01*
X118840000Y-44450000D02*
X118260000Y-43870000D01*
X133350000Y-44450000D02*
X118840000Y-44450000D01*
X118260000Y-43870000D02*
X85090000Y-43870000D01*
X99060000Y-43870000D02*
X96520000Y-46410000D01*
X96520000Y-46410000D02*
X96520000Y-49530000D01*
X85090000Y-43870000D02*
X86360000Y-45140000D01*
X86360000Y-45140000D02*
X86360000Y-49530000D01*
%TO.N,+3V3*%
X134775001Y-48104999D02*
X133350000Y-49530000D01*
X134775001Y-40795001D02*
X134775001Y-48104999D01*
X133350000Y-39370000D02*
X134775001Y-40795001D01*
X134775001Y-58264999D02*
X133350000Y-59690000D01*
X134775001Y-50955001D02*
X134775001Y-58264999D01*
X133350000Y-49530000D02*
X134775001Y-50955001D01*
X124460000Y-59690000D02*
X133350000Y-59690000D01*
X124460000Y-59690000D02*
X120650000Y-55880000D01*
X120650000Y-55880000D02*
X96520000Y-55880000D01*
X93980000Y-49530000D02*
X93980000Y-50800000D01*
X83820000Y-72390000D02*
X83820000Y-71120000D01*
X83820000Y-71120000D02*
X85090000Y-69850000D01*
X85090000Y-69850000D02*
X93980000Y-69850000D01*
X93980000Y-69850000D02*
X95250000Y-71120000D01*
X95250000Y-71120000D02*
X95250000Y-73660000D01*
X95250000Y-73660000D02*
X96520000Y-74930000D01*
X96520000Y-74930000D02*
X105410000Y-74930000D01*
X106680000Y-73660000D02*
X106680000Y-72390000D01*
X105410000Y-74930000D02*
X106680000Y-73660000D01*
X93980000Y-68580000D02*
X93980000Y-69850000D01*
X93980000Y-50800000D02*
X93980000Y-52705000D01*
X93980000Y-53340000D02*
X96520000Y-55880000D01*
X93980000Y-52705000D02*
X93980000Y-53340000D01*
X93980000Y-58420000D02*
X93980000Y-68580000D01*
X96520000Y-55880000D02*
X93980000Y-58420000D01*
X82550000Y-81280000D02*
X85090000Y-83820000D01*
X83820000Y-72390000D02*
X83820000Y-73660000D01*
X83820000Y-73660000D02*
X82550000Y-74930000D01*
X82550000Y-74930000D02*
X82550000Y-81280000D01*
%TO.N,Net-(A1-Pad19)*%
X128270000Y-69850000D02*
X133350000Y-69850000D01*
X106680000Y-66040000D02*
X124460000Y-66040000D01*
X124460000Y-66040000D02*
X128270000Y-69850000D01*
%TO.N,Net-(A1-Pad6)*%
X96520000Y-66040000D02*
X96520000Y-72390000D01*
X102870000Y-63500000D02*
X99060000Y-63500000D01*
X104140000Y-67310000D02*
X104140000Y-64770000D01*
X105410000Y-68580000D02*
X104140000Y-67310000D01*
X120650000Y-68580000D02*
X105410000Y-68580000D01*
X99060000Y-63500000D02*
X96520000Y-66040000D01*
X129540000Y-77470000D02*
X120650000Y-68580000D01*
X104140000Y-64770000D02*
X102870000Y-63500000D01*
X133350000Y-77470000D02*
X129540000Y-77470000D01*
%TO.N,/~CFG*%
X99060000Y-68580000D02*
X99060000Y-72390000D01*
X101600000Y-66040000D02*
X99060000Y-68580000D01*
%TO.N,Net-(A1-Pad13)*%
X107950000Y-78740000D02*
X85090000Y-78740000D01*
X114300000Y-72390000D02*
X107950000Y-78740000D01*
%TO.N,Net-(A1-Pad14)*%
X107950000Y-81280000D02*
X85090000Y-81280000D01*
X116840000Y-72390000D02*
X107950000Y-81280000D01*
%TD*%
M02*
