%TF.GenerationSoftware,KiCad,Pcbnew,9.0.7*%
%TF.CreationDate,2026-03-08T18:10:03-04:00*%
%TF.ProjectId,ESP32c6 Agent PCB CPU,45535033-3263-4362-9041-67656e742050,5.0*%
%TF.SameCoordinates,Original*%
%TF.FileFunction,Copper,L2,Bot*%
%TF.FilePolarity,Positive*%
%FSLAX46Y46*%
G04 Gerber Fmt 4.6, Leading zero omitted, Abs format (unit mm)*
G04 Created by KiCad (PCBNEW 9.0.7) date 2026-03-08 18:10:03*
%MOMM*%
%LPD*%
G01*
G04 APERTURE LIST*
G04 Aperture macros list*
%AMRoundRect*
0 Rectangle with rounded corners*
0 $1 Rounding radius*
0 $2 $3 $4 $5 $6 $7 $8 $9 X,Y pos of 4 corners*
0 Add a 4 corners polygon primitive as box body*
4,1,4,$2,$3,$4,$5,$6,$7,$8,$9,$2,$3,0*
0 Add four circle primitives for the rounded corners*
1,1,$1+$1,$2,$3*
1,1,$1+$1,$4,$5*
1,1,$1+$1,$6,$7*
1,1,$1+$1,$8,$9*
0 Add four rect primitives between the rounded corners*
20,1,$1+$1,$2,$3,$4,$5,0*
20,1,$1+$1,$4,$5,$6,$7,0*
20,1,$1+$1,$6,$7,$8,$9,0*
20,1,$1+$1,$8,$9,$2,$3,0*%
%AMFreePoly0*
4,1,5,0.635000,-1.750000,-0.635000,-1.750000,-0.635000,1.750000,0.635000,1.750000,0.635000,-1.750000,0.635000,-1.750000,$1*%
G04 Aperture macros list end*
%TA.AperFunction,CastellatedPad*%
%ADD10FreePoly0,90.000000*%
%TD*%
%TA.AperFunction,CastellatedPad*%
%ADD11R,3.500000X1.270000*%
%TD*%
%TA.AperFunction,ComponentPad*%
%ADD12C,2.000000*%
%TD*%
%TA.AperFunction,ComponentPad*%
%ADD13R,2.000000X2.000000*%
%TD*%
%TA.AperFunction,ComponentPad*%
%ADD14O,2.000000X1.200000*%
%TD*%
%TA.AperFunction,ComponentPad*%
%ADD15C,1.524000*%
%TD*%
%TA.AperFunction,ComponentPad*%
%ADD16RoundRect,0.250000X-0.620000X-0.845000X0.620000X-0.845000X0.620000X0.845000X-0.620000X0.845000X0*%
%TD*%
%TA.AperFunction,ComponentPad*%
%ADD17O,1.740000X2.190000*%
%TD*%
%TA.AperFunction,ViaPad*%
%ADD18C,0.600000*%
%TD*%
%TA.AperFunction,Conductor*%
%ADD19C,0.200000*%
%TD*%
%TA.AperFunction,Conductor*%
%ADD20C,1.000000*%
%TD*%
%TA.AperFunction,Conductor*%
%ADD21C,0.500000*%
%TD*%
G04 APERTURE END LIST*
D10*
%TO.P,J1,1,Pin_1*%
%TO.N,GND*%
X150886000Y-87310000D03*
%TO.P,J1,2,Pin_2*%
X150886000Y-84770000D03*
%TO.P,J1,3,Pin_3*%
%TO.N,/I.0*%
X150886000Y-82230000D03*
%TO.P,J1,4,Pin_4*%
%TO.N,/I.1*%
X150886000Y-79690000D03*
%TO.P,J1,5,Pin_5*%
%TO.N,/O.0*%
X150886000Y-77150000D03*
%TO.P,J1,6,Pin_6*%
%TO.N,/O.1*%
X150886000Y-74610000D03*
%TO.P,J1,7,Pin_7*%
%TO.N,/O5.0*%
X150886000Y-72070000D03*
%TO.P,J1,8,Pin_8*%
%TO.N,/O5.1*%
X150886000Y-69530000D03*
%TO.P,J1,9,Pin_9*%
%TO.N,DAC-L*%
X150886000Y-66990000D03*
%TO.P,J1,10,Pin_10*%
%TO.N,DAC-R*%
X150886000Y-64450000D03*
%TO.P,J1,11,Pin_11*%
%TO.N,/T.0*%
X150886000Y-61910000D03*
%TO.P,J1,12,Pin_12*%
%TO.N,GND*%
X150886000Y-59370000D03*
D11*
%TO.P,J1,13,Pin_13*%
%TO.N,VCC*%
X150886000Y-56830000D03*
%TO.P,J1,14,Pin_14*%
%TO.N,+3V3*%
X150886000Y-54290000D03*
%TD*%
D12*
%TO.P,SW1,1,1*%
%TO.N,/I.0*%
X103632000Y-84745000D03*
X110132000Y-84745000D03*
%TO.P,SW1,2,2*%
%TO.N,GND*%
X103632000Y-89245000D03*
X110132000Y-89245000D03*
%TD*%
D13*
%TO.P,U2,1,VCC*%
%TO.N,VCC*%
X124968000Y-64008000D03*
D14*
%TO.P,U2,2,RX*%
%TO.N,/RX*%
X124968000Y-66548000D03*
%TO.P,U2,3,TX*%
%TO.N,/TX*%
X124968000Y-69088000D03*
%TO.P,U2,4,DAC_R*%
%TO.N,DAC-R*%
X124968000Y-71628000D03*
%TO.P,U2,5,DAC_L*%
%TO.N,DAC-L*%
X124968000Y-74168000D03*
%TO.P,U2,6,SPK-*%
%TO.N,unconnected-(U2-SPK--Pad6)*%
X124968000Y-76708000D03*
%TO.P,U2,7,GND*%
%TO.N,GND*%
X124968000Y-79248000D03*
%TO.P,U2,8,SPK+*%
%TO.N,unconnected-(U2-SPK+-Pad8)*%
X124968000Y-81788000D03*
%TO.P,U2,9,IO1*%
%TO.N,unconnected-(U2-IO1-Pad9)*%
X142968000Y-81788000D03*
%TO.P,U2,10,GND*%
%TO.N,GND*%
X142968000Y-79248000D03*
%TO.P,U2,11,IO2*%
%TO.N,unconnected-(U2-IO2-Pad11)*%
X142968000Y-76708000D03*
%TO.P,U2,12,ADKEY1*%
%TO.N,unconnected-(U2-ADKEY1-Pad12)*%
X142968000Y-74168000D03*
%TO.P,U2,13,ADKEY2*%
%TO.N,unconnected-(U2-ADKEY2-Pad13)*%
X142968000Y-71628000D03*
%TO.P,U2,14,USB+*%
%TO.N,unconnected-(U2-USB+-Pad14)*%
X142968000Y-69088000D03*
%TO.P,U2,15,USB-*%
%TO.N,unconnected-(U2-USB--Pad15)*%
X142968000Y-66548000D03*
%TO.P,U2,16,BUSY*%
%TO.N,unconnected-(U2-BUSY-Pad16)*%
X142968000Y-64008000D03*
%TD*%
D15*
%TO.P,U5,1,GPIO0/A0/D0*%
%TO.N,/T.0*%
X105156000Y-80309000D03*
%TO.P,U5,2,GPIO1/A1/D1*%
%TO.N,/~{CFG}*%
X107696000Y-80309000D03*
%TO.P,U5,3,GPIO2/A2/D2*%
%TO.N,/I.0*%
X110236000Y-80309000D03*
%TO.P,U5,4,GPIO21/D3*%
%TO.N,/O.0*%
X112776000Y-80309000D03*
%TO.P,U5,5,GPIO22/D4/SDA*%
%TO.N,Net-(U1-SDA)*%
X115316000Y-80309000D03*
%TO.P,U5,6,GPIO23/D5/SCL*%
%TO.N,Net-(U1-SCL)*%
X117856000Y-80309000D03*
%TO.P,U5,7,GPIO16/D6/TX*%
%TO.N,/TX*%
X120396000Y-80309000D03*
%TO.P,U5,8,GPIO17/D7/RX*%
%TO.N,Net-(JP2-A)*%
X120396000Y-65069000D03*
%TO.P,U5,9,GPIO19/D8/SCK*%
%TO.N,/I.1*%
X117856000Y-65069000D03*
%TO.P,U5,10,GPIO20/D9/MISO*%
%TO.N,Net-(U5-GPIO20{slash}D9{slash}MISO)*%
X115316000Y-65069000D03*
%TO.P,U5,11,GPIO18/D10/MOSI*%
%TO.N,/O.1*%
X112776000Y-65069000D03*
%TO.P,U5,12,3V3*%
%TO.N,+3V3*%
X110236000Y-65069000D03*
%TO.P,U5,13,GND*%
%TO.N,GND*%
X107696000Y-65069000D03*
%TO.P,U5,14,VBUS*%
%TO.N,VCC*%
X105156000Y-65069000D03*
%TD*%
D12*
%TO.P,SW2,1,1*%
%TO.N,/I.1*%
X119150000Y-84745000D03*
X125650000Y-84745000D03*
%TO.P,SW2,2,2*%
%TO.N,GND*%
X119150000Y-89245000D03*
X125650000Y-89245000D03*
%TD*%
%TO.P,SW3,1,1*%
%TO.N,/~{CFG}*%
X134750000Y-84745000D03*
X141250000Y-84745000D03*
%TO.P,SW3,2,2*%
%TO.N,GND*%
X134750000Y-89245000D03*
X141250000Y-89245000D03*
%TD*%
D16*
%TO.P,J10,1,Pin_1*%
%TO.N,GND*%
X143210000Y-54400000D03*
D17*
%TO.P,J10,2,Pin_2*%
%TO.N,VCC*%
X145750000Y-54400000D03*
%TD*%
D14*
%TO.P,U1,1,GND*%
%TO.N,GND*%
X104232000Y-60542000D03*
%TO.P,U1,2,VCC*%
%TO.N,+3V3*%
X104232000Y-58002000D03*
%TO.P,U1,3,SCL*%
%TO.N,Net-(U1-SCL)*%
X104232000Y-55462000D03*
%TO.P,U1,4,SDA*%
%TO.N,Net-(U1-SDA)*%
X104232000Y-52922000D03*
%TD*%
D18*
%TO.N,GND*%
X116586000Y-84074000D03*
X116586000Y-78486000D03*
%TO.N,DAC-R*%
X137668000Y-70866000D03*
%TO.N,GND*%
X147250000Y-64008000D03*
X147250000Y-66548000D03*
X147250000Y-69088000D03*
X147250000Y-71628000D03*
X147250000Y-74168000D03*
X147250000Y-76708000D03*
X129400000Y-64262000D03*
X118872000Y-73152000D03*
X116840000Y-71120000D03*
X112776000Y-73660000D03*
X108966000Y-73660000D03*
X108966000Y-72644000D03*
X112776000Y-72644000D03*
%TO.N,DAC-L*%
X132334000Y-79502000D03*
%TO.N,DAC-R*%
X139954000Y-63500000D03*
%TO.N,VCC*%
X124968000Y-59944000D03*
%TO.N,/I.1*%
X122682000Y-72600000D03*
%TO.N,/T.0*%
X140970000Y-62992000D03*
%TO.N,/O.1*%
X139192000Y-71628000D03*
%TO.N,/O.0*%
X133100000Y-68250000D03*
%TO.N,+3V3*%
X110236000Y-77470000D03*
%TO.N,/RX*%
X133600000Y-63400000D03*
%TO.N,/O5.1*%
X139954000Y-70358000D03*
%TO.N,/O5.0*%
X139954000Y-72898000D03*
%TO.N,Net-(U5-GPIO20{slash}D9{slash}MISO)*%
X118000000Y-59000000D03*
%TO.N,DAC-L*%
X138430000Y-74168000D03*
%TO.N,Net-(JP2-A)*%
X129600000Y-59200000D03*
%TD*%
D19*
%TO.N,/I.0*%
X150124000Y-82230000D02*
X148600000Y-82230000D01*
X148600000Y-82230000D02*
X144470000Y-86360000D01*
X144470000Y-86360000D02*
X111747000Y-86360000D01*
X111747000Y-86360000D02*
X110132000Y-84745000D01*
%TO.N,DAC-R*%
X137668000Y-69088000D02*
X137668000Y-70866000D01*
X141732000Y-65278000D02*
X141478000Y-65278000D01*
X141478000Y-65278000D02*
X137668000Y-69088000D01*
%TO.N,DAC-L*%
X139954000Y-67818000D02*
X138430000Y-69342000D01*
X138430000Y-69342000D02*
X138430000Y-74168000D01*
%TO.N,/O.1*%
X139192000Y-71628000D02*
X139192000Y-74676000D01*
X147562000Y-75438000D02*
X139954000Y-75438000D01*
X139192000Y-74676000D02*
X139954000Y-75438000D01*
%TO.N,/O5.0*%
X139954000Y-72898000D02*
X147502000Y-72898000D01*
%TO.N,/O5.1*%
X147442000Y-70358000D02*
X139954000Y-70358000D01*
%TO.N,DAC-R*%
X139954000Y-63500000D02*
X141732000Y-65278000D01*
%TO.N,/T.0*%
X150124000Y-61910000D02*
X142052000Y-61910000D01*
X140970000Y-62992000D02*
X142052000Y-61910000D01*
%TO.N,/I.1*%
X150124000Y-79690000D02*
X148000000Y-79690000D01*
X148000000Y-79690000D02*
X144632000Y-83058000D01*
X144632000Y-83058000D02*
X127337000Y-83058000D01*
X127337000Y-83058000D02*
X125650000Y-84745000D01*
%TO.N,/TX*%
X121412000Y-70612000D02*
X121412000Y-79293000D01*
X121412000Y-79293000D02*
X120396000Y-80309000D01*
%TO.N,Net-(U1-SCL)*%
X117856000Y-80309000D02*
X117856000Y-81788000D01*
X117856000Y-81788000D02*
X116644000Y-83000000D01*
X116644000Y-83000000D02*
X104500000Y-83000000D01*
X104500000Y-83000000D02*
X102362000Y-80862000D01*
X102362000Y-80862000D02*
X102362000Y-55888000D01*
X102362000Y-55888000D02*
X102788000Y-55462000D01*
X102788000Y-55462000D02*
X104232000Y-55462000D01*
%TO.N,Net-(U1-SDA)*%
X104232000Y-52922000D02*
X111506000Y-60196000D01*
X112014000Y-82296000D02*
X114808000Y-82296000D01*
X114808000Y-82296000D02*
X115316000Y-81788000D01*
X111506000Y-60196000D02*
X111506000Y-81788000D01*
X111506000Y-81788000D02*
X112014000Y-82296000D01*
X115316000Y-81788000D02*
X115316000Y-80309000D01*
%TO.N,+3V3*%
X110236000Y-77470000D02*
X110236000Y-65069000D01*
%TO.N,/O.0*%
X112776000Y-80309000D02*
X112776000Y-77424000D01*
X112776000Y-77424000D02*
X122382000Y-67818000D01*
X122382000Y-67818000D02*
X132668000Y-67818000D01*
X132668000Y-67818000D02*
X133100000Y-68250000D01*
%TO.N,DAC-R*%
X141732000Y-65278000D02*
X147322000Y-65278000D01*
X147322000Y-65278000D02*
X148150000Y-64450000D01*
X148150000Y-64450000D02*
X150124000Y-64450000D01*
%TO.N,/O.1*%
X150124000Y-74610000D02*
X148390000Y-74610000D01*
X148390000Y-74610000D02*
X147562000Y-75438000D01*
%TO.N,VCC*%
X124968000Y-64008000D02*
X124968000Y-60032000D01*
%TO.N,/O.0*%
X150124000Y-77150000D02*
X148250000Y-77150000D01*
X148250000Y-77150000D02*
X147422000Y-77978000D01*
X133100000Y-72700000D02*
X133100000Y-68250000D01*
X147422000Y-77978000D02*
X138378000Y-77978000D01*
X138378000Y-77978000D02*
X133100000Y-72700000D01*
%TO.N,/O5.0*%
X150124000Y-72070000D02*
X148330000Y-72070000D01*
X148330000Y-72070000D02*
X147502000Y-72898000D01*
%TO.N,/O5.1*%
X150124000Y-69530000D02*
X148270000Y-69530000D01*
X148270000Y-69530000D02*
X147442000Y-70358000D01*
%TO.N,DAC-L*%
X150124000Y-66990000D02*
X148010000Y-66990000D01*
X148010000Y-66990000D02*
X147182000Y-67818000D01*
X147182000Y-67818000D02*
X139954000Y-67818000D01*
%TO.N,/RX*%
X124968000Y-66548000D02*
X130452000Y-66548000D01*
%TO.N,/TX*%
X124968000Y-69088000D02*
X122936000Y-69088000D01*
X122936000Y-69088000D02*
X121412000Y-70612000D01*
%TO.N,DAC-L*%
X132334000Y-79502000D02*
X127000000Y-74168000D01*
X124968000Y-74168000D02*
X127000000Y-74168000D01*
%TO.N,/I.1*%
X122682000Y-72600000D02*
X122682000Y-81777000D01*
X122682000Y-81777000D02*
X125650000Y-84745000D01*
D20*
%TO.N,VCC*%
X148180000Y-56830000D02*
X150124000Y-56830000D01*
X145750000Y-54400000D02*
X148180000Y-56830000D01*
D21*
%TO.N,+3V3*%
X106502000Y-58002000D02*
X104232000Y-58002000D01*
X110236000Y-61736000D02*
X110236000Y-65069000D01*
X110236000Y-61736000D02*
X106502000Y-58002000D01*
D19*
%TO.N,/RX*%
X130452000Y-66548000D02*
X133600000Y-63400000D01*
%TO.N,/~{CFG}*%
X141250000Y-84745000D02*
X134750000Y-84745000D01*
%TO.N,Net-(U5-GPIO20{slash}D9{slash}MISO)*%
X115316000Y-61684000D02*
X115316000Y-65069000D01*
X118000000Y-59000000D02*
X115316000Y-61684000D01*
%TO.N,Net-(JP2-A)*%
X121400000Y-59200000D02*
X129600000Y-59200000D01*
X120396000Y-65069000D02*
X120396000Y-60204000D01*
X120396000Y-60204000D02*
X121400000Y-59200000D01*
%TD*%
%TA.AperFunction,Conductor*%
%TO.N,GND*%
G36*
X148670245Y-83111502D02*
G01*
X148726178Y-83153374D01*
X148731226Y-83160644D01*
X148753967Y-83196029D01*
X148753971Y-83196034D01*
X148812824Y-83247031D01*
X148862706Y-83290254D01*
X148903174Y-83308735D01*
X148993580Y-83350023D01*
X148993583Y-83350023D01*
X148993584Y-83350024D01*
X149136000Y-83370500D01*
X151775500Y-83370500D01*
X151784185Y-83373050D01*
X151793147Y-83371762D01*
X151817187Y-83382740D01*
X151842539Y-83390185D01*
X151848466Y-83397025D01*
X151856703Y-83400787D01*
X151870992Y-83423021D01*
X151888294Y-83442989D01*
X151890581Y-83453503D01*
X151894477Y-83459565D01*
X151899500Y-83494500D01*
X151899500Y-83506000D01*
X151879815Y-83573039D01*
X151827011Y-83618794D01*
X151775500Y-83630000D01*
X150099551Y-83630000D01*
X150975094Y-84505543D01*
X151008579Y-84566866D01*
X151003595Y-84636558D01*
X150975095Y-84680905D01*
X150886000Y-84770000D01*
X150975094Y-84859094D01*
X151008579Y-84920417D01*
X151003595Y-84990109D01*
X150975094Y-85034456D01*
X150099551Y-85909999D01*
X150099552Y-85910000D01*
X151775500Y-85910000D01*
X151784185Y-85912550D01*
X151793147Y-85911262D01*
X151817187Y-85922240D01*
X151842539Y-85929685D01*
X151848466Y-85936525D01*
X151856703Y-85940287D01*
X151870992Y-85962521D01*
X151888294Y-85982489D01*
X151890581Y-85993003D01*
X151894477Y-85999065D01*
X151899500Y-86034000D01*
X151899500Y-86046000D01*
X151879815Y-86113039D01*
X151827011Y-86158794D01*
X151775500Y-86170000D01*
X150099551Y-86170000D01*
X150975094Y-87045543D01*
X151008579Y-87106866D01*
X151003595Y-87176558D01*
X150975095Y-87220905D01*
X150886000Y-87310000D01*
X150975094Y-87399094D01*
X151008579Y-87460417D01*
X151003595Y-87530109D01*
X150975094Y-87574456D01*
X150099551Y-88449999D01*
X150099552Y-88450000D01*
X151775500Y-88450000D01*
X151842539Y-88469685D01*
X151888294Y-88522489D01*
X151899500Y-88574000D01*
X151899500Y-90175500D01*
X151879815Y-90242539D01*
X151827011Y-90288294D01*
X151775500Y-90299500D01*
X142581326Y-90299500D01*
X142514287Y-90279815D01*
X142468532Y-90227011D01*
X142458588Y-90157853D01*
X142481008Y-90102614D01*
X142532914Y-90031171D01*
X142640102Y-89820802D01*
X142713065Y-89596247D01*
X142750000Y-89363052D01*
X142750000Y-89126947D01*
X142713065Y-88893752D01*
X142640102Y-88669197D01*
X142532914Y-88458828D01*
X142472658Y-88375894D01*
X142472658Y-88375893D01*
X141773787Y-89074764D01*
X141762518Y-89032708D01*
X141690110Y-88907292D01*
X141587708Y-88804890D01*
X141462292Y-88732482D01*
X141420234Y-88721212D01*
X142119105Y-88022340D01*
X142119104Y-88022338D01*
X142036174Y-87962087D01*
X141825802Y-87854897D01*
X141601247Y-87781934D01*
X141601248Y-87781934D01*
X141368052Y-87745000D01*
X141131948Y-87745000D01*
X140898752Y-87781934D01*
X140674197Y-87854897D01*
X140463830Y-87962084D01*
X140380894Y-88022340D01*
X141079766Y-88721212D01*
X141037708Y-88732482D01*
X140912292Y-88804890D01*
X140809890Y-88907292D01*
X140737482Y-89032708D01*
X140726212Y-89074766D01*
X140027340Y-88375894D01*
X139967084Y-88458830D01*
X139859897Y-88669197D01*
X139786934Y-88893752D01*
X139750000Y-89126947D01*
X139750000Y-89363052D01*
X139786934Y-89596247D01*
X139859897Y-89820802D01*
X139967085Y-90031171D01*
X140018992Y-90102614D01*
X140042472Y-90168420D01*
X140026647Y-90236474D01*
X139976541Y-90285169D01*
X139918674Y-90299500D01*
X136081326Y-90299500D01*
X136014287Y-90279815D01*
X135968532Y-90227011D01*
X135958588Y-90157853D01*
X135981008Y-90102614D01*
X136032914Y-90031171D01*
X136140102Y-89820802D01*
X136213065Y-89596247D01*
X136250000Y-89363052D01*
X136250000Y-89126947D01*
X136213065Y-88893752D01*
X136140102Y-88669197D01*
X136032914Y-88458828D01*
X135972658Y-88375894D01*
X135972658Y-88375893D01*
X135273787Y-89074764D01*
X135262518Y-89032708D01*
X135190110Y-88907292D01*
X135087708Y-88804890D01*
X134962292Y-88732482D01*
X134920234Y-88721212D01*
X135619105Y-88022340D01*
X135619104Y-88022339D01*
X135536174Y-87962087D01*
X135325802Y-87854897D01*
X135101247Y-87781934D01*
X135101248Y-87781934D01*
X134868052Y-87745000D01*
X134631948Y-87745000D01*
X134398752Y-87781934D01*
X134174197Y-87854897D01*
X133963830Y-87962084D01*
X133880894Y-88022340D01*
X134579766Y-88721212D01*
X134537708Y-88732482D01*
X134412292Y-88804890D01*
X134309890Y-88907292D01*
X134237482Y-89032708D01*
X134226212Y-89074766D01*
X133527340Y-88375894D01*
X133467084Y-88458830D01*
X133359897Y-88669197D01*
X133286934Y-88893752D01*
X133250000Y-89126947D01*
X133250000Y-89363052D01*
X133286934Y-89596247D01*
X133359897Y-89820802D01*
X133467085Y-90031171D01*
X133518992Y-90102614D01*
X133542472Y-90168420D01*
X133526647Y-90236474D01*
X133476541Y-90285169D01*
X133418674Y-90299500D01*
X126981326Y-90299500D01*
X126914287Y-90279815D01*
X126868532Y-90227011D01*
X126858588Y-90157853D01*
X126881008Y-90102614D01*
X126932914Y-90031171D01*
X127040102Y-89820802D01*
X127113065Y-89596247D01*
X127150000Y-89363052D01*
X127150000Y-89126947D01*
X127113065Y-88893752D01*
X127040102Y-88669197D01*
X126932914Y-88458828D01*
X126872658Y-88375894D01*
X126872658Y-88375893D01*
X126173787Y-89074764D01*
X126162518Y-89032708D01*
X126090110Y-88907292D01*
X125987708Y-88804890D01*
X125862292Y-88732482D01*
X125820234Y-88721212D01*
X126519105Y-88022340D01*
X126519104Y-88022339D01*
X126436174Y-87962087D01*
X126225802Y-87854897D01*
X126001247Y-87781934D01*
X126001248Y-87781934D01*
X125768052Y-87745000D01*
X125531948Y-87745000D01*
X125298752Y-87781934D01*
X125074197Y-87854897D01*
X124863830Y-87962084D01*
X124780894Y-88022340D01*
X125479766Y-88721212D01*
X125437708Y-88732482D01*
X125312292Y-88804890D01*
X125209890Y-88907292D01*
X125137482Y-89032708D01*
X125126212Y-89074766D01*
X124427340Y-88375894D01*
X124367084Y-88458830D01*
X124259897Y-88669197D01*
X124186934Y-88893752D01*
X124150000Y-89126947D01*
X124150000Y-89363052D01*
X124186934Y-89596247D01*
X124259897Y-89820802D01*
X124367085Y-90031171D01*
X124418992Y-90102614D01*
X124442472Y-90168420D01*
X124426647Y-90236474D01*
X124376541Y-90285169D01*
X124318674Y-90299500D01*
X120481326Y-90299500D01*
X120414287Y-90279815D01*
X120368532Y-90227011D01*
X120358588Y-90157853D01*
X120381008Y-90102614D01*
X120432914Y-90031171D01*
X120540102Y-89820802D01*
X120613065Y-89596247D01*
X120650000Y-89363052D01*
X120650000Y-89126947D01*
X120613065Y-88893752D01*
X120540102Y-88669197D01*
X120432914Y-88458828D01*
X120372658Y-88375894D01*
X120372658Y-88375893D01*
X119673787Y-89074764D01*
X119662518Y-89032708D01*
X119590110Y-88907292D01*
X119487708Y-88804890D01*
X119362292Y-88732482D01*
X119320234Y-88721212D01*
X120019105Y-88022340D01*
X120019104Y-88022339D01*
X119936174Y-87962087D01*
X119725802Y-87854897D01*
X119501247Y-87781934D01*
X119501248Y-87781934D01*
X119268052Y-87745000D01*
X119031948Y-87745000D01*
X118798752Y-87781934D01*
X118574197Y-87854897D01*
X118363830Y-87962084D01*
X118280894Y-88022340D01*
X118979766Y-88721212D01*
X118937708Y-88732482D01*
X118812292Y-88804890D01*
X118709890Y-88907292D01*
X118637482Y-89032708D01*
X118626212Y-89074766D01*
X117927340Y-88375894D01*
X117867084Y-88458830D01*
X117759897Y-88669197D01*
X117686934Y-88893752D01*
X117650000Y-89126947D01*
X117650000Y-89363052D01*
X117686934Y-89596247D01*
X117759897Y-89820802D01*
X117867085Y-90031171D01*
X117918992Y-90102614D01*
X117942472Y-90168420D01*
X117926647Y-90236474D01*
X117876541Y-90285169D01*
X117818674Y-90299500D01*
X111463326Y-90299500D01*
X111396287Y-90279815D01*
X111350532Y-90227011D01*
X111340588Y-90157853D01*
X111363008Y-90102614D01*
X111414914Y-90031171D01*
X111522102Y-89820802D01*
X111595065Y-89596247D01*
X111632000Y-89363052D01*
X111632000Y-89126947D01*
X111595065Y-88893752D01*
X111522102Y-88669197D01*
X111414914Y-88458828D01*
X111354658Y-88375894D01*
X111354658Y-88375893D01*
X110655787Y-89074764D01*
X110644518Y-89032708D01*
X110572110Y-88907292D01*
X110469708Y-88804890D01*
X110344292Y-88732482D01*
X110302234Y-88721212D01*
X111001105Y-88022340D01*
X111001104Y-88022339D01*
X110918174Y-87962087D01*
X110707802Y-87854897D01*
X110483247Y-87781934D01*
X110483248Y-87781934D01*
X110250052Y-87745000D01*
X110013948Y-87745000D01*
X109780752Y-87781934D01*
X109556197Y-87854897D01*
X109345830Y-87962084D01*
X109262894Y-88022340D01*
X109961766Y-88721212D01*
X109919708Y-88732482D01*
X109794292Y-88804890D01*
X109691890Y-88907292D01*
X109619482Y-89032708D01*
X109608212Y-89074766D01*
X108909340Y-88375894D01*
X108849084Y-88458830D01*
X108741897Y-88669197D01*
X108668934Y-88893752D01*
X108632000Y-89126947D01*
X108632000Y-89363052D01*
X108668934Y-89596247D01*
X108741897Y-89820802D01*
X108849085Y-90031171D01*
X108900992Y-90102614D01*
X108924472Y-90168420D01*
X108908647Y-90236474D01*
X108858541Y-90285169D01*
X108800674Y-90299500D01*
X104963326Y-90299500D01*
X104896287Y-90279815D01*
X104850532Y-90227011D01*
X104840588Y-90157853D01*
X104863008Y-90102614D01*
X104914914Y-90031171D01*
X105022102Y-89820802D01*
X105095065Y-89596247D01*
X105132000Y-89363052D01*
X105132000Y-89126947D01*
X105095065Y-88893752D01*
X105022102Y-88669197D01*
X104914914Y-88458828D01*
X104854658Y-88375894D01*
X104854658Y-88375893D01*
X104155787Y-89074764D01*
X104144518Y-89032708D01*
X104072110Y-88907292D01*
X103969708Y-88804890D01*
X103844292Y-88732482D01*
X103802234Y-88721212D01*
X104501105Y-88022340D01*
X104501104Y-88022339D01*
X104418174Y-87962087D01*
X104207802Y-87854897D01*
X103983247Y-87781934D01*
X103983248Y-87781934D01*
X103750052Y-87745000D01*
X103513948Y-87745000D01*
X103280752Y-87781934D01*
X103056197Y-87854897D01*
X102845830Y-87962084D01*
X102762894Y-88022340D01*
X103461766Y-88721212D01*
X103419708Y-88732482D01*
X103294292Y-88804890D01*
X103191890Y-88907292D01*
X103119482Y-89032708D01*
X103108212Y-89074766D01*
X102409340Y-88375894D01*
X102349082Y-88458833D01*
X102334984Y-88486503D01*
X102287009Y-88537299D01*
X102219188Y-88554093D01*
X102153053Y-88531555D01*
X102109602Y-88476839D01*
X102100500Y-88430207D01*
X102100500Y-85560894D01*
X102120185Y-85493855D01*
X102172989Y-85448100D01*
X102242147Y-85438156D01*
X102305703Y-85467181D01*
X102334985Y-85504600D01*
X102348655Y-85531431D01*
X102380211Y-85574863D01*
X102487483Y-85722510D01*
X102654490Y-85889517D01*
X102845567Y-86028343D01*
X102880221Y-86046000D01*
X103056003Y-86135566D01*
X103056005Y-86135566D01*
X103056008Y-86135568D01*
X103176412Y-86174689D01*
X103280631Y-86208553D01*
X103513903Y-86245500D01*
X103513908Y-86245500D01*
X103750097Y-86245500D01*
X103983368Y-86208553D01*
X104016468Y-86197798D01*
X104207992Y-86135568D01*
X104418433Y-86028343D01*
X104609510Y-85889517D01*
X104776517Y-85722510D01*
X104915343Y-85531433D01*
X105022568Y-85320992D01*
X105095553Y-85096368D01*
X105095554Y-85096362D01*
X105132500Y-84863097D01*
X105132500Y-84626902D01*
X105095553Y-84393631D01*
X105031856Y-84197593D01*
X105022568Y-84169008D01*
X105022566Y-84169005D01*
X105022566Y-84169003D01*
X104915342Y-83958566D01*
X104798236Y-83797383D01*
X104774757Y-83731580D01*
X104790582Y-83663526D01*
X104840688Y-83614831D01*
X104898555Y-83600500D01*
X108865445Y-83600500D01*
X108932484Y-83620185D01*
X108978239Y-83672989D01*
X108988183Y-83742147D01*
X108965763Y-83797383D01*
X108946302Y-83824171D01*
X108848657Y-83958566D01*
X108741433Y-84169003D01*
X108668446Y-84393631D01*
X108631500Y-84626902D01*
X108631500Y-84863097D01*
X108668446Y-85096368D01*
X108741433Y-85320996D01*
X108815919Y-85467181D01*
X108848657Y-85531433D01*
X108987483Y-85722510D01*
X109154490Y-85889517D01*
X109345567Y-86028343D01*
X109380221Y-86046000D01*
X109556003Y-86135566D01*
X109556005Y-86135566D01*
X109556008Y-86135568D01*
X109676412Y-86174689D01*
X109780631Y-86208553D01*
X110013903Y-86245500D01*
X110013908Y-86245500D01*
X110250097Y-86245500D01*
X110356126Y-86228705D01*
X110483368Y-86208553D01*
X110609566Y-86167547D01*
X110679404Y-86165553D01*
X110735563Y-86197798D01*
X111262139Y-86724374D01*
X111262149Y-86724385D01*
X111266479Y-86728715D01*
X111266480Y-86728716D01*
X111378284Y-86840520D01*
X111465095Y-86890639D01*
X111465097Y-86890641D01*
X111498456Y-86909901D01*
X111515215Y-86919577D01*
X111667943Y-86960501D01*
X111667946Y-86960501D01*
X111833653Y-86960501D01*
X111833669Y-86960500D01*
X144383331Y-86960500D01*
X144383347Y-86960501D01*
X144390943Y-86960501D01*
X144549054Y-86960501D01*
X144549057Y-86960501D01*
X144701785Y-86919577D01*
X144751904Y-86890639D01*
X144838716Y-86840520D01*
X144950520Y-86728716D01*
X144950520Y-86728714D01*
X144960728Y-86718507D01*
X144960730Y-86718504D01*
X145004233Y-86675001D01*
X148631000Y-86675001D01*
X148631000Y-87945002D01*
X148636140Y-88016870D01*
X148676634Y-88154781D01*
X148754345Y-88275703D01*
X148862976Y-88369832D01*
X148862977Y-88369833D01*
X148993721Y-88429543D01*
X148993725Y-88429544D01*
X149136001Y-88449999D01*
X149136003Y-88450000D01*
X149496000Y-88450000D01*
X149503030Y-88433025D01*
X149498420Y-88424581D01*
X149503404Y-88354889D01*
X149531905Y-88310542D01*
X150037883Y-87804563D01*
X150058174Y-87810000D01*
X150189826Y-87810000D01*
X150316993Y-87775925D01*
X150431007Y-87710099D01*
X150524099Y-87617007D01*
X150589925Y-87502993D01*
X150624000Y-87375826D01*
X150624000Y-87244174D01*
X150589925Y-87117007D01*
X150524099Y-87002993D01*
X150431007Y-86909901D01*
X150316993Y-86844075D01*
X150189826Y-86810000D01*
X150058174Y-86810000D01*
X150037884Y-86815436D01*
X149531905Y-86309457D01*
X149498420Y-86248134D01*
X149502828Y-86186486D01*
X149496000Y-86170000D01*
X149135997Y-86170000D01*
X149064129Y-86175140D01*
X148926218Y-86215634D01*
X148805296Y-86293345D01*
X148711167Y-86401976D01*
X148711166Y-86401977D01*
X148651456Y-86532721D01*
X148651455Y-86532725D01*
X148631000Y-86675001D01*
X145004233Y-86675001D01*
X147544232Y-84135001D01*
X148631000Y-84135001D01*
X148631000Y-85405002D01*
X148636140Y-85476870D01*
X148676634Y-85614781D01*
X148754345Y-85735703D01*
X148862976Y-85829832D01*
X148862977Y-85829833D01*
X148993721Y-85889543D01*
X148993725Y-85889544D01*
X149136001Y-85909999D01*
X149136003Y-85910000D01*
X149496000Y-85910000D01*
X149503030Y-85893025D01*
X149498420Y-85884581D01*
X149503404Y-85814889D01*
X149531905Y-85770542D01*
X150037883Y-85264563D01*
X150058174Y-85270000D01*
X150189826Y-85270000D01*
X150316993Y-85235925D01*
X150431007Y-85170099D01*
X150524099Y-85077007D01*
X150589925Y-84962993D01*
X150624000Y-84835826D01*
X150624000Y-84704174D01*
X150589925Y-84577007D01*
X150524099Y-84462993D01*
X150431007Y-84369901D01*
X150316993Y-84304075D01*
X150189826Y-84270000D01*
X150058174Y-84270000D01*
X150037884Y-84275436D01*
X149531905Y-83769457D01*
X149498420Y-83708134D01*
X149502828Y-83646486D01*
X149496000Y-83630000D01*
X149135997Y-83630000D01*
X149064129Y-83635140D01*
X148926218Y-83675634D01*
X148805296Y-83753345D01*
X148711167Y-83861976D01*
X148711166Y-83861977D01*
X148651456Y-83992721D01*
X148651455Y-83992725D01*
X148631000Y-84135001D01*
X147544232Y-84135001D01*
X148539232Y-83140001D01*
X148600553Y-83106518D01*
X148670245Y-83111502D01*
G37*
%TD.AperFunction*%
%TA.AperFunction,Conductor*%
G36*
X122000834Y-79655916D02*
G01*
X122056767Y-79697788D01*
X122081184Y-79763252D01*
X122081500Y-79772098D01*
X122081500Y-81690330D01*
X122081499Y-81690348D01*
X122081499Y-81856054D01*
X122081498Y-81856054D01*
X122122423Y-82008784D01*
X122122424Y-82008788D01*
X122128771Y-82019781D01*
X122128774Y-82019785D01*
X122201477Y-82145712D01*
X122201481Y-82145717D01*
X122320349Y-82264585D01*
X122320355Y-82264590D01*
X124197200Y-84141435D01*
X124230685Y-84202758D01*
X124227450Y-84267433D01*
X124186447Y-84393628D01*
X124149500Y-84626902D01*
X124149500Y-84863097D01*
X124186446Y-85096368D01*
X124259433Y-85320996D01*
X124366657Y-85531434D01*
X124389311Y-85562613D01*
X124412792Y-85628419D01*
X124396967Y-85696474D01*
X124346862Y-85745169D01*
X124288994Y-85759500D01*
X120511006Y-85759500D01*
X120443967Y-85739815D01*
X120398212Y-85687011D01*
X120388268Y-85617853D01*
X120410689Y-85562613D01*
X120433342Y-85531434D01*
X120495796Y-85408863D01*
X120540568Y-85320992D01*
X120613553Y-85096368D01*
X120613554Y-85096362D01*
X120650500Y-84863097D01*
X120650500Y-84626902D01*
X120613553Y-84393631D01*
X120549856Y-84197593D01*
X120540568Y-84169008D01*
X120540566Y-84169005D01*
X120540566Y-84169003D01*
X120433342Y-83958566D01*
X120294517Y-83767490D01*
X120127510Y-83600483D01*
X119936433Y-83461657D01*
X119899795Y-83442989D01*
X119725996Y-83354433D01*
X119501368Y-83281446D01*
X119268097Y-83244500D01*
X119268092Y-83244500D01*
X119031908Y-83244500D01*
X119031903Y-83244500D01*
X118798631Y-83281446D01*
X118574003Y-83354433D01*
X118363566Y-83461657D01*
X118257776Y-83538519D01*
X118172490Y-83600483D01*
X118172488Y-83600485D01*
X118172487Y-83600485D01*
X118005485Y-83767487D01*
X118005485Y-83767488D01*
X118005483Y-83767490D01*
X117972223Y-83813268D01*
X117866657Y-83958566D01*
X117759433Y-84169003D01*
X117686446Y-84393631D01*
X117649500Y-84626902D01*
X117649500Y-84863097D01*
X117686446Y-85096368D01*
X117759433Y-85320996D01*
X117866657Y-85531434D01*
X117889311Y-85562613D01*
X117912792Y-85628419D01*
X117896967Y-85696474D01*
X117846862Y-85745169D01*
X117788994Y-85759500D01*
X112047097Y-85759500D01*
X111980058Y-85739815D01*
X111959416Y-85723181D01*
X111584798Y-85348563D01*
X111551313Y-85287240D01*
X111554547Y-85222566D01*
X111595553Y-85096368D01*
X111623421Y-84920417D01*
X111632500Y-84863097D01*
X111632500Y-84626902D01*
X111595553Y-84393631D01*
X111531856Y-84197593D01*
X111522568Y-84169008D01*
X111522566Y-84169005D01*
X111522566Y-84169003D01*
X111415342Y-83958566D01*
X111298236Y-83797383D01*
X111274757Y-83731580D01*
X111290582Y-83663526D01*
X111340688Y-83614831D01*
X111398555Y-83600500D01*
X116557331Y-83600500D01*
X116557347Y-83600501D01*
X116564943Y-83600501D01*
X116723054Y-83600501D01*
X116723057Y-83600501D01*
X116875785Y-83559577D01*
X116925904Y-83530639D01*
X117012716Y-83480520D01*
X117124520Y-83368716D01*
X117124520Y-83368714D01*
X117134728Y-83358507D01*
X117134730Y-83358504D01*
X118214506Y-82278728D01*
X118214511Y-82278724D01*
X118224714Y-82268520D01*
X118224716Y-82268520D01*
X118336520Y-82156716D01*
X118389925Y-82064215D01*
X118415577Y-82019785D01*
X118456501Y-81867057D01*
X118456501Y-81708943D01*
X118456501Y-81701348D01*
X118456500Y-81701330D01*
X118456500Y-81495730D01*
X118476185Y-81428691D01*
X118513866Y-81391808D01*
X118513752Y-81391651D01*
X118514823Y-81390872D01*
X118515715Y-81390000D01*
X118517690Y-81388789D01*
X118517689Y-81388789D01*
X118517694Y-81388787D01*
X118678464Y-81271981D01*
X118818981Y-81131464D01*
X118935787Y-80970694D01*
X119015515Y-80814218D01*
X119063490Y-80763423D01*
X119131311Y-80746628D01*
X119197446Y-80769165D01*
X119236484Y-80814218D01*
X119316213Y-80970694D01*
X119433019Y-81131464D01*
X119573536Y-81271981D01*
X119734306Y-81388787D01*
X119764960Y-81404406D01*
X119911367Y-81479005D01*
X119911370Y-81479006D01*
X119963024Y-81495789D01*
X120100364Y-81540413D01*
X120296639Y-81571500D01*
X120296640Y-81571500D01*
X120495360Y-81571500D01*
X120495361Y-81571500D01*
X120691636Y-81540413D01*
X120880632Y-81479005D01*
X121057694Y-81388787D01*
X121218464Y-81271981D01*
X121358981Y-81131464D01*
X121475787Y-80970694D01*
X121566005Y-80793632D01*
X121627413Y-80604636D01*
X121658500Y-80408361D01*
X121658500Y-80209639D01*
X121627413Y-80013364D01*
X121627409Y-80013352D01*
X121626869Y-80011099D01*
X121626913Y-80010209D01*
X121626651Y-80008552D01*
X121626999Y-80008496D01*
X121627387Y-80000727D01*
X121623759Y-79990998D01*
X121629103Y-79966429D01*
X121630360Y-79941316D01*
X121636798Y-79931058D01*
X121638611Y-79922725D01*
X121659759Y-79894474D01*
X121770506Y-79783728D01*
X121770511Y-79783724D01*
X121780714Y-79773520D01*
X121780716Y-79773520D01*
X121869819Y-79684417D01*
X121931142Y-79650932D01*
X122000834Y-79655916D01*
G37*
%TD.AperFunction*%
%TA.AperFunction,Conductor*%
G36*
X132239667Y-68424132D02*
G01*
X132259645Y-68424846D01*
X132272504Y-68433774D01*
X132287525Y-68438185D01*
X132300614Y-68453291D01*
X132317038Y-68464694D01*
X132331246Y-68488642D01*
X132333280Y-68490989D01*
X132335047Y-68495048D01*
X132390602Y-68629172D01*
X132390609Y-68629185D01*
X132478602Y-68760874D01*
X132499480Y-68827551D01*
X132499500Y-68829765D01*
X132499500Y-72613330D01*
X132499499Y-72613348D01*
X132499499Y-72779054D01*
X132499498Y-72779054D01*
X132514084Y-72833489D01*
X132540423Y-72931785D01*
X132554769Y-72956632D01*
X132567790Y-72979185D01*
X132619479Y-73068715D01*
X132738349Y-73187585D01*
X132738355Y-73187590D01*
X137893139Y-78342374D01*
X137893149Y-78342385D01*
X137897479Y-78346715D01*
X137897480Y-78346716D01*
X138009284Y-78458520D01*
X138096095Y-78508639D01*
X138096097Y-78508641D01*
X138134151Y-78530611D01*
X138146215Y-78537577D01*
X138298943Y-78578500D01*
X138457057Y-78578500D01*
X141472219Y-78578500D01*
X141539258Y-78598185D01*
X141585013Y-78650989D01*
X141594957Y-78720147D01*
X141582704Y-78758795D01*
X141548591Y-78825742D01*
X141495085Y-78990415D01*
X141468000Y-79161428D01*
X141468000Y-79334571D01*
X141495085Y-79505584D01*
X141548591Y-79670257D01*
X141627195Y-79824524D01*
X141728967Y-79964602D01*
X141813405Y-80049040D01*
X142568000Y-79294445D01*
X142568000Y-79300661D01*
X142595259Y-79402394D01*
X142647920Y-79493606D01*
X142722394Y-79568080D01*
X142813606Y-79620741D01*
X142915339Y-79648000D01*
X142921552Y-79648000D01*
X142263787Y-80305762D01*
X142310419Y-80320914D01*
X142481429Y-80348000D01*
X143454571Y-80348000D01*
X143625582Y-80320914D01*
X143625585Y-80320913D01*
X143672211Y-80305763D01*
X143672211Y-80305762D01*
X143014448Y-79648000D01*
X143020661Y-79648000D01*
X143122394Y-79620741D01*
X143213606Y-79568080D01*
X143288080Y-79493606D01*
X143340741Y-79402394D01*
X143368000Y-79300661D01*
X143368000Y-79294449D01*
X144122592Y-80049041D01*
X144122593Y-80049041D01*
X144207033Y-79964601D01*
X144308804Y-79824524D01*
X144387408Y-79670257D01*
X144440914Y-79505584D01*
X144468000Y-79334571D01*
X144468000Y-79161428D01*
X144440914Y-78990415D01*
X144387408Y-78825742D01*
X144353296Y-78758795D01*
X144340400Y-78690126D01*
X144366676Y-78625386D01*
X144423782Y-78585128D01*
X144463781Y-78578500D01*
X147335331Y-78578500D01*
X147335347Y-78578501D01*
X147342943Y-78578501D01*
X147501054Y-78578501D01*
X147501057Y-78578501D01*
X147653785Y-78537577D01*
X147703904Y-78508639D01*
X147790716Y-78458520D01*
X147902520Y-78346716D01*
X147902520Y-78346714D01*
X147912728Y-78336507D01*
X147912729Y-78336504D01*
X148432631Y-77816602D01*
X148493953Y-77783119D01*
X148563645Y-77788103D01*
X148619578Y-77829975D01*
X148639288Y-77869349D01*
X148650897Y-77908884D01*
X148676181Y-77994992D01*
X148676182Y-77994993D01*
X148676182Y-77994994D01*
X148753967Y-78116030D01*
X148753971Y-78116034D01*
X148812824Y-78167031D01*
X148862706Y-78210254D01*
X148878343Y-78217395D01*
X148993580Y-78270023D01*
X148993583Y-78270023D01*
X148993584Y-78270024D01*
X149136000Y-78290500D01*
X151775500Y-78290500D01*
X151784185Y-78293050D01*
X151793147Y-78291762D01*
X151817187Y-78302740D01*
X151842539Y-78310185D01*
X151848466Y-78317025D01*
X151856703Y-78320787D01*
X151870992Y-78343021D01*
X151888294Y-78362989D01*
X151890581Y-78373503D01*
X151894477Y-78379565D01*
X151899500Y-78414500D01*
X151899500Y-78425500D01*
X151879815Y-78492539D01*
X151827011Y-78538294D01*
X151775500Y-78549500D01*
X149135997Y-78549500D01*
X149064059Y-78554644D01*
X148926005Y-78595182D01*
X148804969Y-78672967D01*
X148804965Y-78672971D01*
X148710750Y-78781700D01*
X148710744Y-78781709D01*
X148650976Y-78912580D01*
X148650975Y-78912585D01*
X148640831Y-78983146D01*
X148611806Y-79046702D01*
X148553029Y-79084477D01*
X148518093Y-79089500D01*
X148079057Y-79089500D01*
X147920942Y-79089500D01*
X147768215Y-79130423D01*
X147768214Y-79130423D01*
X147768212Y-79130424D01*
X147768209Y-79130425D01*
X147718096Y-79159359D01*
X147718095Y-79159360D01*
X147674689Y-79184420D01*
X147631285Y-79209479D01*
X147631282Y-79209481D01*
X144636400Y-82204364D01*
X144575077Y-82237849D01*
X144505385Y-82232865D01*
X144449452Y-82190993D01*
X144425035Y-82125529D01*
X144430787Y-82078369D01*
X144441402Y-82045701D01*
X144468500Y-81874611D01*
X144468500Y-81701389D01*
X144441402Y-81530299D01*
X144387873Y-81365555D01*
X144309232Y-81211212D01*
X144207414Y-81071072D01*
X144084928Y-80948586D01*
X143944788Y-80846768D01*
X143790445Y-80768127D01*
X143625701Y-80714598D01*
X143625699Y-80714597D01*
X143625698Y-80714597D01*
X143494271Y-80693781D01*
X143454611Y-80687500D01*
X142481389Y-80687500D01*
X142441728Y-80693781D01*
X142310302Y-80714597D01*
X142145552Y-80768128D01*
X141991211Y-80846768D01*
X141941314Y-80883021D01*
X141851072Y-80948586D01*
X141851070Y-80948588D01*
X141851069Y-80948588D01*
X141728588Y-81071069D01*
X141728588Y-81071070D01*
X141728586Y-81071072D01*
X141711460Y-81094644D01*
X141626768Y-81211211D01*
X141548128Y-81365552D01*
X141494597Y-81530302D01*
X141467500Y-81701389D01*
X141467500Y-81874610D01*
X141490492Y-82019781D01*
X141494598Y-82045701D01*
X141548127Y-82210445D01*
X141578858Y-82270759D01*
X141582143Y-82277205D01*
X141595039Y-82345874D01*
X141568763Y-82410615D01*
X141511656Y-82450872D01*
X141471658Y-82457500D01*
X127257942Y-82457500D01*
X127105216Y-82498422D01*
X127068742Y-82519481D01*
X127068741Y-82519480D01*
X126968287Y-82577477D01*
X126968282Y-82577481D01*
X126856478Y-82689286D01*
X126253563Y-83292200D01*
X126192240Y-83325685D01*
X126127564Y-83322450D01*
X126001370Y-83281447D01*
X125768097Y-83244500D01*
X125768092Y-83244500D01*
X125531908Y-83244500D01*
X125531903Y-83244500D01*
X125298628Y-83281447D01*
X125172433Y-83322450D01*
X125102592Y-83324445D01*
X125046435Y-83292200D01*
X124854416Y-83100181D01*
X124820931Y-83038858D01*
X124825915Y-82969166D01*
X124867787Y-82913233D01*
X124933251Y-82888816D01*
X124942097Y-82888500D01*
X125454610Y-82888500D01*
X125454611Y-82888500D01*
X125625701Y-82861402D01*
X125790445Y-82807873D01*
X125944788Y-82729232D01*
X126084928Y-82627414D01*
X126207414Y-82504928D01*
X126309232Y-82364788D01*
X126387873Y-82210445D01*
X126441402Y-82045701D01*
X126468500Y-81874611D01*
X126468500Y-81701389D01*
X126441402Y-81530299D01*
X126387873Y-81365555D01*
X126309232Y-81211212D01*
X126207414Y-81071072D01*
X126084928Y-80948586D01*
X125944788Y-80846768D01*
X125790445Y-80768127D01*
X125625701Y-80714598D01*
X125625699Y-80714597D01*
X125625698Y-80714597D01*
X125494271Y-80693781D01*
X125454611Y-80687500D01*
X124481389Y-80687500D01*
X124441728Y-80693781D01*
X124310302Y-80714597D01*
X124145552Y-80768128D01*
X123991211Y-80846768D01*
X123941314Y-80883021D01*
X123851072Y-80948586D01*
X123851070Y-80948588D01*
X123851069Y-80948588D01*
X123728588Y-81071069D01*
X123728588Y-81071070D01*
X123728586Y-81071072D01*
X123711460Y-81094644D01*
X123626768Y-81211211D01*
X123548128Y-81365552D01*
X123548127Y-81365554D01*
X123548127Y-81365555D01*
X123530448Y-81419967D01*
X123524431Y-81438484D01*
X123484993Y-81496160D01*
X123420635Y-81523358D01*
X123351788Y-81511443D01*
X123300313Y-81464199D01*
X123282500Y-81400166D01*
X123282500Y-79634217D01*
X123302185Y-79567178D01*
X123354989Y-79521423D01*
X123424147Y-79511479D01*
X123487703Y-79540504D01*
X123524431Y-79595899D01*
X123548591Y-79670255D01*
X123627195Y-79824524D01*
X123728967Y-79964602D01*
X123813406Y-80049041D01*
X124568000Y-79294447D01*
X124568000Y-79300661D01*
X124595259Y-79402394D01*
X124647920Y-79493606D01*
X124722394Y-79568080D01*
X124813606Y-79620741D01*
X124915339Y-79648000D01*
X124921552Y-79648000D01*
X124263787Y-80305762D01*
X124310419Y-80320914D01*
X124481429Y-80348000D01*
X125454571Y-80348000D01*
X125625582Y-80320914D01*
X125625585Y-80320913D01*
X125672211Y-80305763D01*
X125672211Y-80305762D01*
X125014448Y-79648000D01*
X125020661Y-79648000D01*
X125122394Y-79620741D01*
X125213606Y-79568080D01*
X125288080Y-79493606D01*
X125340741Y-79402394D01*
X125368000Y-79300661D01*
X125368000Y-79294448D01*
X126122592Y-80049041D01*
X126122593Y-80049041D01*
X126207033Y-79964601D01*
X126308804Y-79824524D01*
X126387408Y-79670257D01*
X126440914Y-79505584D01*
X126468000Y-79334571D01*
X126468000Y-79161428D01*
X126440914Y-78990415D01*
X126387408Y-78825742D01*
X126308804Y-78671475D01*
X126207032Y-78531397D01*
X126122593Y-78446958D01*
X126122592Y-78446958D01*
X125368000Y-79201550D01*
X125368000Y-79195339D01*
X125340741Y-79093606D01*
X125288080Y-79002394D01*
X125213606Y-78927920D01*
X125122394Y-78875259D01*
X125020661Y-78848000D01*
X125014449Y-78848000D01*
X125672211Y-78190236D01*
X125672211Y-78190235D01*
X125625586Y-78175086D01*
X125454571Y-78148000D01*
X124481429Y-78148000D01*
X124310414Y-78175086D01*
X124263788Y-78190235D01*
X124263788Y-78190236D01*
X124921552Y-78848000D01*
X124915339Y-78848000D01*
X124813606Y-78875259D01*
X124722394Y-78927920D01*
X124647920Y-79002394D01*
X124595259Y-79093606D01*
X124568000Y-79195339D01*
X124568000Y-79201552D01*
X123813406Y-78446958D01*
X123728966Y-78531398D01*
X123627198Y-78671471D01*
X123548591Y-78825742D01*
X123524431Y-78900101D01*
X123484993Y-78957776D01*
X123420634Y-78984974D01*
X123351788Y-78973059D01*
X123300312Y-78925815D01*
X123282500Y-78861782D01*
X123282500Y-77095833D01*
X123302185Y-77028794D01*
X123354989Y-76983039D01*
X123424147Y-76973095D01*
X123487703Y-77002120D01*
X123524429Y-77057513D01*
X123548127Y-77130445D01*
X123626768Y-77284788D01*
X123728586Y-77424928D01*
X123851072Y-77547414D01*
X123991212Y-77649232D01*
X124145555Y-77727873D01*
X124310299Y-77781402D01*
X124481389Y-77808500D01*
X124481390Y-77808500D01*
X125454610Y-77808500D01*
X125454611Y-77808500D01*
X125625701Y-77781402D01*
X125790445Y-77727873D01*
X125944788Y-77649232D01*
X126084928Y-77547414D01*
X126207414Y-77424928D01*
X126309232Y-77284788D01*
X126387873Y-77130445D01*
X126441402Y-76965701D01*
X126468500Y-76794611D01*
X126468500Y-76621389D01*
X126441402Y-76450299D01*
X126387873Y-76285555D01*
X126309232Y-76131212D01*
X126207414Y-75991072D01*
X126084928Y-75868586D01*
X125944788Y-75766768D01*
X125790445Y-75688127D01*
X125625701Y-75634598D01*
X125625699Y-75634597D01*
X125625698Y-75634597D01*
X125494271Y-75613781D01*
X125454611Y-75607500D01*
X124481389Y-75607500D01*
X124441728Y-75613781D01*
X124310302Y-75634597D01*
X124145552Y-75688128D01*
X123991211Y-75766768D01*
X123936228Y-75806716D01*
X123851072Y-75868586D01*
X123851070Y-75868588D01*
X123851069Y-75868588D01*
X123728588Y-75991069D01*
X123728588Y-75991070D01*
X123728586Y-75991072D01*
X123694127Y-76038501D01*
X123626768Y-76131211D01*
X123548128Y-76285552D01*
X123524431Y-76358484D01*
X123484993Y-76416160D01*
X123420635Y-76443358D01*
X123351788Y-76431443D01*
X123300313Y-76384199D01*
X123282500Y-76320166D01*
X123282500Y-74555833D01*
X123302185Y-74488794D01*
X123354989Y-74443039D01*
X123424147Y-74433095D01*
X123487703Y-74462120D01*
X123524429Y-74517513D01*
X123548127Y-74590445D01*
X123626768Y-74744788D01*
X123728586Y-74884928D01*
X123851072Y-75007414D01*
X123991212Y-75109232D01*
X124145555Y-75187873D01*
X124310299Y-75241402D01*
X124481389Y-75268500D01*
X124481390Y-75268500D01*
X125454610Y-75268500D01*
X125454611Y-75268500D01*
X125625701Y-75241402D01*
X125790445Y-75187873D01*
X125944788Y-75109232D01*
X126084928Y-75007414D01*
X126207414Y-74884928D01*
X126254868Y-74819613D01*
X126310197Y-74776949D01*
X126355185Y-74768500D01*
X126699903Y-74768500D01*
X126766942Y-74788185D01*
X126787584Y-74804819D01*
X131499425Y-79516660D01*
X131532910Y-79577983D01*
X131533361Y-79580149D01*
X131564261Y-79735491D01*
X131564264Y-79735501D01*
X131624602Y-79881172D01*
X131624609Y-79881185D01*
X131712210Y-80012288D01*
X131712213Y-80012292D01*
X131823707Y-80123786D01*
X131823711Y-80123789D01*
X131954814Y-80211390D01*
X131954827Y-80211397D01*
X132100498Y-80271735D01*
X132100503Y-80271737D01*
X132255153Y-80302499D01*
X132255156Y-80302500D01*
X132255158Y-80302500D01*
X132412844Y-80302500D01*
X132412845Y-80302499D01*
X132567497Y-80271737D01*
X132713179Y-80211394D01*
X132715806Y-80209639D01*
X132783986Y-80164083D01*
X132816429Y-80142403D01*
X132844289Y-80123789D01*
X132955789Y-80012289D01*
X133043394Y-79881179D01*
X133103737Y-79735497D01*
X133134500Y-79580842D01*
X133134500Y-79423158D01*
X133134500Y-79423155D01*
X133134499Y-79423153D01*
X133114236Y-79321284D01*
X133103737Y-79268503D01*
X133103735Y-79268498D01*
X133043397Y-79122827D01*
X133043390Y-79122814D01*
X132955789Y-78991711D01*
X132955786Y-78991707D01*
X132844292Y-78880213D01*
X132844288Y-78880210D01*
X132713185Y-78792609D01*
X132713172Y-78792602D01*
X132567501Y-78732264D01*
X132567491Y-78732261D01*
X132412149Y-78701361D01*
X132350238Y-78668976D01*
X132348660Y-78667425D01*
X127487590Y-73806355D01*
X127487588Y-73806352D01*
X127368717Y-73687481D01*
X127368716Y-73687480D01*
X127281904Y-73637360D01*
X127281904Y-73637359D01*
X127281900Y-73637358D01*
X127231785Y-73608423D01*
X127079057Y-73567499D01*
X126920943Y-73567499D01*
X126913347Y-73567499D01*
X126913331Y-73567500D01*
X126355185Y-73567500D01*
X126288146Y-73547815D01*
X126254867Y-73516386D01*
X126207414Y-73451072D01*
X126084928Y-73328586D01*
X125944788Y-73226768D01*
X125790445Y-73148127D01*
X125625701Y-73094598D01*
X125625699Y-73094597D01*
X125625698Y-73094597D01*
X125494271Y-73073781D01*
X125454611Y-73067500D01*
X124481389Y-73067500D01*
X124441728Y-73073781D01*
X124310302Y-73094597D01*
X124145552Y-73148128D01*
X123991211Y-73226768D01*
X123936228Y-73266716D01*
X123851072Y-73328586D01*
X123851070Y-73328588D01*
X123851069Y-73328588D01*
X123728588Y-73451069D01*
X123728588Y-73451070D01*
X123728586Y-73451072D01*
X123694127Y-73498501D01*
X123626768Y-73591211D01*
X123548128Y-73745552D01*
X123524431Y-73818484D01*
X123484993Y-73876160D01*
X123420635Y-73903358D01*
X123351788Y-73891443D01*
X123300313Y-73844199D01*
X123282500Y-73780166D01*
X123282500Y-73179765D01*
X123302185Y-73112726D01*
X123303398Y-73110874D01*
X123319330Y-73087031D01*
X123391394Y-72979179D01*
X123451737Y-72833497D01*
X123482500Y-72678842D01*
X123482500Y-72521158D01*
X123482500Y-72521155D01*
X123451715Y-72366393D01*
X123457942Y-72296801D01*
X123500805Y-72241624D01*
X123566694Y-72218379D01*
X123634691Y-72234447D01*
X123673649Y-72269314D01*
X123728586Y-72344928D01*
X123851072Y-72467414D01*
X123991212Y-72569232D01*
X124145555Y-72647873D01*
X124310299Y-72701402D01*
X124481389Y-72728500D01*
X124481390Y-72728500D01*
X125454610Y-72728500D01*
X125454611Y-72728500D01*
X125625701Y-72701402D01*
X125790445Y-72647873D01*
X125944788Y-72569232D01*
X126084928Y-72467414D01*
X126207414Y-72344928D01*
X126309232Y-72204788D01*
X126387873Y-72050445D01*
X126441402Y-71885701D01*
X126468500Y-71714611D01*
X126468500Y-71541389D01*
X126441402Y-71370299D01*
X126387873Y-71205555D01*
X126309232Y-71051212D01*
X126207414Y-70911072D01*
X126084928Y-70788586D01*
X125944788Y-70686768D01*
X125790445Y-70608127D01*
X125625701Y-70554598D01*
X125625699Y-70554597D01*
X125625698Y-70554597D01*
X125488977Y-70532943D01*
X125454611Y-70527500D01*
X124481389Y-70527500D01*
X124447023Y-70532943D01*
X124310302Y-70554597D01*
X124145552Y-70608128D01*
X123991211Y-70686768D01*
X123936228Y-70726716D01*
X123851072Y-70788586D01*
X123851070Y-70788588D01*
X123851069Y-70788588D01*
X123728588Y-70911069D01*
X123728588Y-70911070D01*
X123728586Y-70911072D01*
X123694127Y-70958501D01*
X123626768Y-71051211D01*
X123548128Y-71205552D01*
X123494597Y-71370302D01*
X123467500Y-71541389D01*
X123467500Y-71714610D01*
X123485817Y-71830264D01*
X123494598Y-71885701D01*
X123527214Y-71986081D01*
X123529209Y-72055922D01*
X123493129Y-72115755D01*
X123430428Y-72146583D01*
X123361014Y-72138618D01*
X123306925Y-72094390D01*
X123306182Y-72093292D01*
X123303788Y-72089709D01*
X123192292Y-71978213D01*
X123192288Y-71978210D01*
X123061185Y-71890609D01*
X123061172Y-71890602D01*
X122915501Y-71830264D01*
X122915489Y-71830261D01*
X122760845Y-71799500D01*
X122760842Y-71799500D01*
X122603158Y-71799500D01*
X122603155Y-71799500D01*
X122448510Y-71830261D01*
X122448498Y-71830264D01*
X122302827Y-71890602D01*
X122302814Y-71890609D01*
X122205391Y-71955706D01*
X122138713Y-71976584D01*
X122071333Y-71958099D01*
X122024643Y-71906121D01*
X122012500Y-71852604D01*
X122012500Y-70912097D01*
X122032185Y-70845058D01*
X122048819Y-70824416D01*
X123148416Y-69724819D01*
X123209739Y-69691334D01*
X123236097Y-69688500D01*
X123580815Y-69688500D01*
X123647854Y-69708185D01*
X123681131Y-69739612D01*
X123728586Y-69804928D01*
X123851072Y-69927414D01*
X123991212Y-70029232D01*
X124145555Y-70107873D01*
X124310299Y-70161402D01*
X124481389Y-70188500D01*
X124481390Y-70188500D01*
X125454610Y-70188500D01*
X125454611Y-70188500D01*
X125625701Y-70161402D01*
X125790445Y-70107873D01*
X125944788Y-70029232D01*
X126084928Y-69927414D01*
X126207414Y-69804928D01*
X126309232Y-69664788D01*
X126387873Y-69510445D01*
X126441402Y-69345701D01*
X126468500Y-69174611D01*
X126468500Y-69001389D01*
X126441402Y-68830299D01*
X126387873Y-68665555D01*
X126353856Y-68598793D01*
X126340961Y-68530126D01*
X126367237Y-68465385D01*
X126424344Y-68425128D01*
X126464342Y-68418500D01*
X132220486Y-68418500D01*
X132239667Y-68424132D01*
G37*
%TD.AperFunction*%
%TA.AperFunction,Conductor*%
G36*
X106206809Y-58772185D02*
G01*
X106227451Y-58788819D01*
X109449181Y-62010548D01*
X109482666Y-62071871D01*
X109485500Y-62098229D01*
X109485500Y-63990553D01*
X109465815Y-64057592D01*
X109434387Y-64090869D01*
X109429239Y-64094610D01*
X109413534Y-64106020D01*
X109273021Y-64246533D01*
X109156213Y-64407305D01*
X109076204Y-64564331D01*
X109028229Y-64615127D01*
X108960408Y-64631922D01*
X108894273Y-64609384D01*
X108855234Y-64564331D01*
X108775358Y-64407567D01*
X108748268Y-64370283D01*
X108133647Y-64984904D01*
X108110208Y-64897429D01*
X108051689Y-64796070D01*
X107968930Y-64713311D01*
X107867571Y-64654792D01*
X107780094Y-64631352D01*
X108394716Y-64016731D01*
X108394715Y-64016730D01*
X108357432Y-63989641D01*
X108180437Y-63899457D01*
X107991522Y-63838075D01*
X107795321Y-63807000D01*
X107596679Y-63807000D01*
X107400479Y-63838075D01*
X107400476Y-63838075D01*
X107211562Y-63899457D01*
X107034564Y-63989643D01*
X106997283Y-64016729D01*
X106997282Y-64016730D01*
X107611906Y-64631352D01*
X107524429Y-64654792D01*
X107423070Y-64713311D01*
X107340311Y-64796070D01*
X107281792Y-64897429D01*
X107258352Y-64984905D01*
X106643730Y-64370282D01*
X106643729Y-64370283D01*
X106616641Y-64407566D01*
X106536764Y-64564332D01*
X106488790Y-64615127D01*
X106420969Y-64631922D01*
X106354834Y-64609384D01*
X106315796Y-64564332D01*
X106235787Y-64407306D01*
X106118981Y-64246536D01*
X105978464Y-64106019D01*
X105817694Y-63989213D01*
X105778966Y-63969480D01*
X105640632Y-63898994D01*
X105640629Y-63898993D01*
X105451637Y-63837587D01*
X105353498Y-63822043D01*
X105255361Y-63806500D01*
X105056639Y-63806500D01*
X105002972Y-63815000D01*
X104860362Y-63837587D01*
X104671370Y-63898993D01*
X104671367Y-63898994D01*
X104494305Y-63989213D01*
X104333533Y-64106021D01*
X104193021Y-64246533D01*
X104076213Y-64407305D01*
X103985994Y-64584367D01*
X103985993Y-64584370D01*
X103924587Y-64773362D01*
X103904937Y-64897429D01*
X103893500Y-64969639D01*
X103893500Y-65168361D01*
X103904937Y-65240571D01*
X103924587Y-65364637D01*
X103985993Y-65553629D01*
X103985994Y-65553632D01*
X104076074Y-65730422D01*
X104076213Y-65730694D01*
X104193019Y-65891464D01*
X104333536Y-66031981D01*
X104494306Y-66148787D01*
X104555500Y-66179967D01*
X104671367Y-66239005D01*
X104671370Y-66239006D01*
X104765866Y-66269709D01*
X104860364Y-66300413D01*
X105056639Y-66331500D01*
X105056640Y-66331500D01*
X105255360Y-66331500D01*
X105255361Y-66331500D01*
X105451636Y-66300413D01*
X105640632Y-66239005D01*
X105817694Y-66148787D01*
X105978464Y-66031981D01*
X106118981Y-65891464D01*
X106235787Y-65730694D01*
X106315796Y-65573667D01*
X106363769Y-65522872D01*
X106431590Y-65506077D01*
X106497725Y-65528614D01*
X106536765Y-65573668D01*
X106616641Y-65730432D01*
X106643730Y-65767715D01*
X106643731Y-65767716D01*
X107258352Y-65153094D01*
X107281792Y-65240571D01*
X107340311Y-65341930D01*
X107423070Y-65424689D01*
X107524429Y-65483208D01*
X107611905Y-65506647D01*
X106997283Y-66121268D01*
X106997283Y-66121269D01*
X107034567Y-66148358D01*
X107211562Y-66238542D01*
X107400477Y-66299924D01*
X107596679Y-66331000D01*
X107795321Y-66331000D01*
X107991520Y-66299924D01*
X107991523Y-66299924D01*
X108180437Y-66238542D01*
X108357425Y-66148362D01*
X108394716Y-66121268D01*
X107780095Y-65506647D01*
X107867571Y-65483208D01*
X107968930Y-65424689D01*
X108051689Y-65341930D01*
X108110208Y-65240571D01*
X108133647Y-65153094D01*
X108748268Y-65767715D01*
X108775364Y-65730422D01*
X108855234Y-65573669D01*
X108903208Y-65522872D01*
X108971029Y-65506077D01*
X109037164Y-65528614D01*
X109076203Y-65573667D01*
X109156213Y-65730694D01*
X109273019Y-65891464D01*
X109413536Y-66031981D01*
X109536431Y-66121269D01*
X109574309Y-66148789D01*
X109576285Y-66150000D01*
X109576878Y-66150656D01*
X109578248Y-66151651D01*
X109578039Y-66151938D01*
X109623163Y-66201810D01*
X109635500Y-66255730D01*
X109635500Y-76890234D01*
X109615815Y-76957273D01*
X109614602Y-76959125D01*
X109526609Y-77090814D01*
X109526602Y-77090827D01*
X109466264Y-77236498D01*
X109466261Y-77236510D01*
X109435500Y-77391153D01*
X109435500Y-77548846D01*
X109466261Y-77703489D01*
X109466264Y-77703501D01*
X109526602Y-77849172D01*
X109526609Y-77849185D01*
X109614210Y-77980288D01*
X109614213Y-77980292D01*
X109725707Y-78091786D01*
X109725711Y-78091789D01*
X109856814Y-78179390D01*
X109856827Y-78179397D01*
X109948564Y-78217395D01*
X110002503Y-78239737D01*
X110154760Y-78270023D01*
X110157153Y-78270499D01*
X110157156Y-78270500D01*
X110157158Y-78270500D01*
X110314844Y-78270500D01*
X110314845Y-78270499D01*
X110469497Y-78239737D01*
X110615179Y-78179394D01*
X110712609Y-78114292D01*
X110779286Y-78093415D01*
X110846666Y-78111899D01*
X110893357Y-78163878D01*
X110905500Y-78217395D01*
X110905500Y-79030839D01*
X110885815Y-79097878D01*
X110833011Y-79143633D01*
X110763853Y-79153577D01*
X110725214Y-79141328D01*
X110720643Y-79138999D01*
X110720629Y-79138993D01*
X110531637Y-79077587D01*
X110433498Y-79062043D01*
X110335361Y-79046500D01*
X110136639Y-79046500D01*
X110082972Y-79055000D01*
X109940362Y-79077587D01*
X109751370Y-79138993D01*
X109751367Y-79138994D01*
X109574305Y-79229213D01*
X109413533Y-79346021D01*
X109273021Y-79486533D01*
X109156213Y-79647305D01*
X109076485Y-79803780D01*
X109028510Y-79854576D01*
X108960689Y-79871371D01*
X108894554Y-79848833D01*
X108855515Y-79803780D01*
X108780174Y-79655916D01*
X108775787Y-79647306D01*
X108658981Y-79486536D01*
X108518464Y-79346019D01*
X108357694Y-79229213D01*
X108327725Y-79213943D01*
X108180632Y-79138994D01*
X108180629Y-79138993D01*
X107991637Y-79077587D01*
X107893498Y-79062043D01*
X107795361Y-79046500D01*
X107596639Y-79046500D01*
X107542972Y-79055000D01*
X107400362Y-79077587D01*
X107211370Y-79138993D01*
X107211367Y-79138994D01*
X107034305Y-79229213D01*
X106873533Y-79346021D01*
X106733021Y-79486533D01*
X106616213Y-79647305D01*
X106536485Y-79803780D01*
X106488510Y-79854576D01*
X106420689Y-79871371D01*
X106354554Y-79848833D01*
X106315515Y-79803780D01*
X106240174Y-79655916D01*
X106235787Y-79647306D01*
X106118981Y-79486536D01*
X105978464Y-79346019D01*
X105817694Y-79229213D01*
X105787725Y-79213943D01*
X105640632Y-79138994D01*
X105640629Y-79138993D01*
X105451637Y-79077587D01*
X105353498Y-79062043D01*
X105255361Y-79046500D01*
X105056639Y-79046500D01*
X105002972Y-79055000D01*
X104860362Y-79077587D01*
X104671370Y-79138993D01*
X104671367Y-79138994D01*
X104494305Y-79229213D01*
X104333533Y-79346021D01*
X104193021Y-79486533D01*
X104076213Y-79647305D01*
X103985994Y-79824367D01*
X103985993Y-79824370D01*
X103924587Y-80013362D01*
X103893500Y-80209639D01*
X103893500Y-80408360D01*
X103924587Y-80604637D01*
X103985993Y-80793629D01*
X103985994Y-80793632D01*
X104076213Y-80970694D01*
X104193019Y-81131464D01*
X104333536Y-81271981D01*
X104494306Y-81388787D01*
X104524960Y-81404406D01*
X104671367Y-81479005D01*
X104671370Y-81479006D01*
X104723024Y-81495789D01*
X104860364Y-81540413D01*
X105056639Y-81571500D01*
X105056640Y-81571500D01*
X105255360Y-81571500D01*
X105255361Y-81571500D01*
X105451636Y-81540413D01*
X105640632Y-81479005D01*
X105817694Y-81388787D01*
X105978464Y-81271981D01*
X106118981Y-81131464D01*
X106235787Y-80970694D01*
X106315515Y-80814218D01*
X106363490Y-80763423D01*
X106431311Y-80746628D01*
X106497446Y-80769165D01*
X106536484Y-80814218D01*
X106616213Y-80970694D01*
X106733019Y-81131464D01*
X106873536Y-81271981D01*
X107034306Y-81388787D01*
X107064960Y-81404406D01*
X107211367Y-81479005D01*
X107211370Y-81479006D01*
X107263024Y-81495789D01*
X107400364Y-81540413D01*
X107596639Y-81571500D01*
X107596640Y-81571500D01*
X107795360Y-81571500D01*
X107795361Y-81571500D01*
X107991636Y-81540413D01*
X108180632Y-81479005D01*
X108357694Y-81388787D01*
X108518464Y-81271981D01*
X108658981Y-81131464D01*
X108775787Y-80970694D01*
X108855515Y-80814218D01*
X108903490Y-80763423D01*
X108971311Y-80746628D01*
X109037446Y-80769165D01*
X109076484Y-80814218D01*
X109156213Y-80970694D01*
X109273019Y-81131464D01*
X109413536Y-81271981D01*
X109574306Y-81388787D01*
X109604960Y-81404406D01*
X109751367Y-81479005D01*
X109751370Y-81479006D01*
X109803024Y-81495789D01*
X109940364Y-81540413D01*
X110136639Y-81571500D01*
X110136640Y-81571500D01*
X110335360Y-81571500D01*
X110335361Y-81571500D01*
X110531636Y-81540413D01*
X110720632Y-81479005D01*
X110722842Y-81477879D01*
X110725204Y-81476676D01*
X110727909Y-81476167D01*
X110729989Y-81474366D01*
X110762044Y-81469756D01*
X110793873Y-81463779D01*
X110796422Y-81464813D01*
X110799147Y-81464422D01*
X110828613Y-81477879D01*
X110858614Y-81490055D01*
X110860199Y-81492303D01*
X110862703Y-81493447D01*
X110880212Y-81520691D01*
X110898872Y-81547161D01*
X110899445Y-81550619D01*
X110900477Y-81552225D01*
X110905500Y-81587160D01*
X110905500Y-81701330D01*
X110905499Y-81701348D01*
X110905499Y-81867054D01*
X110905498Y-81867054D01*
X110946423Y-82019785D01*
X110961385Y-82045701D01*
X110972075Y-82064215D01*
X111025480Y-82156716D01*
X111064318Y-82195554D01*
X111070578Y-82204521D01*
X111078355Y-82227692D01*
X111090068Y-82249142D01*
X111089275Y-82260225D01*
X111092811Y-82270759D01*
X111086827Y-82294453D01*
X111085084Y-82318834D01*
X111078424Y-82327730D01*
X111075704Y-82338502D01*
X111057859Y-82355200D01*
X111043212Y-82374767D01*
X111032800Y-82378650D01*
X111024688Y-82386242D01*
X111000647Y-82390642D01*
X110977748Y-82399184D01*
X110968902Y-82399500D01*
X104800098Y-82399500D01*
X104733059Y-82379815D01*
X104712417Y-82363181D01*
X102998819Y-80649583D01*
X102965334Y-80588260D01*
X102962500Y-80561902D01*
X102962500Y-61467041D01*
X102982185Y-61400002D01*
X103034989Y-61354247D01*
X103074877Y-61345569D01*
X103832000Y-60588447D01*
X103832000Y-60594661D01*
X103859259Y-60696394D01*
X103911920Y-60787606D01*
X103986394Y-60862080D01*
X104077606Y-60914741D01*
X104179339Y-60942000D01*
X104185552Y-60942000D01*
X103527787Y-61599762D01*
X103574419Y-61614914D01*
X103745429Y-61642000D01*
X104718571Y-61642000D01*
X104889582Y-61614914D01*
X104889585Y-61614913D01*
X104936211Y-61599763D01*
X104936211Y-61599762D01*
X104278448Y-60942000D01*
X104284661Y-60942000D01*
X104386394Y-60914741D01*
X104477606Y-60862080D01*
X104552080Y-60787606D01*
X104604741Y-60696394D01*
X104632000Y-60594661D01*
X104632000Y-60588448D01*
X105386592Y-61343041D01*
X105386593Y-61343041D01*
X105471033Y-61258601D01*
X105572804Y-61118524D01*
X105651408Y-60964257D01*
X105704914Y-60799584D01*
X105732000Y-60628571D01*
X105732000Y-60455428D01*
X105704914Y-60284415D01*
X105651408Y-60119742D01*
X105572804Y-59965475D01*
X105471032Y-59825397D01*
X105386593Y-59740958D01*
X105386592Y-59740958D01*
X104632000Y-60495550D01*
X104632000Y-60489339D01*
X104604741Y-60387606D01*
X104552080Y-60296394D01*
X104477606Y-60221920D01*
X104386394Y-60169259D01*
X104284661Y-60142000D01*
X104278449Y-60142000D01*
X104936211Y-59484236D01*
X104936211Y-59484235D01*
X104889586Y-59469086D01*
X104718571Y-59442000D01*
X103745429Y-59442000D01*
X103574414Y-59469086D01*
X103527788Y-59484235D01*
X103527788Y-59484236D01*
X104185552Y-60142000D01*
X104179339Y-60142000D01*
X104077606Y-60169259D01*
X103986394Y-60221920D01*
X103911920Y-60296394D01*
X103859259Y-60387606D01*
X103832000Y-60489339D01*
X103832000Y-60495552D01*
X103075227Y-59738779D01*
X103068853Y-59739696D01*
X103044812Y-59728717D01*
X103019461Y-59721273D01*
X103013533Y-59714432D01*
X103005297Y-59710671D01*
X102991007Y-59688436D01*
X102973706Y-59668469D01*
X102971418Y-59657954D01*
X102967523Y-59651893D01*
X102962500Y-59616958D01*
X102962500Y-58973927D01*
X102982185Y-58906888D01*
X103034989Y-58861133D01*
X103104147Y-58851189D01*
X103159386Y-58873610D01*
X103255207Y-58943229D01*
X103255209Y-58943230D01*
X103255212Y-58943232D01*
X103409555Y-59021873D01*
X103574299Y-59075402D01*
X103745389Y-59102500D01*
X103745390Y-59102500D01*
X104718610Y-59102500D01*
X104718611Y-59102500D01*
X104889701Y-59075402D01*
X105054445Y-59021873D01*
X105208788Y-58943232D01*
X105348928Y-58841414D01*
X105401523Y-58788819D01*
X105462846Y-58755334D01*
X105489204Y-58752500D01*
X106139770Y-58752500D01*
X106206809Y-58772185D01*
G37*
%TD.AperFunction*%
%TA.AperFunction,Conductor*%
G36*
X120730833Y-70420916D02*
G01*
X120786766Y-70462788D01*
X120811183Y-70528252D01*
X120811499Y-70537098D01*
X120811499Y-70701046D01*
X120811500Y-70701059D01*
X120811500Y-78951386D01*
X120791815Y-79018425D01*
X120739011Y-79064180D01*
X120669853Y-79074124D01*
X120668103Y-79073859D01*
X120495361Y-79046500D01*
X120296639Y-79046500D01*
X120242972Y-79055000D01*
X120100362Y-79077587D01*
X119911370Y-79138993D01*
X119911367Y-79138994D01*
X119734305Y-79229213D01*
X119573533Y-79346021D01*
X119433021Y-79486533D01*
X119316213Y-79647305D01*
X119236485Y-79803780D01*
X119188510Y-79854576D01*
X119120689Y-79871371D01*
X119054554Y-79848833D01*
X119015515Y-79803780D01*
X118940174Y-79655916D01*
X118935787Y-79647306D01*
X118818981Y-79486536D01*
X118678464Y-79346019D01*
X118517694Y-79229213D01*
X118487725Y-79213943D01*
X118340632Y-79138994D01*
X118340629Y-79138993D01*
X118151637Y-79077587D01*
X118053498Y-79062043D01*
X117955361Y-79046500D01*
X117756639Y-79046500D01*
X117702972Y-79055000D01*
X117560362Y-79077587D01*
X117371370Y-79138993D01*
X117371367Y-79138994D01*
X117194305Y-79229213D01*
X117033533Y-79346021D01*
X116893021Y-79486533D01*
X116776213Y-79647305D01*
X116696485Y-79803780D01*
X116648510Y-79854576D01*
X116580689Y-79871371D01*
X116514554Y-79848833D01*
X116475515Y-79803780D01*
X116400174Y-79655916D01*
X116395787Y-79647306D01*
X116278981Y-79486536D01*
X116138464Y-79346019D01*
X115977694Y-79229213D01*
X115947725Y-79213943D01*
X115800632Y-79138994D01*
X115800629Y-79138993D01*
X115611637Y-79077587D01*
X115513498Y-79062043D01*
X115415361Y-79046500D01*
X115216639Y-79046500D01*
X115162972Y-79055000D01*
X115020362Y-79077587D01*
X114831370Y-79138993D01*
X114831367Y-79138994D01*
X114654305Y-79229213D01*
X114493533Y-79346021D01*
X114353021Y-79486533D01*
X114236213Y-79647305D01*
X114156485Y-79803780D01*
X114108510Y-79854576D01*
X114040689Y-79871371D01*
X113974554Y-79848833D01*
X113935515Y-79803780D01*
X113860174Y-79655916D01*
X113855787Y-79647306D01*
X113738981Y-79486536D01*
X113598464Y-79346019D01*
X113461235Y-79246316D01*
X113437690Y-79229210D01*
X113435715Y-79228000D01*
X113435121Y-79227343D01*
X113433752Y-79226349D01*
X113433960Y-79226061D01*
X113388837Y-79176190D01*
X113376500Y-79122270D01*
X113376500Y-77724097D01*
X113396185Y-77657058D01*
X113412819Y-77636416D01*
X120599818Y-70449417D01*
X120661141Y-70415932D01*
X120730833Y-70420916D01*
G37*
%TD.AperFunction*%
%TA.AperFunction,Conductor*%
G36*
X151842539Y-51320185D02*
G01*
X151888294Y-51372989D01*
X151899500Y-51424500D01*
X151899500Y-53030500D01*
X151879815Y-53097539D01*
X151827011Y-53143294D01*
X151775500Y-53154500D01*
X149088129Y-53154500D01*
X149088123Y-53154501D01*
X149028516Y-53160908D01*
X148893671Y-53211202D01*
X148893664Y-53211206D01*
X148778455Y-53297452D01*
X148778452Y-53297455D01*
X148692206Y-53412664D01*
X148692202Y-53412671D01*
X148641908Y-53547517D01*
X148635501Y-53607116D01*
X148635500Y-53607135D01*
X148635500Y-54972870D01*
X148635501Y-54972876D01*
X148641908Y-55032483D01*
X148692202Y-55167328D01*
X148692206Y-55167335D01*
X148778452Y-55282544D01*
X148778455Y-55282547D01*
X148893664Y-55368793D01*
X148893671Y-55368797D01*
X149028517Y-55419091D01*
X149028516Y-55419091D01*
X149035444Y-55419835D01*
X149088127Y-55425500D01*
X151775500Y-55425499D01*
X151784185Y-55428049D01*
X151793147Y-55426761D01*
X151817187Y-55437739D01*
X151842539Y-55445184D01*
X151848466Y-55452024D01*
X151856703Y-55455786D01*
X151870990Y-55478018D01*
X151888294Y-55497987D01*
X151890581Y-55508502D01*
X151894477Y-55514564D01*
X151899500Y-55549499D01*
X151899500Y-55570500D01*
X151879815Y-55637539D01*
X151827011Y-55683294D01*
X151775500Y-55694500D01*
X149088129Y-55694500D01*
X149088123Y-55694501D01*
X149028516Y-55700908D01*
X148893671Y-55751202D01*
X148893669Y-55751204D01*
X148822118Y-55804767D01*
X148801369Y-55812505D01*
X148782742Y-55824477D01*
X148760825Y-55827628D01*
X148756654Y-55829184D01*
X148747807Y-55829500D01*
X148645782Y-55829500D01*
X148578743Y-55809815D01*
X148558101Y-55793181D01*
X147156819Y-54391899D01*
X147123334Y-54330576D01*
X147120500Y-54304218D01*
X147120500Y-54067133D01*
X147086754Y-53854077D01*
X147086754Y-53854074D01*
X147020092Y-53648911D01*
X146922157Y-53456701D01*
X146795359Y-53282179D01*
X146642821Y-53129641D01*
X146468299Y-53002843D01*
X146276089Y-52904908D01*
X146070926Y-52838246D01*
X146070924Y-52838245D01*
X146070922Y-52838245D01*
X145857866Y-52804500D01*
X145857861Y-52804500D01*
X145642139Y-52804500D01*
X145642134Y-52804500D01*
X145429077Y-52838245D01*
X145223908Y-52904909D01*
X145031700Y-53002843D01*
X144857180Y-53129640D01*
X144714816Y-53272004D01*
X144653493Y-53305488D01*
X144583801Y-53300504D01*
X144527868Y-53258632D01*
X144514748Y-53236716D01*
X144514356Y-53235876D01*
X144422315Y-53086654D01*
X144298345Y-52962684D01*
X144149124Y-52870643D01*
X144149119Y-52870641D01*
X143982697Y-52815494D01*
X143982690Y-52815493D01*
X143879986Y-52805000D01*
X143460000Y-52805000D01*
X143460000Y-53857290D01*
X143439661Y-53845548D01*
X143288333Y-53805000D01*
X143131667Y-53805000D01*
X142980339Y-53845548D01*
X142960000Y-53857290D01*
X142960000Y-52805000D01*
X142540028Y-52805000D01*
X142540012Y-52805001D01*
X142437302Y-52815494D01*
X142270880Y-52870641D01*
X142270875Y-52870643D01*
X142121654Y-52962684D01*
X141997684Y-53086654D01*
X141905643Y-53235875D01*
X141905641Y-53235880D01*
X141850494Y-53402302D01*
X141850493Y-53402309D01*
X141840000Y-53505013D01*
X141840000Y-54150000D01*
X142667291Y-54150000D01*
X142655548Y-54170339D01*
X142615000Y-54321667D01*
X142615000Y-54478333D01*
X142655548Y-54629661D01*
X142667291Y-54650000D01*
X141840001Y-54650000D01*
X141840001Y-55294986D01*
X141850494Y-55397697D01*
X141905641Y-55564119D01*
X141905643Y-55564124D01*
X141997684Y-55713345D01*
X142121654Y-55837315D01*
X142270875Y-55929356D01*
X142270880Y-55929358D01*
X142437302Y-55984505D01*
X142437309Y-55984506D01*
X142540019Y-55994999D01*
X142959999Y-55994999D01*
X142960000Y-55994998D01*
X142960000Y-54942709D01*
X142980339Y-54954452D01*
X143131667Y-54995000D01*
X143288333Y-54995000D01*
X143439661Y-54954452D01*
X143460000Y-54942709D01*
X143460000Y-55994999D01*
X143879972Y-55994999D01*
X143879986Y-55994998D01*
X143982697Y-55984505D01*
X144149119Y-55929358D01*
X144149124Y-55929356D01*
X144298345Y-55837315D01*
X144422315Y-55713345D01*
X144514354Y-55564127D01*
X144514745Y-55563289D01*
X144515167Y-55562809D01*
X144518149Y-55557975D01*
X144518974Y-55558484D01*
X144560910Y-55510843D01*
X144628100Y-55491681D01*
X144694984Y-55511887D01*
X144714816Y-55527996D01*
X144857179Y-55670359D01*
X145031701Y-55797157D01*
X145223911Y-55895092D01*
X145429074Y-55961754D01*
X145508973Y-55974408D01*
X145642134Y-55995500D01*
X145642139Y-55995500D01*
X145857853Y-55995500D01*
X145857861Y-55995500D01*
X145858216Y-55995443D01*
X145858353Y-55995461D01*
X145862712Y-55995118D01*
X145862784Y-55996033D01*
X145927507Y-56004386D01*
X145965312Y-56030232D01*
X147399735Y-57464655D01*
X147399764Y-57464686D01*
X147542214Y-57607136D01*
X147542218Y-57607139D01*
X147706079Y-57716628D01*
X147706092Y-57716635D01*
X147834833Y-57769961D01*
X147877744Y-57787735D01*
X147888164Y-57792051D01*
X147984812Y-57811275D01*
X148033135Y-57820887D01*
X148081458Y-57830500D01*
X148081459Y-57830500D01*
X148081460Y-57830500D01*
X148278540Y-57830500D01*
X148747807Y-57830500D01*
X148814846Y-57850185D01*
X148822118Y-57855233D01*
X148893669Y-57908796D01*
X148893670Y-57908796D01*
X148893671Y-57908797D01*
X149028517Y-57959091D01*
X149028516Y-57959091D01*
X149035444Y-57959835D01*
X149088127Y-57965500D01*
X151775500Y-57965499D01*
X151784185Y-57968049D01*
X151793147Y-57966761D01*
X151817187Y-57977739D01*
X151842539Y-57985184D01*
X151848466Y-57992024D01*
X151856703Y-57995786D01*
X151870990Y-58018018D01*
X151888294Y-58037987D01*
X151890581Y-58048502D01*
X151894477Y-58054564D01*
X151899500Y-58089499D01*
X151899500Y-58106000D01*
X151879815Y-58173039D01*
X151827011Y-58218794D01*
X151775500Y-58230000D01*
X150099551Y-58230000D01*
X150975094Y-59105543D01*
X151008579Y-59166866D01*
X151003595Y-59236558D01*
X150975095Y-59280905D01*
X150886000Y-59370000D01*
X150975094Y-59459094D01*
X151008579Y-59520417D01*
X151003595Y-59590109D01*
X150975094Y-59634456D01*
X150099551Y-60509999D01*
X150099552Y-60510000D01*
X151775500Y-60510000D01*
X151784185Y-60512550D01*
X151793147Y-60511262D01*
X151817187Y-60522240D01*
X151842539Y-60529685D01*
X151848466Y-60536525D01*
X151856703Y-60540287D01*
X151870992Y-60562521D01*
X151888294Y-60582489D01*
X151890581Y-60593003D01*
X151894477Y-60599065D01*
X151899500Y-60634000D01*
X151899500Y-60645500D01*
X151879815Y-60712539D01*
X151827011Y-60758294D01*
X151775500Y-60769500D01*
X149135997Y-60769500D01*
X149064059Y-60774644D01*
X148926005Y-60815182D01*
X148804969Y-60892967D01*
X148804965Y-60892971D01*
X148710750Y-61001700D01*
X148710744Y-61001709D01*
X148650976Y-61132580D01*
X148650975Y-61132585D01*
X148640831Y-61203146D01*
X148611806Y-61266702D01*
X148553029Y-61304477D01*
X148518093Y-61309500D01*
X141972943Y-61309500D01*
X141820210Y-61350424D01*
X141770096Y-61379359D01*
X141770095Y-61379360D01*
X141734342Y-61400002D01*
X141683285Y-61429479D01*
X141683282Y-61429481D01*
X140955339Y-62157425D01*
X140894016Y-62190910D01*
X140891850Y-62191361D01*
X140736508Y-62222261D01*
X140736498Y-62222264D01*
X140590827Y-62282602D01*
X140590814Y-62282609D01*
X140459711Y-62370210D01*
X140459707Y-62370213D01*
X140348213Y-62481707D01*
X140348210Y-62481711D01*
X140260609Y-62612814D01*
X140260606Y-62612821D01*
X140249041Y-62640741D01*
X140205199Y-62695144D01*
X140138905Y-62717208D01*
X140110289Y-62714905D01*
X140065681Y-62706032D01*
X140032842Y-62699500D01*
X139875158Y-62699500D01*
X139875155Y-62699500D01*
X139720510Y-62730261D01*
X139720498Y-62730264D01*
X139574827Y-62790602D01*
X139574814Y-62790609D01*
X139443711Y-62878210D01*
X139443707Y-62878213D01*
X139332213Y-62989707D01*
X139332210Y-62989711D01*
X139244609Y-63120814D01*
X139244602Y-63120827D01*
X139184264Y-63266498D01*
X139184261Y-63266510D01*
X139153500Y-63421153D01*
X139153500Y-63578846D01*
X139184261Y-63733489D01*
X139184264Y-63733501D01*
X139244602Y-63879172D01*
X139244609Y-63879185D01*
X139332210Y-64010288D01*
X139332213Y-64010292D01*
X139443707Y-64121786D01*
X139443711Y-64121789D01*
X139574814Y-64209390D01*
X139574827Y-64209397D01*
X139710759Y-64265701D01*
X139720503Y-64269737D01*
X139785147Y-64282595D01*
X139875849Y-64300638D01*
X139937760Y-64333023D01*
X139939339Y-64334574D01*
X140668083Y-65063318D01*
X140701568Y-65124641D01*
X140696584Y-65194333D01*
X140668083Y-65238680D01*
X137302345Y-68604418D01*
X137302338Y-68604425D01*
X137299286Y-68607478D01*
X137299284Y-68607480D01*
X137187480Y-68719284D01*
X137163806Y-68760289D01*
X137108423Y-68856215D01*
X137067499Y-69008943D01*
X137067499Y-69008945D01*
X137067499Y-69177046D01*
X137067500Y-69177059D01*
X137067500Y-70286234D01*
X137047815Y-70353273D01*
X137046602Y-70355125D01*
X136958609Y-70486814D01*
X136958602Y-70486827D01*
X136898264Y-70632498D01*
X136898261Y-70632510D01*
X136867500Y-70787153D01*
X136867500Y-70944846D01*
X136898261Y-71099489D01*
X136898264Y-71099501D01*
X136958602Y-71245172D01*
X136958609Y-71245185D01*
X137046210Y-71376288D01*
X137046213Y-71376292D01*
X137157707Y-71487786D01*
X137157711Y-71487789D01*
X137288814Y-71575390D01*
X137288827Y-71575397D01*
X137434498Y-71635735D01*
X137434503Y-71635737D01*
X137589153Y-71666499D01*
X137589156Y-71666500D01*
X137705500Y-71666500D01*
X137772539Y-71686185D01*
X137818294Y-71738989D01*
X137829500Y-71790500D01*
X137829500Y-73588234D01*
X137809815Y-73655273D01*
X137808602Y-73657125D01*
X137720609Y-73788814D01*
X137720602Y-73788827D01*
X137660264Y-73934498D01*
X137660261Y-73934510D01*
X137629500Y-74089153D01*
X137629500Y-74246846D01*
X137660261Y-74401489D01*
X137660264Y-74401501D01*
X137720602Y-74547172D01*
X137720609Y-74547185D01*
X137808210Y-74678288D01*
X137808213Y-74678292D01*
X137919707Y-74789786D01*
X137919711Y-74789789D01*
X138050814Y-74877390D01*
X138050827Y-74877397D01*
X138196498Y-74937735D01*
X138196503Y-74937737D01*
X138351153Y-74968499D01*
X138351156Y-74968500D01*
X138351158Y-74968500D01*
X138508843Y-74968500D01*
X138532686Y-74963757D01*
X138563984Y-74957531D01*
X138633574Y-74963757D01*
X138680454Y-74996319D01*
X138689098Y-75005949D01*
X138711480Y-75044716D01*
X138823284Y-75156520D01*
X138823286Y-75156521D01*
X139585284Y-75918520D01*
X139585286Y-75918521D01*
X139585290Y-75918524D01*
X139710944Y-75991069D01*
X139722216Y-75997577D01*
X139874943Y-76038501D01*
X139874945Y-76038501D01*
X140040654Y-76038501D01*
X140040670Y-76038500D01*
X141471658Y-76038500D01*
X141538697Y-76058185D01*
X141584452Y-76110989D01*
X141594396Y-76180147D01*
X141582143Y-76218793D01*
X141567962Y-76246626D01*
X141548128Y-76285552D01*
X141494597Y-76450302D01*
X141467500Y-76621389D01*
X141467500Y-76794610D01*
X141491303Y-76944902D01*
X141494598Y-76965701D01*
X141535254Y-77090827D01*
X141548128Y-77130447D01*
X141582143Y-77197205D01*
X141595039Y-77265874D01*
X141568763Y-77330615D01*
X141511656Y-77370872D01*
X141471658Y-77377500D01*
X138678097Y-77377500D01*
X138611058Y-77357815D01*
X138590416Y-77341181D01*
X133736819Y-72487584D01*
X133703334Y-72426261D01*
X133700500Y-72399903D01*
X133700500Y-68829765D01*
X133720185Y-68762726D01*
X133721398Y-68760874D01*
X133809390Y-68629185D01*
X133809390Y-68629184D01*
X133809394Y-68629179D01*
X133869737Y-68483497D01*
X133900500Y-68328842D01*
X133900500Y-68171158D01*
X133900500Y-68171155D01*
X133900499Y-68171153D01*
X133892920Y-68133050D01*
X133869737Y-68016503D01*
X133844690Y-67956034D01*
X133809397Y-67870827D01*
X133809390Y-67870814D01*
X133721789Y-67739711D01*
X133721786Y-67739707D01*
X133610292Y-67628213D01*
X133610288Y-67628210D01*
X133479185Y-67540609D01*
X133479172Y-67540602D01*
X133333501Y-67480264D01*
X133333491Y-67480261D01*
X133178151Y-67449362D01*
X133116241Y-67416977D01*
X133114662Y-67415426D01*
X133036717Y-67337481D01*
X133036716Y-67337480D01*
X132940335Y-67281835D01*
X132940334Y-67281834D01*
X132899783Y-67258422D01*
X132843881Y-67243443D01*
X132747057Y-67217499D01*
X132588943Y-67217499D01*
X132581347Y-67217499D01*
X132581331Y-67217500D01*
X130931098Y-67217500D01*
X130909852Y-67211261D01*
X130887766Y-67209682D01*
X130876982Y-67201609D01*
X130864059Y-67197815D01*
X130849560Y-67181082D01*
X130831832Y-67167812D01*
X130827123Y-67155189D01*
X130818304Y-67145011D01*
X130815152Y-67123095D01*
X130807414Y-67102348D01*
X130810277Y-67089185D01*
X130808360Y-67075853D01*
X130817558Y-67055710D01*
X130822265Y-67034075D01*
X130835534Y-67016348D01*
X130837385Y-67012297D01*
X130843401Y-67005834D01*
X130932520Y-66916716D01*
X130932521Y-66916713D01*
X133614662Y-64234572D01*
X133675983Y-64201089D01*
X133678150Y-64200638D01*
X133736085Y-64189113D01*
X133833497Y-64169737D01*
X133979179Y-64109394D01*
X134110289Y-64021789D01*
X134221789Y-63910289D01*
X134309394Y-63779179D01*
X134369737Y-63633497D01*
X134400500Y-63478842D01*
X134400500Y-63321158D01*
X134400500Y-63321155D01*
X134400499Y-63321153D01*
X134386851Y-63252539D01*
X134369737Y-63166503D01*
X134334233Y-63080787D01*
X134309397Y-63020827D01*
X134309390Y-63020814D01*
X134221789Y-62889711D01*
X134221786Y-62889707D01*
X134110292Y-62778213D01*
X134110288Y-62778210D01*
X133979185Y-62690609D01*
X133979172Y-62690602D01*
X133833501Y-62630264D01*
X133833489Y-62630261D01*
X133678845Y-62599500D01*
X133678842Y-62599500D01*
X133521158Y-62599500D01*
X133521155Y-62599500D01*
X133366510Y-62630261D01*
X133366498Y-62630264D01*
X133220827Y-62690602D01*
X133220814Y-62690609D01*
X133089711Y-62778210D01*
X133089707Y-62778213D01*
X132978213Y-62889707D01*
X132978210Y-62889711D01*
X132890609Y-63020814D01*
X132890602Y-63020827D01*
X132830264Y-63166498D01*
X132830261Y-63166508D01*
X132799361Y-63321850D01*
X132766976Y-63383761D01*
X132765425Y-63385339D01*
X130239584Y-65911181D01*
X130178261Y-65944666D01*
X130151903Y-65947500D01*
X126355185Y-65947500D01*
X126288146Y-65927815D01*
X126254867Y-65896386D01*
X126207414Y-65831072D01*
X126084928Y-65708586D01*
X126080796Y-65705584D01*
X126038133Y-65650255D01*
X126032154Y-65580642D01*
X126064760Y-65518847D01*
X126110351Y-65489086D01*
X126210328Y-65451797D01*
X126210327Y-65451797D01*
X126210331Y-65451796D01*
X126325546Y-65365546D01*
X126411796Y-65250331D01*
X126462091Y-65115483D01*
X126468500Y-65055873D01*
X126468499Y-62960128D01*
X126462091Y-62900517D01*
X126453772Y-62878213D01*
X126411797Y-62765671D01*
X126411793Y-62765664D01*
X126325547Y-62650455D01*
X126325544Y-62650452D01*
X126210335Y-62564206D01*
X126210328Y-62564202D01*
X126075482Y-62513908D01*
X126075483Y-62513908D01*
X126015883Y-62507501D01*
X126015881Y-62507500D01*
X126015873Y-62507500D01*
X126015865Y-62507500D01*
X125692500Y-62507500D01*
X125625461Y-62487815D01*
X125579706Y-62435011D01*
X125568500Y-62383500D01*
X125568500Y-60523765D01*
X125588185Y-60456726D01*
X125589398Y-60454874D01*
X125677390Y-60323185D01*
X125677390Y-60323184D01*
X125677394Y-60323179D01*
X125737737Y-60177497D01*
X125768500Y-60022842D01*
X125768500Y-59924500D01*
X125788185Y-59857461D01*
X125840989Y-59811706D01*
X125892500Y-59800500D01*
X129020234Y-59800500D01*
X129087273Y-59820185D01*
X129089125Y-59821398D01*
X129220814Y-59909390D01*
X129220827Y-59909397D01*
X129366498Y-59969735D01*
X129366503Y-59969737D01*
X129521153Y-60000499D01*
X129521156Y-60000500D01*
X129521158Y-60000500D01*
X129678844Y-60000500D01*
X129678845Y-60000499D01*
X129833497Y-59969737D01*
X129979179Y-59909394D01*
X130110289Y-59821789D01*
X130221789Y-59710289D01*
X130309394Y-59579179D01*
X130369737Y-59433497D01*
X130400500Y-59278842D01*
X130400500Y-59121158D01*
X130400500Y-59121155D01*
X130400499Y-59121153D01*
X130396789Y-59102500D01*
X130369737Y-58966503D01*
X130360098Y-58943232D01*
X130309397Y-58820827D01*
X130309390Y-58820814D01*
X130295123Y-58799462D01*
X130252051Y-58735001D01*
X148631000Y-58735001D01*
X148631000Y-60005002D01*
X148636140Y-60076870D01*
X148676634Y-60214781D01*
X148754345Y-60335703D01*
X148862976Y-60429832D01*
X148862977Y-60429833D01*
X148993721Y-60489543D01*
X148993725Y-60489544D01*
X149136001Y-60509999D01*
X149136003Y-60510000D01*
X149496000Y-60510000D01*
X149503030Y-60493025D01*
X149498420Y-60484581D01*
X149503404Y-60414889D01*
X149531905Y-60370542D01*
X150037883Y-59864563D01*
X150058174Y-59870000D01*
X150189826Y-59870000D01*
X150316993Y-59835925D01*
X150431007Y-59770099D01*
X150524099Y-59677007D01*
X150589925Y-59562993D01*
X150624000Y-59435826D01*
X150624000Y-59304174D01*
X150589925Y-59177007D01*
X150524099Y-59062993D01*
X150431007Y-58969901D01*
X150316993Y-58904075D01*
X150189826Y-58870000D01*
X150058174Y-58870000D01*
X150037884Y-58875436D01*
X149531905Y-58369457D01*
X149498420Y-58308134D01*
X149502828Y-58246486D01*
X149496000Y-58230000D01*
X149135997Y-58230000D01*
X149064129Y-58235140D01*
X148926218Y-58275634D01*
X148805296Y-58353345D01*
X148711167Y-58461976D01*
X148711166Y-58461977D01*
X148651456Y-58592721D01*
X148651455Y-58592725D01*
X148631000Y-58735001D01*
X130252051Y-58735001D01*
X130221789Y-58689711D01*
X130221786Y-58689707D01*
X130110292Y-58578213D01*
X130110288Y-58578210D01*
X129979185Y-58490609D01*
X129979172Y-58490602D01*
X129833501Y-58430264D01*
X129833489Y-58430261D01*
X129678845Y-58399500D01*
X129678842Y-58399500D01*
X129521158Y-58399500D01*
X129521155Y-58399500D01*
X129366510Y-58430261D01*
X129366498Y-58430264D01*
X129220827Y-58490602D01*
X129220814Y-58490609D01*
X129089125Y-58578602D01*
X129022447Y-58599480D01*
X129020234Y-58599500D01*
X121320940Y-58599500D01*
X121280019Y-58610464D01*
X121280019Y-58610465D01*
X121242751Y-58620451D01*
X121168214Y-58640423D01*
X121168209Y-58640426D01*
X121031290Y-58719475D01*
X121031282Y-58719481D01*
X119915481Y-59835282D01*
X119915479Y-59835285D01*
X119902676Y-59857461D01*
X119872693Y-59909394D01*
X119836423Y-59972215D01*
X119795499Y-60124943D01*
X119795499Y-60124945D01*
X119795499Y-60293046D01*
X119795500Y-60293059D01*
X119795500Y-63882270D01*
X119775815Y-63949309D01*
X119738133Y-63986191D01*
X119738248Y-63986349D01*
X119737176Y-63987127D01*
X119736285Y-63988000D01*
X119734309Y-63989210D01*
X119573533Y-64106021D01*
X119433021Y-64246533D01*
X119316213Y-64407305D01*
X119236485Y-64563780D01*
X119188510Y-64614576D01*
X119120689Y-64631371D01*
X119054554Y-64608833D01*
X119015515Y-64563780D01*
X118947577Y-64430445D01*
X118935787Y-64407306D01*
X118818981Y-64246536D01*
X118678464Y-64106019D01*
X118517694Y-63989213D01*
X118478966Y-63969480D01*
X118340632Y-63898994D01*
X118340629Y-63898993D01*
X118151637Y-63837587D01*
X118053498Y-63822043D01*
X117955361Y-63806500D01*
X117756639Y-63806500D01*
X117702972Y-63815000D01*
X117560362Y-63837587D01*
X117371370Y-63898993D01*
X117371367Y-63898994D01*
X117194305Y-63989213D01*
X117033533Y-64106021D01*
X116893021Y-64246533D01*
X116776213Y-64407305D01*
X116696485Y-64563780D01*
X116648510Y-64614576D01*
X116580689Y-64631371D01*
X116514554Y-64608833D01*
X116475515Y-64563780D01*
X116407577Y-64430445D01*
X116395787Y-64407306D01*
X116278981Y-64246536D01*
X116138464Y-64106019D01*
X116001235Y-64006316D01*
X115977690Y-63989210D01*
X115975715Y-63988000D01*
X115975121Y-63987343D01*
X115973752Y-63986349D01*
X115973960Y-63986061D01*
X115928837Y-63936190D01*
X115916500Y-63882270D01*
X115916500Y-61984097D01*
X115936185Y-61917058D01*
X115952819Y-61896416D01*
X116956268Y-60892967D01*
X118014662Y-59834572D01*
X118075983Y-59801089D01*
X118078150Y-59800638D01*
X118136085Y-59789113D01*
X118233497Y-59769737D01*
X118379179Y-59709394D01*
X118510289Y-59621789D01*
X118621789Y-59510289D01*
X118709394Y-59379179D01*
X118713197Y-59369999D01*
X118750954Y-59278844D01*
X118769737Y-59233497D01*
X118800500Y-59078842D01*
X118800500Y-58921158D01*
X118800500Y-58921155D01*
X118800499Y-58921153D01*
X118769737Y-58766503D01*
X118737929Y-58689711D01*
X118709397Y-58620827D01*
X118709390Y-58620814D01*
X118621789Y-58489711D01*
X118621786Y-58489707D01*
X118510292Y-58378213D01*
X118510288Y-58378210D01*
X118379185Y-58290609D01*
X118379172Y-58290602D01*
X118233501Y-58230264D01*
X118233489Y-58230261D01*
X118078845Y-58199500D01*
X118078842Y-58199500D01*
X117921158Y-58199500D01*
X117921155Y-58199500D01*
X117766510Y-58230261D01*
X117766498Y-58230264D01*
X117620827Y-58290602D01*
X117620814Y-58290609D01*
X117489711Y-58378210D01*
X117489707Y-58378213D01*
X117378213Y-58489707D01*
X117378210Y-58489711D01*
X117290609Y-58620814D01*
X117290602Y-58620827D01*
X117230264Y-58766498D01*
X117230261Y-58766508D01*
X117199361Y-58921850D01*
X117166976Y-58983761D01*
X117165425Y-58985339D01*
X114835481Y-61315282D01*
X114835477Y-61315287D01*
X114819455Y-61343041D01*
X114815193Y-61350423D01*
X114756423Y-61452215D01*
X114715499Y-61604943D01*
X114715499Y-61604945D01*
X114715499Y-61773046D01*
X114715500Y-61773059D01*
X114715500Y-63882270D01*
X114695815Y-63949309D01*
X114658133Y-63986191D01*
X114658248Y-63986349D01*
X114657176Y-63987127D01*
X114656285Y-63988000D01*
X114654309Y-63989210D01*
X114493533Y-64106021D01*
X114353021Y-64246533D01*
X114236213Y-64407305D01*
X114156485Y-64563780D01*
X114108510Y-64614576D01*
X114040689Y-64631371D01*
X113974554Y-64608833D01*
X113935515Y-64563780D01*
X113867577Y-64430445D01*
X113855787Y-64407306D01*
X113738981Y-64246536D01*
X113598464Y-64106019D01*
X113437694Y-63989213D01*
X113398966Y-63969480D01*
X113260632Y-63898994D01*
X113260629Y-63898993D01*
X113071637Y-63837587D01*
X112973498Y-63822043D01*
X112875361Y-63806500D01*
X112676639Y-63806500D01*
X112622972Y-63815000D01*
X112480362Y-63837587D01*
X112291370Y-63898993D01*
X112291356Y-63898999D01*
X112286786Y-63901328D01*
X112218116Y-63914219D01*
X112153377Y-63887937D01*
X112113125Y-63830828D01*
X112106500Y-63790839D01*
X112106500Y-60116945D01*
X112106500Y-60116943D01*
X112065577Y-59964216D01*
X112033928Y-59909397D01*
X111986524Y-59827290D01*
X111986521Y-59827286D01*
X111986520Y-59827284D01*
X111874716Y-59715480D01*
X111874715Y-59715479D01*
X111870385Y-59711149D01*
X111870374Y-59711139D01*
X105665556Y-53506321D01*
X105632071Y-53444998D01*
X105637055Y-53375306D01*
X105642749Y-53362350D01*
X105651873Y-53344445D01*
X105705402Y-53179701D01*
X105732500Y-53008611D01*
X105732500Y-52835389D01*
X105705402Y-52664299D01*
X105651873Y-52499555D01*
X105573232Y-52345212D01*
X105471414Y-52205072D01*
X105348928Y-52082586D01*
X105208788Y-51980768D01*
X105054445Y-51902127D01*
X104889701Y-51848598D01*
X104889699Y-51848597D01*
X104889698Y-51848597D01*
X104758271Y-51827781D01*
X104718611Y-51821500D01*
X103745389Y-51821500D01*
X103705728Y-51827781D01*
X103574302Y-51848597D01*
X103409552Y-51902128D01*
X103255211Y-51980768D01*
X103175256Y-52038859D01*
X103115072Y-52082586D01*
X103115070Y-52082588D01*
X103115069Y-52082588D01*
X102992588Y-52205069D01*
X102992588Y-52205070D01*
X102992586Y-52205072D01*
X102948859Y-52265256D01*
X102890768Y-52345211D01*
X102812128Y-52499552D01*
X102758597Y-52664302D01*
X102731500Y-52835389D01*
X102731500Y-53008610D01*
X102755621Y-53160909D01*
X102758598Y-53179701D01*
X102812127Y-53344445D01*
X102890768Y-53498788D01*
X102992586Y-53638928D01*
X103115072Y-53761414D01*
X103255212Y-53863232D01*
X103409555Y-53941873D01*
X103574299Y-53995402D01*
X103745389Y-54022500D01*
X104431903Y-54022500D01*
X104461343Y-54031144D01*
X104491330Y-54037668D01*
X104496345Y-54041422D01*
X104498942Y-54042185D01*
X104519584Y-54058819D01*
X104610584Y-54149819D01*
X104644069Y-54211142D01*
X104639085Y-54280834D01*
X104597213Y-54336767D01*
X104531749Y-54361184D01*
X104522903Y-54361500D01*
X103745389Y-54361500D01*
X103705728Y-54367781D01*
X103574302Y-54388597D01*
X103409552Y-54442128D01*
X103255211Y-54520768D01*
X103175256Y-54578859D01*
X103115072Y-54622586D01*
X103115070Y-54622588D01*
X103115069Y-54622588D01*
X102992588Y-54745069D01*
X102992583Y-54745075D01*
X102945134Y-54810384D01*
X102889804Y-54853050D01*
X102844816Y-54861499D01*
X102708943Y-54861499D01*
X102601587Y-54890265D01*
X102556210Y-54902424D01*
X102556209Y-54902425D01*
X102506096Y-54931359D01*
X102506095Y-54931360D01*
X102480866Y-54945926D01*
X102419285Y-54981479D01*
X102419282Y-54981481D01*
X102312181Y-55088583D01*
X102250858Y-55122068D01*
X102181166Y-55117084D01*
X102125233Y-55075212D01*
X102100816Y-55009748D01*
X102100500Y-55000902D01*
X102100500Y-51424500D01*
X102120185Y-51357461D01*
X102172989Y-51311706D01*
X102224500Y-51300500D01*
X151775500Y-51300500D01*
X151842539Y-51320185D01*
G37*
%TD.AperFunction*%
%TA.AperFunction,Conductor*%
G36*
X148595423Y-75356325D02*
G01*
X148651356Y-75398197D01*
X148671065Y-75437570D01*
X148676180Y-75454989D01*
X148676182Y-75454994D01*
X148753967Y-75576030D01*
X148753971Y-75576034D01*
X148812824Y-75627031D01*
X148862706Y-75670254D01*
X148901842Y-75688127D01*
X148993580Y-75730023D01*
X148993583Y-75730023D01*
X148993584Y-75730024D01*
X149136000Y-75750500D01*
X151775500Y-75750500D01*
X151784185Y-75753050D01*
X151793147Y-75751762D01*
X151817187Y-75762740D01*
X151842539Y-75770185D01*
X151848466Y-75777025D01*
X151856703Y-75780787D01*
X151870992Y-75803021D01*
X151888294Y-75822989D01*
X151890581Y-75833503D01*
X151894477Y-75839565D01*
X151899500Y-75874500D01*
X151899500Y-75885500D01*
X151879815Y-75952539D01*
X151827011Y-75998294D01*
X151775500Y-76009500D01*
X149135997Y-76009500D01*
X149064059Y-76014644D01*
X148926005Y-76055182D01*
X148804969Y-76132967D01*
X148804965Y-76132971D01*
X148710750Y-76241700D01*
X148710744Y-76241709D01*
X148650976Y-76372580D01*
X148650975Y-76372585D01*
X148640831Y-76443146D01*
X148640831Y-76443147D01*
X148611806Y-76506703D01*
X148576024Y-76529698D01*
X148553029Y-76544477D01*
X148518093Y-76549500D01*
X148336669Y-76549500D01*
X148336653Y-76549499D01*
X148329057Y-76549499D01*
X148170943Y-76549499D01*
X148018215Y-76590423D01*
X148018214Y-76590423D01*
X147968185Y-76619308D01*
X147968184Y-76619309D01*
X147881285Y-76669479D01*
X147881282Y-76669481D01*
X147769480Y-76781284D01*
X147769478Y-76781286D01*
X147484697Y-77066068D01*
X147209584Y-77341181D01*
X147148261Y-77374666D01*
X147121903Y-77377500D01*
X144464342Y-77377500D01*
X144397303Y-77357815D01*
X144351548Y-77305011D01*
X144341604Y-77235853D01*
X144353857Y-77197205D01*
X144387873Y-77130445D01*
X144441402Y-76965701D01*
X144468500Y-76794611D01*
X144468500Y-76621389D01*
X144441402Y-76450299D01*
X144387873Y-76285555D01*
X144353856Y-76218793D01*
X144340961Y-76150126D01*
X144367237Y-76085385D01*
X144424344Y-76045128D01*
X144464342Y-76038500D01*
X147475331Y-76038500D01*
X147475347Y-76038501D01*
X147482943Y-76038501D01*
X147641054Y-76038501D01*
X147641057Y-76038501D01*
X147793785Y-75997577D01*
X147843904Y-75968639D01*
X147930716Y-75918520D01*
X148042520Y-75806716D01*
X148042520Y-75806714D01*
X148052728Y-75796507D01*
X148052729Y-75796504D01*
X148464409Y-75384825D01*
X148525731Y-75351341D01*
X148595423Y-75356325D01*
G37*
%TD.AperFunction*%
%TA.AperFunction,Conductor*%
G36*
X124110539Y-59820185D02*
G01*
X124156294Y-59872989D01*
X124167500Y-59924500D01*
X124167500Y-60022846D01*
X124198261Y-60177489D01*
X124198264Y-60177501D01*
X124258602Y-60323172D01*
X124258609Y-60323185D01*
X124346602Y-60454874D01*
X124367480Y-60521551D01*
X124367500Y-60523765D01*
X124367500Y-62383500D01*
X124347815Y-62450539D01*
X124295011Y-62496294D01*
X124243500Y-62507500D01*
X123920130Y-62507500D01*
X123920123Y-62507501D01*
X123860516Y-62513908D01*
X123725671Y-62564202D01*
X123725664Y-62564206D01*
X123610455Y-62650452D01*
X123610452Y-62650455D01*
X123524206Y-62765664D01*
X123524202Y-62765671D01*
X123473908Y-62900517D01*
X123467501Y-62960116D01*
X123467501Y-62960123D01*
X123467500Y-62960135D01*
X123467500Y-65055870D01*
X123467501Y-65055876D01*
X123473908Y-65115483D01*
X123524202Y-65250328D01*
X123524206Y-65250335D01*
X123610452Y-65365544D01*
X123610455Y-65365547D01*
X123725664Y-65451793D01*
X123725671Y-65451797D01*
X123825648Y-65489086D01*
X123881582Y-65530957D01*
X123905999Y-65596421D01*
X123891148Y-65664694D01*
X123855207Y-65705581D01*
X123851077Y-65708581D01*
X123851069Y-65708588D01*
X123728588Y-65831069D01*
X123728588Y-65831070D01*
X123728586Y-65831072D01*
X123694127Y-65878501D01*
X123626768Y-65971211D01*
X123548128Y-66125552D01*
X123548127Y-66125554D01*
X123548127Y-66125555D01*
X123540579Y-66148786D01*
X123494597Y-66290302D01*
X123468709Y-66453753D01*
X123467500Y-66461389D01*
X123467500Y-66634611D01*
X123494598Y-66805701D01*
X123548127Y-66970445D01*
X123577717Y-67028520D01*
X123582143Y-67037205D01*
X123595039Y-67105874D01*
X123568763Y-67170615D01*
X123511656Y-67210872D01*
X123471658Y-67217500D01*
X122302941Y-67217500D01*
X122286950Y-67221784D01*
X122286951Y-67221785D01*
X122150214Y-67258423D01*
X122150209Y-67258426D01*
X122013290Y-67337475D01*
X122013282Y-67337481D01*
X112318181Y-77032583D01*
X112256858Y-77066068D01*
X112187166Y-77061084D01*
X112131233Y-77019212D01*
X112106816Y-76953748D01*
X112106500Y-76944902D01*
X112106500Y-66347160D01*
X112126185Y-66280121D01*
X112178989Y-66234366D01*
X112248147Y-66224422D01*
X112286796Y-66236676D01*
X112291363Y-66239003D01*
X112291370Y-66239006D01*
X112385866Y-66269709D01*
X112480364Y-66300413D01*
X112676639Y-66331500D01*
X112676640Y-66331500D01*
X112875360Y-66331500D01*
X112875361Y-66331500D01*
X113071636Y-66300413D01*
X113260632Y-66239005D01*
X113437694Y-66148787D01*
X113598464Y-66031981D01*
X113738981Y-65891464D01*
X113855787Y-65730694D01*
X113935515Y-65574218D01*
X113983490Y-65523423D01*
X114051311Y-65506628D01*
X114117446Y-65529165D01*
X114156484Y-65574218D01*
X114236213Y-65730694D01*
X114353019Y-65891464D01*
X114493536Y-66031981D01*
X114654306Y-66148787D01*
X114715500Y-66179967D01*
X114831367Y-66239005D01*
X114831370Y-66239006D01*
X114925866Y-66269709D01*
X115020364Y-66300413D01*
X115216639Y-66331500D01*
X115216640Y-66331500D01*
X115415360Y-66331500D01*
X115415361Y-66331500D01*
X115611636Y-66300413D01*
X115800632Y-66239005D01*
X115977694Y-66148787D01*
X116138464Y-66031981D01*
X116278981Y-65891464D01*
X116395787Y-65730694D01*
X116475515Y-65574218D01*
X116523490Y-65523423D01*
X116591311Y-65506628D01*
X116657446Y-65529165D01*
X116696484Y-65574218D01*
X116776213Y-65730694D01*
X116893019Y-65891464D01*
X117033536Y-66031981D01*
X117194306Y-66148787D01*
X117255500Y-66179967D01*
X117371367Y-66239005D01*
X117371370Y-66239006D01*
X117465866Y-66269709D01*
X117560364Y-66300413D01*
X117756639Y-66331500D01*
X117756640Y-66331500D01*
X117955360Y-66331500D01*
X117955361Y-66331500D01*
X118151636Y-66300413D01*
X118340632Y-66239005D01*
X118517694Y-66148787D01*
X118678464Y-66031981D01*
X118818981Y-65891464D01*
X118935787Y-65730694D01*
X119015515Y-65574218D01*
X119063490Y-65523423D01*
X119131311Y-65506628D01*
X119197446Y-65529165D01*
X119236484Y-65574218D01*
X119316213Y-65730694D01*
X119433019Y-65891464D01*
X119573536Y-66031981D01*
X119734306Y-66148787D01*
X119795500Y-66179967D01*
X119911367Y-66239005D01*
X119911370Y-66239006D01*
X120005866Y-66269709D01*
X120100364Y-66300413D01*
X120296639Y-66331500D01*
X120296640Y-66331500D01*
X120495360Y-66331500D01*
X120495361Y-66331500D01*
X120691636Y-66300413D01*
X120880632Y-66239005D01*
X121057694Y-66148787D01*
X121218464Y-66031981D01*
X121358981Y-65891464D01*
X121475787Y-65730694D01*
X121566005Y-65553632D01*
X121627413Y-65364636D01*
X121658500Y-65168361D01*
X121658500Y-64969639D01*
X121627413Y-64773364D01*
X121573954Y-64608833D01*
X121566006Y-64584370D01*
X121566005Y-64584367D01*
X121487577Y-64430445D01*
X121475787Y-64407306D01*
X121358981Y-64246536D01*
X121218464Y-64106019D01*
X121081235Y-64006316D01*
X121057690Y-63989210D01*
X121055715Y-63988000D01*
X121055121Y-63987343D01*
X121053752Y-63986349D01*
X121053960Y-63986061D01*
X121008837Y-63936190D01*
X120996500Y-63882270D01*
X120996500Y-60504097D01*
X121016185Y-60437058D01*
X121032819Y-60416416D01*
X121612416Y-59836819D01*
X121673739Y-59803334D01*
X121700097Y-59800500D01*
X124043500Y-59800500D01*
X124110539Y-59820185D01*
G37*
%TD.AperFunction*%
%TA.AperFunction,Conductor*%
G36*
X148551197Y-72767755D02*
G01*
X148581804Y-72769944D01*
X148585460Y-72772681D01*
X148589980Y-72773331D01*
X148613173Y-72793427D01*
X148637737Y-72811816D01*
X148640296Y-72816928D01*
X148642785Y-72819085D01*
X148657446Y-72851189D01*
X148676181Y-72914992D01*
X148676182Y-72914993D01*
X148676182Y-72914994D01*
X148753967Y-73036030D01*
X148753971Y-73036034D01*
X148791687Y-73068715D01*
X148862706Y-73130254D01*
X148901842Y-73148127D01*
X148993580Y-73190023D01*
X148993583Y-73190023D01*
X148993584Y-73190024D01*
X149136000Y-73210500D01*
X151775500Y-73210500D01*
X151784185Y-73213050D01*
X151793147Y-73211762D01*
X151817187Y-73222740D01*
X151842539Y-73230185D01*
X151848466Y-73237025D01*
X151856703Y-73240787D01*
X151870992Y-73263021D01*
X151888294Y-73282989D01*
X151890581Y-73293503D01*
X151894477Y-73299565D01*
X151899500Y-73334500D01*
X151899500Y-73345500D01*
X151879815Y-73412539D01*
X151827011Y-73458294D01*
X151775500Y-73469500D01*
X149135997Y-73469500D01*
X149064059Y-73474644D01*
X148926005Y-73515182D01*
X148804969Y-73592967D01*
X148804965Y-73592971D01*
X148710750Y-73701700D01*
X148710744Y-73701709D01*
X148650976Y-73832580D01*
X148650975Y-73832585D01*
X148640831Y-73903146D01*
X148640831Y-73903147D01*
X148611806Y-73966703D01*
X148576024Y-73989698D01*
X148553029Y-74004477D01*
X148518093Y-74009500D01*
X148476669Y-74009500D01*
X148476653Y-74009499D01*
X148469057Y-74009499D01*
X148310943Y-74009499D01*
X148231010Y-74030917D01*
X148158216Y-74050422D01*
X148114781Y-74075500D01*
X148114780Y-74075499D01*
X148021287Y-74129477D01*
X148021282Y-74129481D01*
X147909478Y-74241286D01*
X147349584Y-74801181D01*
X147288261Y-74834666D01*
X147261903Y-74837500D01*
X144464342Y-74837500D01*
X144397303Y-74817815D01*
X144351548Y-74765011D01*
X144341604Y-74695853D01*
X144353857Y-74657205D01*
X144387873Y-74590445D01*
X144441402Y-74425701D01*
X144468500Y-74254611D01*
X144468500Y-74081389D01*
X144441402Y-73910299D01*
X144387873Y-73745555D01*
X144353856Y-73678793D01*
X144340961Y-73610126D01*
X144367237Y-73545385D01*
X144424344Y-73505128D01*
X144464342Y-73498500D01*
X147415331Y-73498500D01*
X147415347Y-73498501D01*
X147422943Y-73498501D01*
X147581054Y-73498501D01*
X147581057Y-73498501D01*
X147733785Y-73457577D01*
X147783904Y-73428639D01*
X147870716Y-73378520D01*
X147982520Y-73266716D01*
X147982520Y-73266714D01*
X147992728Y-73256507D01*
X147992729Y-73256504D01*
X148450790Y-72798444D01*
X148454796Y-72796256D01*
X148457266Y-72792414D01*
X148485183Y-72779663D01*
X148512112Y-72764960D01*
X148516666Y-72765285D01*
X148520822Y-72763388D01*
X148551197Y-72767755D01*
G37*
%TD.AperFunction*%
%TA.AperFunction,Conductor*%
G36*
X148537578Y-70181374D02*
G01*
X148568185Y-70183563D01*
X148571841Y-70186300D01*
X148576361Y-70186950D01*
X148599550Y-70207043D01*
X148624118Y-70225435D01*
X148626678Y-70230549D01*
X148629166Y-70232705D01*
X148643828Y-70264809D01*
X148670347Y-70355125D01*
X148676182Y-70374994D01*
X148753967Y-70496030D01*
X148753971Y-70496034D01*
X148796566Y-70532943D01*
X148862706Y-70590254D01*
X148901842Y-70608127D01*
X148993580Y-70650023D01*
X148993583Y-70650023D01*
X148993584Y-70650024D01*
X149136000Y-70670500D01*
X151775500Y-70670500D01*
X151784185Y-70673050D01*
X151793147Y-70671762D01*
X151817187Y-70682740D01*
X151842539Y-70690185D01*
X151848466Y-70697025D01*
X151856703Y-70700787D01*
X151870992Y-70723021D01*
X151888294Y-70742989D01*
X151890581Y-70753503D01*
X151894477Y-70759565D01*
X151899500Y-70794500D01*
X151899500Y-70805500D01*
X151879815Y-70872539D01*
X151827011Y-70918294D01*
X151775500Y-70929500D01*
X149135997Y-70929500D01*
X149064059Y-70934644D01*
X148926005Y-70975182D01*
X148804969Y-71052967D01*
X148804965Y-71052971D01*
X148710750Y-71161700D01*
X148710744Y-71161709D01*
X148650976Y-71292580D01*
X148650975Y-71292585D01*
X148640831Y-71363146D01*
X148640831Y-71363147D01*
X148611806Y-71426703D01*
X148576024Y-71449698D01*
X148553029Y-71464477D01*
X148518093Y-71469500D01*
X148416669Y-71469500D01*
X148416653Y-71469499D01*
X148409057Y-71469499D01*
X148250943Y-71469499D01*
X148098215Y-71510423D01*
X148098214Y-71510423D01*
X148048185Y-71539308D01*
X148048184Y-71539309D01*
X147961285Y-71589479D01*
X147961282Y-71589481D01*
X147900706Y-71650058D01*
X147849480Y-71701284D01*
X147849478Y-71701286D01*
X147564684Y-71986081D01*
X147289584Y-72261181D01*
X147228261Y-72294666D01*
X147201903Y-72297500D01*
X144464342Y-72297500D01*
X144397303Y-72277815D01*
X144351548Y-72225011D01*
X144341604Y-72155853D01*
X144353857Y-72117205D01*
X144354596Y-72115755D01*
X144387873Y-72050445D01*
X144441402Y-71885701D01*
X144468500Y-71714611D01*
X144468500Y-71541389D01*
X144441402Y-71370299D01*
X144387873Y-71205555D01*
X144353856Y-71138793D01*
X144340961Y-71070126D01*
X144367237Y-71005385D01*
X144424344Y-70965128D01*
X144464342Y-70958500D01*
X147355331Y-70958500D01*
X147355347Y-70958501D01*
X147362943Y-70958501D01*
X147521054Y-70958501D01*
X147521057Y-70958501D01*
X147673785Y-70917577D01*
X147723904Y-70888639D01*
X147810716Y-70838520D01*
X147922520Y-70726716D01*
X147922520Y-70726714D01*
X147932728Y-70716507D01*
X147932729Y-70716504D01*
X148437171Y-70212062D01*
X148441177Y-70209875D01*
X148443647Y-70206033D01*
X148471564Y-70193282D01*
X148498493Y-70178579D01*
X148503047Y-70178904D01*
X148507203Y-70177007D01*
X148537578Y-70181374D01*
G37*
%TD.AperFunction*%
%TA.AperFunction,Conductor*%
G36*
X148544292Y-67599744D02*
G01*
X148576087Y-67607860D01*
X148577650Y-67609539D01*
X148579850Y-67610185D01*
X148601329Y-67634973D01*
X148623696Y-67658998D01*
X148624662Y-67661900D01*
X148625605Y-67662989D01*
X148634841Y-67692486D01*
X148635643Y-67696937D01*
X148676182Y-67834994D01*
X148753967Y-67956030D01*
X148753971Y-67956034D01*
X148862168Y-68049788D01*
X148862706Y-68050254D01*
X148903174Y-68068735D01*
X148993580Y-68110023D01*
X148993583Y-68110023D01*
X148993584Y-68110024D01*
X149136000Y-68130500D01*
X151775500Y-68130500D01*
X151784185Y-68133050D01*
X151793147Y-68131762D01*
X151817187Y-68142740D01*
X151842539Y-68150185D01*
X151848466Y-68157025D01*
X151856703Y-68160787D01*
X151870992Y-68183021D01*
X151888294Y-68202989D01*
X151890581Y-68213503D01*
X151894477Y-68219565D01*
X151899500Y-68254500D01*
X151899500Y-68265500D01*
X151879815Y-68332539D01*
X151827011Y-68378294D01*
X151775500Y-68389500D01*
X149135997Y-68389500D01*
X149064059Y-68394644D01*
X148926005Y-68435182D01*
X148804969Y-68512967D01*
X148804965Y-68512971D01*
X148710750Y-68621700D01*
X148710744Y-68621709D01*
X148650976Y-68752580D01*
X148650975Y-68752585D01*
X148640831Y-68823146D01*
X148640831Y-68823147D01*
X148611806Y-68886703D01*
X148576024Y-68909698D01*
X148553029Y-68924477D01*
X148518093Y-68929500D01*
X148356669Y-68929500D01*
X148356653Y-68929499D01*
X148349057Y-68929499D01*
X148190943Y-68929499D01*
X148038215Y-68970423D01*
X148038214Y-68970423D01*
X147988185Y-68999308D01*
X147988184Y-68999309D01*
X147901285Y-69049479D01*
X147901282Y-69049481D01*
X147789478Y-69161286D01*
X147229584Y-69721181D01*
X147168261Y-69754666D01*
X147141903Y-69757500D01*
X144464342Y-69757500D01*
X144397303Y-69737815D01*
X144351548Y-69685011D01*
X144341604Y-69615853D01*
X144353857Y-69577205D01*
X144363897Y-69557500D01*
X144387873Y-69510445D01*
X144441402Y-69345701D01*
X144468500Y-69174611D01*
X144468500Y-69001389D01*
X144441402Y-68830299D01*
X144387873Y-68665555D01*
X144353856Y-68598793D01*
X144340961Y-68530126D01*
X144367237Y-68465385D01*
X144424344Y-68425128D01*
X144464342Y-68418500D01*
X147095331Y-68418500D01*
X147095347Y-68418501D01*
X147102943Y-68418501D01*
X147261054Y-68418501D01*
X147261057Y-68418501D01*
X147413785Y-68377577D01*
X147463904Y-68348639D01*
X147550716Y-68298520D01*
X147662520Y-68186716D01*
X147662520Y-68186714D01*
X147672728Y-68176507D01*
X147672729Y-68176504D01*
X148222416Y-67626819D01*
X148283739Y-67593334D01*
X148310097Y-67590500D01*
X148512811Y-67590500D01*
X148544292Y-67599744D01*
G37*
%TD.AperFunction*%
%TA.AperFunction,Conductor*%
G36*
X148544292Y-65059744D02*
G01*
X148576087Y-65067860D01*
X148577650Y-65069539D01*
X148579850Y-65070185D01*
X148601329Y-65094973D01*
X148623696Y-65118998D01*
X148624662Y-65121900D01*
X148625605Y-65122989D01*
X148634841Y-65152486D01*
X148635643Y-65156937D01*
X148676182Y-65294994D01*
X148753967Y-65416030D01*
X148753971Y-65416034D01*
X148860682Y-65508500D01*
X148862706Y-65510254D01*
X148869814Y-65513500D01*
X148993580Y-65570023D01*
X148993583Y-65570023D01*
X148993584Y-65570024D01*
X149136000Y-65590500D01*
X151775500Y-65590500D01*
X151784185Y-65593050D01*
X151793147Y-65591762D01*
X151817187Y-65602740D01*
X151842539Y-65610185D01*
X151848466Y-65617025D01*
X151856703Y-65620787D01*
X151870992Y-65643021D01*
X151888294Y-65662989D01*
X151890581Y-65673503D01*
X151894477Y-65679565D01*
X151899500Y-65714500D01*
X151899500Y-65725500D01*
X151879815Y-65792539D01*
X151827011Y-65838294D01*
X151775500Y-65849500D01*
X149135997Y-65849500D01*
X149064059Y-65854644D01*
X148926005Y-65895182D01*
X148804969Y-65972967D01*
X148804965Y-65972971D01*
X148710750Y-66081700D01*
X148710744Y-66081709D01*
X148650976Y-66212580D01*
X148650975Y-66212585D01*
X148640831Y-66283146D01*
X148611806Y-66346702D01*
X148553029Y-66384477D01*
X148518093Y-66389500D01*
X148096669Y-66389500D01*
X148096653Y-66389499D01*
X148089057Y-66389499D01*
X147930943Y-66389499D01*
X147778215Y-66430423D01*
X147778214Y-66430423D01*
X147728185Y-66459308D01*
X147728184Y-66459309D01*
X147641285Y-66509479D01*
X147641282Y-66509481D01*
X147529480Y-66621284D01*
X147529478Y-66621286D01*
X147234049Y-66916716D01*
X146969584Y-67181181D01*
X146908261Y-67214666D01*
X146881903Y-67217500D01*
X144464342Y-67217500D01*
X144397303Y-67197815D01*
X144351548Y-67145011D01*
X144341604Y-67075853D01*
X144353857Y-67037205D01*
X144355452Y-67034075D01*
X144387873Y-66970445D01*
X144441402Y-66805701D01*
X144468500Y-66634611D01*
X144468500Y-66461389D01*
X144441402Y-66290299D01*
X144387873Y-66125555D01*
X144353856Y-66058793D01*
X144340961Y-65990126D01*
X144367237Y-65925385D01*
X144424344Y-65885128D01*
X144464342Y-65878500D01*
X147235331Y-65878500D01*
X147235347Y-65878501D01*
X147242943Y-65878501D01*
X147401054Y-65878501D01*
X147401057Y-65878501D01*
X147553785Y-65837577D01*
X147613623Y-65803029D01*
X147690716Y-65758520D01*
X147802520Y-65646716D01*
X147802520Y-65646714D01*
X147812724Y-65636511D01*
X147812727Y-65636506D01*
X148362416Y-65086819D01*
X148423739Y-65053334D01*
X148450097Y-65050500D01*
X148512811Y-65050500D01*
X148544292Y-65059744D01*
G37*
%TD.AperFunction*%
%TA.AperFunction,Conductor*%
G36*
X148579850Y-62530185D02*
G01*
X148625605Y-62582989D01*
X148634841Y-62612486D01*
X148635643Y-62616937D01*
X148657274Y-62690602D01*
X148671459Y-62738912D01*
X148676182Y-62754994D01*
X148753967Y-62876030D01*
X148753971Y-62876034D01*
X148812824Y-62927031D01*
X148862706Y-62970254D01*
X148892184Y-62983716D01*
X148993580Y-63030023D01*
X148993583Y-63030023D01*
X148993584Y-63030024D01*
X149136000Y-63050500D01*
X151775500Y-63050500D01*
X151784185Y-63053050D01*
X151793147Y-63051762D01*
X151817187Y-63062740D01*
X151842539Y-63070185D01*
X151848466Y-63077025D01*
X151856703Y-63080787D01*
X151870992Y-63103021D01*
X151888294Y-63122989D01*
X151890581Y-63133503D01*
X151894477Y-63139565D01*
X151899500Y-63174500D01*
X151899500Y-63185500D01*
X151879815Y-63252539D01*
X151827011Y-63298294D01*
X151775500Y-63309500D01*
X149135997Y-63309500D01*
X149064059Y-63314644D01*
X148926005Y-63355182D01*
X148804969Y-63432967D01*
X148804965Y-63432971D01*
X148710750Y-63541700D01*
X148710744Y-63541709D01*
X148650976Y-63672580D01*
X148650975Y-63672585D01*
X148640831Y-63743146D01*
X148611806Y-63806702D01*
X148553029Y-63844477D01*
X148518093Y-63849500D01*
X148236669Y-63849500D01*
X148236653Y-63849499D01*
X148229057Y-63849499D01*
X148070943Y-63849499D01*
X147963587Y-63878265D01*
X147918210Y-63890424D01*
X147918209Y-63890425D01*
X147876221Y-63914668D01*
X147876219Y-63914669D01*
X147781290Y-63969475D01*
X147781282Y-63969481D01*
X147697030Y-64053734D01*
X147669480Y-64081284D01*
X147669478Y-64081286D01*
X147380482Y-64370283D01*
X147109584Y-64641181D01*
X147048261Y-64674666D01*
X147021903Y-64677500D01*
X144464342Y-64677500D01*
X144397303Y-64657815D01*
X144351548Y-64605011D01*
X144341604Y-64535853D01*
X144353857Y-64497205D01*
X144387873Y-64430445D01*
X144441402Y-64265701D01*
X144468500Y-64094611D01*
X144468500Y-63921389D01*
X144441402Y-63750299D01*
X144387873Y-63585555D01*
X144309232Y-63431212D01*
X144207414Y-63291072D01*
X144084928Y-63168586D01*
X143944788Y-63066768D01*
X143790445Y-62988127D01*
X143625701Y-62934598D01*
X143625699Y-62934597D01*
X143625698Y-62934597D01*
X143494271Y-62913781D01*
X143454611Y-62907500D01*
X142481389Y-62907500D01*
X142449192Y-62912599D01*
X142310301Y-62934597D01*
X142159129Y-62983716D01*
X142089288Y-62985711D01*
X142029455Y-62949630D01*
X141998627Y-62886929D01*
X142006592Y-62817515D01*
X142033127Y-62778107D01*
X142264416Y-62546819D01*
X142325739Y-62513334D01*
X142352097Y-62510500D01*
X148512811Y-62510500D01*
X148579850Y-62530185D01*
G37*
%TD.AperFunction*%
%TD*%
M02*
