%TF.GenerationSoftware,KiCad,Pcbnew,9.0.7*%
%TF.CreationDate,2026-03-08T18:10:04-04:00*%
%TF.ProjectId,ESP32c6 Agent PCB CPU,45535033-3263-4362-9041-67656e742050,5.0*%
%TF.SameCoordinates,Original*%
%TF.FileFunction,Legend,Bot*%
%TF.FilePolarity,Positive*%
%FSLAX46Y46*%
G04 Gerber Fmt 4.6, Leading zero omitted, Abs format (unit mm)*
G04 Created by KiCad (PCBNEW 9.0.7) date 2026-03-08 18:10:04*
%MOMM*%
%LPD*%
G01*
G04 APERTURE LIST*
%ADD10C,0.200000*%
G04 APERTURE END LIST*
D10*
X138682707Y-59813457D02*
X138754136Y-59742028D01*
X138754136Y-59742028D02*
X138896993Y-59527742D01*
X138896993Y-59527742D02*
X138968422Y-59384885D01*
X138968422Y-59384885D02*
X139039850Y-59170600D01*
X139039850Y-59170600D02*
X139111279Y-58813457D01*
X139111279Y-58813457D02*
X139111279Y-58527742D01*
X139111279Y-58527742D02*
X139039850Y-58170600D01*
X139039850Y-58170600D02*
X138968422Y-57956314D01*
X138968422Y-57956314D02*
X138896993Y-57813457D01*
X138896993Y-57813457D02*
X138754136Y-57599171D01*
X138754136Y-57599171D02*
X138682707Y-57527742D01*
X137468422Y-59170600D02*
X137611279Y-59242028D01*
X137611279Y-59242028D02*
X137896993Y-59242028D01*
X137896993Y-59242028D02*
X138039850Y-59170600D01*
X138039850Y-59170600D02*
X138111279Y-59099171D01*
X138111279Y-59099171D02*
X138182707Y-58956314D01*
X138182707Y-58956314D02*
X138182707Y-58527742D01*
X138182707Y-58527742D02*
X138111279Y-58384885D01*
X138111279Y-58384885D02*
X138039850Y-58313457D01*
X138039850Y-58313457D02*
X137896993Y-58242028D01*
X137896993Y-58242028D02*
X137611279Y-58242028D01*
X137611279Y-58242028D02*
X137468422Y-58313457D01*
X136968422Y-59813457D02*
X136896993Y-59742028D01*
X136896993Y-59742028D02*
X136754136Y-59527742D01*
X136754136Y-59527742D02*
X136682708Y-59384885D01*
X136682708Y-59384885D02*
X136611279Y-59170600D01*
X136611279Y-59170600D02*
X136539850Y-58813457D01*
X136539850Y-58813457D02*
X136539850Y-58527742D01*
X136539850Y-58527742D02*
X136611279Y-58170600D01*
X136611279Y-58170600D02*
X136682708Y-57956314D01*
X136682708Y-57956314D02*
X136754136Y-57813457D01*
X136754136Y-57813457D02*
X136896993Y-57599171D01*
X136896993Y-57599171D02*
X136968422Y-57527742D01*
X134754136Y-57884885D02*
X134682708Y-57813457D01*
X134682708Y-57813457D02*
X134539851Y-57742028D01*
X134539851Y-57742028D02*
X134182708Y-57742028D01*
X134182708Y-57742028D02*
X134039851Y-57813457D01*
X134039851Y-57813457D02*
X133968422Y-57884885D01*
X133968422Y-57884885D02*
X133896993Y-58027742D01*
X133896993Y-58027742D02*
X133896993Y-58170600D01*
X133896993Y-58170600D02*
X133968422Y-58384885D01*
X133968422Y-58384885D02*
X134825565Y-59242028D01*
X134825565Y-59242028D02*
X133896993Y-59242028D01*
X132968422Y-57742028D02*
X132825565Y-57742028D01*
X132825565Y-57742028D02*
X132682708Y-57813457D01*
X132682708Y-57813457D02*
X132611280Y-57884885D01*
X132611280Y-57884885D02*
X132539851Y-58027742D01*
X132539851Y-58027742D02*
X132468422Y-58313457D01*
X132468422Y-58313457D02*
X132468422Y-58670600D01*
X132468422Y-58670600D02*
X132539851Y-58956314D01*
X132539851Y-58956314D02*
X132611280Y-59099171D01*
X132611280Y-59099171D02*
X132682708Y-59170600D01*
X132682708Y-59170600D02*
X132825565Y-59242028D01*
X132825565Y-59242028D02*
X132968422Y-59242028D01*
X132968422Y-59242028D02*
X133111280Y-59170600D01*
X133111280Y-59170600D02*
X133182708Y-59099171D01*
X133182708Y-59099171D02*
X133254137Y-58956314D01*
X133254137Y-58956314D02*
X133325565Y-58670600D01*
X133325565Y-58670600D02*
X133325565Y-58313457D01*
X133325565Y-58313457D02*
X133254137Y-58027742D01*
X133254137Y-58027742D02*
X133182708Y-57884885D01*
X133182708Y-57884885D02*
X133111280Y-57813457D01*
X133111280Y-57813457D02*
X132968422Y-57742028D01*
X131896994Y-57884885D02*
X131825566Y-57813457D01*
X131825566Y-57813457D02*
X131682709Y-57742028D01*
X131682709Y-57742028D02*
X131325566Y-57742028D01*
X131325566Y-57742028D02*
X131182709Y-57813457D01*
X131182709Y-57813457D02*
X131111280Y-57884885D01*
X131111280Y-57884885D02*
X131039851Y-58027742D01*
X131039851Y-58027742D02*
X131039851Y-58170600D01*
X131039851Y-58170600D02*
X131111280Y-58384885D01*
X131111280Y-58384885D02*
X131968423Y-59242028D01*
X131968423Y-59242028D02*
X131039851Y-59242028D01*
X129754138Y-57742028D02*
X130039852Y-57742028D01*
X130039852Y-57742028D02*
X130182709Y-57813457D01*
X130182709Y-57813457D02*
X130254138Y-57884885D01*
X130254138Y-57884885D02*
X130396995Y-58099171D01*
X130396995Y-58099171D02*
X130468423Y-58384885D01*
X130468423Y-58384885D02*
X130468423Y-58956314D01*
X130468423Y-58956314D02*
X130396995Y-59099171D01*
X130396995Y-59099171D02*
X130325566Y-59170600D01*
X130325566Y-59170600D02*
X130182709Y-59242028D01*
X130182709Y-59242028D02*
X129896995Y-59242028D01*
X129896995Y-59242028D02*
X129754138Y-59170600D01*
X129754138Y-59170600D02*
X129682709Y-59099171D01*
X129682709Y-59099171D02*
X129611280Y-58956314D01*
X129611280Y-58956314D02*
X129611280Y-58599171D01*
X129611280Y-58599171D02*
X129682709Y-58456314D01*
X129682709Y-58456314D02*
X129754138Y-58384885D01*
X129754138Y-58384885D02*
X129896995Y-58313457D01*
X129896995Y-58313457D02*
X130182709Y-58313457D01*
X130182709Y-58313457D02*
X130325566Y-58384885D01*
X130325566Y-58384885D02*
X130396995Y-58456314D01*
X130396995Y-58456314D02*
X130468423Y-58599171D01*
X127825567Y-59242028D02*
X127825567Y-57742028D01*
X127825567Y-57742028D02*
X127325567Y-58813457D01*
X127325567Y-58813457D02*
X126825567Y-57742028D01*
X126825567Y-57742028D02*
X126825567Y-59242028D01*
X125468424Y-59242028D02*
X125468424Y-58456314D01*
X125468424Y-58456314D02*
X125539852Y-58313457D01*
X125539852Y-58313457D02*
X125682709Y-58242028D01*
X125682709Y-58242028D02*
X125968424Y-58242028D01*
X125968424Y-58242028D02*
X126111281Y-58313457D01*
X125468424Y-59170600D02*
X125611281Y-59242028D01*
X125611281Y-59242028D02*
X125968424Y-59242028D01*
X125968424Y-59242028D02*
X126111281Y-59170600D01*
X126111281Y-59170600D02*
X126182709Y-59027742D01*
X126182709Y-59027742D02*
X126182709Y-58884885D01*
X126182709Y-58884885D02*
X126111281Y-58742028D01*
X126111281Y-58742028D02*
X125968424Y-58670600D01*
X125968424Y-58670600D02*
X125611281Y-58670600D01*
X125611281Y-58670600D02*
X125468424Y-58599171D01*
X124754138Y-59242028D02*
X124754138Y-58242028D01*
X124754138Y-58527742D02*
X124682709Y-58384885D01*
X124682709Y-58384885D02*
X124611281Y-58313457D01*
X124611281Y-58313457D02*
X124468423Y-58242028D01*
X124468423Y-58242028D02*
X124325566Y-58242028D01*
X123182710Y-59170600D02*
X123325567Y-59242028D01*
X123325567Y-59242028D02*
X123611281Y-59242028D01*
X123611281Y-59242028D02*
X123754138Y-59170600D01*
X123754138Y-59170600D02*
X123825567Y-59099171D01*
X123825567Y-59099171D02*
X123896995Y-58956314D01*
X123896995Y-58956314D02*
X123896995Y-58527742D01*
X123896995Y-58527742D02*
X123825567Y-58384885D01*
X123825567Y-58384885D02*
X123754138Y-58313457D01*
X123754138Y-58313457D02*
X123611281Y-58242028D01*
X123611281Y-58242028D02*
X123325567Y-58242028D01*
X123325567Y-58242028D02*
X123182710Y-58313457D01*
X121396996Y-59242028D02*
X121396996Y-57742028D01*
X121396996Y-57742028D02*
X121039853Y-57742028D01*
X121039853Y-57742028D02*
X120825567Y-57813457D01*
X120825567Y-57813457D02*
X120682710Y-57956314D01*
X120682710Y-57956314D02*
X120611281Y-58099171D01*
X120611281Y-58099171D02*
X120539853Y-58384885D01*
X120539853Y-58384885D02*
X120539853Y-58599171D01*
X120539853Y-58599171D02*
X120611281Y-58884885D01*
X120611281Y-58884885D02*
X120682710Y-59027742D01*
X120682710Y-59027742D02*
X120825567Y-59170600D01*
X120825567Y-59170600D02*
X121039853Y-59242028D01*
X121039853Y-59242028D02*
X121396996Y-59242028D01*
X119896996Y-59099171D02*
X119825567Y-59170600D01*
X119825567Y-59170600D02*
X119896996Y-59242028D01*
X119896996Y-59242028D02*
X119968424Y-59170600D01*
X119968424Y-59170600D02*
X119896996Y-59099171D01*
X119896996Y-59099171D02*
X119896996Y-59242028D01*
X118111281Y-59170600D02*
X117896996Y-59242028D01*
X117896996Y-59242028D02*
X117539853Y-59242028D01*
X117539853Y-59242028D02*
X117396996Y-59170600D01*
X117396996Y-59170600D02*
X117325567Y-59099171D01*
X117325567Y-59099171D02*
X117254138Y-58956314D01*
X117254138Y-58956314D02*
X117254138Y-58813457D01*
X117254138Y-58813457D02*
X117325567Y-58670600D01*
X117325567Y-58670600D02*
X117396996Y-58599171D01*
X117396996Y-58599171D02*
X117539853Y-58527742D01*
X117539853Y-58527742D02*
X117825567Y-58456314D01*
X117825567Y-58456314D02*
X117968424Y-58384885D01*
X117968424Y-58384885D02*
X118039853Y-58313457D01*
X118039853Y-58313457D02*
X118111281Y-58170600D01*
X118111281Y-58170600D02*
X118111281Y-58027742D01*
X118111281Y-58027742D02*
X118039853Y-57884885D01*
X118039853Y-57884885D02*
X117968424Y-57813457D01*
X117968424Y-57813457D02*
X117825567Y-57742028D01*
X117825567Y-57742028D02*
X117468424Y-57742028D01*
X117468424Y-57742028D02*
X117254138Y-57813457D01*
X116611282Y-58242028D02*
X116611282Y-59742028D01*
X116611282Y-58313457D02*
X116468425Y-58242028D01*
X116468425Y-58242028D02*
X116182710Y-58242028D01*
X116182710Y-58242028D02*
X116039853Y-58313457D01*
X116039853Y-58313457D02*
X115968425Y-58384885D01*
X115968425Y-58384885D02*
X115896996Y-58527742D01*
X115896996Y-58527742D02*
X115896996Y-58956314D01*
X115896996Y-58956314D02*
X115968425Y-59099171D01*
X115968425Y-59099171D02*
X116039853Y-59170600D01*
X116039853Y-59170600D02*
X116182710Y-59242028D01*
X116182710Y-59242028D02*
X116468425Y-59242028D01*
X116468425Y-59242028D02*
X116611282Y-59170600D01*
X114682710Y-59170600D02*
X114825567Y-59242028D01*
X114825567Y-59242028D02*
X115111282Y-59242028D01*
X115111282Y-59242028D02*
X115254139Y-59170600D01*
X115254139Y-59170600D02*
X115325567Y-59027742D01*
X115325567Y-59027742D02*
X115325567Y-58456314D01*
X115325567Y-58456314D02*
X115254139Y-58313457D01*
X115254139Y-58313457D02*
X115111282Y-58242028D01*
X115111282Y-58242028D02*
X114825567Y-58242028D01*
X114825567Y-58242028D02*
X114682710Y-58313457D01*
X114682710Y-58313457D02*
X114611282Y-58456314D01*
X114611282Y-58456314D02*
X114611282Y-58599171D01*
X114611282Y-58599171D02*
X115325567Y-58742028D01*
X113968425Y-58242028D02*
X113968425Y-59242028D01*
X113968425Y-58384885D02*
X113896996Y-58313457D01*
X113896996Y-58313457D02*
X113754139Y-58242028D01*
X113754139Y-58242028D02*
X113539853Y-58242028D01*
X113539853Y-58242028D02*
X113396996Y-58313457D01*
X113396996Y-58313457D02*
X113325568Y-58456314D01*
X113325568Y-58456314D02*
X113325568Y-59242028D01*
X111968425Y-59170600D02*
X112111282Y-59242028D01*
X112111282Y-59242028D02*
X112396996Y-59242028D01*
X112396996Y-59242028D02*
X112539853Y-59170600D01*
X112539853Y-59170600D02*
X112611282Y-59099171D01*
X112611282Y-59099171D02*
X112682710Y-58956314D01*
X112682710Y-58956314D02*
X112682710Y-58527742D01*
X112682710Y-58527742D02*
X112611282Y-58384885D01*
X112611282Y-58384885D02*
X112539853Y-58313457D01*
X112539853Y-58313457D02*
X112396996Y-58242028D01*
X112396996Y-58242028D02*
X112111282Y-58242028D01*
X112111282Y-58242028D02*
X111968425Y-58313457D01*
X110754139Y-59170600D02*
X110896996Y-59242028D01*
X110896996Y-59242028D02*
X111182711Y-59242028D01*
X111182711Y-59242028D02*
X111325568Y-59170600D01*
X111325568Y-59170600D02*
X111396996Y-59027742D01*
X111396996Y-59027742D02*
X111396996Y-58456314D01*
X111396996Y-58456314D02*
X111325568Y-58313457D01*
X111325568Y-58313457D02*
X111182711Y-58242028D01*
X111182711Y-58242028D02*
X110896996Y-58242028D01*
X110896996Y-58242028D02*
X110754139Y-58313457D01*
X110754139Y-58313457D02*
X110682711Y-58456314D01*
X110682711Y-58456314D02*
X110682711Y-58599171D01*
X110682711Y-58599171D02*
X111396996Y-58742028D01*
X110039854Y-59242028D02*
X110039854Y-58242028D01*
X110039854Y-58527742D02*
X109968425Y-58384885D01*
X109968425Y-58384885D02*
X109896997Y-58313457D01*
X109896997Y-58313457D02*
X109754139Y-58242028D01*
X109754139Y-58242028D02*
X109611282Y-58242028D01*
X139111279Y-56194028D02*
X139111279Y-54694028D01*
X139111279Y-54694028D02*
X138611279Y-55765457D01*
X138611279Y-55765457D02*
X138111279Y-54694028D01*
X138111279Y-54694028D02*
X138111279Y-56194028D01*
X136396993Y-56336885D02*
X136539850Y-56265457D01*
X136539850Y-56265457D02*
X136682707Y-56122600D01*
X136682707Y-56122600D02*
X136896993Y-55908314D01*
X136896993Y-55908314D02*
X137039850Y-55836885D01*
X137039850Y-55836885D02*
X137182707Y-55836885D01*
X137111278Y-56194028D02*
X137254136Y-56122600D01*
X137254136Y-56122600D02*
X137396993Y-55979742D01*
X137396993Y-55979742D02*
X137468421Y-55694028D01*
X137468421Y-55694028D02*
X137468421Y-55194028D01*
X137468421Y-55194028D02*
X137396993Y-54908314D01*
X137396993Y-54908314D02*
X137254136Y-54765457D01*
X137254136Y-54765457D02*
X137111278Y-54694028D01*
X137111278Y-54694028D02*
X136825564Y-54694028D01*
X136825564Y-54694028D02*
X136682707Y-54765457D01*
X136682707Y-54765457D02*
X136539850Y-54908314D01*
X136539850Y-54908314D02*
X136468421Y-55194028D01*
X136468421Y-55194028D02*
X136468421Y-55694028D01*
X136468421Y-55694028D02*
X136539850Y-55979742D01*
X136539850Y-55979742D02*
X136682707Y-56122600D01*
X136682707Y-56122600D02*
X136825564Y-56194028D01*
X136825564Y-56194028D02*
X137111278Y-56194028D01*
X136039849Y-54694028D02*
X135182707Y-54694028D01*
X135611278Y-56194028D02*
X135611278Y-54694028D01*
X134896992Y-54694028D02*
X134039850Y-54694028D01*
X134468421Y-56194028D02*
X134468421Y-54694028D01*
X132468421Y-55765457D02*
X131754136Y-55765457D01*
X132611278Y-56194028D02*
X132111278Y-54694028D01*
X132111278Y-54694028D02*
X131611278Y-56194028D01*
X130468422Y-55194028D02*
X130468422Y-56408314D01*
X130468422Y-56408314D02*
X130539850Y-56551171D01*
X130539850Y-56551171D02*
X130611279Y-56622600D01*
X130611279Y-56622600D02*
X130754136Y-56694028D01*
X130754136Y-56694028D02*
X130968422Y-56694028D01*
X130968422Y-56694028D02*
X131111279Y-56622600D01*
X130468422Y-56122600D02*
X130611279Y-56194028D01*
X130611279Y-56194028D02*
X130896993Y-56194028D01*
X130896993Y-56194028D02*
X131039850Y-56122600D01*
X131039850Y-56122600D02*
X131111279Y-56051171D01*
X131111279Y-56051171D02*
X131182707Y-55908314D01*
X131182707Y-55908314D02*
X131182707Y-55479742D01*
X131182707Y-55479742D02*
X131111279Y-55336885D01*
X131111279Y-55336885D02*
X131039850Y-55265457D01*
X131039850Y-55265457D02*
X130896993Y-55194028D01*
X130896993Y-55194028D02*
X130611279Y-55194028D01*
X130611279Y-55194028D02*
X130468422Y-55265457D01*
X129182707Y-56122600D02*
X129325564Y-56194028D01*
X129325564Y-56194028D02*
X129611279Y-56194028D01*
X129611279Y-56194028D02*
X129754136Y-56122600D01*
X129754136Y-56122600D02*
X129825564Y-55979742D01*
X129825564Y-55979742D02*
X129825564Y-55408314D01*
X129825564Y-55408314D02*
X129754136Y-55265457D01*
X129754136Y-55265457D02*
X129611279Y-55194028D01*
X129611279Y-55194028D02*
X129325564Y-55194028D01*
X129325564Y-55194028D02*
X129182707Y-55265457D01*
X129182707Y-55265457D02*
X129111279Y-55408314D01*
X129111279Y-55408314D02*
X129111279Y-55551171D01*
X129111279Y-55551171D02*
X129825564Y-55694028D01*
X128468422Y-55194028D02*
X128468422Y-56194028D01*
X128468422Y-55336885D02*
X128396993Y-55265457D01*
X128396993Y-55265457D02*
X128254136Y-55194028D01*
X128254136Y-55194028D02*
X128039850Y-55194028D01*
X128039850Y-55194028D02*
X127896993Y-55265457D01*
X127896993Y-55265457D02*
X127825565Y-55408314D01*
X127825565Y-55408314D02*
X127825565Y-56194028D01*
X127325564Y-55194028D02*
X126754136Y-55194028D01*
X127111279Y-54694028D02*
X127111279Y-55979742D01*
X127111279Y-55979742D02*
X127039850Y-56122600D01*
X127039850Y-56122600D02*
X126896993Y-56194028D01*
X126896993Y-56194028D02*
X126754136Y-56194028D01*
X124396993Y-54694028D02*
X125111279Y-54694028D01*
X125111279Y-54694028D02*
X125182707Y-55408314D01*
X125182707Y-55408314D02*
X125111279Y-55336885D01*
X125111279Y-55336885D02*
X124968422Y-55265457D01*
X124968422Y-55265457D02*
X124611279Y-55265457D01*
X124611279Y-55265457D02*
X124468422Y-55336885D01*
X124468422Y-55336885D02*
X124396993Y-55408314D01*
X124396993Y-55408314D02*
X124325564Y-55551171D01*
X124325564Y-55551171D02*
X124325564Y-55908314D01*
X124325564Y-55908314D02*
X124396993Y-56051171D01*
X124396993Y-56051171D02*
X124468422Y-56122600D01*
X124468422Y-56122600D02*
X124611279Y-56194028D01*
X124611279Y-56194028D02*
X124968422Y-56194028D01*
X124968422Y-56194028D02*
X125111279Y-56122600D01*
X125111279Y-56122600D02*
X125182707Y-56051171D01*
X123682708Y-56051171D02*
X123611279Y-56122600D01*
X123611279Y-56122600D02*
X123682708Y-56194028D01*
X123682708Y-56194028D02*
X123754136Y-56122600D01*
X123754136Y-56122600D02*
X123682708Y-56051171D01*
X123682708Y-56051171D02*
X123682708Y-56194028D01*
X122682707Y-54694028D02*
X122539850Y-54694028D01*
X122539850Y-54694028D02*
X122396993Y-54765457D01*
X122396993Y-54765457D02*
X122325565Y-54836885D01*
X122325565Y-54836885D02*
X122254136Y-54979742D01*
X122254136Y-54979742D02*
X122182707Y-55265457D01*
X122182707Y-55265457D02*
X122182707Y-55622600D01*
X122182707Y-55622600D02*
X122254136Y-55908314D01*
X122254136Y-55908314D02*
X122325565Y-56051171D01*
X122325565Y-56051171D02*
X122396993Y-56122600D01*
X122396993Y-56122600D02*
X122539850Y-56194028D01*
X122539850Y-56194028D02*
X122682707Y-56194028D01*
X122682707Y-56194028D02*
X122825565Y-56122600D01*
X122825565Y-56122600D02*
X122896993Y-56051171D01*
X122896993Y-56051171D02*
X122968422Y-55908314D01*
X122968422Y-55908314D02*
X123039850Y-55622600D01*
X123039850Y-55622600D02*
X123039850Y-55265457D01*
X123039850Y-55265457D02*
X122968422Y-54979742D01*
X122968422Y-54979742D02*
X122896993Y-54836885D01*
X122896993Y-54836885D02*
X122825565Y-54765457D01*
X122825565Y-54765457D02*
X122682707Y-54694028D01*
X121539851Y-56194028D02*
X121539851Y-54694028D01*
X121539851Y-55265457D02*
X121396994Y-55194028D01*
X121396994Y-55194028D02*
X121111279Y-55194028D01*
X121111279Y-55194028D02*
X120968422Y-55265457D01*
X120968422Y-55265457D02*
X120896994Y-55336885D01*
X120896994Y-55336885D02*
X120825565Y-55479742D01*
X120825565Y-55479742D02*
X120825565Y-55908314D01*
X120825565Y-55908314D02*
X120896994Y-56051171D01*
X120896994Y-56051171D02*
X120968422Y-56122600D01*
X120968422Y-56122600D02*
X121111279Y-56194028D01*
X121111279Y-56194028D02*
X121396994Y-56194028D01*
X121396994Y-56194028D02*
X121539851Y-56122600D01*
M02*
