%TF.GenerationSoftware,KiCad,Pcbnew,9.0.7*%
%TF.CreationDate,2026-03-08T18:10:04-04:00*%
%TF.ProjectId,ESP32c6 Agent PCB CPU,45535033-3263-4362-9041-67656e742050,5.0*%
%TF.SameCoordinates,Original*%
%TF.FileFunction,Soldermask,Bot*%
%TF.FilePolarity,Negative*%
%FSLAX46Y46*%
G04 Gerber Fmt 4.6, Leading zero omitted, Abs format (unit mm)*
G04 Created by KiCad (PCBNEW 9.0.7) date 2026-03-08 18:10:04*
%MOMM*%
%LPD*%
G01*
G04 APERTURE LIST*
G04 Aperture macros list*
%AMRoundRect*
0 Rectangle with rounded corners*
0 $1 Rounding radius*
0 $2 $3 $4 $5 $6 $7 $8 $9 X,Y pos of 4 corners*
0 Add a 4 corners polygon primitive as box body*
4,1,4,$2,$3,$4,$5,$6,$7,$8,$9,$2,$3,0*
0 Add four circle primitives for the rounded corners*
1,1,$1+$1,$2,$3*
1,1,$1+$1,$4,$5*
1,1,$1+$1,$6,$7*
1,1,$1+$1,$8,$9*
0 Add four rect primitives between the rounded corners*
20,1,$1+$1,$2,$3,$4,$5,0*
20,1,$1+$1,$4,$5,$6,$7,0*
20,1,$1+$1,$6,$7,$8,$9,0*
20,1,$1+$1,$8,$9,$2,$3,0*%
%AMFreePoly0*
4,1,5,0.635000,-1.750000,-0.635000,-1.750000,-0.635000,1.750000,0.635000,1.750000,0.635000,-1.750000,0.635000,-1.750000,$1*%
G04 Aperture macros list end*
%ADD10FreePoly0,90.000000*%
%ADD11R,3.500000X1.270000*%
%ADD12C,2.000000*%
%ADD13R,2.000000X2.000000*%
%ADD14O,2.000000X1.200000*%
%ADD15C,1.524000*%
%ADD16RoundRect,0.250000X-0.620000X-0.845000X0.620000X-0.845000X0.620000X0.845000X-0.620000X0.845000X0*%
%ADD17O,1.740000X2.190000*%
G04 APERTURE END LIST*
D10*
%TO.C,J1*%
X150886000Y-87310000D03*
X150886000Y-84770000D03*
X150886000Y-82230000D03*
X150886000Y-79690000D03*
X150886000Y-77150000D03*
X150886000Y-74610000D03*
X150886000Y-72070000D03*
X150886000Y-69530000D03*
X150886000Y-66990000D03*
X150886000Y-64450000D03*
X150886000Y-61910000D03*
X150886000Y-59370000D03*
D11*
X150886000Y-56830000D03*
X150886000Y-54290000D03*
%TD*%
D12*
%TO.C,SW1*%
X103632000Y-84745000D03*
X110132000Y-84745000D03*
X103632000Y-89245000D03*
X110132000Y-89245000D03*
%TD*%
D13*
%TO.C,U2*%
X124968000Y-64008000D03*
D14*
X124968000Y-66548000D03*
X124968000Y-69088000D03*
X124968000Y-71628000D03*
X124968000Y-74168000D03*
X124968000Y-76708000D03*
X124968000Y-79248000D03*
X124968000Y-81788000D03*
X142968000Y-81788000D03*
X142968000Y-79248000D03*
X142968000Y-76708000D03*
X142968000Y-74168000D03*
X142968000Y-71628000D03*
X142968000Y-69088000D03*
X142968000Y-66548000D03*
X142968000Y-64008000D03*
%TD*%
D15*
%TO.C,U5*%
X105156000Y-80309000D03*
X107696000Y-80309000D03*
X110236000Y-80309000D03*
X112776000Y-80309000D03*
X115316000Y-80309000D03*
X117856000Y-80309000D03*
X120396000Y-80309000D03*
X120396000Y-65069000D03*
X117856000Y-65069000D03*
X115316000Y-65069000D03*
X112776000Y-65069000D03*
X110236000Y-65069000D03*
X107696000Y-65069000D03*
X105156000Y-65069000D03*
%TD*%
D12*
%TO.C,SW2*%
X119150000Y-84745000D03*
X125650000Y-84745000D03*
X119150000Y-89245000D03*
X125650000Y-89245000D03*
%TD*%
%TO.C,SW3*%
X134750000Y-84745000D03*
X141250000Y-84745000D03*
X134750000Y-89245000D03*
X141250000Y-89245000D03*
%TD*%
D16*
%TO.C,J10*%
X143210000Y-54400000D03*
D17*
X145750000Y-54400000D03*
%TD*%
D14*
%TO.C,U1*%
X104232000Y-60542000D03*
X104232000Y-58002000D03*
X104232000Y-55462000D03*
X104232000Y-52922000D03*
%TD*%
M02*
