M48
; DRILL file {KiCad 9.0.7} date 2026-03-08T18:09:17-0400
; FORMAT={-:-/ absolute / inch / decimal}
; #@! TF.CreationDate,2026-03-08T18:09:17-04:00
; #@! TF.GenerationSoftware,Kicad,Pcbnew,9.0.7
; #@! TF.FileFunction,Plated,1,2,PTH
FMAT,2
INCH
; #@! TA.AperFunction,Plated,PTH,ViaDrill
T1C0.0118
; #@! TA.AperFunction,Plated,PTH,ComponentDrill
T2C0.0315
; #@! TA.AperFunction,Plated,PTH,ComponentDrill
T3C0.0350
; #@! TA.AperFunction,Plated,PTH,ComponentDrill
T4C0.0394
; #@! TA.AperFunction,Plated,PTH,ComponentDrill
T5C0.0433
; #@! TA.AperFunction,Plated,PTH,ComponentDrill
T6C0.0469
%
G90
G05
T1
X4.29Y-2.86
X4.29Y-2.9
X4.34Y-3.05
X4.44Y-2.86
X4.44Y-2.9
X4.59Y-3.09
X4.59Y-3.31
X4.6Y-2.8
X4.6457Y-2.3228
X4.68Y-2.88
X4.83Y-2.8583
X4.92Y-2.36
X5.0945Y-2.53
X5.1024Y-2.3307
X5.21Y-3.13
X5.2402Y-2.687
X5.2598Y-2.4961
X5.42Y-2.79
X5.45Y-2.92
X5.48Y-2.82
X5.51Y-2.5
X5.51Y-2.77
X5.51Y-2.87
X5.55Y-2.48
X5.7972Y-2.52
X5.7972Y-2.62
X5.7972Y-2.72
X5.7972Y-2.82
X5.7972Y-2.92
X5.7972Y-3.02
T2
X4.1036Y-2.0835
X4.1036Y-2.1835
X4.1036Y-2.2835
X4.1036Y-2.3835
X4.92Y-2.52
X4.92Y-2.62
X4.92Y-2.72
X4.92Y-2.82
X4.92Y-2.92
X4.92Y-3.02
X4.92Y-3.12
X4.92Y-3.22
X5.6287Y-2.52
X5.6287Y-2.62
X5.6287Y-2.72
X5.6287Y-2.82
X5.6287Y-2.92
X5.6287Y-3.02
X5.6287Y-3.12
X5.6287Y-3.22
T3
X4.14Y-2.5618
X4.14Y-3.1618
X4.24Y-2.5618
X4.24Y-3.1618
X4.34Y-2.5618
X4.34Y-3.1618
X4.44Y-2.5618
X4.44Y-3.1618
X4.54Y-2.5618
X4.54Y-3.1618
X4.64Y-2.5618
X4.64Y-3.1618
X4.74Y-2.5618
X4.74Y-3.1618
T4
X5.9104Y-2.1374
X5.9104Y-2.2374
X5.9104Y-2.3374
X5.9104Y-2.4374
X5.9104Y-2.5374
X5.9104Y-2.6374
X5.9104Y-2.7374
X5.9104Y-2.8374
X5.9104Y-2.9374
X5.9104Y-3.0374
X5.9104Y-3.1374
X5.9104Y-3.2374
X5.9104Y-3.3374
X5.9104Y-3.4374
T5
X4.08Y-3.3364
X4.08Y-3.5136
X4.3359Y-3.3364
X4.3359Y-3.5136
X4.6909Y-3.3364
X4.6909Y-3.5136
X4.9469Y-3.3364
X4.9469Y-3.5136
X5.3051Y-3.3364
X5.3051Y-3.5136
X5.561Y-3.3364
X5.561Y-3.5136
T6
X5.6382Y-2.1417
X5.7382Y-2.1417
M30
