M48
; DRILL file {KiCad 9.0.7} date 2026-02-02T21:58:01-0500
; FORMAT={-:-/ absolute / inch / decimal}
; #@! TF.CreationDate,2026-02-02T21:58:01-05:00
; #@! TF.GenerationSoftware,Kicad,Pcbnew,9.0.7
; #@! TF.FileFunction,Plated,1,2,PTH
FMAT,2
INCH
; #@! TA.AperFunction,Plated,PTH,ViaDrill
T1C0.0118
; #@! TA.AperFunction,Plated,PTH,ComponentDrill
T2C0.0315
; #@! TA.AperFunction,Plated,PTH,ComponentDrill
T3C0.0394
; #@! TA.AperFunction,Plated,PTH,ComponentDrill
T4C0.0469
; #@! TA.AperFunction,Plated,PTH,ComponentDrill
T5C0.0512
%
G90
G05
T1
X4.2441Y-2.4252
X4.4646Y-3.0394
X4.7402Y-2.252
T2
X4.3465Y-2.3133
X4.3465Y-2.4133
X4.3472Y-2.8081
X4.3472Y-2.9081
X4.6465Y-2.3133
X4.6465Y-2.4133
X4.6472Y-2.8081
X4.6472Y-2.9081
T3
X4.0945Y-2.1374
X4.0945Y-2.2374
X4.0945Y-2.3374
X4.0945Y-2.4374
X4.0945Y-2.5374
X4.0945Y-2.6374
X4.0945Y-2.7374
X4.0945Y-2.8374
X4.0945Y-2.9374
X4.0945Y-3.0374
X4.0945Y-3.1374
X4.0945Y-3.2374
X4.0945Y-3.3374
X4.0945Y-3.4374
X5.9055Y-2.1374
X5.9055Y-2.2374
X5.9055Y-2.3374
X5.9055Y-2.4374
X5.9055Y-2.5374
X5.9055Y-2.6374
X5.9055Y-2.7374
X5.9055Y-2.8374
X5.9055Y-2.9374
X5.9055Y-3.0374
X5.9055Y-3.1374
X5.9055Y-3.2374
X5.9055Y-3.3374
X5.9055Y-3.4374
T4
X4.611Y-3.4173
X4.711Y-3.4173
X4.811Y-3.4173
X5.2882Y-3.4173
X5.3882Y-3.4173
X5.4882Y-3.4173
T5
X5.0352Y-2.252
X5.0352Y-2.552
X5.0366Y-2.7646
X5.0366Y-3.0646
X5.4352Y-2.552
X5.4366Y-3.0646
X5.6352Y-2.252
X5.6366Y-2.7646
X5.7352Y-2.552
X5.7366Y-3.0646
M30
