%TF.GenerationSoftware,KiCad,Pcbnew,9.0.7*%
%TF.CreationDate,2026-02-02T21:57:52-05:00*%
%TF.ProjectId,ESP32c6 Agent PCB Relays,45535033-3263-4362-9041-67656e742050,rev?*%
%TF.SameCoordinates,Original*%
%TF.FileFunction,Copper,L1,Top*%
%TF.FilePolarity,Positive*%
%FSLAX46Y46*%
G04 Gerber Fmt 4.6, Leading zero omitted, Abs format (unit mm)*
G04 Created by KiCad (PCBNEW 9.0.7) date 2026-02-02 21:57:52*
%MOMM*%
%LPD*%
G01*
G04 APERTURE LIST*
G04 Aperture macros list*
%AMRoundRect*
0 Rectangle with rounded corners*
0 $1 Rounding radius*
0 $2 $3 $4 $5 $6 $7 $8 $9 X,Y pos of 4 corners*
0 Add a 4 corners polygon primitive as box body*
4,1,4,$2,$3,$4,$5,$6,$7,$8,$9,$2,$3,0*
0 Add four circle primitives for the rounded corners*
1,1,$1+$1,$2,$3*
1,1,$1+$1,$4,$5*
1,1,$1+$1,$6,$7*
1,1,$1+$1,$8,$9*
0 Add four rect primitives between the rounded corners*
20,1,$1+$1,$2,$3,$4,$5,0*
20,1,$1+$1,$4,$5,$6,$7,0*
20,1,$1+$1,$6,$7,$8,$9,0*
20,1,$1+$1,$8,$9,$2,$3,0*%
%AMFreePoly0*
4,1,5,0.635000,-1.750000,-0.635000,-1.750000,-0.635000,1.750000,0.635000,1.750000,0.635000,-1.750000,0.635000,-1.750000,$1*%
G04 Aperture macros list end*
%TA.AperFunction,SMDPad,CuDef*%
%ADD10RoundRect,0.225000X-0.375000X0.225000X-0.375000X-0.225000X0.375000X-0.225000X0.375000X0.225000X0*%
%TD*%
%TA.AperFunction,SMDPad,CuDef*%
%ADD11RoundRect,0.250001X-0.624999X0.462499X-0.624999X-0.462499X0.624999X-0.462499X0.624999X0.462499X0*%
%TD*%
%TA.AperFunction,ComponentPad*%
%ADD12RoundRect,0.250000X-0.550000X-0.550000X0.550000X-0.550000X0.550000X0.550000X-0.550000X0.550000X0*%
%TD*%
%TA.AperFunction,ComponentPad*%
%ADD13C,1.600000*%
%TD*%
%TA.AperFunction,SMDPad,CuDef*%
%ADD14RoundRect,0.250000X0.625000X-0.400000X0.625000X0.400000X-0.625000X0.400000X-0.625000X-0.400000X0*%
%TD*%
%TA.AperFunction,CastellatedPad*%
%ADD15FreePoly0,90.000000*%
%TD*%
%TA.AperFunction,CastellatedPad*%
%ADD16R,3.500000X1.270000*%
%TD*%
%TA.AperFunction,SMDPad,CuDef*%
%ADD17RoundRect,0.250000X0.337500X0.475000X-0.337500X0.475000X-0.337500X-0.475000X0.337500X-0.475000X0*%
%TD*%
%TA.AperFunction,SMDPad,CuDef*%
%ADD18RoundRect,0.250000X-0.337500X-0.475000X0.337500X-0.475000X0.337500X0.475000X-0.337500X0.475000X0*%
%TD*%
%TA.AperFunction,SMDPad,CuDef*%
%ADD19RoundRect,0.150000X-0.587500X-0.150000X0.587500X-0.150000X0.587500X0.150000X-0.587500X0.150000X0*%
%TD*%
%TA.AperFunction,SMDPad,CuDef*%
%ADD20RoundRect,0.250000X-0.625000X0.400000X-0.625000X-0.400000X0.625000X-0.400000X0.625000X0.400000X0*%
%TD*%
%TA.AperFunction,ComponentPad*%
%ADD21R,2.300000X2.300000*%
%TD*%
%TA.AperFunction,ComponentPad*%
%ADD22C,2.300000*%
%TD*%
%TA.AperFunction,SMDPad,CuDef*%
%ADD23RoundRect,0.250000X-0.400000X-0.625000X0.400000X-0.625000X0.400000X0.625000X-0.400000X0.625000X0*%
%TD*%
%TA.AperFunction,ComponentPad*%
%ADD24RoundRect,0.250000X0.620000X0.845000X-0.620000X0.845000X-0.620000X-0.845000X0.620000X-0.845000X0*%
%TD*%
%TA.AperFunction,ComponentPad*%
%ADD25O,1.740000X2.190000*%
%TD*%
%TA.AperFunction,ViaPad*%
%ADD26C,0.600000*%
%TD*%
%TA.AperFunction,Conductor*%
%ADD27C,0.508000*%
%TD*%
%TA.AperFunction,Conductor*%
%ADD28C,0.200000*%
%TD*%
%TA.AperFunction,Conductor*%
%ADD29C,0.254000*%
%TD*%
%TA.AperFunction,Conductor*%
%ADD30C,0.500000*%
%TD*%
G04 APERTURE END LIST*
D10*
%TO.P,D4,1,K*%
%TO.N,VCC*%
X123840000Y-71970000D03*
%TO.P,D4,2,A*%
%TO.N,Net-(D4-A)*%
X123840000Y-75270000D03*
%TD*%
D11*
%TO.P,D3,1,K*%
%TO.N,/O.1*%
X143400000Y-86112500D03*
%TO.P,D3,2,A*%
%TO.N,Net-(D3-A)*%
X143400000Y-89087500D03*
%TD*%
D12*
%TO.P,U3,1*%
%TO.N,Net-(R7-Pad1)*%
X110400000Y-58757000D03*
D13*
%TO.P,U3,2*%
%TO.N,/O.0*%
X110400000Y-61297000D03*
%TO.P,U3,3*%
%TO.N,Net-(R9-Pad1)*%
X118020000Y-61297000D03*
%TO.P,U3,4*%
%TO.N,VCC*%
X118020000Y-58757000D03*
%TD*%
D14*
%TO.P,R10,1*%
%TO.N,Net-(D1-A)*%
X129460000Y-89100000D03*
%TO.P,R10,2*%
%TO.N,+3V3*%
X129460000Y-86000000D03*
%TD*%
D10*
%TO.P,D2,1,K*%
%TO.N,VCC*%
X123840000Y-59370000D03*
%TO.P,D2,2,A*%
%TO.N,Net-(D2-A)*%
X123840000Y-62670000D03*
%TD*%
D15*
%TO.P,J2,1,Pin_1*%
%TO.N,GND*%
X150762000Y-87310000D03*
%TO.P,J2,2,Pin_2*%
X150762000Y-84770000D03*
%TO.P,J2,3,Pin_3*%
%TO.N,/I.0*%
X150762000Y-82230000D03*
%TO.P,J2,4,Pin_4*%
%TO.N,/I.1*%
X150762000Y-79690000D03*
%TO.P,J2,5,Pin_5*%
%TO.N,/O.0*%
X150762000Y-77150000D03*
%TO.P,J2,6,Pin_6*%
%TO.N,/O.1*%
X150762000Y-74610000D03*
%TO.P,J2,7,Pin_7*%
%TO.N,/O5.0*%
X150762000Y-72070000D03*
%TO.P,J2,8,Pin_8*%
%TO.N,/O5.1*%
X150762000Y-69530000D03*
%TO.P,J2,9,Pin_9*%
%TO.N,/DAC-L*%
X150762000Y-66990000D03*
%TO.P,J2,10,Pin_10*%
%TO.N,/DAC-R*%
X150762000Y-64450000D03*
%TO.P,J2,11,Pin_11*%
%TO.N,/T.0*%
X150762000Y-61910000D03*
%TO.P,J2,12,Pin_12*%
%TO.N,GND*%
X150762000Y-59370000D03*
D16*
%TO.P,J2,13,Pin_13*%
%TO.N,VCC*%
X150762000Y-56830000D03*
%TO.P,J2,14,Pin_14*%
%TO.N,+3V3*%
X150762000Y-54290000D03*
%TD*%
D14*
%TO.P,R11,1*%
%TO.N,Net-(D3-A)*%
X146600000Y-89150000D03*
%TO.P,R11,2*%
%TO.N,+3V3*%
X146600000Y-86050000D03*
%TD*%
D17*
%TO.P,C1,1*%
%TO.N,VCC*%
X123837500Y-69800000D03*
%TO.P,C1,2*%
%TO.N,GND*%
X121762500Y-69800000D03*
%TD*%
D18*
%TO.P,C2,1*%
%TO.N,+3V3*%
X122162500Y-56600000D03*
%TO.P,C2,2*%
%TO.N,GND*%
X124237500Y-56600000D03*
%TD*%
D19*
%TO.P,Q5,1,B*%
%TO.N,Net-(Q5-B)*%
X121682500Y-77850000D03*
%TO.P,Q5,2,E*%
%TO.N,GND*%
X121682500Y-79750000D03*
%TO.P,Q5,3,C*%
%TO.N,Net-(D4-A)*%
X123557500Y-78800000D03*
%TD*%
D20*
%TO.P,R8,1*%
%TO.N,Net-(R8-Pad1)*%
X110400000Y-77400000D03*
%TO.P,R8,2*%
%TO.N,+3V3*%
X110400000Y-80500000D03*
%TD*%
D21*
%TO.P,K2,1*%
%TO.N,Net-(D4-A)*%
X127930000Y-77840000D03*
D22*
%TO.P,K2,2*%
%TO.N,Net-(J9-Pin_1)*%
X138090000Y-77840000D03*
%TO.P,K2,3*%
%TO.N,Net-(J9-Pin_2)*%
X145710000Y-77840000D03*
%TO.P,K2,4*%
%TO.N,Net-(J9-Pin_3)*%
X143170000Y-70220000D03*
%TO.P,K2,5*%
%TO.N,VCC*%
X127930000Y-70220000D03*
%TD*%
D19*
%TO.P,Q4,1,B*%
%TO.N,Net-(Q4-B)*%
X121662500Y-65282000D03*
%TO.P,Q4,2,E*%
%TO.N,GND*%
X121662500Y-67182000D03*
%TO.P,Q4,3,C*%
%TO.N,Net-(D2-A)*%
X123537500Y-66232000D03*
%TD*%
D20*
%TO.P,R7,1*%
%TO.N,Net-(R7-Pad1)*%
X110400000Y-64827000D03*
%TO.P,R7,2*%
%TO.N,+3V3*%
X110400000Y-67927000D03*
%TD*%
D15*
%TO.P,J1,1,Pin_1*%
%TO.N,GND*%
X103238000Y-87310000D03*
%TO.P,J1,2,Pin_2*%
X103238000Y-84770000D03*
%TO.P,J1,3,Pin_3*%
%TO.N,/I.0*%
X103238000Y-82230000D03*
%TO.P,J1,4,Pin_4*%
%TO.N,/I.1*%
X103238000Y-79690000D03*
%TO.P,J1,5,Pin_5*%
%TO.N,/O.0*%
X103238000Y-77150000D03*
%TO.P,J1,6,Pin_6*%
%TO.N,/O.1*%
X103238000Y-74610000D03*
%TO.P,J1,7,Pin_7*%
%TO.N,/O5.0*%
X103238000Y-72070000D03*
%TO.P,J1,8,Pin_8*%
%TO.N,/O5.1*%
X103238000Y-69530000D03*
%TO.P,J1,9,Pin_9*%
%TO.N,/DAC-L*%
X103238000Y-66990000D03*
%TO.P,J1,10,Pin_10*%
%TO.N,/DAC-R*%
X103238000Y-64450000D03*
%TO.P,J1,11,Pin_11*%
%TO.N,/T.0*%
X103238000Y-61910000D03*
%TO.P,J1,12,Pin_12*%
%TO.N,GND*%
X103238000Y-59370000D03*
D16*
%TO.P,J1,13,Pin_13*%
%TO.N,VCC*%
X103238000Y-56830000D03*
%TO.P,J1,14,Pin_14*%
%TO.N,+3V3*%
X103238000Y-54290000D03*
%TD*%
D21*
%TO.P,K1,1*%
%TO.N,Net-(D2-A)*%
X127895000Y-64820000D03*
D22*
%TO.P,K1,2*%
%TO.N,Net-(J8-Pin_1)*%
X138055000Y-64820000D03*
%TO.P,K1,3*%
%TO.N,Net-(J8-Pin_2)*%
X145675000Y-64820000D03*
%TO.P,K1,4*%
%TO.N,Net-(J8-Pin_3)*%
X143135000Y-57200000D03*
%TO.P,K1,5*%
%TO.N,VCC*%
X127895000Y-57200000D03*
%TD*%
D12*
%TO.P,U4,1*%
%TO.N,Net-(R8-Pad1)*%
X110420000Y-71325000D03*
D13*
%TO.P,U4,2*%
%TO.N,/O.1*%
X110420000Y-73865000D03*
%TO.P,U4,3*%
%TO.N,Net-(R6-Pad1)*%
X118040000Y-73865000D03*
%TO.P,U4,4*%
%TO.N,VCC*%
X118040000Y-71325000D03*
%TD*%
D23*
%TO.P,R6,1*%
%TO.N,Net-(R6-Pad1)*%
X115470000Y-78200000D03*
%TO.P,R6,2*%
%TO.N,Net-(Q5-B)*%
X118570000Y-78200000D03*
%TD*%
%TO.P,R9,1*%
%TO.N,Net-(R9-Pad1)*%
X115470000Y-65600000D03*
%TO.P,R9,2*%
%TO.N,Net-(Q4-B)*%
X118570000Y-65600000D03*
%TD*%
D24*
%TO.P,J9,1,Pin_1*%
%TO.N,Net-(J9-Pin_1)*%
X139400000Y-86800000D03*
D25*
%TO.P,J9,2,Pin_2*%
%TO.N,Net-(J9-Pin_2)*%
X136860000Y-86800000D03*
%TO.P,J9,3,Pin_3*%
%TO.N,Net-(J9-Pin_3)*%
X134320000Y-86800000D03*
%TD*%
D11*
%TO.P,D1,1,K*%
%TO.N,/O.0*%
X126260000Y-86112500D03*
%TO.P,D1,2,A*%
%TO.N,Net-(D1-A)*%
X126260000Y-89087500D03*
%TD*%
D24*
%TO.P,J8,1,Pin_1*%
%TO.N,Net-(J8-Pin_1)*%
X122200000Y-86800000D03*
D25*
%TO.P,J8,2,Pin_2*%
%TO.N,Net-(J8-Pin_2)*%
X119660000Y-86800000D03*
%TO.P,J8,3,Pin_3*%
%TO.N,Net-(J8-Pin_3)*%
X117120000Y-86800000D03*
%TD*%
D26*
%TO.N,/O.0*%
X113400000Y-77200000D03*
%TO.N,+3V3*%
X120400000Y-57200000D03*
X107800000Y-61600000D03*
%TD*%
D27*
%TO.N,GND*%
X121662500Y-67182000D02*
X114600000Y-67182000D01*
D28*
X146400000Y-55400000D02*
X147800000Y-56800000D01*
D27*
X114200000Y-67600000D02*
X114200000Y-79200000D01*
D28*
X141800000Y-84400000D02*
X141800000Y-86800000D01*
D29*
X121762500Y-69800000D02*
X121762500Y-67282000D01*
D27*
X114600000Y-67200000D02*
X114200000Y-67600000D01*
D28*
X125400000Y-56600000D02*
X126600000Y-55400000D01*
X144400000Y-87400000D02*
X145000000Y-86800000D01*
D27*
X114750000Y-79750000D02*
X114200000Y-79200000D01*
D28*
X124237500Y-56600000D02*
X125400000Y-56600000D01*
D27*
X114200000Y-57600000D02*
X114200000Y-66782000D01*
X108600000Y-56800000D02*
X113400000Y-56800000D01*
D28*
X148830000Y-83600000D02*
X150000000Y-84770000D01*
X148630000Y-59370000D02*
X147800000Y-60200000D01*
X145400000Y-83600000D02*
X148830000Y-83600000D01*
X142400000Y-87400000D02*
X144400000Y-87400000D01*
D27*
X106030000Y-59370000D02*
X108600000Y-56800000D01*
X114200000Y-66782000D02*
X114600000Y-67182000D01*
X121682500Y-79750000D02*
X114750000Y-79750000D01*
D28*
X147800000Y-56800000D02*
X147800000Y-58540000D01*
X147800000Y-58540000D02*
X148630000Y-59370000D01*
X147600000Y-73800000D02*
X147600000Y-78600000D01*
X145000000Y-86800000D02*
X145000000Y-84000000D01*
X150000000Y-59370000D02*
X148630000Y-59370000D01*
X147800000Y-73600000D02*
X147600000Y-73800000D01*
X126600000Y-55400000D02*
X146400000Y-55400000D01*
D27*
X113400000Y-56800000D02*
X114200000Y-57600000D01*
X104000000Y-59370000D02*
X106030000Y-59370000D01*
D28*
X147600000Y-78600000D02*
X141800000Y-84400000D01*
X141800000Y-86800000D02*
X142400000Y-87400000D01*
X114600000Y-67182000D02*
X114600000Y-67200000D01*
X147800000Y-60200000D02*
X147800000Y-73600000D01*
X145000000Y-84000000D02*
X145400000Y-83600000D01*
%TO.N,VCC*%
X129800000Y-59105000D02*
X127895000Y-57200000D01*
X118040000Y-71325000D02*
X123195000Y-71325000D01*
X118020000Y-58757000D02*
X115263000Y-56000000D01*
D30*
X123840000Y-71970000D02*
X126180000Y-71970000D01*
D28*
X123227000Y-58757000D02*
X123840000Y-59370000D01*
D30*
X126180000Y-71970000D02*
X127930000Y-70220000D01*
X125725000Y-59370000D02*
X123840000Y-59370000D01*
D28*
X107630000Y-56000000D02*
X106800000Y-56830000D01*
X115263000Y-56000000D02*
X107630000Y-56000000D01*
X118020000Y-58757000D02*
X123227000Y-58757000D01*
X129800000Y-68350000D02*
X129800000Y-59105000D01*
X127930000Y-70220000D02*
X129800000Y-68350000D01*
X104000000Y-56830000D02*
X106800000Y-56830000D01*
D30*
X127895000Y-57200000D02*
X125725000Y-59370000D01*
D28*
X123840000Y-69802500D02*
X123840000Y-71970000D01*
X123195000Y-71325000D02*
X123840000Y-71970000D01*
%TO.N,/O.0*%
X109600000Y-57400000D02*
X112800000Y-57400000D01*
X109000000Y-58000000D02*
X109600000Y-57400000D01*
X113400000Y-88000000D02*
X114200000Y-88800000D01*
X114200000Y-88800000D02*
X123200000Y-88800000D01*
X124400000Y-86800000D02*
X125087500Y-86112500D01*
X123200000Y-88800000D02*
X124400000Y-87600000D01*
X112800000Y-57400000D02*
X113400000Y-58000000D01*
X125087500Y-86112500D02*
X126260000Y-86112500D01*
X109697000Y-61297000D02*
X109000000Y-60600000D01*
X109000000Y-60600000D02*
X109000000Y-58000000D01*
X124400000Y-87600000D02*
X124400000Y-86800000D01*
X113400000Y-58000000D02*
X113400000Y-88000000D01*
X110400000Y-61297000D02*
X109697000Y-61297000D01*
%TO.N,Net-(D1-A)*%
X129460000Y-89100000D02*
X126272500Y-89100000D01*
D30*
%TO.N,Net-(D2-A)*%
X125745000Y-62670000D02*
X123840000Y-62670000D01*
D28*
X122717500Y-66232000D02*
X122749500Y-66200000D01*
X122749500Y-66200000D02*
X124400000Y-66200000D01*
X122717500Y-66232000D02*
X122885500Y-66400000D01*
X124400000Y-66200000D02*
X125780000Y-64820000D01*
D30*
X127895000Y-64820000D02*
X125745000Y-62670000D01*
D28*
X125780000Y-64820000D02*
X127895000Y-64820000D01*
%TO.N,Net-(D3-A)*%
X143400000Y-89087500D02*
X146537500Y-89087500D01*
%TO.N,/O.1*%
X148200000Y-75200000D02*
X148790000Y-74610000D01*
X143400000Y-86112500D02*
X143400000Y-84000000D01*
X109675000Y-74610000D02*
X110420000Y-73865000D01*
X148200000Y-79200000D02*
X148200000Y-75200000D01*
X104000000Y-74610000D02*
X109675000Y-74610000D01*
X143400000Y-84000000D02*
X148200000Y-79200000D01*
X148790000Y-74610000D02*
X150000000Y-74610000D01*
%TO.N,Net-(D4-A)*%
X125600000Y-77840000D02*
X127930000Y-77840000D01*
D30*
X125360000Y-75270000D02*
X127930000Y-77840000D01*
D28*
X123557500Y-78800000D02*
X124640000Y-78800000D01*
D30*
X123840000Y-75270000D02*
X125360000Y-75270000D01*
D28*
X124640000Y-78800000D02*
X125600000Y-77840000D01*
%TO.N,+3V3*%
X117490000Y-54290000D02*
X120400000Y-57200000D01*
X123400000Y-89400000D02*
X113200000Y-89400000D01*
X108800000Y-80000000D02*
X109300000Y-80500000D01*
X121000000Y-56600000D02*
X120400000Y-57200000D01*
X146600000Y-87200000D02*
X146000000Y-87800000D01*
X109673000Y-67927000D02*
X108800000Y-68800000D01*
X122162500Y-56600000D02*
X121000000Y-56600000D01*
X111000000Y-87200000D02*
X111000000Y-80500000D01*
X111600000Y-72600000D02*
X112000000Y-73000000D01*
X142200000Y-87800000D02*
X146000000Y-87800000D01*
X107800000Y-66000000D02*
X107800000Y-61600000D01*
X125200000Y-87600000D02*
X123400000Y-89400000D01*
X112000000Y-75200000D02*
X111400000Y-75800000D01*
X108800000Y-71800000D02*
X109600000Y-72600000D01*
X129460000Y-86000000D02*
X127860000Y-87600000D01*
X108800000Y-68800000D02*
X108800000Y-71800000D01*
X109300000Y-80500000D02*
X110400000Y-80500000D01*
X109600000Y-75800000D02*
X108800000Y-76600000D01*
X127860000Y-87600000D02*
X125200000Y-87600000D01*
X112000000Y-73000000D02*
X112000000Y-75200000D01*
X108800000Y-76600000D02*
X108800000Y-80000000D01*
X146600000Y-86050000D02*
X146600000Y-87200000D01*
X113200000Y-89400000D02*
X111000000Y-87200000D01*
X129460000Y-86000000D02*
X132260000Y-88800000D01*
X111400000Y-75800000D02*
X109600000Y-75800000D01*
X117490000Y-54290000D02*
X104000000Y-54290000D01*
X141200000Y-88800000D02*
X142200000Y-87800000D01*
X109727000Y-67927000D02*
X107800000Y-66000000D01*
X132260000Y-88800000D02*
X141200000Y-88800000D01*
X109600000Y-72600000D02*
X111600000Y-72600000D01*
D30*
%TO.N,Net-(J8-Pin_3)*%
X131000000Y-69200000D02*
X130200000Y-70000000D01*
X118600000Y-81200000D02*
X117120000Y-82680000D01*
X130200000Y-70000000D02*
X130200000Y-79400000D01*
X133600000Y-57200000D02*
X131000000Y-59800000D01*
X128400000Y-81200000D02*
X118600000Y-81200000D01*
X117120000Y-82680000D02*
X117120000Y-86800000D01*
X130200000Y-79400000D02*
X128400000Y-81200000D01*
X131000000Y-59800000D02*
X131000000Y-69200000D01*
X143135000Y-57200000D02*
X133600000Y-57200000D01*
%TO.N,Net-(J8-Pin_1)*%
X129600000Y-84400000D02*
X122600000Y-84400000D01*
X134200000Y-68675000D02*
X134200000Y-70600000D01*
X122200000Y-84800000D02*
X122200000Y-86800000D01*
X134200000Y-70600000D02*
X133400000Y-71400000D01*
X133400000Y-80600000D02*
X129600000Y-84400000D01*
X133400000Y-71400000D02*
X133400000Y-80600000D01*
X122600000Y-84400000D02*
X122200000Y-84800000D01*
X138055000Y-64820000D02*
X134200000Y-68675000D01*
%TO.N,Net-(J8-Pin_2)*%
X120400000Y-82800000D02*
X119660000Y-83540000D01*
X142855000Y-62000000D02*
X134200000Y-62000000D01*
X119660000Y-83540000D02*
X119660000Y-86800000D01*
X132600000Y-69800000D02*
X131800000Y-70600000D01*
X132600000Y-63600000D02*
X132600000Y-69800000D01*
X142855000Y-62000000D02*
X145675000Y-64820000D01*
X129000000Y-82800000D02*
X120400000Y-82800000D01*
X131800000Y-80000000D02*
X129000000Y-82800000D01*
X134200000Y-62000000D02*
X132600000Y-63600000D01*
X131800000Y-70600000D02*
X131800000Y-80000000D01*
%TO.N,Net-(J9-Pin_2)*%
X136860000Y-84060000D02*
X136200000Y-83400000D01*
X137200000Y-75800000D02*
X143670000Y-75800000D01*
X136200000Y-76800000D02*
X137200000Y-75800000D01*
X136860000Y-86800000D02*
X136860000Y-84060000D01*
X143670000Y-75800000D02*
X145710000Y-77840000D01*
X136200000Y-83400000D02*
X136200000Y-76800000D01*
%TO.N,Net-(J9-Pin_1)*%
X138090000Y-82490000D02*
X139400000Y-83800000D01*
X139400000Y-83800000D02*
X139400000Y-86800000D01*
X138090000Y-77840000D02*
X138090000Y-82490000D01*
%TO.N,Net-(J9-Pin_3)*%
X135000000Y-72220000D02*
X137000000Y-70220000D01*
X134320000Y-86800000D02*
X134320000Y-84280000D01*
X135000000Y-83600000D02*
X135000000Y-72220000D01*
X137000000Y-70220000D02*
X143170000Y-70220000D01*
X134320000Y-84280000D02*
X135000000Y-83600000D01*
D28*
%TO.N,Net-(Q4-B)*%
X119682000Y-65600000D02*
X120000000Y-65282000D01*
X120842500Y-65282000D02*
X120000000Y-65282000D01*
X118570000Y-65600000D02*
X119682000Y-65600000D01*
%TO.N,Net-(Q5-B)*%
X121682500Y-77850000D02*
X120200000Y-77850000D01*
X119850000Y-78200000D02*
X120200000Y-77850000D01*
X118570000Y-78200000D02*
X119850000Y-78200000D01*
%TO.N,Net-(R6-Pad1)*%
X115470000Y-78200000D02*
X115470000Y-76435000D01*
X115470000Y-76435000D02*
X118040000Y-73865000D01*
%TO.N,Net-(R7-Pad1)*%
X111000000Y-64827000D02*
X111957000Y-63870000D01*
X111957000Y-60200000D02*
X111957000Y-63870000D01*
X110514000Y-58757000D02*
X111957000Y-60200000D01*
%TO.N,Net-(R8-Pad1)*%
X111600000Y-77400000D02*
X110400000Y-77400000D01*
X112600000Y-76400000D02*
X111600000Y-77400000D01*
X111725000Y-71325000D02*
X112600000Y-72200000D01*
X110420000Y-71325000D02*
X111725000Y-71325000D01*
X112600000Y-72200000D02*
X112600000Y-76400000D01*
%TO.N,Net-(R9-Pad1)*%
X115470000Y-65600000D02*
X115470000Y-63847000D01*
X115470000Y-63847000D02*
X118020000Y-61297000D01*
%TD*%
M02*
