M48
; DRILL file {KiCad 7.0.9} date Wednesday, December 13, 2023 at 01:10:01 AM
; FORMAT={-:-/ absolute / inch / decimal}
; #@! TF.CreationDate,2023-12-13T01:10:01-05:00
; #@! TF.GenerationSoftware,Kicad,Pcbnew,7.0.9
; #@! TF.FileFunction,Plated,1,2,PTH
FMAT,2
INCH
; #@! TA.AperFunction,Plated,PTH,ViaDrill
T1C0.0157
; #@! TA.AperFunction,Plated,PTH,ComponentDrill
T2C0.0300
; #@! TA.AperFunction,Plated,PTH,ComponentDrill
T3C0.0315
; #@! TA.AperFunction,Plated,PTH,ComponentDrill
T4C0.0394
; #@! TA.AperFunction,Plated,PTH,ComponentDrill
T5C0.0433
; #@! TA.AperFunction,Plated,PTH,ComponentDrill
T6C0.0512
%
G90
G05
T1
X4.5469Y-4.845
X4.7219Y-4.845
X4.8219Y-3.995
X5.1231Y-3.5938
X5.3219Y-3.495
X5.3469Y-3.595
X5.3469Y-3.945
X5.3969Y-3.645
X5.66Y-4.02
X5.9219Y-4.745
X6.2343Y-4.07
X6.42Y-3.58
X6.6469Y-3.495
X6.94Y-4.52
X6.96Y-4.02
X6.9969Y-3.545
T2
X5.6Y-4.55
X5.6Y-4.65
X5.6Y-4.75
X5.6Y-4.85
X5.6Y-4.95
X5.6Y-5.05
X5.6Y-5.15
X5.6Y-5.25
X6.3Y-4.55
X6.3Y-4.65
X6.3Y-4.75
X6.3Y-4.85
X6.3Y-4.95
X6.3Y-5.05
X6.3Y-5.15
X6.3Y-5.25
T3
X3.9469Y-3.345
X3.9469Y-4.245
X4.0469Y-3.345
X4.0469Y-4.245
X4.1469Y-3.345
X4.1469Y-4.245
X4.2469Y-3.345
X4.2469Y-4.245
X4.3469Y-3.345
X4.3469Y-4.245
X4.4469Y-3.345
X4.4469Y-4.245
X4.5469Y-3.345
X4.5469Y-4.245
X4.6469Y-3.345
X4.6469Y-4.245
X4.7469Y-3.345
X4.7469Y-4.245
X4.8469Y-3.345
X4.8469Y-4.245
X4.9469Y-3.345
X4.9469Y-4.245
X5.0469Y-3.345
X5.0469Y-4.245
X5.1469Y-3.345
X5.1469Y-4.245
X5.2469Y-3.345
X5.2469Y-4.245
X5.3469Y-3.345
X5.3469Y-4.245
X5.7223Y-3.7698
X5.7223Y-3.8698
X5.7223Y-4.1698
X5.7223Y-4.2698
X6.0223Y-3.7698
X6.0223Y-3.8698
X6.0223Y-4.1698
X6.0223Y-4.2698
T4
X4.0469Y-4.495
X4.0469Y-4.595
X4.0469Y-4.695
X4.0469Y-4.795
X6.589Y-3.7043
X6.589Y-4.1767
X6.589Y-4.37
X6.589Y-4.8424
T5
X3.7469Y-4.595
X3.7469Y-4.695
X4.016Y-5.0428
X4.016Y-5.22
X4.2719Y-5.0428
X4.2719Y-5.22
X4.566Y-5.0428
X4.566Y-5.22
X4.8219Y-5.0428
X4.8219Y-5.22
X5.1148Y-5.0428
X5.1148Y-5.22
X5.3707Y-5.0428
X5.3707Y-5.22
X5.7969Y-3.37
X5.8969Y-3.37
X6.1219Y-3.37
X6.2219Y-3.37
X6.54Y-5.16
X6.5469Y-3.37
X6.64Y-5.16
X6.6469Y-3.37
X6.74Y-5.16
X6.7469Y-3.37
X6.9719Y-3.37
X6.98Y-5.16
X7.0719Y-3.37
X7.08Y-5.16
X7.1719Y-3.37
X7.18Y-5.16
X7.4219Y-3.92
X7.4219Y-4.02
X7.4219Y-4.12
X7.4219Y-4.57
X7.4219Y-4.67
X7.4219Y-4.77
T6
X6.5123Y-3.9385
X6.5123Y-4.6043
X7.0694Y-4.1767
X7.0694Y-4.8424
X7.0713Y-3.7023
X7.0713Y-4.368
T0
M30
