%TF.GenerationSoftware,KiCad,Pcbnew,7.0.9*%
%TF.CreationDate,2023-11-22T22:11:39-05:00*%
%TF.ProjectId,MQTT Relay,4d515454-2052-4656-9c61-792e6b696361,rev?*%
%TF.SameCoordinates,Original*%
%TF.FileFunction,Copper,L2,Bot*%
%TF.FilePolarity,Positive*%
%FSLAX46Y46*%
G04 Gerber Fmt 4.6, Leading zero omitted, Abs format (unit mm)*
G04 Created by KiCad (PCBNEW 7.0.9) date 2023-11-22 22:11:39*
%MOMM*%
%LPD*%
G01*
G04 APERTURE LIST*
%TA.AperFunction,ComponentPad*%
%ADD10R,2.200000X2.200000*%
%TD*%
%TA.AperFunction,ComponentPad*%
%ADD11C,2.200000*%
%TD*%
%TA.AperFunction,ComponentPad*%
%ADD12C,2.000000*%
%TD*%
%TA.AperFunction,ComponentPad*%
%ADD13O,1.200000X2.000000*%
%TD*%
%TA.AperFunction,ComponentPad*%
%ADD14R,1.700000X1.700000*%
%TD*%
%TA.AperFunction,ComponentPad*%
%ADD15O,1.700000X1.700000*%
%TD*%
%TA.AperFunction,ComponentPad*%
%ADD16R,1.600000X1.600000*%
%TD*%
%TA.AperFunction,ComponentPad*%
%ADD17O,1.600000X1.600000*%
%TD*%
%TA.AperFunction,ComponentPad*%
%ADD18C,3.000000*%
%TD*%
%TA.AperFunction,ComponentPad*%
%ADD19C,2.500000*%
%TD*%
%TA.AperFunction,ComponentPad*%
%ADD20C,1.524000*%
%TD*%
%TA.AperFunction,ViaPad*%
%ADD21C,0.800000*%
%TD*%
%TA.AperFunction,Conductor*%
%ADD22C,0.500000*%
%TD*%
%TA.AperFunction,Conductor*%
%ADD23C,0.250000*%
%TD*%
%TA.AperFunction,Conductor*%
%ADD24C,1.000000*%
%TD*%
G04 APERTURE END LIST*
D10*
%TO.P,J1,1,Pin_1*%
%TO.N,GND*%
X95171500Y-116713000D03*
D11*
%TO.P,J1,2,Pin_2*%
%TO.N,VCC*%
X95171500Y-119253000D03*
%TD*%
D10*
%TO.P,J2,1,Pin_1*%
%TO.N,GND*%
X166291500Y-131318000D03*
D11*
%TO.P,J2,2,Pin_2*%
%TO.N,Net-(J2-Pin_2)*%
X168831500Y-131318000D03*
%TO.P,J2,3,Pin_3*%
%TO.N,+3V3*%
X171371500Y-131318000D03*
%TD*%
D10*
%TO.P,J3,1,Pin_1*%
%TO.N,GND*%
X149781500Y-85598000D03*
D11*
%TO.P,J3,2,Pin_2*%
%TO.N,Net-(A1-SD3)*%
X147241500Y-85598000D03*
%TD*%
D10*
%TO.P,J4,1,Pin_1*%
%TO.N,GND*%
X158036500Y-85598000D03*
D11*
%TO.P,J4,2,Pin_2*%
%TO.N,Net-(A1-D7)*%
X155496500Y-85598000D03*
%TD*%
D10*
%TO.P,J5,1,Pin_1*%
%TO.N,GND*%
X171371500Y-85598000D03*
D11*
%TO.P,J5,2,Pin_2*%
%TO.N,Net-(A1-D3)*%
X168831500Y-85598000D03*
%TO.P,J5,3,Pin_3*%
%TO.N,+3V3*%
X166291500Y-85598000D03*
%TD*%
D10*
%TO.P,J6,1,Pin_1*%
%TO.N,GND*%
X182166500Y-85598000D03*
D11*
%TO.P,J6,2,Pin_2*%
%TO.N,Net-(D3-K)*%
X179626500Y-85598000D03*
%TO.P,J6,3,Pin_3*%
%TO.N,+3V3*%
X177086500Y-85598000D03*
%TD*%
D12*
%TO.P,SW1,1,1*%
%TO.N,Net-(A1-SD3)*%
X115976500Y-128088000D03*
X122476500Y-128088000D03*
%TO.P,SW1,2,2*%
%TO.N,GND*%
X115976500Y-132588000D03*
X122476500Y-132588000D03*
%TD*%
%TO.P,SW2,1,1*%
%TO.N,Net-(A1-D7)*%
X129916500Y-128088000D03*
X136416500Y-128088000D03*
%TO.P,SW2,2,2*%
%TO.N,GND*%
X129916500Y-132588000D03*
X136416500Y-132588000D03*
%TD*%
D13*
%TO.P,A1,1,3V3*%
%TO.N,+3V3*%
X100251500Y-107823000D03*
%TO.P,A1,2,GND*%
%TO.N,GND*%
X102791500Y-107823000D03*
%TO.P,A1,3,TX*%
%TO.N,unconnected-(A1-TX-Pad3)*%
X105331500Y-107823000D03*
%TO.P,A1,4,RX*%
%TO.N,Net-(A1-RX)*%
X107871500Y-107823000D03*
%TO.P,A1,5,D8*%
%TO.N,unconnected-(A1-D8-Pad5)*%
X110411500Y-107823000D03*
%TO.P,A1,6,D7*%
%TO.N,Net-(A1-D7)*%
X112951500Y-107823000D03*
%TO.P,A1,7,D6*%
%TO.N,/~{CFG}*%
X115491500Y-107823000D03*
%TO.P,A1,8,D5*%
%TO.N,Net-(A1-D5)*%
X118031500Y-107823000D03*
%TO.P,A1,9,GND*%
%TO.N,GND*%
X120571500Y-107823000D03*
%TO.P,A1,10,3V3*%
%TO.N,+3V3*%
X123111500Y-107823000D03*
%TO.P,A1,11,D4*%
%TO.N,Net-(A1-D4)*%
X125651500Y-107823000D03*
%TO.P,A1,12,D3*%
%TO.N,Net-(A1-D3)*%
X128191500Y-107823000D03*
%TO.P,A1,13,D2*%
%TO.N,Net-(A1-D2)*%
X130731500Y-107823000D03*
%TO.P,A1,14,D1*%
%TO.N,Net-(A1-D1)*%
X133271500Y-107823000D03*
%TO.P,A1,15,D0*%
%TO.N,unconnected-(A1-D0-Pad15)*%
X135811500Y-107823000D03*
%TO.P,A1,16,A0*%
%TO.N,unconnected-(A1-A0-Pad16)*%
X135811500Y-84963000D03*
%TO.P,A1,17*%
%TO.N,N/C*%
X133271500Y-84963000D03*
%TO.P,A1,18*%
X130731500Y-84963000D03*
%TO.P,A1,19,SD3*%
%TO.N,Net-(A1-SD3)*%
X128191500Y-84963000D03*
%TO.P,A1,20,SD2*%
%TO.N,unconnected-(A1-SD2-Pad20)*%
X125651500Y-84963000D03*
%TO.P,A1,21,SD1*%
%TO.N,unconnected-(A1-SD1-Pad21)*%
X123111500Y-84963000D03*
%TO.P,A1,22,CMD*%
%TO.N,unconnected-(A1-CMD-Pad22)*%
X120571500Y-84963000D03*
%TO.P,A1,23,SD0*%
%TO.N,unconnected-(A1-SD0-Pad23)*%
X118031500Y-84963000D03*
%TO.P,A1,24,CLK*%
%TO.N,unconnected-(A1-CLK-Pad24)*%
X115491500Y-84963000D03*
%TO.P,A1,25,GND*%
%TO.N,GND*%
X112951500Y-84963000D03*
%TO.P,A1,26,3V3*%
%TO.N,+3V3*%
X110411500Y-84963000D03*
%TO.P,A1,27,EN*%
%TO.N,unconnected-(A1-EN-Pad27)*%
X107871500Y-84963000D03*
%TO.P,A1,28,~{RST}*%
%TO.N,unconnected-(A1-~{RST}-Pad28)*%
X105331500Y-84963000D03*
%TO.P,A1,29,GND*%
%TO.N,GND*%
X102791500Y-84963000D03*
%TO.P,A1,30,V+*%
%TO.N,VCC*%
X100251500Y-84963000D03*
%TD*%
D12*
%TO.P,SW3,1,1*%
%TO.N,/~{CFG}*%
X102006500Y-128088000D03*
X108506500Y-128088000D03*
%TO.P,SW3,2,2*%
%TO.N,GND*%
X102006500Y-132588000D03*
X108506500Y-132588000D03*
%TD*%
D14*
%TO.P,U1,1,GND*%
%TO.N,GND*%
X102791500Y-121793000D03*
D15*
%TO.P,U1,2,VCC*%
%TO.N,+3V3*%
X102791500Y-119253000D03*
%TO.P,U1,3,SCL*%
%TO.N,Net-(A1-D1)*%
X102791500Y-116713000D03*
%TO.P,U1,4,SDA*%
%TO.N,Net-(A1-D2)*%
X102791500Y-114173000D03*
%TD*%
D10*
%TO.P,J7,1,Pin_1*%
%TO.N,GND*%
X177086500Y-131318000D03*
D11*
%TO.P,J7,2,Pin_2*%
%TO.N,Net-(J7-Pin_2)*%
X179626500Y-131318000D03*
%TO.P,J7,3,Pin_3*%
%TO.N,Net-(J7-Pin_3)*%
X182166500Y-131318000D03*
%TD*%
D10*
%TO.P,J8,1,Pin_1*%
%TO.N,Net-(J8-Pin_1)*%
X188516500Y-104648000D03*
D11*
%TO.P,J8,2,Pin_2*%
%TO.N,Net-(J8-Pin_2)*%
X188516500Y-102108000D03*
%TO.P,J8,3,Pin_3*%
%TO.N,Net-(J8-Pin_3)*%
X188516500Y-99568000D03*
%TD*%
D16*
%TO.P,U4,1*%
%TO.N,Net-(R8-Pad1)*%
X145346500Y-105913000D03*
D17*
%TO.P,U4,2*%
%TO.N,Net-(D3-A)*%
X145346500Y-108453000D03*
%TO.P,U4,3*%
%TO.N,Net-(R6-Pad1)*%
X152966500Y-108453000D03*
%TO.P,U4,4*%
%TO.N,VCC*%
X152966500Y-105913000D03*
%TD*%
D18*
%TO.P,K2,1*%
%TO.N,Net-(J9-Pin_1)*%
X165411500Y-116948000D03*
D19*
%TO.P,K2,2*%
%TO.N,Net-(D4-A)*%
X167361500Y-122998000D03*
D18*
%TO.P,K2,3*%
%TO.N,Net-(J9-Pin_2)*%
X179561500Y-122998000D03*
%TO.P,K2,4*%
%TO.N,Net-(J9-Pin_3)*%
X179611500Y-110948000D03*
D19*
%TO.P,K2,5*%
%TO.N,VCC*%
X167361500Y-110998000D03*
%TD*%
D10*
%TO.P,J9,1,Pin_1*%
%TO.N,Net-(J9-Pin_1)*%
X188516500Y-121158000D03*
D11*
%TO.P,J9,2,Pin_2*%
%TO.N,Net-(J9-Pin_2)*%
X188516500Y-118618000D03*
%TO.P,J9,3,Pin_3*%
%TO.N,Net-(J9-Pin_3)*%
X188516500Y-116078000D03*
%TD*%
D16*
%TO.P,U3,1*%
%TO.N,Net-(R7-Pad1)*%
X145346500Y-95753000D03*
D17*
%TO.P,U3,2*%
%TO.N,Net-(D1-A)*%
X145346500Y-98293000D03*
%TO.P,U3,3*%
%TO.N,Net-(R9-Pad1)*%
X152966500Y-98293000D03*
%TO.P,U3,4*%
%TO.N,VCC*%
X152966500Y-95753000D03*
%TD*%
D18*
%TO.P,K1,1*%
%TO.N,Net-(J8-Pin_1)*%
X165411500Y-100038000D03*
D19*
%TO.P,K1,2*%
%TO.N,Net-(D2-A)*%
X167361500Y-106088000D03*
D18*
%TO.P,K1,3*%
%TO.N,Net-(J8-Pin_2)*%
X179561500Y-106088000D03*
%TO.P,K1,4*%
%TO.N,Net-(J8-Pin_3)*%
X179611500Y-94038000D03*
D19*
%TO.P,K1,5*%
%TO.N,VCC*%
X167361500Y-94088000D03*
%TD*%
D20*
%TO.P,U2,1,VCC*%
%TO.N,VCC*%
X142161500Y-115443000D03*
%TO.P,U2,2,RX*%
%TO.N,Net-(U2-RX)*%
X142161500Y-117983000D03*
%TO.P,U2,3,TX*%
%TO.N,Net-(A1-D7)*%
X142161500Y-120523000D03*
%TO.P,U2,4,DAC_R*%
%TO.N,Net-(J7-Pin_2)*%
X142161500Y-123063000D03*
%TO.P,U2,5,DAC_L*%
%TO.N,Net-(J7-Pin_3)*%
X142161500Y-125603000D03*
%TO.P,U2,6,SPK-*%
%TO.N,unconnected-(U2-SPK--Pad6)*%
X142161500Y-128143000D03*
%TO.P,U2,7,GND*%
%TO.N,GND*%
X142161500Y-130683000D03*
%TO.P,U2,8,SPK+*%
%TO.N,unconnected-(U2-SPK+-Pad8)*%
X142161500Y-133223000D03*
%TO.P,U2,9,IO1*%
%TO.N,unconnected-(U2-IO1-Pad9)*%
X159941500Y-133223000D03*
%TO.P,U2,10,GND*%
%TO.N,GND*%
X159941500Y-130683000D03*
%TO.P,U2,11,IO2*%
%TO.N,unconnected-(U2-IO2-Pad11)*%
X159941500Y-128143000D03*
%TO.P,U2,12,ADKEY1*%
%TO.N,unconnected-(U2-ADKEY1-Pad12)*%
X159941500Y-125603000D03*
%TO.P,U2,13,ADKEY2*%
%TO.N,unconnected-(U2-ADKEY2-Pad13)*%
X159941500Y-123063000D03*
%TO.P,U2,14,USB+*%
%TO.N,unconnected-(U2-USB+-Pad14)*%
X159941500Y-120523000D03*
%TO.P,U2,15,USB-*%
%TO.N,unconnected-(U2-USB--Pad15)*%
X159941500Y-117983000D03*
%TO.P,U2,16,BUSY*%
%TO.N,unconnected-(U2-BUSY-Pad16)*%
X159941500Y-115443000D03*
%TD*%
D21*
%TO.N,GND*%
X158351500Y-103378000D03*
%TO.N,Net-(A1-RX)*%
X122476500Y-101473000D03*
%TO.N,+3V3*%
X163068000Y-90932000D03*
%TO.N,Net-(A1-D7)*%
X135176500Y-88773000D03*
%TO.N,Net-(A1-D4)*%
X130126500Y-91283000D03*
%TO.N,/~{CFG}*%
X115491500Y-123063000D03*
%TO.N,Net-(A1-D3)*%
X168831500Y-88773000D03*
X135811500Y-91313000D03*
%TO.N,Net-(A1-SD3)*%
X119936500Y-123063000D03*
%TO.N,Net-(D3-K)*%
X177721500Y-90043000D03*
X176784000Y-102108000D03*
%TO.N,Net-(D3-A)*%
X164386500Y-114173000D03*
%TO.N,Net-(J2-Pin_2)*%
X135811500Y-100203000D03*
X150416500Y-120523000D03*
%TD*%
D22*
%TO.N,GND*%
X102791500Y-121793000D02*
X100886500Y-121793000D01*
X177086500Y-129413000D02*
X177086500Y-131318000D01*
X158351500Y-103378000D02*
X158351500Y-92898000D01*
X102791500Y-86233000D02*
X102791500Y-107823000D01*
X99299000Y-120205500D02*
X99299000Y-118300500D01*
X104061500Y-87503000D02*
X102791500Y-86233000D01*
X158351500Y-92898000D02*
X158036500Y-92583000D01*
X112951500Y-84963000D02*
X112951500Y-86233000D01*
X111681500Y-87503000D02*
X104061500Y-87503000D01*
X102791500Y-107823000D02*
X95171500Y-115443000D01*
X166291500Y-131318000D02*
X166291500Y-129413000D01*
X112951500Y-86233000D02*
X111681500Y-87503000D01*
X95171500Y-115443000D02*
X95171500Y-116713000D01*
X95171500Y-116713000D02*
X97711500Y-116713000D01*
X102006500Y-132588000D02*
X139621500Y-132588000D01*
X100886500Y-121793000D02*
X99299000Y-120205500D01*
X140256500Y-132588000D02*
X142161500Y-130683000D01*
X158036500Y-92583000D02*
X158036500Y-85598000D01*
X166291500Y-129413000D02*
X177086500Y-129413000D01*
X136416500Y-132588000D02*
X140256500Y-132588000D01*
X97711500Y-116713000D02*
X99299000Y-118300500D01*
X102791500Y-84963000D02*
X102791500Y-86233000D01*
D23*
%TO.N,Net-(A1-RX)*%
X111681500Y-101473000D02*
X107871500Y-105283000D01*
X122476500Y-101473000D02*
X111681500Y-101473000D01*
X107871500Y-105283000D02*
X107871500Y-107823000D01*
D22*
%TO.N,+3V3*%
X173657500Y-90932000D02*
X174712750Y-89876750D01*
X166291500Y-87503000D02*
X165656500Y-88138000D01*
X163068000Y-90932000D02*
X163068000Y-90726500D01*
X174712750Y-89876750D02*
X177086500Y-87503000D01*
X177086500Y-87503000D02*
X177086500Y-85598000D01*
X165656500Y-88138000D02*
X163751500Y-90043000D01*
X163068000Y-90932000D02*
X173657500Y-90932000D01*
X163068000Y-90726500D02*
X163751500Y-90043000D01*
X174546500Y-90043000D02*
X174712750Y-89876750D01*
X166291500Y-85598000D02*
X166291500Y-87503000D01*
D23*
%TO.N,Net-(A1-D7)*%
X155496500Y-85598000D02*
X155496500Y-86868000D01*
X155496500Y-86868000D02*
X154861500Y-87503000D01*
X136416500Y-128088000D02*
X129916500Y-128088000D01*
X127431500Y-125603000D02*
X129916500Y-128088000D01*
X114856500Y-125603000D02*
X127431500Y-125603000D01*
X154861500Y-87503000D02*
X136446500Y-87503000D01*
X112951500Y-107823000D02*
X112951500Y-123698000D01*
X114856500Y-125603000D02*
X112951500Y-123698000D01*
X136446500Y-87503000D02*
X135176500Y-88773000D01*
%TO.N,Net-(A1-D4)*%
X125651500Y-95758000D02*
X130126500Y-91283000D01*
X125651500Y-107823000D02*
X125651500Y-95758000D01*
%TO.N,/~{CFG}*%
X108506500Y-128088000D02*
X102006500Y-128088000D01*
X115491500Y-123063000D02*
X115491500Y-107823000D01*
%TO.N,Net-(A1-D3)*%
X128191500Y-98933000D02*
X128191500Y-107823000D01*
X135811500Y-91313000D02*
X128191500Y-98933000D01*
X168831500Y-85598000D02*
X168831500Y-88773000D01*
%TO.N,Net-(A1-SD3)*%
X119936500Y-123063000D02*
X119936500Y-118618000D01*
X122476500Y-128088000D02*
X115976500Y-128088000D01*
X121841500Y-105918000D02*
X124381500Y-103378000D01*
X128191500Y-88773000D02*
X128191500Y-84963000D01*
X121841500Y-116713000D02*
X121841500Y-105918000D01*
X124381500Y-92583000D02*
X128191500Y-88773000D01*
X119936500Y-118618000D02*
X121841500Y-116713000D01*
X124381500Y-103378000D02*
X124381500Y-92583000D01*
%TO.N,VCC*%
X138351500Y-119253000D02*
X138351500Y-130048000D01*
X152966500Y-105913000D02*
X162276500Y-105913000D01*
X114856500Y-130365500D02*
X110094000Y-125603000D01*
X97076500Y-125603000D02*
X95171500Y-123698000D01*
X142161500Y-115443000D02*
X138351500Y-119253000D01*
X138034000Y-130365500D02*
X114856500Y-130365500D01*
X141526500Y-115443000D02*
X142161500Y-115443000D01*
X110094000Y-125603000D02*
X97076500Y-125603000D01*
X138351500Y-130048000D02*
X138034000Y-130365500D01*
X95171500Y-123698000D02*
X95171500Y-119253000D01*
X162276500Y-105913000D02*
X167361500Y-110998000D01*
%TO.N,Net-(D3-K)*%
X179626500Y-88138000D02*
X179626500Y-85598000D01*
X176784000Y-102108000D02*
X176784000Y-90980500D01*
X177721500Y-90043000D02*
X179626500Y-88138000D01*
X176784000Y-90980500D02*
X177721500Y-90043000D01*
%TO.N,Net-(D3-A)*%
X161211500Y-110998000D02*
X147891500Y-110998000D01*
X147891500Y-110998000D02*
X145346500Y-108453000D01*
X164386500Y-114173000D02*
X161211500Y-110998000D01*
%TO.N,Net-(J2-Pin_2)*%
X150416500Y-120523000D02*
X140256500Y-110363000D01*
X140256500Y-110363000D02*
X140256500Y-104648000D01*
X140256500Y-104648000D02*
X135811500Y-100203000D01*
%TO.N,Net-(J7-Pin_2)*%
X144066500Y-123063000D02*
X147876500Y-126873000D01*
X179626500Y-129762366D02*
X179626500Y-131318000D01*
X177689634Y-127825500D02*
X179626500Y-129762366D01*
X147876500Y-126873000D02*
X157401500Y-126873000D01*
X162481500Y-126873000D02*
X163434000Y-127825500D01*
X142161500Y-123063000D02*
X144066500Y-123063000D01*
X157401500Y-126873000D02*
X162481500Y-126873000D01*
X163434000Y-127825500D02*
X177689634Y-127825500D01*
%TO.N,Net-(J7-Pin_3)*%
X140256500Y-122428000D02*
X140256500Y-124333000D01*
X140891500Y-121793000D02*
X140256500Y-122428000D01*
X147241500Y-124333000D02*
X144701500Y-121793000D01*
X140256500Y-124333000D02*
X141526500Y-125603000D01*
X182166500Y-130048000D02*
X178991500Y-126873000D01*
X164386500Y-126873000D02*
X161846500Y-124333000D01*
X178991500Y-126873000D02*
X164386500Y-126873000D01*
X182166500Y-131318000D02*
X182166500Y-130048000D01*
X141526500Y-125603000D02*
X142161500Y-125603000D01*
X144701500Y-121793000D02*
X140891500Y-121793000D01*
X161846500Y-124333000D02*
X147241500Y-124333000D01*
D24*
%TO.N,Net-(J8-Pin_2)*%
X183541500Y-102108000D02*
X179561500Y-106088000D01*
X188516500Y-102108000D02*
X183541500Y-102108000D01*
%TO.N,Net-(J8-Pin_3)*%
X188516500Y-99568000D02*
X185141500Y-99568000D01*
X185141500Y-99568000D02*
X179611500Y-94038000D01*
%TO.N,Net-(J9-Pin_2)*%
X183941500Y-118618000D02*
X179561500Y-122998000D01*
X188516500Y-118618000D02*
X183941500Y-118618000D01*
%TO.N,Net-(J9-Pin_3)*%
X184741500Y-116078000D02*
X179611500Y-110948000D01*
X188516500Y-116078000D02*
X184741500Y-116078000D01*
%TD*%
M02*
