%TF.GenerationSoftware,KiCad,Pcbnew,(6.0.7-1)-1*%
%TF.CreationDate,2022-09-17T00:17:16-04:00*%
%TF.ProjectId,MQTT Relay,4d515454-2052-4656-9c61-792e6b696361,rev?*%
%TF.SameCoordinates,Original*%
%TF.FileFunction,Soldermask,Bot*%
%TF.FilePolarity,Negative*%
%FSLAX46Y46*%
G04 Gerber Fmt 4.6, Leading zero omitted, Abs format (unit mm)*
G04 Created by KiCad (PCBNEW (6.0.7-1)-1) date 2022-09-17 00:17:16*
%MOMM*%
%LPD*%
G01*
G04 APERTURE LIST*
G04 Aperture macros list*
%AMRoundRect*
0 Rectangle with rounded corners*
0 $1 Rounding radius*
0 $2 $3 $4 $5 $6 $7 $8 $9 X,Y pos of 4 corners*
0 Add a 4 corners polygon primitive as box body*
4,1,4,$2,$3,$4,$5,$6,$7,$8,$9,$2,$3,0*
0 Add four circle primitives for the rounded corners*
1,1,$1+$1,$2,$3*
1,1,$1+$1,$4,$5*
1,1,$1+$1,$6,$7*
1,1,$1+$1,$8,$9*
0 Add four rect primitives between the rounded corners*
20,1,$1+$1,$2,$3,$4,$5,0*
20,1,$1+$1,$4,$5,$6,$7,0*
20,1,$1+$1,$6,$7,$8,$9,0*
20,1,$1+$1,$8,$9,$2,$3,0*%
G04 Aperture macros list end*
%ADD10C,1.200000*%
%ADD11RoundRect,0.050000X-1.100000X-1.100000X1.100000X-1.100000X1.100000X1.100000X-1.100000X1.100000X0*%
%ADD12C,2.300000*%
%ADD13RoundRect,0.050000X1.100000X1.100000X-1.100000X1.100000X-1.100000X-1.100000X1.100000X-1.100000X0*%
%ADD14C,1.624000*%
%ADD15RoundRect,0.050000X1.100000X-1.100000X1.100000X1.100000X-1.100000X1.100000X-1.100000X-1.100000X0*%
%ADD16RoundRect,0.050000X-1.100000X1.100000X-1.100000X-1.100000X1.100000X-1.100000X1.100000X1.100000X0*%
%ADD17C,2.100000*%
%ADD18C,1.700000*%
%ADD19O,1.700000X1.700000*%
%ADD20O,1.300000X2.100000*%
%ADD21C,3.300000*%
%ADD22RoundRect,0.050000X0.850000X0.850000X-0.850000X0.850000X-0.850000X-0.850000X0.850000X-0.850000X0*%
%ADD23O,1.800000X1.800000*%
G04 APERTURE END LIST*
D10*
%TO.C,J4*%
X130810000Y-88900000D03*
X128270000Y-88900000D03*
D11*
X128270000Y-86360000D03*
D12*
X130810000Y-86360000D03*
%TD*%
D10*
%TO.C,J6*%
X148590000Y-38100000D03*
X143510000Y-38100000D03*
X146050000Y-38100000D03*
D13*
X148590000Y-40640000D03*
D12*
X146050000Y-40640000D03*
X143510000Y-40640000D03*
%TD*%
D14*
%TO.C,U2*%
X130810000Y-67945000D03*
X133350000Y-67945000D03*
X135890000Y-67945000D03*
X138430000Y-67945000D03*
X140970000Y-67945000D03*
X143510000Y-67945000D03*
X146050000Y-67945000D03*
X148590000Y-67945000D03*
X148590000Y-48895000D03*
X146050000Y-48895000D03*
X143510000Y-48895000D03*
X140970000Y-48895000D03*
X138430000Y-48895000D03*
X135890000Y-48895000D03*
X133350000Y-48895000D03*
X130810000Y-48895000D03*
%TD*%
D12*
%TO.C,J7*%
X147320000Y-73025000D03*
X147320000Y-75565000D03*
D15*
X147320000Y-78105000D03*
D10*
X149860000Y-78105000D03*
X149860000Y-75565000D03*
X149860000Y-73025000D03*
%TD*%
%TO.C,J3*%
X135890000Y-88900000D03*
X138430000Y-88900000D03*
D11*
X135890000Y-86360000D03*
D12*
X138430000Y-86360000D03*
%TD*%
D10*
%TO.C,J1*%
X74930000Y-77470000D03*
X74930000Y-80010000D03*
D16*
X77470000Y-77470000D03*
D12*
X77470000Y-80010000D03*
%TD*%
D10*
%TO.C,J5*%
X133350000Y-38100000D03*
X135890000Y-38100000D03*
X138430000Y-38100000D03*
D13*
X138430000Y-40640000D03*
D12*
X135890000Y-40640000D03*
X133350000Y-40640000D03*
%TD*%
D17*
%TO.C,SW2*%
X119500000Y-39370000D03*
X113000000Y-39370000D03*
X113000000Y-43870000D03*
X119500000Y-43870000D03*
%TD*%
D18*
%TO.C,R5*%
X128905000Y-71755000D03*
D19*
X139065000Y-71755000D03*
%TD*%
D10*
%TO.C,J2*%
X149860000Y-82550000D03*
X149860000Y-87630000D03*
X149860000Y-85090000D03*
D15*
X147320000Y-87630000D03*
D12*
X147320000Y-85090000D03*
X147320000Y-82550000D03*
%TD*%
D18*
%TO.C,R1*%
X124460000Y-59690000D03*
D19*
X124460000Y-49530000D03*
%TD*%
D18*
%TO.C,R3*%
X96520000Y-55880000D03*
D19*
X96520000Y-66040000D03*
%TD*%
D18*
%TO.C,R4*%
X101600000Y-55880000D03*
D19*
X101600000Y-66040000D03*
%TD*%
D17*
%TO.C,SW1*%
X99060000Y-39370000D03*
X105560000Y-39370000D03*
X99060000Y-43870000D03*
X105560000Y-43870000D03*
%TD*%
D18*
%TO.C,R2*%
X106680000Y-55880000D03*
D19*
X106680000Y-66040000D03*
%TD*%
D20*
%TO.C,A1*%
X83820000Y-72390000D03*
X86360000Y-72390000D03*
X88900000Y-72390000D03*
X91440000Y-72390000D03*
X93980000Y-72390000D03*
X96520000Y-72390000D03*
X99060000Y-72390000D03*
X101600000Y-72390000D03*
X104140000Y-72390000D03*
X106680000Y-72390000D03*
X109220000Y-72390000D03*
X111760000Y-72390000D03*
X114300000Y-72390000D03*
X116840000Y-72390000D03*
X119380000Y-72390000D03*
X119380000Y-49530000D03*
X116840000Y-49530000D03*
X114300000Y-49530000D03*
X111760000Y-49530000D03*
X109220000Y-49530000D03*
X106680000Y-49530000D03*
X104140000Y-49530000D03*
X101600000Y-49530000D03*
X99060000Y-49530000D03*
X96520000Y-49530000D03*
X93980000Y-49530000D03*
X91440000Y-49530000D03*
X88900000Y-49530000D03*
X86360000Y-49530000D03*
X83820000Y-49530000D03*
%TD*%
D21*
%TO.C,REF\u002A\u002A*%
X77470000Y-86360000D03*
%TD*%
%TO.C,e*%
X125730000Y-78740000D03*
%TD*%
%TO.C,REF\u002A\u002A*%
X77470000Y-40640000D03*
%TD*%
%TO.C,REF\u002A\u002A*%
X127000000Y-40640000D03*
%TD*%
D17*
%TO.C,SW3*%
X85090000Y-39370000D03*
X91590000Y-39370000D03*
X85090000Y-43870000D03*
X91590000Y-43870000D03*
%TD*%
D22*
%TO.C,U1*%
X85090000Y-86360000D03*
D23*
X85090000Y-83820000D03*
X85090000Y-81280000D03*
X85090000Y-78740000D03*
%TD*%
M02*
