%TF.GenerationSoftware,KiCad,Pcbnew,(6.0.7-1)-1*%
%TF.CreationDate,2022-09-17T00:17:16-04:00*%
%TF.ProjectId,MQTT Relay,4d515454-2052-4656-9c61-792e6b696361,rev?*%
%TF.SameCoordinates,Original*%
%TF.FileFunction,Copper,L1,Top*%
%TF.FilePolarity,Positive*%
%FSLAX46Y46*%
G04 Gerber Fmt 4.6, Leading zero omitted, Abs format (unit mm)*
G04 Created by KiCad (PCBNEW (6.0.7-1)-1) date 2022-09-17 00:17:16*
%MOMM*%
%LPD*%
G01*
G04 APERTURE LIST*
%TA.AperFunction,ComponentPad*%
%ADD10R,2.200000X2.200000*%
%TD*%
%TA.AperFunction,ComponentPad*%
%ADD11C,2.200000*%
%TD*%
%TA.AperFunction,ComponentPad*%
%ADD12C,1.524000*%
%TD*%
%TA.AperFunction,ComponentPad*%
%ADD13C,2.000000*%
%TD*%
%TA.AperFunction,ComponentPad*%
%ADD14C,1.600000*%
%TD*%
%TA.AperFunction,ComponentPad*%
%ADD15O,1.600000X1.600000*%
%TD*%
%TA.AperFunction,ComponentPad*%
%ADD16O,1.200000X2.000000*%
%TD*%
%TA.AperFunction,ComponentPad*%
%ADD17R,1.700000X1.700000*%
%TD*%
%TA.AperFunction,ComponentPad*%
%ADD18O,1.700000X1.700000*%
%TD*%
%TA.AperFunction,ViaPad*%
%ADD19C,0.800000*%
%TD*%
%TA.AperFunction,Conductor*%
%ADD20C,0.500000*%
%TD*%
%TA.AperFunction,Conductor*%
%ADD21C,0.250000*%
%TD*%
G04 APERTURE END LIST*
D10*
%TO.P,J4,1,Pin_1*%
%TO.N,GND*%
X128270000Y-86360000D03*
D11*
%TO.P,J4,2,Pin_2*%
%TO.N,Net-(A1-Pad6)*%
X130810000Y-86360000D03*
%TD*%
D10*
%TO.P,J6,1,Pin_1*%
%TO.N,GND*%
X148590000Y-40640000D03*
D11*
%TO.P,J6,2,Pin_2*%
%TO.N,Net-(A1-Pad11)*%
X146050000Y-40640000D03*
%TO.P,J6,3,Pin_3*%
%TO.N,+3V3*%
X143510000Y-40640000D03*
%TD*%
D12*
%TO.P,U2,1,VCC*%
%TO.N,Net-(A1-Pad30)*%
X130810000Y-67945000D03*
%TO.P,U2,2,RX*%
%TO.N,Net-(R5-Pad2)*%
X133350000Y-67945000D03*
%TO.P,U2,3,TX*%
%TO.N,Net-(A1-Pad6)*%
X135890000Y-67945000D03*
%TO.P,U2,4,DAC_R*%
%TO.N,Net-(J7-Pad2)*%
X138430000Y-67945000D03*
%TO.P,U2,5,DAC_L*%
%TO.N,Net-(J7-Pad3)*%
X140970000Y-67945000D03*
%TO.P,U2,6,SPK-*%
%TO.N,unconnected-(U2-Pad6)*%
X143510000Y-67945000D03*
%TO.P,U2,7,GND*%
%TO.N,GND*%
X146050000Y-67945000D03*
%TO.P,U2,8,SPK+*%
%TO.N,unconnected-(U2-Pad8)*%
X148590000Y-67945000D03*
%TO.P,U2,9,IO1*%
%TO.N,unconnected-(U2-Pad9)*%
X148590000Y-48895000D03*
%TO.P,U2,10,GND*%
%TO.N,GND*%
X146050000Y-48895000D03*
%TO.P,U2,11,IO2*%
%TO.N,unconnected-(U2-Pad11)*%
X143510000Y-48895000D03*
%TO.P,U2,12,ADKEY1*%
%TO.N,unconnected-(U2-Pad12)*%
X140970000Y-48895000D03*
%TO.P,U2,13,ADKEY2*%
%TO.N,unconnected-(U2-Pad13)*%
X138430000Y-48895000D03*
%TO.P,U2,14,USB+*%
%TO.N,unconnected-(U2-Pad14)*%
X135890000Y-48895000D03*
%TO.P,U2,15,USB-*%
%TO.N,unconnected-(U2-Pad15)*%
X133350000Y-48895000D03*
%TO.P,U2,16,BUSY*%
%TO.N,unconnected-(U2-Pad16)*%
X130810000Y-48895000D03*
%TD*%
D11*
%TO.P,J7,3,Pin_3*%
%TO.N,Net-(J7-Pad3)*%
X147320000Y-73025000D03*
%TO.P,J7,2,Pin_2*%
%TO.N,Net-(J7-Pad2)*%
X147320000Y-75565000D03*
D10*
%TO.P,J7,1,Pin_1*%
%TO.N,GND*%
X147320000Y-78105000D03*
%TD*%
%TO.P,J3,1,Pin_1*%
%TO.N,GND*%
X135890000Y-86360000D03*
D11*
%TO.P,J3,2,Pin_2*%
%TO.N,Net-(A1-Pad19)*%
X138430000Y-86360000D03*
%TD*%
D10*
%TO.P,J1,1,Pin_1*%
%TO.N,GND*%
X77470000Y-77470000D03*
D11*
%TO.P,J1,2,Pin_2*%
%TO.N,Net-(A1-Pad30)*%
X77470000Y-80010000D03*
%TD*%
D10*
%TO.P,J5,1,Pin_1*%
%TO.N,GND*%
X138430000Y-40640000D03*
D11*
%TO.P,J5,2,Pin_2*%
%TO.N,Net-(A1-Pad12)*%
X135890000Y-40640000D03*
%TO.P,J5,3,Pin_3*%
%TO.N,+3V3*%
X133350000Y-40640000D03*
%TD*%
D13*
%TO.P,SW2,1,1*%
%TO.N,Net-(A1-Pad6)*%
X119500000Y-39370000D03*
X113000000Y-39370000D03*
%TO.P,SW2,2,2*%
%TO.N,GND*%
X113000000Y-43870000D03*
X119500000Y-43870000D03*
%TD*%
D14*
%TO.P,R5,1*%
%TO.N,Net-(A1-Pad11)*%
X128905000Y-71755000D03*
D15*
%TO.P,R5,2*%
%TO.N,Net-(R5-Pad2)*%
X139065000Y-71755000D03*
%TD*%
D10*
%TO.P,J2,1,Pin_1*%
%TO.N,GND*%
X147320000Y-87630000D03*
D11*
%TO.P,J2,2,Pin_2*%
%TO.N,Net-(A1-Pad8)*%
X147320000Y-85090000D03*
%TO.P,J2,3,Pin_3*%
%TO.N,+3V3*%
X147320000Y-82550000D03*
%TD*%
D14*
%TO.P,R1,1*%
%TO.N,+3V3*%
X124460000Y-59690000D03*
D15*
%TO.P,R1,2*%
%TO.N,Net-(A1-Pad8)*%
X124460000Y-49530000D03*
%TD*%
D14*
%TO.P,R3,1*%
%TO.N,+3V3*%
X96520000Y-55880000D03*
D15*
%TO.P,R3,2*%
%TO.N,Net-(A1-Pad6)*%
X96520000Y-66040000D03*
%TD*%
D14*
%TO.P,R4,1*%
%TO.N,+3V3*%
X101600000Y-55880000D03*
D15*
%TO.P,R4,2*%
%TO.N,/~{CFG}*%
X101600000Y-66040000D03*
%TD*%
D13*
%TO.P,SW1,1,1*%
%TO.N,Net-(A1-Pad19)*%
X99060000Y-39370000D03*
X105560000Y-39370000D03*
%TO.P,SW1,2,2*%
%TO.N,GND*%
X99060000Y-43870000D03*
X105560000Y-43870000D03*
%TD*%
D14*
%TO.P,R2,1*%
%TO.N,+3V3*%
X106680000Y-55880000D03*
D15*
%TO.P,R2,2*%
%TO.N,Net-(A1-Pad19)*%
X106680000Y-66040000D03*
%TD*%
D16*
%TO.P,A1,1,3V3*%
%TO.N,+3V3*%
X83820000Y-72390000D03*
%TO.P,A1,2,GND*%
%TO.N,GND*%
X86360000Y-72390000D03*
%TO.P,A1,3,TX*%
%TO.N,unconnected-(A1-Pad3)*%
X88900000Y-72390000D03*
%TO.P,A1,4,RX*%
%TO.N,unconnected-(A1-Pad4)*%
X91440000Y-72390000D03*
%TO.P,A1,5,D8*%
%TO.N,unconnected-(A1-Pad5)*%
X93980000Y-72390000D03*
%TO.P,A1,6,D7*%
%TO.N,Net-(A1-Pad6)*%
X96520000Y-72390000D03*
%TO.P,A1,7,D6*%
%TO.N,/~{CFG}*%
X99060000Y-72390000D03*
%TO.P,A1,8,D5*%
%TO.N,Net-(A1-Pad8)*%
X101600000Y-72390000D03*
%TO.P,A1,9,GND*%
%TO.N,GND*%
X104140000Y-72390000D03*
%TO.P,A1,10,3V3*%
%TO.N,+3V3*%
X106680000Y-72390000D03*
%TO.P,A1,11,D4*%
%TO.N,Net-(A1-Pad11)*%
X109220000Y-72390000D03*
%TO.P,A1,12,D3*%
%TO.N,Net-(A1-Pad12)*%
X111760000Y-72390000D03*
%TO.P,A1,13,D2*%
%TO.N,Net-(A1-Pad13)*%
X114300000Y-72390000D03*
%TO.P,A1,14,D1*%
%TO.N,Net-(A1-Pad14)*%
X116840000Y-72390000D03*
%TO.P,A1,15,D0*%
%TO.N,unconnected-(A1-Pad15)*%
X119380000Y-72390000D03*
%TO.P,A1,16,A0*%
%TO.N,unconnected-(A1-Pad16)*%
X119380000Y-49530000D03*
%TO.P,A1,17*%
%TO.N,N/C*%
X116840000Y-49530000D03*
%TO.P,A1,18*%
X114300000Y-49530000D03*
%TO.P,A1,19,SD3*%
%TO.N,Net-(A1-Pad19)*%
X111760000Y-49530000D03*
%TO.P,A1,20,SD2*%
%TO.N,unconnected-(A1-Pad20)*%
X109220000Y-49530000D03*
%TO.P,A1,21,SD1*%
%TO.N,unconnected-(A1-Pad21)*%
X106680000Y-49530000D03*
%TO.P,A1,22,CMD*%
%TO.N,unconnected-(A1-Pad22)*%
X104140000Y-49530000D03*
%TO.P,A1,23,SD0*%
%TO.N,unconnected-(A1-Pad23)*%
X101600000Y-49530000D03*
%TO.P,A1,24,CLK*%
%TO.N,unconnected-(A1-Pad24)*%
X99060000Y-49530000D03*
%TO.P,A1,25,GND*%
%TO.N,GND*%
X96520000Y-49530000D03*
%TO.P,A1,26,3V3*%
%TO.N,+3V3*%
X93980000Y-49530000D03*
%TO.P,A1,27,EN*%
%TO.N,unconnected-(A1-Pad27)*%
X91440000Y-49530000D03*
%TO.P,A1,28,~{RST}*%
%TO.N,unconnected-(A1-Pad28)*%
X88900000Y-49530000D03*
%TO.P,A1,29,GND*%
%TO.N,GND*%
X86360000Y-49530000D03*
%TO.P,A1,30,V+*%
%TO.N,Net-(A1-Pad30)*%
X83820000Y-49530000D03*
%TD*%
D13*
%TO.P,SW3,1,1*%
%TO.N,/~{CFG}*%
X85090000Y-39370000D03*
X91590000Y-39370000D03*
%TO.P,SW3,2,2*%
%TO.N,GND*%
X85090000Y-43870000D03*
X91590000Y-43870000D03*
%TD*%
D17*
%TO.P,U1,1,GND*%
%TO.N,GND*%
X85090000Y-86360000D03*
D18*
%TO.P,U1,2,VCC*%
%TO.N,+3V3*%
X85090000Y-83820000D03*
%TO.P,U1,3,SCL*%
%TO.N,Net-(A1-Pad14)*%
X85090000Y-81280000D03*
%TO.P,U1,4,SDA*%
%TO.N,Net-(A1-Pad13)*%
X85090000Y-78740000D03*
%TD*%
D19*
%TO.N,Net-(A1-Pad11)*%
X144780000Y-46355000D03*
%TO.N,Net-(A1-Pad30)*%
X118745000Y-77470000D03*
%TD*%
D20*
%TO.N,Net-(A1-Pad30)*%
X77470000Y-80010000D02*
X79375000Y-80010000D01*
X81280000Y-52070000D02*
X83820000Y-49530000D01*
X79375000Y-80010000D02*
X81280000Y-78105000D01*
X81280000Y-78105000D02*
X81280000Y-52070000D01*
%TO.N,GND*%
X99060000Y-43870000D02*
X96520000Y-46410000D01*
X96520000Y-46410000D02*
X96520000Y-49530000D01*
X85090000Y-43870000D02*
X86360000Y-45140000D01*
X86360000Y-45140000D02*
X86360000Y-49530000D01*
X85090000Y-43870000D02*
X119500000Y-43870000D01*
D21*
%TO.N,Net-(A1-Pad6)*%
X129895648Y-87909352D02*
X124739352Y-87909352D01*
X130810000Y-86995000D02*
X129895648Y-87909352D01*
X121285000Y-84455000D02*
X121285000Y-70485000D01*
X124739352Y-87909352D02*
X121285000Y-84455000D01*
%TO.N,Net-(R5-Pad2)*%
X133350000Y-67945000D02*
X137160000Y-71755000D01*
X137160000Y-71755000D02*
X139065000Y-71755000D01*
D20*
%TO.N,GND*%
X128270000Y-85725000D02*
X130175000Y-83820000D01*
X130175000Y-83820000D02*
X133350000Y-83820000D01*
X133350000Y-83820000D02*
X135890000Y-86360000D01*
%TO.N,+3V3*%
X124460000Y-59690000D02*
X124460000Y-69850000D01*
X130175000Y-75565000D02*
X140335000Y-75565000D01*
X124460000Y-69850000D02*
X130175000Y-75565000D01*
X140335000Y-75565000D02*
X147320000Y-82550000D01*
D21*
%TO.N,Net-(A1-Pad19)*%
X138430000Y-86360000D02*
X138430000Y-81915000D01*
X138430000Y-81915000D02*
X133985000Y-77470000D01*
X133985000Y-77470000D02*
X130175000Y-77470000D01*
%TO.N,Net-(A1-Pad11)*%
X144780000Y-46355000D02*
X146050000Y-45085000D01*
X146050000Y-45085000D02*
X146050000Y-40640000D01*
D20*
%TO.N,+3V3*%
X133350000Y-41910000D02*
X134620000Y-43180000D01*
X133350000Y-40640000D02*
X133350000Y-41910000D01*
X134620000Y-43180000D02*
X140970000Y-43180000D01*
X140970000Y-43180000D02*
X143510000Y-40640000D01*
D21*
%TO.N,Net-(A1-Pad8)*%
X124460000Y-49530000D02*
X127000000Y-49530000D01*
X127000000Y-49530000D02*
X129540000Y-52070000D01*
X150368000Y-70104000D02*
X148844000Y-71628000D01*
X148844000Y-83566000D02*
X147320000Y-85090000D01*
X129540000Y-52070000D02*
X147701000Y-52070000D01*
X150368000Y-54737000D02*
X150368000Y-70104000D01*
X147701000Y-52070000D02*
X150368000Y-54737000D01*
X148844000Y-71628000D02*
X148844000Y-83566000D01*
%TO.N,Net-(A1-Pad19)*%
X130175000Y-77470000D02*
X118745000Y-66040000D01*
X118745000Y-66040000D02*
X106680000Y-66040000D01*
%TO.N,Net-(J7-Pad2)*%
X138430000Y-67945000D02*
X146050000Y-75565000D01*
X146050000Y-75565000D02*
X147320000Y-75565000D01*
%TO.N,Net-(J7-Pad3)*%
X147320000Y-73025000D02*
X146050000Y-73025000D01*
X146050000Y-73025000D02*
X140970000Y-67945000D01*
D20*
%TO.N,Net-(A1-Pad30)*%
X107315000Y-88900000D02*
X118745000Y-77470000D01*
X77470000Y-82550000D02*
X83820000Y-88900000D01*
X77470000Y-80010000D02*
X77470000Y-82550000D01*
X83820000Y-88900000D02*
X107315000Y-88900000D01*
D21*
%TO.N,Net-(A1-Pad6)*%
X119380000Y-68580000D02*
X105410000Y-68580000D01*
X119380000Y-68580000D02*
X121285000Y-70485000D01*
X104140000Y-64770000D02*
X102870000Y-63500000D01*
X99060000Y-63500000D02*
X96520000Y-66040000D01*
X105410000Y-68580000D02*
X104140000Y-67310000D01*
X104140000Y-67310000D02*
X104140000Y-64770000D01*
X102870000Y-63500000D02*
X99060000Y-63500000D01*
%TO.N,GND*%
X85090000Y-43870000D02*
X91590000Y-43870000D01*
X118840000Y-44450000D02*
X118260000Y-43870000D01*
X118260000Y-43870000D02*
X85090000Y-43870000D01*
%TO.N,+3V3*%
X83820000Y-72390000D02*
X83820000Y-73660000D01*
X96520000Y-55880000D02*
X93980000Y-58420000D01*
X83820000Y-71120000D02*
X85090000Y-69850000D01*
X95250000Y-73660000D02*
X96520000Y-74930000D01*
X95250000Y-71120000D02*
X95250000Y-73660000D01*
X120650000Y-55880000D02*
X96520000Y-55880000D01*
X93980000Y-58420000D02*
X93980000Y-69850000D01*
X96520000Y-74930000D02*
X105410000Y-74930000D01*
X105410000Y-74930000D02*
X106680000Y-73660000D01*
X93980000Y-53340000D02*
X96520000Y-55880000D01*
X82550000Y-74930000D02*
X82550000Y-81280000D01*
X93980000Y-49530000D02*
X93980000Y-53340000D01*
X82550000Y-81280000D02*
X85090000Y-83820000D01*
X83820000Y-72390000D02*
X83820000Y-71120000D01*
X83820000Y-73660000D02*
X82550000Y-74930000D01*
X124460000Y-59690000D02*
X120650000Y-55880000D01*
X93980000Y-69850000D02*
X95250000Y-71120000D01*
X106680000Y-73660000D02*
X106680000Y-72390000D01*
X85090000Y-69850000D02*
X93980000Y-69850000D01*
%TO.N,Net-(A1-Pad6)*%
X96520000Y-66040000D02*
X96520000Y-72390000D01*
%TO.N,/~{CFG}*%
X101600000Y-66040000D02*
X99060000Y-68580000D01*
X99060000Y-68580000D02*
X99060000Y-72390000D01*
%TO.N,Net-(A1-Pad13)*%
X114300000Y-72390000D02*
X107950000Y-78740000D01*
X107950000Y-78740000D02*
X85090000Y-78740000D01*
%TO.N,Net-(A1-Pad14)*%
X107950000Y-81280000D02*
X85090000Y-81280000D01*
X116840000Y-72390000D02*
X107950000Y-81280000D01*
%TD*%
M02*
